<svg width="669" height="401" viewBox="0 0 669 401" fill="none" xmlns="http://www.w3.org/2000/svg">
<rect x="20" y="16.3682" width="649" height="384" rx="50" fill="#090A0E"/>
<rect x="2.5" y="2.86816" width="645" height="379" rx="47.5" fill="white" stroke="#090A0E" stroke-width="5"/>
<path d="M245.4 162H249.45L250.15 160.075H256.075L256.8 162H260.825L253.3 143.475H252.925L245.4 162ZM251.45 156.725L253.125 152.075L254.75 156.725H251.45ZM279.363 147.7V144.125H270.438V162H274.013V154.85H278.563V151.275H274.013V147.7H279.363ZM279.921 162H283.971L284.671 160.075H290.596L291.321 162H295.346L287.821 143.475H287.446L279.921 162ZM285.971 156.725L287.646 152.075L289.271 156.725H285.971ZM297.029 160.85C299.454 162.1 301.679 162.225 302.679 162.15C306.029 161.975 308.079 159.7 308.079 156.725C308.079 153.875 305.679 152.275 302.904 151.25C301.879 150.9 301.004 150.45 300.904 149.45C300.829 148.45 301.404 147.525 302.679 147.45C303.229 147.425 304.354 147.4 306.329 148.2L306.779 144.75C304.479 143.95 303.254 143.95 302.329 144C299.354 144.15 297.279 146.45 297.279 149.45C297.279 152.45 299.779 153.875 302.579 154.9C303.579 155.25 304.354 155.7 304.429 156.725C304.529 157.7 303.629 158.45 302.579 158.525C301.754 158.6 299.529 158.55 297.479 157.1L297.029 160.85ZM317.612 162V147.7H322.062V144.15H309.587V147.7H314.037V162H317.612ZM338.213 162.375L345.613 144.125H341.488L339.088 150.2L337.813 153.775L336.513 150.075L334.138 144.125H330.013L337.413 162.375H338.213ZM344.399 162H348.449L349.149 160.075H355.074L355.799 162H359.824L352.299 143.475H351.924L344.399 162ZM350.449 156.725L352.124 152.075L353.749 156.725H350.449ZM375.157 155.775V144.125H371.607V155.75C371.607 159.5 365.807 159.5 365.807 155.75V144.125H362.232V155.775C362.232 164.275 375.157 164.275 375.157 155.775ZM379.104 144.125V162H388.354V158.425H382.679V144.125H379.104ZM397.959 162V147.7H402.409V144.15H389.934V147.7H394.384V162H397.959Z" fill="#090A0E"/>
<path d="M84.5146 180.444H85.7188L90.8779 192.679H89.0498L87.8105 189.602H82.3789L81.1484 192.679H79.3555L84.5146 180.444ZM87.248 188.196L85.1035 182.835L82.9502 188.196H87.248ZM92.8643 179.6H94.6221V189.242C94.6221 190.402 94.8857 191.085 95.4131 191.29C95.5889 191.36 95.7764 191.395 95.9756 191.395C96.1748 191.395 96.3535 191.372 96.5117 191.325V192.679L96.1865 192.714C96.0811 192.725 95.9785 192.731 95.8789 192.731C94.7539 192.731 93.9424 192.362 93.4443 191.624C93.0576 191.044 92.8643 190.253 92.8643 189.251V179.6ZM98.876 179.6H100.634V189.242C100.634 190.402 100.897 191.085 101.425 191.29C101.601 191.36 101.788 191.395 101.987 191.395C102.187 191.395 102.365 191.372 102.523 191.325V192.679L102.198 192.714C102.093 192.725 101.99 192.731 101.891 192.731C100.766 192.731 99.9541 192.362 99.4561 191.624C99.0693 191.044 98.876 190.253 98.876 189.251V179.6ZM115.109 180.919C114.898 180.849 114.605 180.813 114.23 180.813C113.855 180.813 113.557 180.849 113.334 180.919C113.117 180.989 112.944 181.092 112.815 181.226C112.593 181.467 112.481 181.859 112.481 182.404V183.608H114.749V184.953H112.481V192.679H110.724V184.953H109.634V184.127L110.724 183.608V182.641C110.724 182.026 110.776 181.563 110.882 181.253C110.993 180.942 111.125 180.684 111.277 180.479C111.43 180.274 111.635 180.096 111.893 179.943C112.438 179.621 113.202 179.46 114.187 179.46C114.597 179.46 114.904 179.483 115.109 179.53V180.919ZM118.563 180.972C118.563 181.306 118.452 181.563 118.229 181.745C118.013 181.921 117.74 182.009 117.412 182.009C117.084 182.009 116.812 181.921 116.595 181.745C116.384 181.563 116.278 181.306 116.278 180.972C116.278 180.632 116.384 180.374 116.595 180.198C116.812 180.022 117.084 179.934 117.412 179.934C117.74 179.934 118.013 180.022 118.229 180.198C118.452 180.374 118.563 180.632 118.563 180.972ZM116.507 183.608H118.265V192.679H116.507V183.608ZM121.411 179.6H123.169V189.242C123.169 190.402 123.433 191.085 123.96 191.29C124.136 191.36 124.323 191.395 124.522 191.395C124.722 191.395 124.9 191.372 125.059 191.325V192.679L124.733 192.714C124.628 192.725 124.525 192.731 124.426 192.731C123.301 192.731 122.489 192.362 121.991 191.624C121.604 191.044 121.411 190.253 121.411 189.251V179.6ZM131.281 192.819C127.965 192.819 126.307 191.199 126.307 187.959C126.307 186.564 126.767 185.448 127.687 184.61C128.513 183.849 129.456 183.468 130.517 183.468C131.671 183.468 132.573 183.854 133.224 184.628C133.827 185.349 134.129 186.312 134.129 187.519V188.205H128.135C128.135 189.863 128.812 190.877 130.165 191.246C130.487 191.334 130.982 191.378 131.65 191.378C132.324 191.378 132.983 191.287 133.628 191.105V192.591C132.983 192.743 132.201 192.819 131.281 192.819ZM132.371 186.913C132.371 186.35 132.216 185.876 131.905 185.489C131.542 185.044 131.041 184.821 130.402 184.821C129.729 184.821 129.181 185.035 128.759 185.463C128.372 185.861 128.179 186.345 128.179 186.913H132.371ZM138.286 192.819C137.554 192.819 136.812 192.766 136.062 192.661V191.105C136.824 191.287 137.598 191.378 138.383 191.378C139.953 191.378 140.738 191.047 140.738 190.385C140.738 190.133 140.677 189.945 140.554 189.822C140.372 189.629 140.085 189.435 139.692 189.242L138.409 188.653C137.577 188.237 137.038 187.903 136.792 187.651C136.329 187.182 136.098 186.626 136.098 185.981C136.098 185.255 136.435 184.663 137.108 184.206C137.835 183.714 138.854 183.468 140.167 183.468C140.829 183.468 141.497 183.515 142.171 183.608V185.111C141.433 184.976 140.788 184.909 140.237 184.909C139.692 184.909 139.268 184.944 138.963 185.015C138.664 185.085 138.438 185.173 138.286 185.278C138.046 185.442 137.926 185.656 137.926 185.92C137.926 186.178 138.008 186.389 138.172 186.553C138.342 186.711 138.605 186.884 138.963 187.071L140.255 187.695C141.099 188.135 141.641 188.472 141.881 188.706C142.338 189.151 142.566 189.711 142.566 190.385C142.566 191.105 142.203 191.685 141.477 192.125C140.715 192.588 139.651 192.819 138.286 192.819ZM151.461 191.061C151.268 190.727 151.112 190.335 150.995 189.884C150.884 189.432 150.828 188.844 150.828 188.117C150.828 187.391 150.983 186.723 151.294 186.113C151.61 185.498 152.021 184.994 152.524 184.601C153.503 183.846 154.719 183.468 156.172 183.468C156.928 183.468 157.499 183.485 157.886 183.52C157.886 183.52 158.17 183.55 158.738 183.608V192.679H157.156L157.086 191.633C156.734 192.101 156.198 192.45 155.478 192.679C155.202 192.766 154.918 192.81 154.625 192.81C154.338 192.81 154.054 192.781 153.772 192.723C153.491 192.664 153.21 192.567 152.929 192.432C152.653 192.298 152.39 192.119 152.138 191.896C151.886 191.668 151.66 191.39 151.461 191.061ZM156.98 184.9C156.605 184.853 156.23 184.83 155.855 184.83C155.486 184.83 155.091 184.897 154.669 185.032C154.247 185.161 153.887 185.366 153.588 185.647C152.967 186.233 152.656 187.127 152.656 188.328C152.656 189.465 152.923 190.306 153.456 190.85C153.86 191.255 154.347 191.457 154.915 191.457C155.647 191.457 156.251 191.19 156.726 190.657C156.843 190.522 156.928 190.402 156.98 190.297V184.9ZM167.316 185.217C166.994 185.123 166.607 185.076 166.156 185.076C165.711 185.076 165.345 185.123 165.058 185.217C164.771 185.305 164.519 185.413 164.302 185.542C163.903 185.776 163.613 186.04 163.432 186.333V192.679H161.674V183.608H163.361L163.432 184.865C163.871 184.314 164.513 183.901 165.356 183.626C165.661 183.52 166.01 183.468 166.402 183.468C166.795 183.468 167.1 183.497 167.316 183.556V185.217ZM173.293 192.819C169.977 192.819 168.318 191.199 168.318 187.959C168.318 186.564 168.778 185.448 169.698 184.61C170.524 183.849 171.468 183.468 172.528 183.468C173.683 183.468 174.585 183.854 175.235 184.628C175.839 185.349 176.141 186.312 176.141 187.519V188.205H170.146C170.146 189.863 170.823 190.877 172.177 191.246C172.499 191.334 172.994 191.378 173.662 191.378C174.336 191.378 174.995 191.287 175.64 191.105V192.591C174.995 192.743 174.213 192.819 173.293 192.819ZM174.383 186.913C174.383 186.35 174.228 185.876 173.917 185.489C173.554 185.044 173.053 184.821 172.414 184.821C171.74 184.821 171.192 185.035 170.771 185.463C170.384 185.861 170.19 186.345 170.19 186.913H174.383ZM185.439 184.601C185.949 184.209 186.521 183.922 187.153 183.74C187.792 183.558 188.349 183.468 188.823 183.468C189.298 183.468 189.664 183.479 189.922 183.503V179.6H191.671V192.679H190.098L190.027 191.633C189.67 192.107 189.128 192.459 188.401 192.687C188.12 192.775 187.833 192.819 187.54 192.819C187.253 192.819 186.969 192.79 186.688 192.731C186.406 192.673 186.125 192.576 185.844 192.441C185.568 192.301 185.305 192.119 185.053 191.896C184.801 191.668 184.575 191.39 184.376 191.061C183.954 190.341 183.743 189.488 183.743 188.504C183.743 187.519 183.898 186.723 184.209 186.113C184.525 185.498 184.936 184.994 185.439 184.601ZM186.503 185.647C186.204 185.929 185.973 186.292 185.809 186.737C185.65 187.177 185.571 187.713 185.571 188.346C185.571 188.973 185.647 189.491 185.8 189.901C185.952 190.306 186.143 190.622 186.371 190.85C186.775 191.261 187.262 191.466 187.83 191.466C188.562 191.466 189.169 191.196 189.649 190.657C189.772 190.522 189.86 190.402 189.913 190.297V184.891L189.737 184.874C189.468 184.839 189.146 184.821 188.771 184.821C188.401 184.821 188.006 184.889 187.584 185.023C187.162 185.152 186.802 185.36 186.503 185.647ZM198.799 192.819C195.482 192.819 193.824 191.199 193.824 187.959C193.824 186.564 194.284 185.448 195.204 184.61C196.03 183.849 196.974 183.468 198.034 183.468C199.188 183.468 200.091 183.854 200.741 184.628C201.345 185.349 201.646 186.312 201.646 187.519V188.205H195.652C195.652 189.863 196.329 190.877 197.683 191.246C198.005 191.334 198.5 191.378 199.168 191.378C199.842 191.378 200.501 191.287 201.146 191.105V192.591C200.501 192.743 199.719 192.819 198.799 192.819ZM199.889 186.913C199.889 186.35 199.733 185.876 199.423 185.489C199.06 185.044 198.559 184.821 197.92 184.821C197.246 184.821 196.698 185.035 196.276 185.463C195.89 185.861 195.696 186.345 195.696 186.913H199.889ZM203.958 179.6H205.716V189.242C205.716 190.402 205.979 191.085 206.507 191.29C206.683 191.36 206.87 191.395 207.069 191.395C207.269 191.395 207.447 191.372 207.605 191.325V192.679L207.28 192.714C207.175 192.725 207.072 192.731 206.973 192.731C205.848 192.731 205.036 192.362 204.538 191.624C204.151 191.044 203.958 190.253 203.958 189.251V179.6ZM213.828 192.819C210.512 192.819 208.854 191.199 208.854 187.959C208.854 186.564 209.313 185.448 210.233 184.61C211.06 183.849 212.003 183.468 213.063 183.468C214.218 183.468 215.12 183.854 215.771 184.628C216.374 185.349 216.676 186.312 216.676 187.519V188.205H210.682C210.682 189.863 211.358 190.877 212.712 191.246C213.034 191.334 213.529 191.378 214.197 191.378C214.871 191.378 215.53 191.287 216.175 191.105V192.591C215.53 192.743 214.748 192.819 213.828 192.819ZM214.918 186.913C214.918 186.35 214.763 185.876 214.452 185.489C214.089 185.044 213.588 184.821 212.949 184.821C212.275 184.821 211.728 185.035 211.306 185.463C210.919 185.861 210.726 186.345 210.726 186.913H214.918ZM221.87 191.29C222.063 191.36 222.356 191.395 222.749 191.395C223.142 191.395 223.47 191.349 223.733 191.255V192.661C223.61 192.69 223.432 192.708 223.197 192.714L222.644 192.731C222.521 192.731 222.427 192.731 222.362 192.731C221.231 192.731 220.396 192.362 219.857 191.624C219.424 191.026 219.207 190.235 219.207 189.251V184.953H217.906V184.127L219.207 183.608L219.629 181.358H220.965V183.608H223.777V184.953H220.965V189.242C220.965 190.391 221.267 191.073 221.87 191.29ZM230.352 192.819C227.035 192.819 225.377 191.199 225.377 187.959C225.377 186.564 225.837 185.448 226.757 184.61C227.583 183.849 228.526 183.468 229.587 183.468C230.741 183.468 231.644 183.854 232.294 184.628C232.897 185.349 233.199 186.312 233.199 187.519V188.205H227.205C227.205 189.863 227.882 190.877 229.235 191.246C229.558 191.334 230.053 191.378 230.721 191.378C231.395 191.378 232.054 191.287 232.698 191.105V192.591C232.054 192.743 231.271 192.819 230.352 192.819ZM231.441 186.913C231.441 186.35 231.286 185.876 230.976 185.489C230.612 185.044 230.111 184.821 229.473 184.821C228.799 184.821 228.251 185.035 227.829 185.463C227.442 185.861 227.249 186.345 227.249 186.913H231.441ZM236.504 184.601C237.014 184.209 237.585 183.922 238.218 183.74C238.856 183.558 239.413 183.468 239.888 183.468C240.362 183.468 240.729 183.479 240.986 183.503V179.6H242.735V192.679H241.162L241.092 191.633C240.734 192.107 240.192 192.459 239.466 192.687C239.185 192.775 238.897 192.819 238.604 192.819C238.317 192.819 238.033 192.79 237.752 192.731C237.471 192.673 237.189 192.576 236.908 192.441C236.633 192.301 236.369 192.119 236.117 191.896C235.865 191.668 235.64 191.39 235.44 191.061C235.019 190.341 234.808 189.488 234.808 188.504C234.808 187.519 234.963 186.723 235.273 186.113C235.59 185.498 236 184.994 236.504 184.601ZM237.567 185.647C237.269 185.929 237.037 186.292 236.873 186.737C236.715 187.177 236.636 187.713 236.636 188.346C236.636 188.973 236.712 189.491 236.864 189.901C237.017 190.306 237.207 190.622 237.436 190.85C237.84 191.261 238.326 191.466 238.895 191.466C239.627 191.466 240.233 191.196 240.714 190.657C240.837 190.522 240.925 190.402 240.978 190.297V184.891L240.802 184.874C240.532 184.839 240.21 184.821 239.835 184.821C239.466 184.821 239.07 184.889 238.648 185.023C238.227 185.152 237.866 185.36 237.567 185.647ZM252.025 191.061C251.832 190.727 251.677 190.335 251.56 189.884C251.448 189.432 251.393 188.844 251.393 188.117C251.393 187.391 251.548 186.723 251.858 186.113C252.175 185.498 252.585 184.994 253.089 184.601C254.067 183.846 255.283 183.468 256.736 183.468C257.492 183.468 258.063 183.485 258.45 183.52C258.45 183.52 258.734 183.55 259.303 183.608V192.679H257.721L257.65 191.633C257.299 192.101 256.763 192.45 256.042 192.679C255.767 192.766 255.482 192.81 255.189 192.81C254.902 192.81 254.618 192.781 254.337 192.723C254.056 192.664 253.774 192.567 253.493 192.432C253.218 192.298 252.954 192.119 252.702 191.896C252.45 191.668 252.225 191.39 252.025 191.061ZM257.545 184.9C257.17 184.853 256.795 184.83 256.42 184.83C256.051 184.83 255.655 184.897 255.233 185.032C254.812 185.161 254.451 185.366 254.152 185.647C253.531 186.233 253.221 187.127 253.221 188.328C253.221 189.465 253.487 190.306 254.021 190.85C254.425 191.255 254.911 191.457 255.479 191.457C256.212 191.457 256.815 191.19 257.29 190.657C257.407 190.522 257.492 190.402 257.545 190.297V184.9ZM266.721 180.919C266.51 180.849 266.217 180.813 265.842 180.813C265.467 180.813 265.168 180.849 264.945 180.919C264.729 180.989 264.556 181.092 264.427 181.226C264.204 181.467 264.093 181.859 264.093 182.404V183.608H266.36V184.953H264.093V192.679H262.335V184.953H261.245V184.127L262.335 183.608V182.641C262.335 182.026 262.388 181.563 262.493 181.253C262.604 180.942 262.736 180.684 262.889 180.479C263.041 180.274 263.246 180.096 263.504 179.943C264.049 179.621 264.813 179.46 265.798 179.46C266.208 179.46 266.516 179.483 266.721 179.53V180.919ZM271.388 191.29C271.581 191.36 271.874 191.395 272.267 191.395C272.659 191.395 272.987 191.349 273.251 191.255V192.661C273.128 192.69 272.949 192.708 272.715 192.714L272.161 192.731C272.038 192.731 271.944 192.731 271.88 192.731C270.749 192.731 269.914 192.362 269.375 191.624C268.941 191.026 268.725 190.235 268.725 189.251V184.953H267.424V184.127L268.725 183.608L269.146 181.358H270.482V183.608H273.295V184.953H270.482V189.242C270.482 190.391 270.784 191.073 271.388 191.29ZM279.869 192.819C276.553 192.819 274.895 191.199 274.895 187.959C274.895 186.564 275.354 185.448 276.274 184.61C277.101 183.849 278.044 183.468 279.104 183.468C280.259 183.468 281.161 183.854 281.812 184.628C282.415 185.349 282.717 186.312 282.717 187.519V188.205H276.723C276.723 189.863 277.399 190.877 278.753 191.246C279.075 191.334 279.57 191.378 280.238 191.378C280.912 191.378 281.571 191.287 282.216 191.105V192.591C281.571 192.743 280.789 192.819 279.869 192.819ZM280.959 186.913C280.959 186.35 280.804 185.876 280.493 185.489C280.13 185.044 279.629 184.821 278.99 184.821C278.316 184.821 277.769 185.035 277.347 185.463C276.96 185.861 276.767 186.345 276.767 186.913H280.959ZM290.416 185.217C290.094 185.123 289.707 185.076 289.256 185.076C288.811 185.076 288.444 185.123 288.157 185.217C287.87 185.305 287.618 185.413 287.401 185.542C287.003 185.776 286.713 186.04 286.531 186.333V192.679H284.773V183.608H286.461L286.531 184.865C286.971 184.314 287.612 183.901 288.456 183.626C288.761 183.52 289.109 183.468 289.502 183.468C289.895 183.468 290.199 183.497 290.416 183.556V185.217ZM298.282 180.972C299.308 180.807 300.204 180.725 300.972 180.725C301.745 180.725 302.398 180.781 302.932 180.892C303.471 181.004 303.925 181.153 304.294 181.341C304.669 181.522 304.971 181.73 305.199 181.965C305.428 182.199 305.604 182.442 305.727 182.694C305.932 183.104 306.034 183.532 306.034 183.977C306.034 184.423 305.967 184.83 305.832 185.199C305.703 185.562 305.516 185.932 305.27 186.307C305.023 186.682 304.722 187.071 304.364 187.475L303.169 188.794L300.884 191.132H306.025V192.679H297.983V191.87L301.701 188.099L302.888 186.843C303.55 186.116 303.966 185.501 304.136 184.997C304.229 184.727 304.276 184.473 304.276 184.232C304.276 183.986 304.241 183.755 304.171 183.538C304.101 183.321 303.951 183.122 303.723 182.94C303.189 182.507 302.346 182.29 301.191 182.29C300.037 182.29 299.067 182.413 298.282 182.659V180.972ZM307.801 189.093L312.679 180.725H314.753L310.288 188.205H314.498V185.762H316.273V188.205H317.275V189.752H316.273V192.679H314.498V189.752H307.801V189.093ZM329.246 184.979C328.379 184.979 327.605 185.275 326.926 185.867V192.679H325.168V179.6H326.926V184.584C327.875 183.84 328.856 183.468 329.87 183.468C330.954 183.468 331.748 183.79 332.252 184.434C332.779 185.114 333.043 186.21 333.043 187.722V192.679H331.285V187.722C331.285 186.268 330.89 185.401 330.099 185.12C329.847 185.026 329.562 184.979 329.246 184.979ZM335.073 188.126C335.073 186.702 335.527 185.548 336.436 184.663C337.285 183.837 338.337 183.424 339.591 183.424C340.821 183.424 341.85 183.837 342.676 184.663C343.555 185.542 343.994 186.696 343.994 188.126C343.994 189.55 343.552 190.698 342.667 191.571C341.829 192.403 340.801 192.819 339.582 192.819C338.346 192.819 337.297 192.403 336.436 191.571C335.527 190.698 335.073 189.55 335.073 188.126ZM336.901 188.126C336.901 189.626 337.382 190.645 338.343 191.184C338.683 191.372 339.09 191.466 339.564 191.466C340.039 191.466 340.44 191.372 340.769 191.184C341.097 190.991 341.366 190.739 341.577 190.429C341.97 189.831 342.166 189.063 342.166 188.126C342.166 186.638 341.694 185.618 340.751 185.067C340.423 184.874 340.03 184.777 339.573 184.777C339.116 184.777 338.718 184.874 338.378 185.067C338.044 185.255 337.769 185.504 337.552 185.814C337.118 186.424 336.901 187.194 336.901 188.126ZM352.071 190.455V183.608H353.829V192.679H352.247L352.089 191.721C351.222 192.453 350.264 192.819 349.215 192.819C348.102 192.819 347.313 192.512 346.851 191.896C346.37 191.269 346.13 190.188 346.13 188.653V183.608H347.888V188.565C347.888 189.649 348.043 190.388 348.354 190.78C348.629 191.132 349.153 191.307 349.927 191.307C350.706 191.307 351.421 191.023 352.071 190.455ZM362.434 185.217C362.111 185.123 361.725 185.076 361.273 185.076C360.828 185.076 360.462 185.123 360.175 185.217C359.888 185.305 359.636 185.413 359.419 185.542C359.021 185.776 358.73 186.04 358.549 186.333V192.679H356.791V183.608H358.479L358.549 184.865C358.988 184.314 359.63 183.901 360.474 183.626C360.778 183.52 361.127 183.468 361.52 183.468C361.912 183.468 362.217 183.497 362.434 183.556V185.217ZM366.397 192.819C365.665 192.819 364.924 192.766 364.174 192.661V191.105C364.936 191.287 365.709 191.378 366.494 191.378C368.064 191.378 368.85 191.047 368.85 190.385C368.85 190.133 368.788 189.945 368.665 189.822C368.483 189.629 368.196 189.435 367.804 189.242L366.521 188.653C365.688 188.237 365.149 187.903 364.903 187.651C364.44 187.182 364.209 186.626 364.209 185.981C364.209 185.255 364.546 184.663 365.22 184.206C365.946 183.714 366.966 183.468 368.278 183.468C368.94 183.468 369.608 183.515 370.282 183.608V185.111C369.544 184.976 368.899 184.909 368.349 184.909C367.804 184.909 367.379 184.944 367.074 185.015C366.775 185.085 366.55 185.173 366.397 185.278C366.157 185.442 366.037 185.656 366.037 185.92C366.037 186.178 366.119 186.389 366.283 186.553C366.453 186.711 366.717 186.884 367.074 187.071L368.366 187.695C369.21 188.135 369.752 188.472 369.992 188.706C370.449 189.151 370.678 189.711 370.678 190.385C370.678 191.105 370.314 191.685 369.588 192.125C368.826 192.588 367.763 192.819 366.397 192.819ZM378.579 188.126C378.579 186.702 379.033 185.548 379.941 184.663C380.791 183.837 381.843 183.424 383.097 183.424C384.327 183.424 385.355 183.837 386.182 184.663C387.061 185.542 387.5 186.696 387.5 188.126C387.5 189.55 387.058 190.698 386.173 191.571C385.335 192.403 384.307 192.819 383.088 192.819C381.852 192.819 380.803 192.403 379.941 191.571C379.033 190.698 378.579 189.55 378.579 188.126ZM380.407 188.126C380.407 189.626 380.888 190.645 381.849 191.184C382.188 191.372 382.596 191.466 383.07 191.466C383.545 191.466 383.946 191.372 384.274 191.184C384.603 190.991 384.872 190.739 385.083 190.429C385.476 189.831 385.672 189.063 385.672 188.126C385.672 186.638 385.2 185.618 384.257 185.067C383.929 184.874 383.536 184.777 383.079 184.777C382.622 184.777 382.224 184.874 381.884 185.067C381.55 185.255 381.274 185.504 381.058 185.814C380.624 186.424 380.407 187.194 380.407 188.126ZM394.268 180.919C394.057 180.849 393.764 180.813 393.389 180.813C393.014 180.813 392.715 180.849 392.492 180.919C392.275 180.989 392.103 181.092 391.974 181.226C391.751 181.467 391.64 181.859 391.64 182.404V183.608H393.907V184.953H391.64V192.679H389.882V184.953H388.792V184.127L389.882 183.608V182.641C389.882 182.026 389.935 181.563 390.04 181.253C390.151 180.942 390.283 180.684 390.436 180.479C390.588 180.274 390.793 180.096 391.051 179.943C391.596 179.621 392.36 179.46 393.345 179.46C393.755 179.46 394.062 179.483 394.268 179.53V180.919ZM403.892 192.819C403.159 192.819 402.418 192.766 401.668 192.661V191.105C402.43 191.287 403.203 191.378 403.988 191.378C405.559 191.378 406.344 191.047 406.344 190.385C406.344 190.133 406.282 189.945 406.159 189.822C405.978 189.629 405.69 189.435 405.298 189.242L404.015 188.653C403.183 188.237 402.644 187.903 402.397 187.651C401.935 187.182 401.703 186.626 401.703 185.981C401.703 185.255 402.04 184.663 402.714 184.206C403.44 183.714 404.46 183.468 405.772 183.468C406.435 183.468 407.103 183.515 407.776 183.608V185.111C407.038 184.976 406.394 184.909 405.843 184.909C405.298 184.909 404.873 184.944 404.568 185.015C404.27 185.085 404.044 185.173 403.892 185.278C403.651 185.442 403.531 185.656 403.531 185.92C403.531 186.178 403.613 186.389 403.777 186.553C403.947 186.711 404.211 186.884 404.568 187.071L405.86 187.695C406.704 188.135 407.246 188.472 407.486 188.706C407.943 189.151 408.172 189.711 408.172 190.385C408.172 191.105 407.809 191.685 407.082 192.125C406.32 192.588 405.257 192.819 403.892 192.819ZM414.904 192.819C411.588 192.819 409.93 191.199 409.93 187.959C409.93 186.564 410.39 185.448 411.31 184.61C412.136 183.849 413.079 183.468 414.14 183.468C415.294 183.468 416.196 183.854 416.847 184.628C417.45 185.349 417.752 186.312 417.752 187.519V188.205H411.758C411.758 189.863 412.435 190.877 413.788 191.246C414.11 191.334 414.605 191.378 415.273 191.378C415.947 191.378 416.606 191.287 417.251 191.105V192.591C416.606 192.743 415.824 192.819 414.904 192.819ZM415.994 186.913C415.994 186.35 415.839 185.876 415.528 185.489C415.165 185.044 414.664 184.821 414.025 184.821C413.352 184.821 412.804 185.035 412.382 185.463C411.995 185.861 411.802 186.345 411.802 186.913H415.994ZM423.772 184.979C422.899 184.979 422.123 185.275 421.443 185.867V192.679H419.686V183.608H421.312L421.435 184.593C422.39 183.843 423.377 183.468 424.396 183.468C425.475 183.468 426.266 183.79 426.77 184.434C427.297 185.114 427.561 186.21 427.561 187.722V192.679H425.803V187.722C425.803 186.268 425.41 185.401 424.625 185.12C424.373 185.026 424.089 184.979 423.772 184.979ZM431.568 184.601C432.078 184.209 432.649 183.922 433.282 183.74C433.921 183.558 434.478 183.468 434.952 183.468C435.427 183.468 435.793 183.479 436.051 183.503V179.6H437.8V192.679H436.227L436.156 191.633C435.799 192.107 435.257 192.459 434.53 192.687C434.249 192.775 433.962 192.819 433.669 192.819C433.382 192.819 433.098 192.79 432.816 192.731C432.535 192.673 432.254 192.576 431.973 192.441C431.697 192.301 431.434 192.119 431.182 191.896C430.93 191.668 430.704 191.39 430.505 191.061C430.083 190.341 429.872 189.488 429.872 188.504C429.872 187.519 430.027 186.723 430.338 186.113C430.654 185.498 431.064 184.994 431.568 184.601ZM432.632 185.647C432.333 185.929 432.102 186.292 431.938 186.737C431.779 187.177 431.7 187.713 431.7 188.346C431.7 188.973 431.776 189.491 431.929 189.901C432.081 190.306 432.271 190.622 432.5 190.85C432.904 191.261 433.391 191.466 433.959 191.466C434.691 191.466 435.298 191.196 435.778 190.657C435.901 190.522 435.989 190.402 436.042 190.297V184.891L435.866 184.874C435.597 184.839 435.274 184.821 434.899 184.821C434.53 184.821 434.135 184.889 433.713 185.023C433.291 185.152 432.931 185.36 432.632 185.647ZM442.739 180.972C442.739 181.306 442.628 181.563 442.405 181.745C442.188 181.921 441.916 182.009 441.588 182.009C441.26 182.009 440.987 181.921 440.771 181.745C440.56 181.563 440.454 181.306 440.454 180.972C440.454 180.632 440.56 180.374 440.771 180.198C440.987 180.022 441.26 179.934 441.588 179.934C441.916 179.934 442.188 180.022 442.405 180.198C442.628 180.374 442.739 180.632 442.739 180.972ZM440.683 183.608H442.44V192.679H440.683V183.608ZM449.296 184.979C448.423 184.979 447.646 185.275 446.967 185.867V192.679H445.209V183.608H446.835L446.958 184.593C447.913 183.843 448.9 183.468 449.92 183.468C450.998 183.468 451.789 183.79 452.293 184.434C452.82 185.114 453.084 186.21 453.084 187.722V192.679H451.326V187.722C451.326 186.268 450.934 185.401 450.148 185.12C449.896 185.026 449.612 184.979 449.296 184.979ZM460.88 196.141C460.37 196.27 459.714 196.335 458.911 196.335C458.114 196.335 457.531 196.276 457.162 196.159V194.595C457.625 194.794 458.19 194.893 458.858 194.893C459.532 194.899 460.027 194.855 460.344 194.762C460.66 194.668 460.909 194.516 461.091 194.305C461.419 193.924 461.583 193.235 461.583 192.239V191.773C461.138 192.219 460.552 192.529 459.825 192.705C459.532 192.775 459.239 192.81 458.946 192.81C458.653 192.81 458.366 192.778 458.085 192.714C457.81 192.649 457.534 192.547 457.259 192.406C456.983 192.26 456.72 192.072 456.468 191.844C456.216 191.609 455.993 191.319 455.8 190.974C455.366 190.224 455.149 189.301 455.149 188.205C455.138 187.191 455.431 186.301 456.028 185.533C456.544 184.865 457.253 184.347 458.155 183.977C458.976 183.638 459.863 183.468 460.818 183.468C461.773 183.468 462.614 183.515 463.341 183.608V192.239C463.341 194.431 462.521 195.731 460.88 196.141ZM461.583 184.891C461.208 184.845 460.839 184.821 460.476 184.821C460.112 184.821 459.705 184.889 459.254 185.023C458.803 185.158 458.407 185.363 458.067 185.639C457.323 186.242 456.951 187.098 456.951 188.205C456.951 189.406 457.241 190.282 457.821 190.833C458.255 191.249 458.785 191.457 459.412 191.457C460.168 191.457 460.804 191.19 461.319 190.657C461.442 190.522 461.53 190.402 461.583 190.297V184.891ZM466.435 191.044H468.131V192.679C468.131 193.815 467.911 194.653 467.472 195.192C466.979 195.79 466.177 196.089 465.063 196.089V194.639C465.802 194.639 466.235 194.272 466.364 193.54C466.411 193.294 466.435 193.007 466.435 192.679V191.044ZM478.502 185.867L478.511 192.679H476.753V183.608H478.37L478.493 184.601C479.138 184.062 479.888 183.711 480.743 183.547C481.019 183.494 481.288 183.468 481.552 183.468C482.647 183.468 483.474 183.931 484.03 184.856C485.05 183.931 486.116 183.468 487.229 183.468C488.331 183.468 489.134 183.799 489.638 184.461C490.142 185.135 490.394 186.248 490.394 187.801V192.679H488.636V187.862C488.636 186.339 488.27 185.428 487.537 185.129C487.291 185.029 487.004 184.979 486.676 184.979C485.891 184.979 485.17 185.261 484.514 185.823V192.679H482.756V187.792C482.756 186.749 482.601 186.016 482.29 185.595C481.991 185.184 481.455 184.979 480.682 184.979C479.914 184.979 479.188 185.275 478.502 185.867ZM493.619 191.061C493.426 190.727 493.271 190.335 493.153 189.884C493.042 189.432 492.986 188.844 492.986 188.117C492.986 187.391 493.142 186.723 493.452 186.113C493.769 185.498 494.179 184.994 494.683 184.601C495.661 183.846 496.877 183.468 498.33 183.468C499.086 183.468 499.657 183.485 500.044 183.52C500.044 183.52 500.328 183.55 500.896 183.608V192.679H499.314L499.244 191.633C498.893 192.101 498.356 192.45 497.636 192.679C497.36 192.766 497.076 192.81 496.783 192.81C496.496 192.81 496.212 192.781 495.931 192.723C495.649 192.664 495.368 192.567 495.087 192.432C494.812 192.298 494.548 192.119 494.296 191.896C494.044 191.668 493.818 191.39 493.619 191.061ZM499.139 184.9C498.764 184.853 498.389 184.83 498.014 184.83C497.645 184.83 497.249 184.897 496.827 185.032C496.405 185.161 496.045 185.366 495.746 185.647C495.125 186.233 494.814 187.127 494.814 188.328C494.814 189.465 495.081 190.306 495.614 190.85C496.019 191.255 496.505 191.457 497.073 191.457C497.806 191.457 498.409 191.19 498.884 190.657C499.001 190.522 499.086 190.402 499.139 190.297V184.9ZM503.841 179.609H505.599V187.669L509.272 183.608H511.364L507.453 187.722L511.566 192.679H509.422L505.599 188.056V192.679H503.841V179.609ZM514.757 180.972C514.757 181.306 514.646 181.563 514.423 181.745C514.206 181.921 513.934 182.009 513.605 182.009C513.277 182.009 513.005 181.921 512.788 181.745C512.577 181.563 512.472 181.306 512.472 180.972C512.472 180.632 512.577 180.374 512.788 180.198C513.005 180.022 513.277 179.934 513.605 179.934C513.934 179.934 514.206 180.022 514.423 180.198C514.646 180.374 514.757 180.632 514.757 180.972ZM512.7 183.608H514.458V192.679H512.7V183.608ZM521.313 184.979C520.44 184.979 519.664 185.275 518.984 185.867V192.679H517.227V183.608H518.853L518.976 184.593C519.931 183.843 520.918 183.468 521.938 183.468C523.016 183.468 523.807 183.79 524.311 184.434C524.838 185.114 525.102 186.21 525.102 187.722V192.679H523.344V187.722C523.344 186.268 522.951 185.401 522.166 185.12C521.914 185.026 521.63 184.979 521.313 184.979ZM532.897 196.141C532.388 196.27 531.731 196.335 530.929 196.335C530.132 196.335 529.549 196.276 529.18 196.159V194.595C529.643 194.794 530.208 194.893 530.876 194.893C531.55 194.899 532.045 194.855 532.361 194.762C532.678 194.668 532.927 194.516 533.108 194.305C533.437 193.924 533.601 193.235 533.601 192.239V191.773C533.155 192.219 532.569 192.529 531.843 192.705C531.55 192.775 531.257 192.81 530.964 192.81C530.671 192.81 530.384 192.778 530.103 192.714C529.827 192.649 529.552 192.547 529.276 192.406C529.001 192.26 528.737 192.072 528.485 191.844C528.233 191.609 528.011 191.319 527.817 190.974C527.384 190.224 527.167 189.301 527.167 188.205C527.155 187.191 527.448 186.301 528.046 185.533C528.562 184.865 529.271 184.347 530.173 183.977C530.993 183.638 531.881 183.468 532.836 183.468C533.791 183.468 534.632 183.515 535.358 183.608V192.239C535.358 194.431 534.538 195.731 532.897 196.141ZM533.601 184.891C533.226 184.845 532.856 184.821 532.493 184.821C532.13 184.821 531.723 184.889 531.271 185.023C530.82 185.158 530.425 185.363 530.085 185.639C529.341 186.242 528.969 187.098 528.969 188.205C528.969 189.406 529.259 190.282 529.839 190.833C530.272 191.249 530.803 191.457 531.43 191.457C532.186 191.457 532.821 191.19 533.337 190.657C533.46 190.522 533.548 190.402 533.601 190.297V184.891ZM547.487 191.29C547.681 191.36 547.974 191.395 548.366 191.395C548.759 191.395 549.087 191.349 549.351 191.255V192.661C549.228 192.69 549.049 192.708 548.814 192.714L548.261 192.731C548.138 192.731 548.044 192.731 547.979 192.731C546.849 192.731 546.014 192.362 545.475 191.624C545.041 191.026 544.824 190.235 544.824 189.251V184.953H543.523V184.127L544.824 183.608L545.246 181.358H546.582V183.608H549.395V184.953H546.582V189.242C546.582 190.391 546.884 191.073 547.487 191.29ZM555.811 184.979C554.943 184.979 554.17 185.275 553.49 185.867V192.679H551.732V179.6H553.49V184.584C554.439 183.84 555.421 183.468 556.435 183.468C557.519 183.468 558.312 183.79 558.816 184.434C559.344 185.114 559.607 186.21 559.607 187.722V192.679H557.85V187.722C557.85 186.268 557.454 185.401 556.663 185.12C556.411 185.026 556.127 184.979 555.811 184.979ZM566.463 192.819C563.146 192.819 561.488 191.199 561.488 187.959C561.488 186.564 561.948 185.448 562.868 184.61C563.694 183.849 564.638 183.468 565.698 183.468C566.853 183.468 567.755 183.854 568.405 184.628C569.009 185.349 569.311 186.312 569.311 187.519V188.205H563.316C563.316 189.863 563.993 190.877 565.347 191.246C565.669 191.334 566.164 191.378 566.832 191.378C567.506 191.378 568.165 191.287 568.81 191.105V192.591C568.165 192.743 567.383 192.819 566.463 192.819ZM567.553 186.913C567.553 186.35 567.397 185.876 567.087 185.489C566.724 185.044 566.223 184.821 565.584 184.821C564.91 184.821 564.362 185.035 563.94 185.463C563.554 185.861 563.36 186.345 563.36 186.913H567.553ZM78.6084 220.194H76.8506V207.608H78.4326L78.5029 208.645C78.8545 208.177 79.3936 207.828 80.1201 207.599C80.4014 207.512 80.6855 207.468 80.9727 207.468C81.2656 207.468 81.5527 207.5 81.834 207.564C82.1152 207.623 82.3936 207.723 82.6689 207.863C82.9443 207.998 83.208 208.18 83.46 208.408C83.7119 208.631 83.9346 208.909 84.1279 209.243C84.5498 209.964 84.7607 210.857 84.7607 211.924C84.7607 213.553 84.1982 214.798 83.0732 215.659C82.0771 216.427 80.8643 216.81 79.4346 216.81H78.9951C78.8545 216.81 78.7256 216.807 78.6084 216.802V220.194ZM78.6084 215.378C78.7725 215.425 79.0947 215.448 79.5752 215.448C80.0557 215.448 80.5068 215.381 80.9287 215.246C81.3506 215.111 81.708 214.903 82.001 214.622C82.6221 214.024 82.9326 213.125 82.9326 211.924C82.9326 210.793 82.6631 209.958 82.124 209.419C81.7256 209.02 81.2393 208.821 80.665 208.821C79.9443 208.821 79.3467 209.088 78.8721 209.621C78.749 209.756 78.6611 209.876 78.6084 209.981V215.378ZM87.6084 203.6H89.3662V213.242C89.3662 214.402 89.6299 215.085 90.1572 215.29C90.333 215.36 90.5205 215.395 90.7197 215.395C90.9189 215.395 91.0977 215.372 91.2559 215.325V216.679L90.9307 216.714C90.8252 216.725 90.7227 216.731 90.623 216.731C89.498 216.731 88.6865 216.362 88.1885 215.624C87.8018 215.044 87.6084 214.253 87.6084 213.251V203.6ZM93.6465 215.061C93.4531 214.727 93.2979 214.335 93.1807 213.884C93.0693 213.432 93.0137 212.844 93.0137 212.117C93.0137 211.391 93.1689 210.723 93.4795 210.113C93.7959 209.498 94.2061 208.994 94.71 208.601C95.6885 207.846 96.9043 207.468 98.3574 207.468C99.1133 207.468 99.6846 207.485 100.071 207.52C100.071 207.52 100.355 207.55 100.924 207.608V216.679H99.3418L99.2715 215.633C98.9199 216.101 98.3838 216.45 97.6631 216.679C97.3877 216.766 97.1035 216.81 96.8105 216.81C96.5234 216.81 96.2393 216.781 95.958 216.723C95.6768 216.664 95.3955 216.567 95.1143 216.432C94.8389 216.298 94.5752 216.119 94.3232 215.896C94.0713 215.668 93.8457 215.39 93.6465 215.061ZM99.166 208.9C98.791 208.853 98.416 208.83 98.041 208.83C97.6719 208.83 97.2764 208.897 96.8545 209.032C96.4326 209.161 96.0723 209.366 95.7734 209.647C95.1523 210.233 94.8418 211.127 94.8418 212.328C94.8418 213.465 95.1084 214.306 95.6416 214.85C96.0459 215.255 96.5322 215.457 97.1006 215.457C97.833 215.457 98.4365 215.19 98.9111 214.657C99.0283 214.522 99.1133 214.402 99.166 214.297V208.9ZM106.997 215.29C107.19 215.36 107.483 215.395 107.876 215.395C108.269 215.395 108.597 215.349 108.86 215.255V216.661C108.737 216.69 108.559 216.708 108.324 216.714L107.771 216.731C107.647 216.731 107.554 216.731 107.489 216.731C106.358 216.731 105.523 216.362 104.984 215.624C104.551 215.026 104.334 214.235 104.334 213.251V208.953H103.033V208.127L104.334 207.608L104.756 205.358H106.092V207.608H108.904V208.953H106.092V213.242C106.092 214.391 106.394 215.073 106.997 215.29ZM115.848 204.919C115.637 204.849 115.344 204.813 114.969 204.813C114.594 204.813 114.295 204.849 114.072 204.919C113.855 204.989 113.683 205.092 113.554 205.226C113.331 205.467 113.22 205.859 113.22 206.404V207.608H115.487V208.953H113.22V216.679H111.462V208.953H110.372V208.127L111.462 207.608V206.641C111.462 206.026 111.515 205.563 111.62 205.253C111.731 204.942 111.863 204.684 112.016 204.479C112.168 204.274 112.373 204.096 112.631 203.943C113.176 203.621 113.94 203.46 114.925 203.46C115.335 203.46 115.643 203.483 115.848 203.53V204.919ZM116.665 212.126C116.665 210.702 117.119 209.548 118.027 208.663C118.877 207.837 119.929 207.424 121.183 207.424C122.413 207.424 123.441 207.837 124.268 208.663C125.146 209.542 125.586 210.696 125.586 212.126C125.586 213.55 125.144 214.698 124.259 215.571C123.421 216.403 122.393 216.819 121.174 216.819C119.938 216.819 118.889 216.403 118.027 215.571C117.119 214.698 116.665 213.55 116.665 212.126ZM118.493 212.126C118.493 213.626 118.974 214.645 119.935 215.184C120.274 215.372 120.682 215.466 121.156 215.466C121.631 215.466 122.032 215.372 122.36 215.184C122.688 214.991 122.958 214.739 123.169 214.429C123.562 213.831 123.758 213.063 123.758 212.126C123.758 210.638 123.286 209.618 122.343 209.067C122.015 208.874 121.622 208.777 121.165 208.777C120.708 208.777 120.31 208.874 119.97 209.067C119.636 209.255 119.36 209.504 119.144 209.814C118.71 210.424 118.493 211.194 118.493 212.126ZM133.514 209.217C133.191 209.123 132.805 209.076 132.354 209.076C131.908 209.076 131.542 209.123 131.255 209.217C130.968 209.305 130.716 209.413 130.499 209.542C130.101 209.776 129.811 210.04 129.629 210.333V216.679H127.871V207.608H129.559L129.629 208.865C130.068 208.314 130.71 207.901 131.554 207.626C131.858 207.52 132.207 207.468 132.6 207.468C132.992 207.468 133.297 207.497 133.514 207.556V209.217ZM137.047 209.867L137.056 216.679H135.298V207.608H136.915L137.038 208.601C137.683 208.062 138.433 207.711 139.288 207.547C139.563 207.494 139.833 207.468 140.097 207.468C141.192 207.468 142.019 207.931 142.575 208.856C143.595 207.931 144.661 207.468 145.774 207.468C146.876 207.468 147.679 207.799 148.183 208.461C148.687 209.135 148.938 210.248 148.938 211.801V216.679H147.181V211.862C147.181 210.339 146.814 209.428 146.082 209.129C145.836 209.029 145.549 208.979 145.221 208.979C144.436 208.979 143.715 209.261 143.059 209.823V216.679H141.301V211.792C141.301 210.749 141.146 210.016 140.835 209.595C140.536 209.184 140 208.979 139.227 208.979C138.459 208.979 137.732 209.275 137.047 209.867ZM159.644 220.194H157.886V207.608H159.468L159.538 208.645C159.89 208.177 160.429 207.828 161.155 207.599C161.437 207.512 161.721 207.468 162.008 207.468C162.301 207.468 162.588 207.5 162.869 207.564C163.15 207.623 163.429 207.723 163.704 207.863C163.979 207.998 164.243 208.18 164.495 208.408C164.747 208.631 164.97 208.909 165.163 209.243C165.585 209.964 165.796 210.857 165.796 211.924C165.796 213.553 165.233 214.798 164.108 215.659C163.112 216.427 161.899 216.81 160.47 216.81H160.03C159.89 216.81 159.761 216.807 159.644 216.802V220.194ZM159.644 215.378C159.808 215.425 160.13 215.448 160.61 215.448C161.091 215.448 161.542 215.381 161.964 215.246C162.386 215.111 162.743 214.903 163.036 214.622C163.657 214.024 163.968 213.125 163.968 211.924C163.968 210.793 163.698 209.958 163.159 209.419C162.761 209.02 162.274 208.821 161.7 208.821C160.979 208.821 160.382 209.088 159.907 209.621C159.784 209.756 159.696 209.876 159.644 209.981V215.378ZM172.502 216.819C169.186 216.819 167.527 215.199 167.527 211.959C167.527 210.564 167.987 209.448 168.907 208.61C169.733 207.849 170.677 207.468 171.737 207.468C172.892 207.468 173.794 207.854 174.444 208.628C175.048 209.349 175.35 210.312 175.35 211.519V212.205H169.355C169.355 213.863 170.032 214.877 171.386 215.246C171.708 215.334 172.203 215.378 172.871 215.378C173.545 215.378 174.204 215.287 174.849 215.105V216.591C174.204 216.743 173.422 216.819 172.502 216.819ZM173.592 210.913C173.592 210.35 173.437 209.876 173.126 209.489C172.763 209.044 172.262 208.821 171.623 208.821C170.949 208.821 170.401 209.035 169.979 209.463C169.593 209.861 169.399 210.345 169.399 210.913H173.592ZM183.049 209.217C182.727 209.123 182.34 209.076 181.889 209.076C181.443 209.076 181.077 209.123 180.79 209.217C180.503 209.305 180.251 209.413 180.034 209.542C179.636 209.776 179.346 210.04 179.164 210.333V216.679H177.406V207.608H179.094L179.164 208.865C179.604 208.314 180.245 207.901 181.089 207.626C181.394 207.52 181.742 207.468 182.135 207.468C182.527 207.468 182.832 207.497 183.049 207.556V209.217ZM189.395 204.919C189.184 204.849 188.891 204.813 188.516 204.813C188.141 204.813 187.842 204.849 187.619 204.919C187.402 204.989 187.229 205.092 187.101 205.226C186.878 205.467 186.767 205.859 186.767 206.404V207.608H189.034V208.953H186.767V216.679H185.009V208.953H183.919V208.127L185.009 207.608V206.641C185.009 206.026 185.062 205.563 185.167 205.253C185.278 204.942 185.41 204.684 185.562 204.479C185.715 204.274 185.92 204.096 186.178 203.943C186.723 203.621 187.487 203.46 188.472 203.46C188.882 203.46 189.189 203.483 189.395 203.53V204.919ZM195.037 216.819C191.721 216.819 190.062 215.199 190.062 211.959C190.062 210.564 190.522 209.448 191.442 208.61C192.269 207.849 193.212 207.468 194.272 207.468C195.427 207.468 196.329 207.854 196.979 208.628C197.583 209.349 197.885 210.312 197.885 211.519V212.205H191.891C191.891 213.863 192.567 214.877 193.921 215.246C194.243 215.334 194.738 215.378 195.406 215.378C196.08 215.378 196.739 215.287 197.384 215.105V216.591C196.739 216.743 195.957 216.819 195.037 216.819ZM196.127 210.913C196.127 210.35 195.972 209.876 195.661 209.489C195.298 209.044 194.797 208.821 194.158 208.821C193.484 208.821 192.937 209.035 192.515 209.463C192.128 209.861 191.935 210.345 191.935 210.913H196.127ZM206.331 216.652C205.979 216.764 205.37 216.819 204.503 216.819C203.636 216.819 202.897 216.714 202.288 216.503C201.685 216.292 201.169 215.981 200.741 215.571C199.856 214.722 199.414 213.544 199.414 212.038C199.414 210.579 199.944 209.431 201.005 208.593C201.954 207.843 203.12 207.468 204.503 207.468C205.358 207.468 205.944 207.497 206.261 207.556V209.12C205.769 208.962 205.206 208.883 204.573 208.883C203.946 208.883 203.425 208.971 203.009 209.146C202.593 209.316 202.253 209.548 201.989 209.841C201.491 210.397 201.242 211.13 201.242 212.038C201.242 213.573 201.796 214.596 202.903 215.105C203.296 215.287 203.68 215.378 204.055 215.378C204.43 215.378 204.717 215.369 204.916 215.351C205.121 215.334 205.314 215.31 205.496 215.281C205.883 215.217 206.161 215.149 206.331 215.079V216.652ZM212.062 215.29C212.255 215.36 212.548 215.395 212.94 215.395C213.333 215.395 213.661 215.349 213.925 215.255V216.661C213.802 216.69 213.623 216.708 213.389 216.714L212.835 216.731C212.712 216.731 212.618 216.731 212.554 216.731C211.423 216.731 210.588 216.362 210.049 215.624C209.615 215.026 209.398 214.235 209.398 213.251V208.953H208.098V208.127L209.398 207.608L209.82 205.358H211.156V207.608H213.969V208.953H211.156V213.242C211.156 214.391 211.458 215.073 212.062 215.29ZM226.906 204.919C226.695 204.849 226.402 204.813 226.027 204.813C225.652 204.813 225.354 204.849 225.131 204.919C224.914 204.989 224.741 205.092 224.612 205.226C224.39 205.467 224.278 205.859 224.278 206.404V207.608H226.546V208.953H224.278V216.679H222.521V208.953H221.431V208.127L222.521 207.608V206.641C222.521 206.026 222.573 205.563 222.679 205.253C222.79 204.942 222.922 204.684 223.074 204.479C223.227 204.274 223.432 204.096 223.689 203.943C224.234 203.621 224.999 203.46 225.983 203.46C226.394 203.46 226.701 203.483 226.906 203.53V204.919ZM227.724 212.126C227.724 210.702 228.178 209.548 229.086 208.663C229.936 207.837 230.987 207.424 232.241 207.424C233.472 207.424 234.5 207.837 235.326 208.663C236.205 209.542 236.645 210.696 236.645 212.126C236.645 213.55 236.202 214.698 235.317 215.571C234.479 216.403 233.451 216.819 232.232 216.819C230.996 216.819 229.947 216.403 229.086 215.571C228.178 214.698 227.724 213.55 227.724 212.126ZM229.552 212.126C229.552 213.626 230.032 214.645 230.993 215.184C231.333 215.372 231.74 215.466 232.215 215.466C232.689 215.466 233.091 215.372 233.419 215.184C233.747 214.991 234.017 214.739 234.228 214.429C234.62 213.831 234.816 213.063 234.816 212.126C234.816 210.638 234.345 209.618 233.401 209.067C233.073 208.874 232.681 208.777 232.224 208.777C231.767 208.777 231.368 208.874 231.028 209.067C230.694 209.255 230.419 209.504 230.202 209.814C229.769 210.424 229.552 211.194 229.552 212.126ZM244.572 209.217C244.25 209.123 243.863 209.076 243.412 209.076C242.967 209.076 242.601 209.123 242.313 209.217C242.026 209.305 241.774 209.413 241.558 209.542C241.159 209.776 240.869 210.04 240.688 210.333V216.679H238.93V207.608H240.617L240.688 208.865C241.127 208.314 241.769 207.901 242.612 207.626C242.917 207.52 243.266 207.468 243.658 207.468C244.051 207.468 244.355 207.497 244.572 207.556V209.217ZM254.53 216.819C253.798 216.819 253.057 216.766 252.307 216.661V215.105C253.068 215.287 253.842 215.378 254.627 215.378C256.197 215.378 256.982 215.047 256.982 214.385C256.982 214.133 256.921 213.945 256.798 213.822C256.616 213.629 256.329 213.435 255.937 213.242L254.653 212.653C253.821 212.237 253.282 211.903 253.036 211.651C252.573 211.182 252.342 210.626 252.342 209.981C252.342 209.255 252.679 208.663 253.353 208.206C254.079 207.714 255.099 207.468 256.411 207.468C257.073 207.468 257.741 207.515 258.415 207.608V209.111C257.677 208.976 257.032 208.909 256.481 208.909C255.937 208.909 255.512 208.944 255.207 209.015C254.908 209.085 254.683 209.173 254.53 209.278C254.29 209.442 254.17 209.656 254.17 209.92C254.17 210.178 254.252 210.389 254.416 210.553C254.586 210.711 254.85 210.884 255.207 211.071L256.499 211.695C257.343 212.135 257.885 212.472 258.125 212.706C258.582 213.151 258.811 213.711 258.811 214.385C258.811 215.105 258.447 215.685 257.721 216.125C256.959 216.588 255.896 216.819 254.53 216.819ZM265.385 208.979C264.518 208.979 263.744 209.275 263.064 209.867V216.679H261.307V203.6H263.064V208.584C264.014 207.84 264.995 207.468 266.009 207.468C267.093 207.468 267.887 207.79 268.391 208.434C268.918 209.114 269.182 210.21 269.182 211.722V216.679H267.424V211.722C267.424 210.268 267.028 209.401 266.237 209.12C265.985 209.026 265.701 208.979 265.385 208.979ZM272.205 215.061C272.012 214.727 271.856 214.335 271.739 213.884C271.628 213.432 271.572 212.844 271.572 212.117C271.572 211.391 271.728 210.723 272.038 210.113C272.354 209.498 272.765 208.994 273.269 208.601C274.247 207.846 275.463 207.468 276.916 207.468C277.672 207.468 278.243 207.485 278.63 207.52C278.63 207.52 278.914 207.55 279.482 207.608V216.679H277.9L277.83 215.633C277.479 216.101 276.942 216.45 276.222 216.679C275.946 216.766 275.662 216.81 275.369 216.81C275.082 216.81 274.798 216.781 274.517 216.723C274.235 216.664 273.954 216.567 273.673 216.432C273.397 216.298 273.134 216.119 272.882 215.896C272.63 215.668 272.404 215.39 272.205 215.061ZM277.725 208.9C277.35 208.853 276.975 208.83 276.6 208.83C276.23 208.83 275.835 208.897 275.413 209.032C274.991 209.161 274.631 209.366 274.332 209.647C273.711 210.233 273.4 211.127 273.4 212.328C273.4 213.465 273.667 214.306 274.2 214.85C274.604 215.255 275.091 215.457 275.659 215.457C276.392 215.457 276.995 215.19 277.47 214.657C277.587 214.522 277.672 214.402 277.725 214.297V208.9ZM288.061 209.217C287.738 209.123 287.352 209.076 286.9 209.076C286.455 209.076 286.089 209.123 285.802 209.217C285.515 209.305 285.263 209.413 285.046 209.542C284.647 209.776 284.357 210.04 284.176 210.333V216.679H282.418V207.608H284.105L284.176 208.865C284.615 208.314 285.257 207.901 286.101 207.626C286.405 207.52 286.754 207.468 287.146 207.468C287.539 207.468 287.844 207.497 288.061 207.556V209.217ZM291.849 204.972C291.849 205.306 291.737 205.563 291.515 205.745C291.298 205.921 291.025 206.009 290.697 206.009C290.369 206.009 290.097 205.921 289.88 205.745C289.669 205.563 289.563 205.306 289.563 204.972C289.563 204.632 289.669 204.374 289.88 204.198C290.097 204.022 290.369 203.934 290.697 203.934C291.025 203.934 291.298 204.022 291.515 204.198C291.737 204.374 291.849 204.632 291.849 204.972ZM289.792 207.608H291.55V216.679H289.792V207.608ZM298.405 208.979C297.532 208.979 296.756 209.275 296.076 209.867V216.679H294.318V207.608H295.944L296.067 208.593C297.022 207.843 298.01 207.468 299.029 207.468C300.107 207.468 300.898 207.79 301.402 208.434C301.93 209.114 302.193 210.21 302.193 211.722V216.679H300.436V211.722C300.436 210.268 300.043 209.401 299.258 209.12C299.006 209.026 298.722 208.979 298.405 208.979ZM309.989 220.141C309.479 220.27 308.823 220.335 308.021 220.335C307.224 220.335 306.641 220.276 306.271 220.159V218.595C306.734 218.794 307.3 218.893 307.968 218.893C308.642 218.899 309.137 218.855 309.453 218.762C309.77 218.668 310.019 218.516 310.2 218.305C310.528 217.924 310.692 217.235 310.692 216.239V215.773C310.247 216.219 309.661 216.529 308.935 216.705C308.642 216.775 308.349 216.81 308.056 216.81C307.763 216.81 307.476 216.778 307.194 216.714C306.919 216.649 306.644 216.547 306.368 216.406C306.093 216.26 305.829 216.072 305.577 215.844C305.325 215.609 305.103 215.319 304.909 214.974C304.476 214.224 304.259 213.301 304.259 212.205C304.247 211.191 304.54 210.301 305.138 209.533C305.653 208.865 306.362 208.347 307.265 207.977C308.085 207.638 308.973 207.468 309.928 207.468C310.883 207.468 311.724 207.515 312.45 207.608V216.239C312.45 218.431 311.63 219.731 309.989 220.141ZM310.692 208.891C310.317 208.845 309.948 208.821 309.585 208.821C309.222 208.821 308.814 208.889 308.363 209.023C307.912 209.158 307.517 209.363 307.177 209.639C306.433 210.242 306.061 211.098 306.061 212.205C306.061 213.406 306.351 214.282 306.931 214.833C307.364 215.249 307.895 215.457 308.521 215.457C309.277 215.457 309.913 215.19 310.429 214.657C310.552 214.522 310.64 214.402 310.692 214.297V208.891ZM323.542 216.819C322.81 216.819 322.068 216.766 321.318 216.661V215.105C322.08 215.287 322.854 215.378 323.639 215.378C325.209 215.378 325.994 215.047 325.994 214.385C325.994 214.133 325.933 213.945 325.81 213.822C325.628 213.629 325.341 213.435 324.948 213.242L323.665 212.653C322.833 212.237 322.294 211.903 322.048 211.651C321.585 211.182 321.354 210.626 321.354 209.981C321.354 209.255 321.69 208.663 322.364 208.206C323.091 207.714 324.11 207.468 325.423 207.468C326.085 207.468 326.753 207.515 327.427 207.608V209.111C326.688 208.976 326.044 208.909 325.493 208.909C324.948 208.909 324.523 208.944 324.219 209.015C323.92 209.085 323.694 209.173 323.542 209.278C323.302 209.442 323.182 209.656 323.182 209.92C323.182 210.178 323.264 210.389 323.428 210.553C323.598 210.711 323.861 210.884 324.219 211.071L325.511 211.695C326.354 212.135 326.896 212.472 327.137 212.706C327.594 213.151 327.822 213.711 327.822 214.385C327.822 215.105 327.459 215.685 326.732 216.125C325.971 216.588 324.907 216.819 323.542 216.819ZM334.555 216.819C331.238 216.819 329.58 215.199 329.58 211.959C329.58 210.564 330.04 209.448 330.96 208.61C331.786 207.849 332.729 207.468 333.79 207.468C334.944 207.468 335.847 207.854 336.497 208.628C337.101 209.349 337.402 210.312 337.402 211.519V212.205H331.408C331.408 213.863 332.085 214.877 333.438 215.246C333.761 215.334 334.256 215.378 334.924 215.378C335.598 215.378 336.257 215.287 336.901 215.105V216.591C336.257 216.743 335.475 216.819 334.555 216.819ZM335.645 210.913C335.645 210.35 335.489 209.876 335.179 209.489C334.815 209.044 334.314 208.821 333.676 208.821C333.002 208.821 332.454 209.035 332.032 209.463C331.646 209.861 331.452 210.345 331.452 210.913H335.645ZM343.423 208.979C342.55 208.979 341.773 209.275 341.094 209.867V216.679H339.336V207.608H340.962L341.085 208.593C342.04 207.843 343.027 207.468 344.047 207.468C345.125 207.468 345.916 207.79 346.42 208.434C346.947 209.114 347.211 210.21 347.211 211.722V216.679H345.453V211.722C345.453 210.268 345.061 209.401 344.275 209.12C344.023 209.026 343.739 208.979 343.423 208.979ZM352.071 216.819C351.339 216.819 350.598 216.766 349.848 216.661V215.105C350.609 215.287 351.383 215.378 352.168 215.378C353.738 215.378 354.523 215.047 354.523 214.385C354.523 214.133 354.462 213.945 354.339 213.822C354.157 213.629 353.87 213.435 353.478 213.242L352.194 212.653C351.362 212.237 350.823 211.903 350.577 211.651C350.114 211.182 349.883 210.626 349.883 209.981C349.883 209.255 350.22 208.663 350.894 208.206C351.62 207.714 352.64 207.468 353.952 207.468C354.614 207.468 355.282 207.515 355.956 207.608V209.111C355.218 208.976 354.573 208.909 354.022 208.909C353.478 208.909 353.053 208.944 352.748 209.015C352.449 209.085 352.224 209.173 352.071 209.278C351.831 209.442 351.711 209.656 351.711 209.92C351.711 210.178 351.793 210.389 351.957 210.553C352.127 210.711 352.391 210.884 352.748 211.071L354.04 211.695C354.884 212.135 355.426 212.472 355.666 212.706C356.123 213.151 356.352 213.711 356.352 214.385C356.352 215.105 355.988 215.685 355.262 216.125C354.5 216.588 353.437 216.819 352.071 216.819ZM360.896 204.972C360.896 205.306 360.784 205.563 360.562 205.745C360.345 205.921 360.072 206.009 359.744 206.009C359.416 206.009 359.144 205.921 358.927 205.745C358.716 205.563 358.61 205.306 358.61 204.972C358.61 204.632 358.716 204.374 358.927 204.198C359.144 204.022 359.416 203.934 359.744 203.934C360.072 203.934 360.345 204.022 360.562 204.198C360.784 204.374 360.896 204.632 360.896 204.972ZM358.839 207.608H360.597V216.679H358.839V207.608ZM366.626 215.29C366.819 215.36 367.112 215.395 367.505 215.395C367.897 215.395 368.226 215.349 368.489 215.255V216.661C368.366 216.69 368.188 216.708 367.953 216.714L367.399 216.731C367.276 216.731 367.183 216.731 367.118 216.731C365.987 216.731 365.152 216.362 364.613 215.624C364.18 215.026 363.963 214.235 363.963 213.251V208.953H362.662V208.127L363.963 207.608L364.385 205.358H365.721V207.608H368.533V208.953H365.721V213.242C365.721 214.391 366.022 215.073 366.626 215.29ZM372.919 204.972C372.919 205.306 372.808 205.563 372.585 205.745C372.368 205.921 372.096 206.009 371.768 206.009C371.439 206.009 371.167 205.921 370.95 205.745C370.739 205.563 370.634 205.306 370.634 204.972C370.634 204.632 370.739 204.374 370.95 204.198C371.167 204.022 371.439 203.934 371.768 203.934C372.096 203.934 372.368 204.022 372.585 204.198C372.808 204.374 372.919 204.632 372.919 204.972ZM370.862 207.608H372.62V216.679H370.862V207.608ZM374.149 207.608H376.039L378.509 214.965L380.987 207.608H382.868L379.396 216.679H377.63L374.149 207.608ZM388.607 216.819C385.291 216.819 383.633 215.199 383.633 211.959C383.633 210.564 384.093 209.448 385.013 208.61C385.839 207.849 386.782 207.468 387.843 207.468C388.997 207.468 389.899 207.854 390.55 208.628C391.153 209.349 391.455 210.312 391.455 211.519V212.205H385.461C385.461 213.863 386.138 214.877 387.491 215.246C387.813 215.334 388.309 215.378 388.977 215.378C389.65 215.378 390.31 215.287 390.954 215.105V216.591C390.31 216.743 389.527 216.819 388.607 216.819ZM389.697 210.913C389.697 210.35 389.542 209.876 389.231 209.489C388.868 209.044 388.367 208.821 387.729 208.821C387.055 208.821 386.507 209.035 386.085 209.463C385.698 209.861 385.505 210.345 385.505 210.913H389.697ZM401.431 204.972C401.431 205.306 401.319 205.563 401.097 205.745C400.88 205.921 400.607 206.009 400.279 206.009C399.951 206.009 399.679 205.921 399.462 205.745C399.251 205.563 399.146 205.306 399.146 204.972C399.146 204.632 399.251 204.374 399.462 204.198C399.679 204.022 399.951 203.934 400.279 203.934C400.607 203.934 400.88 204.022 401.097 204.198C401.319 204.374 401.431 204.632 401.431 204.972ZM399.374 207.608H401.132V216.679H399.374V207.608ZM407.987 208.979C407.114 208.979 406.338 209.275 405.658 209.867V216.679H403.9V207.608H405.526L405.649 208.593C406.604 207.843 407.592 207.468 408.611 207.468C409.689 207.468 410.48 207.79 410.984 208.434C411.512 209.114 411.775 210.21 411.775 211.722V216.679H410.018V211.722C410.018 210.268 409.625 209.401 408.84 209.12C408.588 209.026 408.304 208.979 407.987 208.979ZM419.018 204.919C418.807 204.849 418.514 204.813 418.139 204.813C417.764 204.813 417.465 204.849 417.242 204.919C417.025 204.989 416.853 205.092 416.724 205.226C416.501 205.467 416.39 205.859 416.39 206.404V207.608H418.657V208.953H416.39V216.679H414.632V208.953H413.542V208.127L414.632 207.608V206.641C414.632 206.026 414.685 205.563 414.79 205.253C414.901 204.942 415.033 204.684 415.186 204.479C415.338 204.274 415.543 204.096 415.801 203.943C416.346 203.621 417.11 203.46 418.095 203.46C418.505 203.46 418.812 203.483 419.018 203.53V204.919ZM419.835 212.126C419.835 210.702 420.289 209.548 421.197 208.663C422.047 207.837 423.099 207.424 424.353 207.424C425.583 207.424 426.611 207.837 427.438 208.663C428.316 209.542 428.756 210.696 428.756 212.126C428.756 213.55 428.313 214.698 427.429 215.571C426.591 216.403 425.562 216.819 424.344 216.819C423.107 216.819 422.059 216.403 421.197 215.571C420.289 214.698 419.835 213.55 419.835 212.126ZM421.663 212.126C421.663 213.626 422.144 214.645 423.104 215.184C423.444 215.372 423.852 215.466 424.326 215.466C424.801 215.466 425.202 215.372 425.53 215.184C425.858 214.991 426.128 214.739 426.339 214.429C426.731 213.831 426.928 213.063 426.928 212.126C426.928 210.638 426.456 209.618 425.513 209.067C425.185 208.874 424.792 208.777 424.335 208.777C423.878 208.777 423.479 208.874 423.14 209.067C422.806 209.255 422.53 209.504 422.313 209.814C421.88 210.424 421.663 211.194 421.663 212.126ZM436.684 209.217C436.361 209.123 435.975 209.076 435.523 209.076C435.078 209.076 434.712 209.123 434.425 209.217C434.138 209.305 433.886 209.413 433.669 209.542C433.271 209.776 432.98 210.04 432.799 210.333V216.679H431.041V207.608H432.729L432.799 208.865C433.238 208.314 433.88 207.901 434.724 207.626C435.028 207.52 435.377 207.468 435.77 207.468C436.162 207.468 436.467 207.497 436.684 207.556V209.217ZM440.217 209.867L440.226 216.679H438.468V207.608H440.085L440.208 208.601C440.853 208.062 441.603 207.711 442.458 207.547C442.733 207.494 443.003 207.468 443.267 207.468C444.362 207.468 445.188 207.931 445.745 208.856C446.765 207.931 447.831 207.468 448.944 207.468C450.046 207.468 450.849 207.799 451.353 208.461C451.856 209.135 452.108 210.248 452.108 211.801V216.679H450.351V211.862C450.351 210.339 449.984 209.428 449.252 209.129C449.006 209.029 448.719 208.979 448.391 208.979C447.605 208.979 446.885 209.261 446.229 209.823V216.679H444.471V211.792C444.471 210.749 444.315 210.016 444.005 209.595C443.706 209.184 443.17 208.979 442.396 208.979C441.629 208.979 440.902 209.275 440.217 209.867ZM455.334 215.061C455.141 214.727 454.985 214.335 454.868 213.884C454.757 213.432 454.701 212.844 454.701 212.117C454.701 211.391 454.856 210.723 455.167 210.113C455.483 209.498 455.894 208.994 456.397 208.601C457.376 207.846 458.592 207.468 460.045 207.468C460.801 207.468 461.372 207.485 461.759 207.52C461.759 207.52 462.043 207.55 462.611 207.608V216.679H461.029L460.959 215.633C460.607 216.101 460.071 216.45 459.351 216.679C459.075 216.766 458.791 216.81 458.498 216.81C458.211 216.81 457.927 216.781 457.646 216.723C457.364 216.664 457.083 216.567 456.802 216.432C456.526 216.298 456.263 216.119 456.011 215.896C455.759 215.668 455.533 215.39 455.334 215.061ZM460.854 208.9C460.479 208.853 460.104 208.83 459.729 208.83C459.359 208.83 458.964 208.897 458.542 209.032C458.12 209.161 457.76 209.366 457.461 209.647C456.84 210.233 456.529 211.127 456.529 212.328C456.529 213.465 456.796 214.306 457.329 214.85C457.733 215.255 458.22 215.457 458.788 215.457C459.521 215.457 460.124 215.19 460.599 214.657C460.716 214.522 460.801 214.402 460.854 214.297V208.9ZM468.685 215.29C468.878 215.36 469.171 215.395 469.563 215.395C469.956 215.395 470.284 215.349 470.548 215.255V216.661C470.425 216.69 470.246 216.708 470.012 216.714L469.458 216.731C469.335 216.731 469.241 216.731 469.177 216.731C468.046 216.731 467.211 216.362 466.672 215.624C466.238 215.026 466.021 214.235 466.021 213.251V208.953H464.721V208.127L466.021 207.608L466.443 205.358H467.779V207.608H470.592V208.953H467.779V213.242C467.779 214.391 468.081 215.073 468.685 215.29ZM474.978 204.972C474.978 205.306 474.866 205.563 474.644 205.745C474.427 205.921 474.154 206.009 473.826 206.009C473.498 206.009 473.226 205.921 473.009 205.745C472.798 205.563 472.692 205.306 472.692 204.972C472.692 204.632 472.798 204.374 473.009 204.198C473.226 204.022 473.498 203.934 473.826 203.934C474.154 203.934 474.427 204.022 474.644 204.198C474.866 204.374 474.978 204.632 474.978 204.972ZM472.921 207.608H474.679V216.679H472.921V207.608ZM476.858 212.126C476.858 210.702 477.312 209.548 478.221 208.663C479.07 207.837 480.122 207.424 481.376 207.424C482.606 207.424 483.635 207.837 484.461 208.663C485.34 209.542 485.779 210.696 485.779 212.126C485.779 213.55 485.337 214.698 484.452 215.571C483.614 216.403 482.586 216.819 481.367 216.819C480.131 216.819 479.082 216.403 478.221 215.571C477.312 214.698 476.858 213.55 476.858 212.126ZM478.687 212.126C478.687 213.626 479.167 214.645 480.128 215.184C480.468 215.372 480.875 215.466 481.35 215.466C481.824 215.466 482.226 215.372 482.554 215.184C482.882 214.991 483.151 214.739 483.362 214.429C483.755 213.831 483.951 213.063 483.951 212.126C483.951 210.638 483.479 209.618 482.536 209.067C482.208 208.874 481.815 208.777 481.358 208.777C480.901 208.777 480.503 208.874 480.163 209.067C479.829 209.255 479.554 209.504 479.337 209.814C478.903 210.424 478.687 211.194 478.687 212.126ZM492.028 208.979C491.155 208.979 490.379 209.275 489.699 209.867V216.679H487.941V207.608H489.567L489.69 208.593C490.646 207.843 491.633 207.468 492.652 207.468C493.73 207.468 494.521 207.79 495.025 208.434C495.553 209.114 495.816 210.21 495.816 211.722V216.679H494.059V211.722C494.059 210.268 493.666 209.401 492.881 209.12C492.629 209.026 492.345 208.979 492.028 208.979ZM510.793 215.668C510.289 216.06 509.718 216.35 509.079 216.538C508.446 216.72 507.761 216.81 507.022 216.81C506.29 216.81 505.47 216.766 504.562 216.679V203.6H506.319V208.514C506.706 208.074 507.242 207.761 507.928 207.573C508.186 207.503 508.449 207.468 508.719 207.468C508.994 207.468 509.272 207.497 509.554 207.556C509.835 207.608 510.113 207.702 510.389 207.837C510.67 207.972 510.937 208.15 511.188 208.373C511.44 208.596 511.663 208.874 511.856 209.208C512.284 209.923 512.498 210.772 512.498 211.757C512.498 212.735 512.34 213.532 512.023 214.147C511.713 214.763 511.303 215.269 510.793 215.668ZM506.328 215.387C506.492 215.433 506.814 215.457 507.295 215.457C507.775 215.457 508.227 215.39 508.648 215.255C509.07 215.12 509.431 214.909 509.729 214.622C510.356 214.018 510.67 213.119 510.67 211.924C510.67 210.465 510.245 209.51 509.396 209.058C509.091 208.9 508.78 208.821 508.464 208.821C508.147 208.821 507.872 208.862 507.638 208.944C507.403 209.026 507.198 209.126 507.022 209.243C506.688 209.472 506.457 209.718 506.328 209.981V215.387ZM519.16 216.819C515.844 216.819 514.186 215.199 514.186 211.959C514.186 210.564 514.646 209.448 515.565 208.61C516.392 207.849 517.335 207.468 518.396 207.468C519.55 207.468 520.452 207.854 521.103 208.628C521.706 209.349 522.008 210.312 522.008 211.519V212.205H516.014C516.014 213.863 516.69 214.877 518.044 215.246C518.366 215.334 518.861 215.378 519.529 215.378C520.203 215.378 520.862 215.287 521.507 215.105V216.591C520.862 216.743 520.08 216.819 519.16 216.819ZM520.25 210.913C520.25 210.35 520.095 209.876 519.784 209.489C519.421 209.044 518.92 208.821 518.281 208.821C517.607 208.821 517.06 209.035 516.638 209.463C516.251 209.861 516.058 210.345 516.058 210.913H520.25ZM527.202 215.29C527.396 215.36 527.688 215.395 528.081 215.395C528.474 215.395 528.802 215.349 529.065 215.255V216.661C528.942 216.69 528.764 216.708 528.529 216.714L527.976 216.731C527.853 216.731 527.759 216.731 527.694 216.731C526.563 216.731 525.729 216.362 525.189 215.624C524.756 215.026 524.539 214.235 524.539 213.251V208.953H523.238V208.127L524.539 207.608L524.961 205.358H526.297V207.608H529.109V208.953H526.297V213.242C526.297 214.391 526.599 215.073 527.202 215.29ZM530.226 207.608H532.098L534.427 214.815L536.782 207.608H538.61L540.992 214.789L543.207 207.608H544.947L541.897 216.679H540.087L537.644 209.806L535.332 216.679H533.521L530.226 207.608ZM550.695 216.819C547.379 216.819 545.721 215.199 545.721 211.959C545.721 210.564 546.181 209.448 547.101 208.61C547.927 207.849 548.87 207.468 549.931 207.468C551.085 207.468 551.987 207.854 552.638 208.628C553.241 209.349 553.543 210.312 553.543 211.519V212.205H547.549C547.549 213.863 548.226 214.877 549.579 215.246C549.901 215.334 550.396 215.378 551.064 215.378C551.738 215.378 552.397 215.287 553.042 215.105V216.591C552.397 216.743 551.615 216.819 550.695 216.819ZM551.785 210.913C551.785 210.35 551.63 209.876 551.319 209.489C550.956 209.044 550.455 208.821 549.816 208.821C549.143 208.821 548.595 209.035 548.173 209.463C547.786 209.861 547.593 210.345 547.593 210.913H551.785ZM559.713 216.819C556.396 216.819 554.738 215.199 554.738 211.959C554.738 210.564 555.198 209.448 556.118 208.61C556.944 207.849 557.888 207.468 558.948 207.468C560.103 207.468 561.005 207.854 561.655 208.628C562.259 209.349 562.561 210.312 562.561 211.519V212.205H556.566C556.566 213.863 557.243 214.877 558.597 215.246C558.919 215.334 559.414 215.378 560.082 215.378C560.756 215.378 561.415 215.287 562.06 215.105V216.591C561.415 216.743 560.633 216.819 559.713 216.819ZM560.803 210.913C560.803 210.35 560.647 209.876 560.337 209.489C559.974 209.044 559.473 208.821 558.834 208.821C558.16 208.821 557.612 209.035 557.19 209.463C556.804 209.861 556.61 210.345 556.61 210.913H560.803ZM568.581 208.979C567.708 208.979 566.932 209.275 566.252 209.867V216.679H564.494V207.608H566.12L566.243 208.593C567.198 207.843 568.186 207.468 569.205 207.468C570.283 207.468 571.074 207.79 571.578 208.434C572.105 209.114 572.369 210.21 572.369 211.722V216.679H570.611V211.722C570.611 210.268 570.219 209.401 569.434 209.12C569.182 209.026 568.897 208.979 568.581 208.979ZM296.226 244.194H294.468V231.608H296.05L296.12 232.645C296.472 232.177 297.011 231.828 297.737 231.599C298.019 231.512 298.303 231.468 298.59 231.468C298.883 231.468 299.17 231.5 299.451 231.564C299.732 231.623 300.011 231.723 300.286 231.863C300.562 231.998 300.825 232.18 301.077 232.408C301.329 232.631 301.552 232.909 301.745 233.243C302.167 233.964 302.378 234.857 302.378 235.924C302.378 237.553 301.815 238.798 300.69 239.659C299.694 240.427 298.481 240.81 297.052 240.81H296.612C296.472 240.81 296.343 240.807 296.226 240.802V244.194ZM296.226 239.378C296.39 239.425 296.712 239.448 297.192 239.448C297.673 239.448 298.124 239.381 298.546 239.246C298.968 239.111 299.325 238.903 299.618 238.622C300.239 238.024 300.55 237.125 300.55 235.924C300.55 234.793 300.28 233.958 299.741 233.419C299.343 233.02 298.856 232.821 298.282 232.821C297.562 232.821 296.964 233.088 296.489 233.621C296.366 233.756 296.278 233.876 296.226 233.981V239.378ZM305.252 239.061C305.059 238.727 304.903 238.335 304.786 237.884C304.675 237.432 304.619 236.844 304.619 236.117C304.619 235.391 304.774 234.723 305.085 234.113C305.401 233.498 305.812 232.994 306.315 232.601C307.294 231.846 308.51 231.468 309.963 231.468C310.719 231.468 311.29 231.485 311.677 231.52C311.677 231.52 311.961 231.55 312.529 231.608V240.679H310.947L310.877 239.633C310.525 240.101 309.989 240.45 309.269 240.679C308.993 240.766 308.709 240.81 308.416 240.81C308.129 240.81 307.845 240.781 307.563 240.723C307.282 240.664 307.001 240.567 306.72 240.432C306.444 240.298 306.181 240.119 305.929 239.896C305.677 239.668 305.451 239.39 305.252 239.061ZM310.771 232.9C310.396 232.853 310.021 232.83 309.646 232.83C309.277 232.83 308.882 232.897 308.46 233.032C308.038 233.161 307.678 233.366 307.379 233.647C306.758 234.233 306.447 235.127 306.447 236.328C306.447 237.465 306.714 238.306 307.247 238.85C307.651 239.255 308.138 239.457 308.706 239.457C309.438 239.457 310.042 239.19 310.517 238.657C310.634 238.522 310.719 238.402 310.771 238.297V232.9ZM321.107 233.217C320.785 233.123 320.398 233.076 319.947 233.076C319.502 233.076 319.136 233.123 318.849 233.217C318.562 233.305 318.31 233.413 318.093 233.542C317.694 233.776 317.404 234.04 317.223 234.333V240.679H315.465V231.608H317.152L317.223 232.865C317.662 232.314 318.304 231.901 319.147 231.626C319.452 231.52 319.801 231.468 320.193 231.468C320.586 231.468 320.891 231.497 321.107 231.556V233.217ZM326.108 239.29C326.302 239.36 326.595 239.395 326.987 239.395C327.38 239.395 327.708 239.349 327.972 239.255V240.661C327.849 240.69 327.67 240.708 327.436 240.714L326.882 240.731C326.759 240.731 326.665 240.731 326.601 240.731C325.47 240.731 324.635 240.362 324.096 239.624C323.662 239.026 323.445 238.235 323.445 237.251V232.953H322.145V232.127L323.445 231.608L323.867 229.358H325.203V231.608H328.016V232.953H325.203V237.242C325.203 238.391 325.505 239.073 326.108 239.29ZM332.401 228.972C332.401 229.306 332.29 229.563 332.067 229.745C331.851 229.921 331.578 230.009 331.25 230.009C330.922 230.009 330.649 229.921 330.433 229.745C330.222 229.563 330.116 229.306 330.116 228.972C330.116 228.632 330.222 228.374 330.433 228.198C330.649 228.022 330.922 227.934 331.25 227.934C331.578 227.934 331.851 228.022 332.067 228.198C332.29 228.374 332.401 228.632 332.401 228.972ZM330.345 231.608H332.103V240.679H330.345V231.608ZM339.107 240.819C335.791 240.819 334.133 239.199 334.133 235.959C334.133 234.564 334.593 233.448 335.513 232.61C336.339 231.849 337.282 231.468 338.343 231.468C339.497 231.468 340.399 231.854 341.05 232.628C341.653 233.349 341.955 234.312 341.955 235.519V236.205H335.961C335.961 237.863 336.638 238.877 337.991 239.246C338.313 239.334 338.809 239.378 339.477 239.378C340.15 239.378 340.81 239.287 341.454 239.105V240.591C340.81 240.743 340.027 240.819 339.107 240.819ZM340.197 234.913C340.197 234.35 340.042 233.876 339.731 233.489C339.368 233.044 338.867 232.821 338.229 232.821C337.555 232.821 337.007 233.035 336.585 233.463C336.198 233.861 336.005 234.345 336.005 234.913H340.197ZM346.112 240.819C345.38 240.819 344.639 240.766 343.889 240.661V239.105C344.65 239.287 345.424 239.378 346.209 239.378C347.779 239.378 348.564 239.047 348.564 238.385C348.564 238.133 348.503 237.945 348.38 237.822C348.198 237.629 347.911 237.435 347.519 237.242L346.235 236.653C345.403 236.237 344.864 235.903 344.618 235.651C344.155 235.182 343.924 234.626 343.924 233.981C343.924 233.255 344.261 232.663 344.935 232.206C345.661 231.714 346.681 231.468 347.993 231.468C348.655 231.468 349.323 231.515 349.997 231.608V233.111C349.259 232.976 348.614 232.909 348.063 232.909C347.519 232.909 347.094 232.944 346.789 233.015C346.49 233.085 346.265 233.173 346.112 233.278C345.872 233.442 345.752 233.656 345.752 233.92C345.752 234.178 345.834 234.389 345.998 234.553C346.168 234.711 346.432 234.884 346.789 235.071L348.081 235.695C348.925 236.135 349.467 236.472 349.707 236.706C350.164 237.151 350.393 237.711 350.393 238.385C350.393 239.105 350.029 239.685 349.303 240.125C348.541 240.588 347.478 240.819 346.112 240.819ZM353.776 240.898C353.425 240.898 353.132 240.805 352.897 240.617C352.669 240.424 352.555 240.148 352.555 239.791C352.555 239.428 352.669 239.149 352.897 238.956C353.132 238.763 353.425 238.666 353.776 238.666C354.134 238.666 354.43 238.763 354.664 238.956C354.898 239.149 355.016 239.428 355.016 239.791C355.016 240.148 354.898 240.424 354.664 240.617C354.43 240.805 354.134 240.898 353.776 240.898Z" fill="#090A0E"/>
</svg>
