<svg width="250" height="50" viewBox="0 0 250 50" fill="none" xmlns="http://www.w3.org/2000/svg">
<rect width="250" height="50" rx="10" fill="url(#paint0_linear_4522_33634)"/>
<path d="M40.6035 30.5073H38.7578L37.6445 24.7212L35.4839 30.6465H34.8027L32.6421 24.7212L31.4849 30.5073H29.6465L31.8071 19.77H32.8179L35.1396 26.999L37.4102 19.77H38.4136L40.6035 30.5073ZM46.0308 29.7163C45.8647 29.9897 45.5742 30.2144 45.1592 30.3901C44.749 30.561 44.3193 30.6465 43.8701 30.6465C43.0254 30.6465 42.3613 30.4365 41.8779 30.0166C41.3945 29.5918 41.1528 28.9912 41.1528 28.2148C41.1528 27.3066 41.4922 26.5962 42.1709 26.0835C42.8545 25.5708 43.8237 25.3145 45.0786 25.3145C45.2935 25.3145 45.5474 25.3511 45.8403 25.4243C45.8403 24.5015 45.2568 24.04 44.0898 24.04C43.4014 24.04 42.8252 24.1548 42.3613 24.3843L41.9658 22.9634C42.5957 22.6606 43.3452 22.5093 44.2144 22.5093C45.4106 22.5093 46.2871 22.7827 46.8438 23.3296C47.4004 23.8716 47.6787 24.9019 47.6787 26.4204V28.0977C47.6787 29.1426 47.8887 29.7993 48.3086 30.0679C48.1572 30.3315 47.9888 30.4927 47.8032 30.5513C47.6177 30.6147 47.4053 30.6465 47.166 30.6465C46.9023 30.6465 46.6655 30.5488 46.4556 30.3535C46.2456 30.1582 46.104 29.9458 46.0308 29.7163ZM45.855 26.8086C45.5425 26.7451 45.3081 26.7134 45.1519 26.7134C43.7065 26.7134 42.9839 27.187 42.9839 28.1343C42.9839 28.8374 43.3916 29.189 44.207 29.189C45.3057 29.189 45.855 28.6396 45.855 27.541V26.8086ZM54.71 30.5V30.0239C54.5586 30.1899 54.3022 30.3364 53.9409 30.4634C53.5796 30.5854 53.2061 30.6465 52.8203 30.6465C51.7266 30.6465 50.8647 30.2998 50.2349 29.6064C49.6099 28.9131 49.2974 27.9463 49.2974 26.7061C49.2974 25.4658 49.6562 24.4575 50.374 23.6812C51.0967 22.8999 52 22.5093 53.084 22.5093C53.6797 22.5093 54.2217 22.6313 54.71 22.8755V19.7334L56.541 19.2939V30.5H54.71ZM54.71 24.5308C54.3193 24.2183 53.9116 24.062 53.4868 24.062C52.7544 24.062 52.1904 24.2866 51.7949 24.7358C51.3994 25.1802 51.2017 25.8198 51.2017 26.6548C51.2017 28.2856 51.9878 29.1011 53.5601 29.1011C53.7358 29.1011 53.9507 29.0498 54.2046 28.9473C54.4634 28.8398 54.6318 28.7324 54.71 28.625V24.5308ZM65.3813 27.1382H59.7783C59.8125 27.7632 60.0273 28.249 60.4229 28.5957C60.8184 28.9424 61.3506 29.1157 62.0195 29.1157C62.8545 29.1157 63.4893 28.8984 63.9238 28.4639L64.6343 29.8628C63.9897 30.3853 63.0278 30.6465 61.7485 30.6465C60.5522 30.6465 59.605 30.2974 58.9067 29.5991C58.2134 28.896 57.8667 27.917 57.8667 26.6621C57.8667 25.4268 58.2476 24.4258 59.0093 23.6592C59.7759 22.8926 60.6938 22.5093 61.7632 22.5093C62.9009 22.5093 63.814 22.8486 64.5024 23.5273C65.1909 24.2061 65.5352 25.0703 65.5352 26.1201C65.5352 26.3447 65.4839 26.6841 65.3813 27.1382ZM59.8442 25.7612H63.6968C63.5698 24.6138 62.9351 24.04 61.7925 24.04C60.7476 24.04 60.0981 24.6138 59.8442 25.7612ZM72.8301 30.0679L72.4199 30.6465H71.3872V19.7334L73.2183 19.2939V22.9561C73.7065 22.6582 74.2388 22.5093 74.8149 22.5093C75.9624 22.5093 76.8877 22.873 77.5908 23.6006C78.2939 24.3232 78.6455 25.251 78.6455 26.3838C78.6455 27.6973 78.2915 28.7373 77.5835 29.5039C76.8755 30.2656 75.916 30.6465 74.7051 30.6465C73.9775 30.6465 73.3525 30.4536 72.8301 30.0679ZM73.2183 24.5234V28.6177C73.4868 28.9351 73.8506 29.0938 74.3096 29.0938C75.1934 29.0938 75.8184 28.8838 76.1846 28.4639C76.5557 28.0439 76.7412 27.3726 76.7412 26.4497C76.7412 24.8579 75.9795 24.062 74.4561 24.062C73.9141 24.062 73.5015 24.2158 73.2183 24.5234ZM83.7358 31.7598C83.5405 32.2822 83.1206 32.7144 82.4761 33.0562C81.8364 33.4028 81.0894 33.5762 80.2349 33.5762V31.9575C81.646 31.9575 82.3516 31.6035 82.3516 30.8955C82.3516 30.4268 82.1562 29.709 81.7656 28.7422L79.312 22.6558H81.209L83.3477 28.0757L85.2739 22.6558H87.1709L83.7358 31.7598Z" fill="white"/>
<rect x="97.5" y="15" width="20" height="20" rx="2" fill="white"/>
<path d="M107.708 26.712L109.468 31H114.268V19H110.94L108.7 24.344L107.708 26.712Z" fill="url(#paint1_linear_4522_33634)"/>
<path d="M109.052 31.0001L107.484 27.2561L105.916 31.0001H109.052Z" fill="url(#paint2_linear_4522_33634)"/>
<path d="M107.26 26.712L106.268 24.344L104.028 19H100.7V31H105.5L107.26 26.712Z" fill="url(#paint3_linear_4522_33634)"/>
<path d="M179.24 18.2603V31.588H184.46V32.3481H178.328V18.2603H179.24Z" fill="white"/>
<path d="M191.2 21.3008C193.582 21.3008 195.203 22.6183 195.811 24.2906V21.4528H196.724V32.3481H195.811V29.4596C195.203 31.1319 193.582 32.5001 191.2 32.5001C188.159 32.5001 185.93 30.3211 185.93 26.8751C185.93 23.4292 188.159 21.3008 191.2 21.3008ZM191.301 22.1116C188.666 22.1116 186.842 23.8852 186.842 26.9258C186.842 29.9663 188.666 31.74 191.301 31.74C193.835 31.74 195.811 29.865 195.811 26.9258C195.811 23.9866 193.886 22.1116 191.301 22.1116Z" fill="white"/>
<path d="M205.49 21.3007C208.531 21.3007 210.761 23.4291 210.761 26.875C210.761 30.3209 208.531 32.5 205.49 32.5C203.109 32.5 201.487 31.1824 200.879 29.5101V32.348H199.967V17.5H200.879V24.2905C201.538 22.6182 203.159 21.3007 205.49 21.3007ZM205.389 22.1115C202.855 22.1115 200.93 23.9865 200.93 26.9257C200.93 29.8649 202.855 31.7399 205.389 31.7399C208.024 31.7399 209.849 29.9155 209.849 26.9257C209.849 23.9358 208.024 22.1115 205.389 22.1115Z" fill="white"/>
<path d="M217.095 32.5001C214.713 32.5001 213.041 31.4359 212.838 29.4089H213.75C213.902 30.7771 215.017 31.6893 217.095 31.6893C218.818 31.6893 219.78 30.6758 219.78 29.5102C219.78 26.5204 213.091 28.2433 213.091 24.1386C213.091 22.6183 214.561 21.3008 216.689 21.3008C218.97 21.3008 220.439 22.4663 220.591 24.4933H219.73C219.628 23.1251 218.666 22.0609 216.74 22.0609C215.169 22.0609 214.054 23.0238 214.054 24.1386C214.054 27.4832 220.693 25.7096 220.693 29.5102C220.693 31.2332 219.223 32.5001 217.095 32.5001Z" fill="white"/>
<path d="M142.146 27.3312L144.223 32.3481H149.848V18.2603H145.946L143.311 24.544L142.146 27.3312Z" fill="white"/>
<path d="M130.946 18.2603H127.5V32.3481H130.946V18.2603Z" fill="white"/>
<path d="M175.692 18.2603H165.76V20.8447H171.739L165.76 29.713V32.3481H175.692V29.713H169.712L175.692 20.8447V18.2603Z" fill="white"/>
<path d="M162.871 24.9494C163.378 24.1893 163.632 23.3785 163.632 22.5677C163.632 21.4021 163.175 20.3886 162.263 19.5271C161.351 18.6657 160.084 18.2603 158.463 18.2603H155.979L160.895 26.4697C161.757 26.115 162.415 25.6082 162.871 24.9494Z" fill="white"/>
<path d="M143.716 32.348L141.892 27.9392L140.067 32.348H143.716Z" fill="white"/>
<path d="M141.638 27.3312L140.473 24.544L137.838 18.2603H133.936V32.3481H139.561L141.638 27.3312Z" fill="white"/>
<path d="M155.422 18.2603H152.889V26.6217V32.3481H163.885L155.422 18.2603Z" fill="white"/>
<defs>
<linearGradient id="paint0_linear_4522_33634" x1="308.333" y1="-1.91395e-06" x2="263.101" y2="143.933" gradientUnits="userSpaceOnUse">
<stop stop-color="#11FAEC"/>
<stop offset="0.322849" stop-color="#0EB2F9"/>
<stop offset="0.697567" stop-color="#8451BD"/>
<stop offset="0.837337" stop-color="#CE17D6"/>
<stop offset="1" stop-color="#FE36AE"/>
</linearGradient>
<linearGradient id="paint1_linear_4522_33634" x1="115.799" y1="19" x2="104.019" y2="23.0981" gradientUnits="userSpaceOnUse">
<stop stop-color="#11FAEC"/>
<stop offset="0.322849" stop-color="#0EB2F9"/>
<stop offset="0.697567" stop-color="#8451BD"/>
<stop offset="0.837337" stop-color="#CE17D6"/>
<stop offset="1" stop-color="#FE36AE"/>
</linearGradient>
<linearGradient id="paint2_linear_4522_33634" x1="109.784" y1="27.2561" x2="104.868" y2="29.8765" gradientUnits="userSpaceOnUse">
<stop stop-color="#11FAEC"/>
<stop offset="0.322849" stop-color="#0EB2F9"/>
<stop offset="0.697567" stop-color="#8451BD"/>
<stop offset="0.837337" stop-color="#CE17D6"/>
<stop offset="1" stop-color="#FE36AE"/>
</linearGradient>
<linearGradient id="paint3_linear_4522_33634" x1="108.791" y1="19" x2="97.0116" y2="23.0981" gradientUnits="userSpaceOnUse">
<stop stop-color="#11FAEC"/>
<stop offset="0.322849" stop-color="#0EB2F9"/>
<stop offset="0.697567" stop-color="#8451BD"/>
<stop offset="0.837337" stop-color="#CE17D6"/>
<stop offset="1" stop-color="#FE36AE"/>
</linearGradient>
</defs>
</svg>
