<svg width="173" height="71" viewBox="0 0 173 71" fill="none" xmlns="http://www.w3.org/2000/svg">
<rect y="0.368164" width="165" height="64" rx="32" fill="white"/>
<rect x="8.5" y="6.86816" width="164" height="63" rx="31.5" stroke="white"/>
<path d="M34.1895 28.5909L33.3911 30.1216C33.1665 29.9214 32.8198 29.7237 32.3511 29.5284C31.8823 29.3282 31.4795 29.2281 31.1426 29.2281C30.0879 29.2281 29.2554 29.5869 28.645 30.3047C28.0347 31.0176 27.7295 31.9746 27.7295 33.1758C27.7295 34.3184 28.0273 35.2315 28.623 35.9151C29.2236 36.5987 30.0391 36.9405 31.0693 36.9405C31.748 36.9405 32.3071 36.7549 32.7466 36.3838V34.2744H31.2598V32.6485H34.6509V37.4532C34.1968 37.8242 33.6108 38.1148 32.8931 38.3247C32.1802 38.5298 31.4697 38.6324 30.7617 38.6324C29.2236 38.6324 28.0029 38.1294 27.0996 37.1236C26.2012 36.1128 25.752 34.7798 25.752 33.1245C25.752 31.4693 26.2427 30.1241 27.2241 29.0889C28.2056 28.0537 29.5264 27.5362 31.1865 27.5362C32.3633 27.5362 33.3643 27.8877 34.1895 28.5909ZM43.2349 35.0874H37.6318C37.666 35.7124 37.8809 36.1983 38.2764 36.545C38.6719 36.8916 39.2041 37.065 39.873 37.065C40.708 37.065 41.3428 36.8477 41.7773 36.4131L42.4878 37.812C41.8433 38.3345 40.8813 38.5957 39.6021 38.5957C38.4058 38.5957 37.4585 38.2466 36.7603 37.5484C36.0669 36.8452 35.7202 35.8662 35.7202 34.6114C35.7202 33.376 36.1011 32.375 36.8628 31.6084C37.6294 30.8418 38.5474 30.4585 39.6167 30.4585C40.7544 30.4585 41.6675 30.7979 42.356 31.4766C43.0444 32.1553 43.3887 33.0196 43.3887 34.0694C43.3887 34.294 43.3374 34.6333 43.2349 35.0874ZM37.6978 33.7105H41.5503C41.4233 32.563 40.7886 31.9893 39.646 31.9893C38.6011 31.9893 37.9517 32.563 37.6978 33.7105ZM45.1392 32.0772H44.231V30.605H45.1392V29.0083L46.9702 28.3345V30.605H49.1235V32.0772H46.9702V35.5122C46.9702 36.0738 47.0581 36.4717 47.2339 36.7061C47.4097 36.9356 47.7173 37.0503 48.1567 37.0503C48.5962 37.0503 49.0063 36.9307 49.3872 36.6914V38.376C48.9624 38.5225 48.3569 38.5957 47.5708 38.5957C46.7896 38.5957 46.189 38.376 45.769 37.9366C45.3491 37.4922 45.1392 36.8623 45.1392 36.0469V32.0772ZM57.3486 29.4112V31.9234H60.8936V33.542H57.3486V36.7574H62.2119V38.4492H55.4443V27.7193H62.2925V29.4112H57.3486ZM68.2397 37.6656C68.0737 37.939 67.7832 38.1636 67.3682 38.3394C66.958 38.5103 66.5283 38.5957 66.0791 38.5957C65.2344 38.5957 64.5703 38.3858 64.0869 37.9659C63.6035 37.541 63.3618 36.9405 63.3618 36.1641C63.3618 35.2559 63.7012 34.5454 64.3799 34.0327C65.0635 33.5201 66.0327 33.2637 67.2876 33.2637C67.5024 33.2637 67.7563 33.3003 68.0493 33.3736C68.0493 32.4507 67.4658 31.9893 66.2988 31.9893C65.6104 31.9893 65.0342 32.104 64.5703 32.3335L64.1748 30.9126C64.8047 30.6099 65.5542 30.4585 66.4233 30.4585C67.6196 30.4585 68.4961 30.732 69.0527 31.2788C69.6094 31.8208 69.8877 32.8511 69.8877 34.3697V36.0469C69.8877 37.0918 70.0977 37.7486 70.5176 38.0171C70.3662 38.2808 70.1978 38.4419 70.0122 38.5005C69.8267 38.564 69.6143 38.5957 69.375 38.5957C69.1113 38.5957 68.8745 38.4981 68.6646 38.3028C68.4546 38.1075 68.313 37.8951 68.2397 37.6656ZM68.064 34.7578C67.7515 34.6944 67.5171 34.6626 67.3608 34.6626C65.9155 34.6626 65.1929 35.1363 65.1929 36.0835C65.1929 36.7867 65.6006 37.1382 66.416 37.1382C67.5146 37.1382 68.064 36.5889 68.064 35.4903V34.7578ZM76.4062 32.3116C76.0791 32.0967 75.7202 31.9893 75.3296 31.9893C74.9048 31.9893 74.5264 32.1822 74.1943 32.5679C73.8672 32.9536 73.7036 33.4248 73.7036 33.9815V38.4492H71.8726V30.605H73.7036V31.3228C74.2163 30.7466 74.8975 30.4585 75.7471 30.4585C76.3721 30.4585 76.8506 30.5537 77.1826 30.7442L76.4062 32.3116ZM78.6035 27.6826L80.4346 27.2432V36.0616C80.4346 37.0284 80.7227 37.6045 81.2988 37.7901C81.0156 38.3272 80.5322 38.5957 79.8486 38.5957C79.0186 38.5957 78.6035 38.0196 78.6035 36.8672V27.6826ZM86.1841 39.709C85.9888 40.2315 85.5688 40.6636 84.9243 41.0054C84.2847 41.3521 83.5376 41.5254 82.6831 41.5254V39.9068C84.0942 39.9068 84.7998 39.5528 84.7998 38.8448C84.7998 38.376 84.6045 37.6582 84.2139 36.6914L81.7603 30.605H83.6572L85.7959 36.0249L87.7222 30.605H89.6191L86.1841 39.709ZM100.789 38.4492L100.005 36.274H96.3281L95.5811 38.4492H93.4644L97.7417 27.5728H98.5767L102.891 38.4492H100.789ZM98.1592 30.854L96.8701 34.8164H99.4482L98.1592 30.854ZM110.076 31.2276L109.292 32.5972C108.862 32.1919 108.286 31.9893 107.563 31.9893C106.87 31.9893 106.321 32.2212 105.916 32.6851C105.515 33.1441 105.315 33.7813 105.315 34.5967C105.315 36.2422 106.099 37.065 107.666 37.065C108.345 37.065 108.943 36.8404 109.46 36.3911L110.134 37.834C109.602 38.166 109.136 38.376 108.735 38.4639C108.34 38.5518 107.871 38.5957 107.329 38.5957C106.118 38.5957 105.161 38.2442 104.458 37.541C103.76 36.833 103.411 35.8516 103.411 34.5967C103.411 33.3614 103.794 32.3628 104.561 31.6011C105.327 30.8394 106.372 30.4585 107.695 30.4585C108.608 30.4585 109.402 30.7149 110.076 31.2276ZM117.751 31.2276L116.968 32.5972C116.538 32.1919 115.962 31.9893 115.239 31.9893C114.546 31.9893 113.997 32.2212 113.591 32.6851C113.191 33.1441 112.991 33.7813 112.991 34.5967C112.991 36.2422 113.774 37.065 115.342 37.065C116.021 37.065 116.619 36.8404 117.136 36.3911L117.81 37.834C117.278 38.166 116.812 38.376 116.411 38.4639C116.016 38.5518 115.547 38.5957 115.005 38.5957C113.794 38.5957 112.837 38.2442 112.134 37.541C111.436 36.833 111.086 35.8516 111.086 34.5967C111.086 33.3614 111.47 32.3628 112.236 31.6011C113.003 30.8394 114.048 30.4585 115.371 30.4585C116.284 30.4585 117.078 30.7149 117.751 31.2276ZM126.277 35.0874H120.674C120.708 35.7124 120.923 36.1983 121.318 36.545C121.714 36.8916 122.246 37.065 122.915 37.065C123.75 37.065 124.385 36.8477 124.819 36.4131L125.53 37.812C124.885 38.3345 123.923 38.5957 122.644 38.5957C121.448 38.5957 120.5 38.2466 119.802 37.5484C119.109 36.8452 118.762 35.8662 118.762 34.6114C118.762 33.376 119.143 32.375 119.905 31.6084C120.671 30.8418 121.589 30.4585 122.659 30.4585C123.796 30.4585 124.709 30.7979 125.398 31.4766C126.086 32.1553 126.431 33.0196 126.431 34.0694C126.431 34.294 126.379 34.6333 126.277 35.0874ZM120.74 33.7105H124.592C124.465 32.563 123.831 31.9893 122.688 31.9893C121.643 31.9893 120.994 32.563 120.74 33.7105ZM127.419 37.9439L128.071 36.4864C128.618 36.9209 129.236 37.1382 129.924 37.1382C130.637 37.1382 130.994 36.8843 130.994 36.3765C130.994 36.0786 130.886 35.8345 130.671 35.6441C130.457 35.4536 130.039 35.229 129.419 34.9702C128.066 34.4087 127.39 33.6226 127.39 32.6118C127.39 31.9331 127.649 31.4058 128.167 31.0298C128.684 30.649 129.346 30.4585 130.151 30.4585C130.967 30.4585 131.733 30.6416 132.451 31.0078L131.924 32.4287C131.523 32.0869 130.967 31.916 130.254 31.916C129.614 31.916 129.294 32.17 129.294 32.6778C129.294 32.878 129.399 33.0586 129.609 33.2198C129.819 33.3809 130.269 33.5982 130.957 33.8716C131.646 34.1402 132.141 34.4673 132.444 34.8531C132.747 35.2388 132.898 35.7051 132.898 36.252C132.898 36.9795 132.627 37.5533 132.085 37.9732C131.548 38.3882 130.815 38.5957 129.888 38.5957C129.365 38.5957 128.945 38.5518 128.628 38.4639C128.315 38.3809 127.913 38.2076 127.419 37.9439ZM133.879 37.9439L134.531 36.4864C135.078 36.9209 135.696 37.1382 136.384 37.1382C137.097 37.1382 137.454 36.8843 137.454 36.3765C137.454 36.0786 137.346 35.8345 137.131 35.6441C136.917 35.4536 136.499 35.229 135.879 34.9702C134.526 34.4087 133.85 33.6226 133.85 32.6118C133.85 31.9331 134.109 31.4058 134.626 31.0298C135.144 30.649 135.806 30.4585 136.611 30.4585C137.427 30.4585 138.193 30.6416 138.911 31.0078L138.384 32.4287C137.983 32.0869 137.427 31.916 136.714 31.916C136.074 31.916 135.754 32.17 135.754 32.6778C135.754 32.878 135.859 33.0586 136.069 33.2198C136.279 33.3809 136.729 33.5982 137.417 33.8716C138.105 34.1402 138.601 34.4673 138.904 34.8531C139.207 35.2388 139.358 35.7051 139.358 36.252C139.358 36.9795 139.087 37.5533 138.545 37.9732C138.008 38.3882 137.275 38.5957 136.348 38.5957C135.825 38.5957 135.405 38.5518 135.088 38.4639C134.775 38.3809 134.373 38.2076 133.879 37.9439Z" fill="#090A0E"/>
</svg>
