<svg width="1366" height="19" viewBox="0 0 1366 19" fill="none" xmlns="http://www.w3.org/2000/svg">
<rect y="8.36816" width="1366" height="1" rx="0.5" fill="#090A0E"/>
<g clip-path="url(#clip0_4522_33913)">
<mask id="mask0_4522_33913" style="mask-type:alpha" maskUnits="userSpaceOnUse" x="696" y="5" width="27" height="9">
<path fill-rule="evenodd" clip-rule="evenodd" d="M723 5.0205V13.1267H696.028V5.0205H723Z" fill="white"/>
</mask>
<g mask="url(#mask0_4522_33913)">
<path fill-rule="evenodd" clip-rule="evenodd" d="M703.207 5.74097C702.432 5.26598 701.612 4.91236 700.64 5.05087C698.965 5.28957 697.58 6.6171 696.615 7.81712C695.922 8.67886 695.795 9.16323 696.493 10.0924C697.128 10.9388 697.947 11.7 698.903 12.2196C699.821 12.7185 701.132 13.476 702.149 12.9464C703.078 12.4625 703.745 11.6963 704.564 11.0602C705.291 10.4963 706.093 9.6266 707.057 9.44218C708.191 9.22562 709.101 10.3375 709.915 10.8924C710.762 11.4691 711.764 11.4899 712.757 11.3407C713.792 11.1853 714.794 11.0466 715.823 10.8465C717.03 10.6118 718.215 10.4426 719.433 10.1255C720.536 9.83815 721.76 9.60703 722.723 8.9903C722.818 8.92905 722.916 8.86311 722.972 8.76824C723.276 8.25995 720.968 7.83974 720.586 7.74099C719.538 7.46996 718.48 7.23642 717.417 7.02713C715.784 6.70599 714.14 6.44369 712.494 6.19496C711.773 6.08603 711.321 5.88627 710.666 6.19463C710.05 6.48393 709.615 6.87892 709.093 7.28572C708.635 7.64224 708.05 8.08411 707.419 8.05146C706.739 8.01623 705.868 7.42956 705.3 7.09404C704.582 6.67076 703.916 6.17589 703.207 5.74097Z" fill="#090A0E"/>
<path fill-rule="evenodd" clip-rule="evenodd" d="M703.207 5.74097C702.432 5.26598 701.612 4.91236 700.64 5.05087C698.965 5.28957 697.58 6.6171 696.615 7.81712C695.922 8.67886 695.795 9.16323 696.493 10.0924C697.128 10.9388 697.947 11.7 698.903 12.2196C699.821 12.7185 701.132 13.476 702.149 12.9464C703.078 12.4625 703.745 11.6963 704.564 11.0602C705.291 10.4963 706.093 9.6266 707.057 9.44218C708.191 9.22562 709.101 10.3375 709.915 10.8924C710.762 11.4691 711.764 11.4899 712.757 11.3407C713.792 11.1853 714.794 11.0466 715.823 10.8465C717.03 10.6118 718.215 10.4426 719.433 10.1255C720.536 9.83815 721.76 9.60703 722.723 8.9903C722.818 8.92905 722.916 8.86311 722.972 8.76824C723.276 8.25995 720.968 7.83974 720.586 7.74099C719.538 7.46996 718.48 7.23642 717.417 7.02713C715.784 6.70599 714.14 6.44369 712.494 6.19496C711.773 6.08603 711.321 5.88627 710.666 6.19463C710.05 6.48393 709.615 6.87892 709.093 7.28572C708.635 7.64224 708.05 8.08411 707.419 8.05146C706.739 8.01623 705.868 7.42956 705.3 7.09404C704.582 6.67076 703.916 6.17589 703.207 5.74097Z" fill="#090A0E"/>
</g>
<mask id="mask1_4522_33913" style="mask-type:alpha" maskUnits="userSpaceOnUse" x="642" y="5" width="27" height="9">
<path fill-rule="evenodd" clip-rule="evenodd" d="M642 5.0205V13.1267H668.971V5.0205H642Z" fill="white"/>
</mask>
<g mask="url(#mask1_4522_33913)">
<path fill-rule="evenodd" clip-rule="evenodd" d="M661.793 5.74097C662.568 5.26598 663.388 4.91236 664.36 5.05087C666.035 5.28957 667.42 6.6171 668.385 7.81712C669.078 8.67886 669.205 9.16323 668.507 10.0924C667.872 10.9388 667.053 11.7 666.097 12.2196C665.179 12.7185 663.868 13.476 662.851 12.9464C661.922 12.4625 661.255 11.6963 660.436 11.0602C659.709 10.4963 658.907 9.6266 657.942 9.44218C656.809 9.22562 655.898 10.3375 655.084 10.8924C654.238 11.4691 653.236 11.4899 652.243 11.3407C651.208 11.1853 650.206 11.0466 649.177 10.8465C647.97 10.6118 646.785 10.4426 645.567 10.1255C644.464 9.83815 643.24 9.60703 642.277 8.9903C642.182 8.92905 642.084 8.86311 642.027 8.76824C641.724 8.25995 644.032 7.83974 644.413 7.74099C645.461 7.46996 646.52 7.23642 647.583 7.02713C649.215 6.70599 650.86 6.44369 652.506 6.19496C653.227 6.08603 653.679 5.88627 654.334 6.19463C654.949 6.48393 655.385 6.87892 655.907 7.28572C656.365 7.64224 656.95 8.08411 657.581 8.05146C658.261 8.01623 659.132 7.42956 659.7 7.09404C660.418 6.67076 661.084 6.17589 661.793 5.74097Z" fill="#090A0E"/>
<path fill-rule="evenodd" clip-rule="evenodd" d="M661.793 5.74097C662.568 5.26598 663.388 4.91236 664.36 5.05087C666.035 5.28957 667.42 6.6171 668.385 7.81712C669.078 8.67886 669.205 9.16323 668.507 10.0924C667.872 10.9388 667.053 11.7 666.097 12.2196C665.179 12.7185 663.868 13.476 662.851 12.9464C661.922 12.4625 661.255 11.6963 660.436 11.0602C659.709 10.4963 658.907 9.6266 657.942 9.44218C656.809 9.22562 655.898 10.3375 655.084 10.8924C654.238 11.4691 653.236 11.4899 652.243 11.3407C651.208 11.1853 650.206 11.0466 649.177 10.8465C647.97 10.6118 646.785 10.4426 645.567 10.1255C644.464 9.83815 643.24 9.60703 642.277 8.9903C642.182 8.92905 642.084 8.86311 642.027 8.76824C641.724 8.25995 644.032 7.83974 644.413 7.74099C645.461 7.46996 646.52 7.23642 647.583 7.02713C649.215 6.70599 650.86 6.44369 652.506 6.19496C653.227 6.08603 653.679 5.88627 654.334 6.19463C654.949 6.48393 655.385 6.87892 655.907 7.28572C656.365 7.64224 656.95 8.08411 657.581 8.05146C658.261 8.01623 659.132 7.42956 659.7 7.09404C660.418 6.67076 661.084 6.17589 661.793 5.74097Z" fill="#090A0E"/>
</g>
<mask id="mask2_4522_33913" style="mask-type:alpha" maskUnits="userSpaceOnUse" x="673" y="0" width="20" height="19">
<path fill-rule="evenodd" clip-rule="evenodd" d="M692.134 18.3682H673V0.368164H692.134V18.3682Z" fill="white"/>
</mask>
<g mask="url(#mask2_4522_33913)">
<path fill-rule="evenodd" clip-rule="evenodd" d="M684.636 10.8086C684.201 11.2246 683.433 11.9885 682.787 12.0682C682.715 12.0771 682.641 12.0811 682.567 12.0819C682.492 12.0811 682.418 12.0771 682.347 12.0682C681.7 11.9885 680.933 11.2246 680.497 10.8086C680.019 10.3519 679.439 9.65392 679.788 8.98062C680.079 8.41915 680.539 7.93317 681.037 7.52719C681.415 7.21866 682.038 6.66851 682.567 6.6538C683.095 6.66851 683.719 7.21866 684.097 7.52719C684.594 7.93317 685.055 8.41915 685.345 8.98062C685.694 9.65392 685.114 10.3519 684.636 10.8086ZM691.781 8.08395C690.817 6.22195 689.29 4.61079 687.641 3.26419C686.387 2.24131 684.319 0.416811 682.567 0.368164C680.814 0.416811 678.747 2.24131 677.493 3.26419C675.843 4.61079 674.317 6.22195 673.353 8.08395C672.197 10.3169 674.119 12.6316 675.705 14.1455C677.149 15.5249 679.693 18.0586 681.837 18.3225C682.075 18.3517 682.319 18.3656 682.567 18.3682C682.814 18.3656 683.059 18.3517 683.296 18.3225C685.441 18.0586 687.984 15.5249 689.429 14.1455C691.014 12.6316 692.937 10.3169 691.781 8.08395Z" fill="#090A0E"/>
</g>
</g>
<path d="M533 8.86816C533 8.59202 533.224 8.36816 533.5 8.36816H683H832.5C832.776 8.36816 833 8.59202 833 8.86816C833 9.14431 832.776 9.36816 832.5 9.36816H533.5C533.224 9.36816 533 9.14431 533 8.86816Z" fill="#090A0E"/>
<defs>
<clipPath id="clip0_4522_33913">
<rect width="81" height="18" fill="white" transform="translate(642 0.368164)"/>
</clipPath>
</defs>
</svg>
