<svg width="81" height="19" viewBox="0 0 81 19" fill="none" xmlns="http://www.w3.org/2000/svg">
<g clip-path="url(#clip0_4541_23928)">
<mask id="mask0_4541_23928" style="mask-type:alpha" maskUnits="userSpaceOnUse" x="54" y="5" width="27" height="9">
<path fill-rule="evenodd" clip-rule="evenodd" d="M81.0002 5.02051V13.1267H54.0288V5.02051H81.0002Z" fill="white"/>
</mask>
<g mask="url(#mask0_4541_23928)">
<path fill-rule="evenodd" clip-rule="evenodd" d="M61.2066 5.74097C60.4319 5.26598 59.612 4.91236 58.6404 5.05087C56.9652 5.28957 55.5804 6.6171 54.6151 7.81712C53.9222 8.67886 53.7952 9.16323 54.4928 10.0924C55.1284 10.9388 55.9469 11.7 56.9028 12.2196C57.8208 12.7185 59.1317 13.476 60.149 12.9464C61.0784 12.4625 61.7446 11.6963 62.5643 11.0602C63.2906 10.4963 64.0927 9.62659 65.0575 9.44218C66.1908 9.22561 67.1015 10.3375 67.9155 10.8924C68.7618 11.4691 69.7638 11.4899 70.7572 11.3407C71.7918 11.1853 72.7938 11.0466 73.823 10.8465C75.0302 10.6118 76.2148 10.4426 77.433 10.1255C78.5363 9.83815 79.7601 9.60703 80.7229 8.9903C80.8183 8.92905 80.9157 8.86311 80.9725 8.76824C81.2762 8.25995 78.9683 7.83974 78.5865 7.74099C77.5385 7.46996 76.4802 7.23642 75.4167 7.02713C73.7845 6.70599 72.1401 6.44369 70.4939 6.19496C69.7732 6.08603 69.321 5.88627 68.6656 6.19463C68.0505 6.48393 67.6153 6.87892 67.0928 7.28572C66.6349 7.64224 66.0501 8.08411 65.4192 8.05146C64.7387 8.01623 63.8682 7.42956 63.2997 7.09404C62.5823 6.67076 61.9161 6.17589 61.2066 5.74097Z" fill="#090A0E"/>
<path fill-rule="evenodd" clip-rule="evenodd" d="M61.2066 5.74097C60.4319 5.26598 59.612 4.91236 58.6404 5.05087C56.9652 5.28957 55.5804 6.6171 54.6151 7.81712C53.9222 8.67886 53.7952 9.16323 54.4928 10.0924C55.1284 10.9388 55.9469 11.7 56.9028 12.2196C57.8208 12.7185 59.1317 13.476 60.149 12.9464C61.0784 12.4625 61.7446 11.6963 62.5643 11.0602C63.2906 10.4963 64.0927 9.62659 65.0575 9.44218C66.1908 9.22561 67.1015 10.3375 67.9155 10.8924C68.7618 11.4691 69.7638 11.4899 70.7572 11.3407C71.7918 11.1853 72.7938 11.0466 73.823 10.8465C75.0302 10.6118 76.2148 10.4426 77.433 10.1255C78.5363 9.83815 79.7601 9.60703 80.7229 8.9903C80.8183 8.92905 80.9157 8.86311 80.9725 8.76824C81.2762 8.25995 78.9683 7.83974 78.5865 7.74099C77.5385 7.46996 76.4802 7.23642 75.4167 7.02713C73.7845 6.70599 72.1401 6.44369 70.4939 6.19496C69.7732 6.08603 69.321 5.88627 68.6656 6.19463C68.0505 6.48393 67.6153 6.87892 67.0928 7.28572C66.6349 7.64224 66.0501 8.08411 65.4192 8.05146C64.7387 8.01623 63.8682 7.42956 63.2997 7.09404C62.5823 6.67076 61.9161 6.17589 61.2066 5.74097Z" fill="#090A0E"/>
</g>
<mask id="mask1_4541_23928" style="mask-type:alpha" maskUnits="userSpaceOnUse" x="0" y="5" width="27" height="9">
<path fill-rule="evenodd" clip-rule="evenodd" d="M0 5.02051V13.1267H26.9714V5.02051H0Z" fill="white"/>
</mask>
<g mask="url(#mask1_4541_23928)">
<path fill-rule="evenodd" clip-rule="evenodd" d="M19.7933 5.74097C20.568 5.26598 21.3879 4.91236 22.3595 5.05087C24.0347 5.28957 25.4195 6.6171 26.3848 7.81712C27.0777 8.67886 27.2047 9.16323 26.5071 10.0924C25.8715 10.9388 25.053 11.7 24.0971 12.2196C23.1791 12.7185 21.8682 13.476 20.8509 12.9464C19.9215 12.4625 19.2553 11.6963 18.4356 11.0602C17.7093 10.4963 16.9072 9.62659 15.9424 9.44218C14.8091 9.22561 13.8984 10.3375 13.0844 10.8924C12.2381 11.4691 11.2361 11.4899 10.2428 11.3407C9.20818 11.1853 8.2061 11.0466 7.17699 10.8465C5.96978 10.6118 4.78514 10.4426 3.56698 10.1255C2.46361 9.83815 1.2398 9.60703 0.277075 8.9903C0.181607 8.92905 0.084254 8.86311 0.0274532 8.76824C-0.276233 8.25995 2.03161 7.83974 2.41349 7.74099C3.46142 7.46996 4.51978 7.23642 5.58328 7.02713C7.21549 6.70599 8.85984 6.44369 10.5061 6.19496C11.2268 6.08603 11.6789 5.88627 12.3343 6.19463C12.9494 6.48393 13.3846 6.87892 13.9071 7.28572C14.365 7.64224 14.9498 8.08411 15.5807 8.05146C16.2612 8.01623 17.1317 7.42956 17.7002 7.09404C18.4176 6.67076 19.0838 6.17589 19.7933 5.74097Z" fill="#090A0E"/>
<path fill-rule="evenodd" clip-rule="evenodd" d="M19.7933 5.74097C20.568 5.26598 21.3879 4.91236 22.3595 5.05087C24.0347 5.28957 25.4195 6.6171 26.3848 7.81712C27.0777 8.67886 27.2047 9.16323 26.5071 10.0924C25.8715 10.9388 25.053 11.7 24.0971 12.2196C23.1791 12.7185 21.8682 13.476 20.8509 12.9464C19.9215 12.4625 19.2553 11.6963 18.4356 11.0602C17.7093 10.4963 16.9072 9.62659 15.9424 9.44218C14.8091 9.22561 13.8984 10.3375 13.0844 10.8924C12.2381 11.4691 11.2361 11.4899 10.2428 11.3407C9.20818 11.1853 8.2061 11.0466 7.17699 10.8465C5.96978 10.6118 4.78514 10.4426 3.56698 10.1255C2.46361 9.83815 1.2398 9.60703 0.277075 8.9903C0.181607 8.92905 0.084254 8.86311 0.0274532 8.76824C-0.276233 8.25995 2.03161 7.83974 2.41349 7.74099C3.46142 7.46996 4.51978 7.23642 5.58328 7.02713C7.21549 6.70599 8.85984 6.44369 10.5061 6.19496C11.2268 6.08603 11.6789 5.88627 12.3343 6.19463C12.9494 6.48393 13.3846 6.87892 13.9071 7.28572C14.365 7.64224 14.9498 8.08411 15.5807 8.05146C16.2612 8.01623 17.1317 7.42956 17.7002 7.09404C18.4176 6.67076 19.0838 6.17589 19.7933 5.74097Z" fill="#090A0E"/>
</g>
<mask id="mask2_4541_23928" style="mask-type:alpha" maskUnits="userSpaceOnUse" x="31" y="0" width="20" height="19">
<path fill-rule="evenodd" clip-rule="evenodd" d="M50.1337 18.3682H31V0.368164H50.1337V18.3682Z" fill="white"/>
</mask>
<g mask="url(#mask2_4541_23928)">
<path fill-rule="evenodd" clip-rule="evenodd" d="M42.6362 10.8086C42.2006 11.2246 41.4334 11.9885 40.7869 12.0682C40.715 12.0771 40.6415 12.0811 40.5669 12.0819C40.4921 12.0811 40.4185 12.0771 40.3468 12.0682C39.7003 11.9885 38.9331 11.2246 38.4975 10.8086C38.0193 10.3519 37.4395 9.65392 37.7882 8.98062C38.079 8.41915 38.5393 7.93317 39.0368 7.52719C39.4147 7.21866 40.0384 6.66851 40.5669 6.6538C41.0954 6.66851 41.7188 7.21866 42.0969 7.52719C42.5943 7.93317 43.0547 8.41915 43.3455 8.98062C43.6941 9.65392 43.1142 10.3519 42.6362 10.8086ZM49.781 8.08395C48.8168 6.22195 47.2905 4.61079 45.6407 3.26419C44.3871 2.24131 42.3194 0.416811 40.567 0.368164C38.8145 0.416811 36.7467 2.24131 35.4933 3.26419C33.8434 4.61079 32.3171 6.22195 31.3527 8.08395C30.1966 10.3169 32.1195 12.6316 33.7048 14.1455C35.1494 15.5249 37.6933 18.0586 39.8373 18.3225C40.0752 18.3517 40.3194 18.3656 40.567 18.3682C40.8145 18.3656 41.0587 18.3517 41.2965 18.3225C43.4406 18.0586 45.9845 15.5249 47.4291 14.1455C49.0144 12.6316 50.9371 10.3169 49.781 8.08395Z" fill="#090A0E"/>
</g>
</g>
<defs>
<clipPath id="clip0_4541_23928">
<rect width="81" height="18" fill="white" transform="translate(0 0.368164)"/>
</clipPath>
</defs>
</svg>
