<svg width="503" height="72" viewBox="0 0 503 72" fill="none" xmlns="http://www.w3.org/2000/svg">
<path d="M91.2085 55.6453L97.8044 15.8887H123.281L122.261 21.9406H104.128L102.338 32.7297H118.861L117.841 38.7589H101.318L98.5296 55.6453H91.2085Z" fill="#07080A"/>
<path d="M123.348 55.6453H115.665L136.268 15.8887H145.153L152.565 55.6453H144.881L139.555 24.0485H139.237L123.348 55.6453ZM126.204 40.0509H147.17L146.173 45.8534H125.23L126.204 40.0509Z" fill="#07080A"/>
<path d="M183.528 27.0189C183.598 26.2515 183.487 25.4784 183.203 24.7618C182.92 24.0453 182.472 23.4053 181.896 22.8936C180.481 21.8402 178.737 21.3259 176.977 21.443C175.624 21.4145 174.277 21.6453 173.011 22.123C171.956 22.5061 171.008 23.1356 170.245 23.9589C169.566 24.71 169.11 25.6367 168.931 26.6336C168.781 27.3575 168.86 28.1101 169.157 28.7869C169.442 29.4071 169.888 29.9395 170.449 30.3282C171.079 30.7593 171.756 31.1167 172.467 31.3935C173.209 31.6674 173.966 31.902 174.733 32.0961L178.292 33.0254C179.7 33.3746 181.074 33.8526 182.394 34.4534C183.639 35.0146 184.781 35.7808 185.772 36.72C186.729 37.6254 187.446 38.7549 187.857 40.0066C188.302 41.4772 188.372 43.0354 188.061 44.5399C187.704 46.806 186.732 48.9307 185.25 50.6824C183.679 52.5078 181.688 53.9236 179.448 54.8077C176.778 55.8529 173.928 56.3613 171.061 56.3037C168.382 56.374 165.718 55.8797 163.242 54.853C161.303 54.0037 159.706 52.5267 158.708 50.6598C157.678 48.5515 157.344 46.1701 157.756 43.8599H164.851C164.662 45.0526 164.904 46.2735 165.531 47.3052C166.162 48.2489 167.074 48.9704 168.137 49.3678C169.405 49.8418 170.751 50.0725 172.104 50.0478C173.555 50.0709 174.998 49.8329 176.365 49.3451C177.532 48.9224 178.592 48.2493 179.47 47.3732C180.266 46.5542 180.789 45.5091 180.966 44.3812C181.066 43.9444 181.075 43.4919 180.993 43.0514C180.911 42.611 180.74 42.1919 180.491 41.8199C179.905 41.0515 179.121 40.4562 178.224 40.0973C177.081 39.5931 175.898 39.1838 174.688 38.8733L170.359 37.6947C167.682 37.1069 165.224 35.7797 163.264 33.8641C162.454 32.9508 161.873 31.8577 161.57 30.6751C161.266 29.4926 161.249 28.2548 161.519 27.0642C161.901 24.7795 162.923 22.6498 164.465 20.9217C166.09 19.1218 168.107 17.7183 170.359 16.8191C172.805 15.8249 175.424 15.3242 178.065 15.3458C180.542 15.2756 183.001 15.7799 185.25 16.8191C187.085 17.6955 188.593 19.1322 189.557 20.9217C190.502 22.8054 190.819 24.9418 190.464 27.0189H183.528Z" fill="#07080A"/>
<path d="M196.516 21.9406L197.536 15.8887H229.269L228.249 21.9406H215.964L210.388 55.6453H203.226L208.824 21.9406H196.516Z" fill="#07080A"/>
<path d="M243.458 15.8887L247.515 45.0148H247.832L261.568 15.8887H272.244L252.23 55.6453H239.446L232.646 15.8887H243.458Z" fill="#07080A"/>
<path d="M272.698 55.6453H262.385L282.399 15.8887H295.183L301.983 55.6453H291.669L287.295 25.9071H286.978L272.698 55.6453ZM273.944 40.0055H295.523L294.276 47.3041H272.675L273.944 40.0055Z" fill="#07080A"/>
<path d="M336.934 15.8887H346.522L342.26 41.5242C341.838 44.3609 340.673 47.0354 338.883 49.2761C337.068 51.5015 334.733 53.2453 332.083 54.3533C329.219 55.5773 326.131 56.1873 323.017 56.1439C320.066 56.2411 317.135 55.6269 314.472 54.3533C312.272 53.273 310.5 51.4849 309.44 49.2761C308.373 46.839 308.08 44.133 308.601 41.5242L312.862 15.8887H322.473L318.37 40.6175C318.14 41.8401 318.25 43.1023 318.687 44.2668C319.101 45.3106 319.84 46.193 320.796 46.7828C321.889 47.4363 323.149 47.7591 324.422 47.7121C325.794 47.7359 327.149 47.4165 328.366 46.7828C329.528 46.1815 330.537 45.3206 331.313 44.2668C332.098 43.1888 332.611 41.9368 332.808 40.6175L336.934 15.8887Z" fill="#07080A"/>
<path d="M345.932 55.6453L352.528 15.8887H362.139L356.857 47.8481H373.404L372.089 55.6453H345.932Z" fill="#07080A"/>
<path d="M376.169 23.6859L377.506 15.8887H411.098L409.783 23.6859H397.725L392.443 55.6453H382.969L388.25 23.6859H376.169Z" fill="#07080A"/>
<path d="M423 32C423 15.4315 436.431 2 453 2H497.167C500.388 2 503 4.61167 503 7.83333V7.83333C503 23.9416 489.942 37 473.833 37H424C423.448 37 423 36.5523 423 36V32Z" fill="#07080A"/>
<path d="M443.65 20.445C443.65 21.03 443.56 22.56 442.66 22.695C442.66 23.76 443.425 24 443.77 24C444.115 24 444.43 23.865 444.685 23.67C445.195 24 445.96 24.135 446.95 24.135C449.185 24.135 450.115 22.965 450.115 21.315C450.115 20.415 449.68 19.455 448.81 18.9C449.32 18.555 449.815 17.895 449.815 16.92C449.815 15.48 448.84 14.52 446.785 14.52C446.53 14.52 446.245 14.55 445.93 14.58C445.705 14.61 445.57 14.61 445.42 14.61C445.285 14.61 445.135 14.55 445 14.415C444.91 14.325 444.805 14.205 444.7 14.205C444.595 14.205 444.52 14.325 444.415 14.43C444.31 14.505 444.175 14.61 444.055 14.61C443.905 14.61 443.755 14.61 443.62 14.58C443.5 14.55 443.365 14.52 443.215 14.52C443.02 14.52 442.855 14.55 442.675 14.64C443.35 15.735 443.65 16.95 443.65 18.195V20.445ZM445.75 17.745C445.75 16.53 445.75 15.93 446.71 15.93C447.34 15.93 447.85 16.32 447.85 17.04C447.85 17.955 447.205 18.555 446.185 18.555H445.915C445.81 18.555 445.75 18.48 445.75 18.375V17.745ZM446.38 19.95C447.115 19.95 447.97 20.205 447.97 21.255C447.97 22.02 447.685 22.725 446.8 22.725C445.75 22.725 445.75 21.75 445.75 20.445V20.13C445.75 20.025 445.795 19.95 445.915 19.95H446.38ZM453.791 20.445C453.791 21.03 453.716 22.56 452.816 22.695C452.816 23.76 453.566 24 453.911 24C454.256 24 454.586 23.865 454.841 23.67C455.201 23.88 456.056 24.135 456.836 24.135C457.466 24.135 457.886 24.045 458.291 23.895C458.681 23.745 458.996 23.64 459.266 23.64C459.521 23.64 459.896 23.715 460.331 24C460.331 23.325 460.091 23.01 459.881 22.815C460.061 22.575 460.211 22.215 460.211 21.885C460.211 20.85 459.281 20.595 458.486 20.595C458.621 20.805 458.711 21.06 458.711 21.285C458.711 21.99 457.991 22.62 457.271 22.62C455.891 22.62 455.891 21.345 455.891 20.7C455.891 20.325 456.116 20.19 456.416 20.19C456.671 20.19 456.836 20.325 456.836 20.535C456.836 20.715 456.806 20.925 456.731 21.09C457.646 21.195 457.886 20.58 457.886 20.16C457.886 19.8 457.751 19.575 457.601 19.44C457.751 19.245 457.886 19.005 457.886 18.66C457.886 18.3 457.646 17.76 456.731 17.82C456.806 17.985 456.836 18.195 456.836 18.375C456.836 18.585 456.671 18.735 456.416 18.735C456.086 18.735 455.891 18.24 455.891 17.745C455.891 16.725 455.891 15.78 456.806 15.78C457.241 15.78 457.631 16.17 457.841 16.725C458.021 17.205 458.576 18.285 459.716 18.36C459.566 18.045 459.506 17.88 459.506 17.73C459.506 17.58 459.596 17.385 459.671 17.22C459.776 17.025 459.851 16.725 459.851 16.41C459.851 16.23 459.761 15.975 459.686 15.84C459.611 15.72 459.566 15.57 459.566 15.495C459.566 15.42 459.611 15.345 459.671 15.255C459.776 15.105 459.851 14.88 459.851 14.685C459.851 14.505 459.806 14.325 459.761 14.325C459.671 14.325 459.521 14.4 459.386 14.46C459.191 14.55 458.861 14.61 458.456 14.61C457.961 14.61 457.511 14.535 457.331 14.4C457.181 14.28 457.091 14.205 457.001 14.205C456.896 14.205 456.776 14.325 456.611 14.43C456.446 14.55 456.206 14.61 455.921 14.61C455.591 14.61 455.276 14.49 455.156 14.385C455.036 14.28 454.946 14.205 454.856 14.205C454.751 14.205 454.646 14.355 454.571 14.43C454.451 14.55 454.286 14.61 454.136 14.61C454.001 14.61 453.911 14.61 453.776 14.58C453.656 14.55 453.506 14.52 453.356 14.52C453.176 14.52 453.011 14.55 452.831 14.64C453.476 15.75 453.791 16.95 453.791 18.195V20.445ZM467.997 18.195C467.997 17.88 467.997 15.78 468.687 15.78C469.152 15.78 469.272 16.395 469.347 17.1C469.467 18.105 470.007 18.735 470.952 18.735C470.817 18.45 470.757 18.27 470.757 18.105C470.757 17.94 470.817 17.67 470.877 17.49C470.967 17.295 471.117 16.98 471.117 16.695C471.117 16.41 471.057 16.065 470.982 15.885C470.937 15.78 470.817 15.585 470.817 15.51C470.817 15.42 470.847 15.345 470.907 15.255C471.012 15.105 471.102 14.88 471.102 14.685C471.102 14.505 471.042 14.385 470.997 14.31C470.877 14.34 470.697 14.385 470.532 14.475C470.367 14.55 470.127 14.61 469.857 14.61C469.632 14.61 469.347 14.52 469.227 14.385C469.092 14.265 469.017 14.205 468.942 14.205C468.867 14.205 468.807 14.265 468.687 14.37C468.507 14.535 468.117 14.61 467.877 14.61C467.607 14.61 467.412 14.535 467.277 14.43C467.142 14.34 467.022 14.205 466.947 14.205C466.872 14.205 466.752 14.34 466.617 14.43C466.482 14.535 466.287 14.61 466.017 14.61C465.777 14.61 465.402 14.535 465.207 14.37C465.087 14.265 465.027 14.205 464.952 14.205C464.892 14.205 464.802 14.265 464.667 14.385C464.547 14.52 464.277 14.61 464.037 14.61C463.767 14.61 463.542 14.58 463.362 14.49C463.182 14.4 463.017 14.34 462.897 14.31C462.852 14.385 462.807 14.505 462.807 14.685C462.807 14.88 462.882 15.105 462.987 15.255C463.047 15.345 463.092 15.42 463.092 15.51C463.092 15.585 462.957 15.78 462.912 15.885C462.837 16.065 462.777 16.41 462.777 16.695C462.777 16.98 462.927 17.295 463.017 17.49C463.092 17.67 463.137 17.94 463.137 18.105C463.137 18.27 463.077 18.45 462.942 18.735C463.917 18.735 464.442 18.105 464.547 17.1C464.637 16.395 464.757 15.78 465.222 15.78C465.912 15.78 465.912 17.88 465.912 18.195V20.445C465.912 21.03 465.822 22.56 464.922 22.695C464.922 23.76 465.687 24 466.017 24C466.362 24 466.692 23.865 466.947 23.67C467.217 23.865 467.547 24 467.877 24C468.222 24 468.987 23.76 468.987 22.695C468.087 22.56 467.997 21.03 467.997 20.445V18.195ZM477.409 20.715C477.514 20.715 477.574 20.79 477.634 20.865C477.724 21 477.919 21.72 477.919 22.11C477.919 22.41 477.694 22.695 477.244 22.695C477.244 23.76 477.994 24 478.339 24C478.684 24 478.999 23.865 479.269 23.67C479.554 23.865 479.869 24 480.214 24C480.559 24 481.309 23.76 481.309 22.695C480.919 22.695 480.409 22.26 479.944 21.15C479.449 19.965 478.354 16.41 478.354 15.225C478.354 15.015 478.369 14.835 478.399 14.595C478.309 14.55 478.219 14.52 478.084 14.52C477.949 14.52 477.769 14.55 477.649 14.58C477.529 14.61 477.424 14.61 477.304 14.61C477.139 14.61 476.959 14.52 476.854 14.43C476.794 14.355 476.674 14.205 476.584 14.205C476.479 14.205 476.374 14.355 476.299 14.43C476.209 14.52 476.074 14.61 475.924 14.61C475.804 14.61 475.639 14.61 475.504 14.58C475.384 14.55 475.279 14.52 475.159 14.52C475.069 14.52 474.994 14.535 474.919 14.565C474.979 14.835 474.979 15.105 474.979 15.51C474.979 15.96 474.199 19.98 473.584 21.615C473.299 22.395 472.759 22.695 472.309 22.695C472.309 23.685 472.894 24 473.164 24C473.509 24 473.824 23.865 474.079 23.67C474.364 23.865 474.679 24 475.024 24C475.369 24 476.149 23.76 476.149 22.695C475.744 22.695 475.459 22.41 475.459 22.11C475.459 21.675 475.564 21.15 475.669 20.865C475.699 20.76 475.774 20.715 475.849 20.715H477.409ZM476.104 19.32C476.014 19.32 475.939 19.29 475.939 19.11C475.939 18.51 476.194 17.505 476.509 17.055C476.899 17.505 477.124 18.51 477.124 19.11C477.124 19.29 476.959 19.32 476.839 19.32H476.104Z" fill="white"/>
<path d="M62.5134 0H9.0665C4.05921 0 0 4.05921 0 9.0665V62.5135C0 67.5208 4.05921 71.58 9.0665 71.58H62.5134C67.5207 71.58 71.5799 67.5208 71.5799 62.5135V9.0665C71.5799 4.05921 67.5207 0 62.5134 0Z" fill="#07080A"/>
<path d="M56.3706 16.1842H15.2087C14.8942 16.1875 14.5861 16.2725 14.3144 16.431C14.0427 16.5894 13.8169 16.8157 13.6592 17.0878C13.5015 17.3598 13.4172 17.6682 13.4146 17.9827C13.4121 18.2972 13.4915 18.6069 13.6448 18.8814L34.2257 54.5128C34.3856 54.7854 34.6143 55.0115 34.8886 55.1687C35.1629 55.3258 35.4736 55.4084 35.7898 55.4084C36.1059 55.4084 36.4163 55.3258 36.6907 55.1687C36.965 55.0115 37.1936 54.7854 37.3536 54.5128L41.4336 47.4409L36.7643 39.3491H46.1027L51.7693 29.5572H31.1204L29.035 25.9533H53.9679L58.0479 18.8814C58.2065 18.5984 58.2863 18.278 58.2789 17.9537C58.2716 17.6293 58.1772 17.3129 58.0058 17.0374C57.8345 16.7619 57.5926 16.5374 57.305 16.3873C57.0174 16.2372 56.6946 16.1671 56.3706 16.1842V16.1842Z" fill="white"/>
<rect x="11" y="29" width="15" height="4" rx="2" fill="white"/>
<rect x="15" y="37" width="15" height="4" rx="2" fill="white"/>
<path d="M19 47C19 45.8954 19.8954 45 21 45H31C32.1046 45 33 45.8954 33 47V47C33 48.1046 32.1046 49 31 49H21C19.8954 49 19 48.1046 19 47V47Z" fill="white"/>
</svg>
