<svg width="339" height="52" viewBox="0 0 339 52" fill="none" xmlns="http://www.w3.org/2000/svg">
<path d="M60.2 17.5H74.165L70.805 20.3H60.2V17.5ZM63.07 31.15V42H60.27V28.35H72.065L70 31.15H63.07ZM86.7936 21.175L88.2286 17.5L97.3636 42H94.5636L86.7936 21.175ZM78.3936 42L86.1986 22.575L87.5986 26.18L81.1936 42H78.3936ZM105.536 39.2H109.246C110.74 39.2 111.836 38.9083 112.536 38.325C113.236 37.7417 113.586 36.855 113.586 35.665C113.586 34.8017 113.493 34.1367 113.306 33.67C113.12 33.18 112.851 32.795 112.501 32.515C112.175 32.235 111.755 32.025 111.241 31.885C110.751 31.7217 110.191 31.535 109.561 31.325V28.525C110.378 28.805 111.195 29.0733 112.011 29.33C112.828 29.5633 113.551 29.9133 114.181 30.38C114.835 30.8467 115.36 31.4883 115.756 32.305C116.176 33.1217 116.386 34.2417 116.386 35.665C116.386 36.1083 116.293 36.6917 116.106 37.415C115.943 38.115 115.593 38.815 115.056 39.515C114.543 40.1917 113.82 40.775 112.886 41.265C111.976 41.755 110.763 42 109.246 42H102.981L105.536 39.2ZM101.756 23.835C101.756 23.3917 101.838 22.82 102.001 22.12C102.188 21.3967 102.538 20.6967 103.051 20.02C103.588 19.32 104.323 18.725 105.256 18.235C106.19 17.745 107.403 17.5 108.896 17.5H115.161L112.606 20.3H108.896C107.403 20.3 106.306 20.5917 105.606 21.175C104.906 21.7583 104.556 22.645 104.556 23.835C104.556 24.6983 104.65 25.375 104.836 25.865C105.023 26.3317 105.28 26.705 105.606 26.985C105.956 27.265 106.376 27.4867 106.866 27.65C107.38 27.79 107.951 27.965 108.581 28.175V30.975C107.765 30.695 106.948 30.4383 106.131 30.205C105.315 29.9483 104.58 29.5867 103.926 29.12C103.296 28.6533 102.771 28.0117 102.351 27.195C101.955 26.3783 101.756 25.2583 101.756 23.835ZM131.806 21.35V42H129.006V21.35H131.806ZM123.721 20.3L121.656 17.5H139.156L137.091 20.3H123.721ZM152.993 42V34.37L159.118 17.5H161.918L152.993 42ZM143.018 17.5H145.818L151.943 34.37V42L143.018 17.5ZM173.312 21.175L174.747 17.5L183.882 42H181.082L173.312 21.175ZM164.912 42L172.717 22.575L174.117 26.18L167.712 42H164.912ZM199.125 39.2H199.3C199.79 39.1533 200.327 39.0483 200.91 38.885C201.493 38.7217 202.042 38.5 202.555 38.22C203.068 37.94 203.5 37.59 203.85 37.17C204.2 36.75 204.375 36.26 204.375 35.7V19.845L207.175 17.5V36.575C207.175 37.3217 206.93 38.0217 206.44 38.675C205.95 39.305 205.32 39.865 204.55 40.355C203.78 40.8217 202.928 41.2067 201.995 41.51C201.062 41.79 200.163 41.9533 199.3 42H199.125V39.2ZM190.2 36.575V17.5L193 19.845V35.7C193 36.26 193.175 36.75 193.525 37.17C193.875 37.59 194.307 37.9517 194.82 38.255C195.333 38.535 195.882 38.7567 196.465 38.92C197.048 39.06 197.585 39.1533 198.075 39.2V42C197.212 41.9533 196.313 41.79 195.38 41.51C194.447 41.2067 193.595 40.8217 192.825 40.355C192.055 39.865 191.425 39.305 190.935 38.675C190.445 38.0217 190.2 37.3217 190.2 36.575ZM216.461 42V29.4L219.261 31.745V39.2H227.346L229.411 42H216.461ZM216.461 17.5L219.261 19.845V30.695L216.461 28.35V17.5ZM243.945 21.35V42H241.145V21.35H243.945ZM235.86 20.3L233.795 17.5H251.295L249.23 20.3H235.86Z" fill="#090A0E"/>
<path d="M60.2 17.5V17.25H59.95V17.5H60.2ZM74.165 17.5L74.325 17.6921L74.8555 17.25H74.165V17.5ZM70.805 20.3V20.55H70.8955L70.965 20.4921L70.805 20.3ZM60.2 20.3H59.95V20.55H60.2V20.3ZM63.07 31.15V30.9H62.82V31.15H63.07ZM63.07 42V42.25H63.32V42H63.07ZM60.27 42H60.02V42.25H60.27V42ZM60.27 28.35V28.1H60.02V28.35H60.27ZM72.065 28.35L72.2662 28.4984L72.56 28.1H72.065V28.35ZM70 31.15V31.4H70.1263L70.2012 31.2984L70 31.15ZM59.95 17.5V18.7963H60.45V17.5H59.95ZM59.95 19.0037V20.3H60.45V19.0037H59.95ZM60.2 20.55H65.1097V20.05H60.2V20.55ZM65.8953 20.55H70.805V20.05H65.8953V20.55ZM70.965 20.4921L72.5206 19.1958L72.2005 18.8116L70.645 20.1079L70.965 20.4921ZM72.7695 18.9884L74.325 17.6921L74.005 17.3079L72.4494 18.6042L72.7695 18.9884ZM74.165 17.25H67.6997V17.75H74.165V17.25ZM66.6653 17.25H60.2V17.75H66.6653V17.25ZM62.82 31.15V36.1731H63.32V31.15H62.82ZM62.82 36.9769V42H63.32V36.9769H62.82ZM63.07 41.75H61.7737V42.25H63.07V41.75ZM61.5663 41.75H60.27V42.25H61.5663V41.75ZM60.52 42V35.6806H60.02V42H60.52ZM60.52 34.6694V28.35H60.02V34.6694H60.52ZM60.27 28.6H65.7306V28.1H60.27V28.6ZM66.6044 28.6H72.065V28.1H66.6044V28.6ZM71.8638 28.2016L70.9078 29.4979L71.3102 29.7947L72.2662 28.4984L71.8638 28.2016ZM70.7548 29.7053L69.7988 31.0016L70.2012 31.2984L71.1572 30.0021L70.7548 29.7053ZM70 30.9H66.7917V31.4H70V30.9ZM66.2783 30.9H63.07V31.4H66.2783V30.9ZM86.7936 21.175L86.5607 21.0841L86.526 21.173L86.5593 21.2624L86.7936 21.175ZM88.2286 17.5L88.4628 17.4127L88.2339 16.7989L87.9957 17.4091L88.2286 17.5ZM97.3636 42V42.25H97.7236L97.5978 41.9127L97.3636 42ZM94.5636 42L94.3293 42.0874L94.39 42.25H94.5636V42ZM78.3936 42L78.1616 41.9068L78.0237 42.25H78.3936V42ZM86.1986 22.575L86.4316 22.4845L86.2025 21.8946L85.9666 22.4818L86.1986 22.575ZM87.5986 26.18L87.8303 26.2738L87.8675 26.1819L87.8316 26.0895L87.5986 26.18ZM81.1936 42V42.25H81.3621L81.4253 42.0938L81.1936 42ZM87.0264 21.2659L87.6908 19.5645L87.225 19.3827L86.5607 21.0841L87.0264 21.2659ZM87.7971 19.2923L88.4614 17.5909L87.9957 17.4091L87.3313 19.1105L87.7971 19.2923ZM87.9943 17.5873L92.2235 28.9299L92.692 28.7553L88.4628 17.4127L87.9943 17.5873ZM92.9001 30.7447L97.1293 42.0873L97.5978 41.9127L93.3686 30.5701L92.9001 30.7447ZM97.3636 41.75H96.0673V42.25H97.3636V41.75ZM95.8599 41.75H94.5636V42.25H95.8599V41.75ZM94.7978 41.9126L91.2006 32.2714L90.7321 32.4462L94.3293 42.0874L94.7978 41.9126ZM90.625 30.7288L87.0278 21.0876L86.5593 21.2624L90.1565 30.9036L90.625 30.7288ZM78.3936 42.25H79.6899V41.75H78.3936V42.25ZM79.8973 42.25H81.1936V41.75H79.8973V42.25ZM81.4253 42.0938L84.3906 34.7697L83.9271 34.5821L80.9618 41.9062L81.4253 42.0938ZM84.865 33.5979L87.8303 26.2738L87.3668 26.0862L84.4015 33.4103L84.865 33.5979ZM87.8316 26.0895L87.1835 24.4205L86.7174 24.6015L87.3655 26.2705L87.8316 26.0895ZM87.0797 24.1535L86.4316 22.4845L85.9655 22.6655L86.6137 24.3345L87.0797 24.1535ZM85.9666 22.4818L82.3532 31.4748L82.8171 31.6613L86.4305 22.6682L85.9666 22.4818ZM81.775 32.9137L78.1616 41.9068L78.6255 42.0932L82.239 33.1002L81.775 32.9137ZM105.536 39.2V38.95H105.426L105.352 39.0315L105.536 39.2ZM112.536 38.325L112.696 38.5171L112.696 38.5171L112.536 38.325ZM113.306 33.67L113.073 33.759L113.074 33.7628L113.306 33.67ZM112.501 32.515L112.339 32.7049L112.345 32.7102L112.501 32.515ZM111.241 31.885L111.162 32.1225L111.176 32.1262L111.241 31.885ZM109.561 31.325H109.311V31.5052L109.482 31.5622L109.561 31.325ZM109.561 28.525L109.643 28.2885L109.311 28.175V28.525H109.561ZM112.011 29.33L111.936 29.5686L111.943 29.5704L112.011 29.33ZM114.181 30.38L114.033 30.5809L114.036 30.5834L114.181 30.38ZM115.756 32.305L115.532 32.4143L115.534 32.4193L115.756 32.305ZM116.106 37.415L115.864 37.3525L115.863 37.3582L116.106 37.415ZM115.056 39.515L114.858 39.3629L114.857 39.3639L115.056 39.515ZM112.886 41.265L112.77 41.0436L112.768 41.0449L112.886 41.265ZM102.981 42L102.797 41.8315L102.415 42.25H102.981V42ZM102.001 22.12L101.759 22.0575L101.758 22.0632L102.001 22.12ZM103.051 20.02L102.853 19.8679L102.852 19.8689L103.051 20.02ZM105.256 18.235L105.373 18.4563L105.373 18.4563L105.256 18.235ZM115.161 17.5L115.346 17.6685L115.728 17.25H115.161V17.5ZM112.606 20.3V20.55H112.717L112.791 20.4685L112.606 20.3ZM105.606 21.175L105.446 20.9829L105.606 21.175ZM104.836 25.865L104.603 25.954L104.604 25.9578L104.836 25.865ZM105.606 26.985L105.444 27.1749L105.45 27.1802L105.606 26.985ZM106.866 27.65L106.787 27.8875L106.801 27.8912L106.866 27.65ZM108.581 28.175H108.831V27.9948L108.661 27.9378L108.581 28.175ZM108.581 30.975L108.5 31.2115L108.831 31.325V30.975H108.581ZM106.131 30.205L106.056 30.4436L106.063 30.4454L106.131 30.205ZM103.926 29.12L103.778 29.3209L103.781 29.3234L103.926 29.12ZM102.351 27.195L102.127 27.3043L102.129 27.3093L102.351 27.195ZM105.352 39.0315L104.169 40.3278L104.538 40.6648L105.721 39.3685L105.352 39.0315ZM103.98 40.5352L102.797 41.8315L103.166 42.1685L104.349 40.8722L103.98 40.5352ZM102.981 42.25H105.882V41.75H102.981V42.25ZM106.346 42.25H109.246V41.75H106.346V42.25ZM109.246 42.25C109.886 42.25 110.476 42.2072 111.016 42.1205L110.937 41.6268C110.428 41.7086 109.864 41.75 109.246 41.75V42.25ZM111.298 42.0703C111.943 41.944 112.513 41.75 113.005 41.4851L112.768 41.0449C112.328 41.2818 111.807 41.4611 111.202 41.5797L111.298 42.0703ZM113.003 41.4863C113.42 41.2673 113.798 41.029 114.137 40.771L113.834 40.3732C113.52 40.6125 113.166 40.8361 112.77 41.0437L113.003 41.4863ZM114.307 40.6373C114.674 40.3389 114.991 40.0153 115.256 39.6661L114.857 39.3639C114.619 39.6786 114.331 39.9739 113.992 40.2494L114.307 40.6373ZM115.255 39.6671C115.497 39.3517 115.703 39.0346 115.873 38.7155L115.432 38.4801C115.276 38.7725 115.085 39.0668 114.858 39.3629L115.255 39.6671ZM115.957 38.5527C116.134 38.1947 116.265 37.8343 116.35 37.4718L115.863 37.3582C115.788 37.6803 115.67 38.0046 115.509 38.3312L115.957 38.5527ZM116.349 37.4775C116.425 37.1828 116.486 36.9094 116.532 36.6575L116.04 36.5675C115.996 36.8056 115.938 37.0672 115.864 37.3525L116.349 37.4775ZM116.555 36.5239C116.609 36.2032 116.636 35.9163 116.636 35.665H116.136C116.136 35.8811 116.112 36.1394 116.062 36.4418L116.555 36.5239ZM116.636 35.665C116.636 35.0739 116.601 34.5309 116.529 34.0367L116.034 34.1089C116.102 34.575 116.136 35.0935 116.136 35.665H116.636ZM116.487 33.7765C116.378 33.1711 116.21 32.6411 115.979 32.1907L115.534 32.4193C115.738 32.816 115.893 33.2963 115.994 33.8645L116.487 33.7765ZM115.981 32.1958C115.797 31.8168 115.586 31.472 115.346 31.1623L114.95 31.4684C115.167 31.7486 115.361 32.0636 115.532 32.4142L115.981 32.1958ZM115.223 31.0099C114.956 30.6906 114.657 30.4126 114.327 30.1766L114.036 30.5834C114.331 30.7941 114.599 31.043 114.84 31.3307L115.223 31.0099ZM114.33 30.1791C114.02 29.9494 113.689 29.7471 113.336 29.5722L113.114 30.0201C113.441 30.1822 113.747 30.3692 114.033 30.5809L114.33 30.1791ZM113.168 29.4917C112.824 29.3325 112.462 29.1986 112.08 29.0896L111.943 29.5704C112.301 29.6726 112.639 29.7977 112.958 29.9454L113.168 29.4917ZM112.086 29.0915C111.708 28.9727 111.33 28.8514 110.952 28.7276L110.797 29.2028C111.177 29.3272 111.557 29.4491 111.936 29.5685L112.086 29.0915ZM110.771 28.6681C110.395 28.5441 110.019 28.4175 109.643 28.2885L109.48 28.7615C109.859 28.8911 110.237 29.0183 110.615 29.143L110.771 28.6681ZM109.311 28.525V29.8213H109.811V28.525H109.311ZM109.311 30.0287V31.325H109.811V30.0287H109.311ZM109.482 31.5622C109.483 31.5623 109.483 31.5625 109.484 31.5627C109.485 31.5629 109.485 31.5631 109.486 31.5632C109.486 31.5634 109.487 31.5636 109.487 31.5638C109.488 31.5639 109.488 31.5641 109.489 31.5643C109.496 31.5667 109.488 31.5641 109.495 31.5664C109.501 31.5683 109.502 31.5688 109.508 31.5707C109.521 31.5751 109.507 31.5705 109.521 31.5749C109.532 31.5787 109.522 31.5754 109.533 31.5791C109.534 31.5793 109.534 31.5795 109.535 31.5797C109.535 31.5798 109.536 31.58 109.536 31.5802C109.537 31.5804 109.538 31.5806 109.538 31.5807C109.539 31.5809 109.539 31.5811 109.54 31.5813C109.54 31.5814 109.541 31.5816 109.541 31.5818C109.542 31.582 109.542 31.5821 109.543 31.5823C109.543 31.5825 109.544 31.5827 109.544 31.5828C109.545 31.583 109.545 31.5832 109.546 31.5834C109.555 31.5865 109.549 31.5845 109.559 31.5876C109.566 31.5901 109.576 31.5935 109.584 31.596C109.601 31.6016 109.573 31.5925 109.59 31.5981C109.599 31.6009 109.588 31.5974 109.597 31.6002C109.606 31.6033 109.6 31.6013 109.609 31.6044C109.626 31.61 109.617 31.6072 109.634 31.6128C109.645 31.6165 109.648 31.6174 109.659 31.6211C109.678 31.6273 109.666 31.6233 109.684 31.6294C109.728 31.6442 109.739 31.6479 109.783 31.6625C109.801 31.6683 109.864 31.6893 109.881 31.6951C109.887 31.6969 109.888 31.6973 109.893 31.6991C109.915 31.7063 109.884 31.696 109.905 31.7032C109.913 31.7056 109.922 31.7088 109.93 31.7112C109.93 31.7114 109.931 31.7116 109.931 31.7117C109.932 31.7119 109.932 31.7121 109.933 31.7122C109.938 31.714 109.93 31.7115 109.936 31.7132C109.941 31.715 109.936 31.7135 109.942 31.7153C109.949 31.7176 109.947 31.7169 109.954 31.7193C109.961 31.7216 109.971 31.7249 109.978 31.7273C109.978 31.7274 109.979 31.7276 109.979 31.7278C109.98 31.7279 109.98 31.7281 109.981 31.7283C109.981 31.7284 109.982 31.7286 109.982 31.7288C109.983 31.7289 109.983 31.7291 109.984 31.7293C109.986 31.7299 109.988 31.7306 109.99 31.7313C109.99 31.7314 109.991 31.7316 109.991 31.7318C109.992 31.7319 109.992 31.7321 109.993 31.7323C110.001 31.7349 109.988 31.7306 109.996 31.7333C109.996 31.7334 109.997 31.7336 109.997 31.7338C109.998 31.7339 109.998 31.7341 109.999 31.7343C110.002 31.7353 109.999 31.7343 110.002 31.7353C110.006 31.7366 110.01 31.7379 110.014 31.7393C110.022 31.7419 110.018 31.7406 110.026 31.7432C110.036 31.7468 110.021 31.7417 110.032 31.7452C110.034 31.7461 110.035 31.7463 110.037 31.7472C110.046 31.7501 110.041 31.7482 110.049 31.7512C110.06 31.7547 110.063 31.7556 110.073 31.7591C110.099 31.7678 110.071 31.7582 110.097 31.767C110.111 31.7716 110.106 31.7702 110.12 31.7748C110.141 31.7818 110.146 31.7835 110.167 31.7905C110.171 31.7916 110.17 31.7913 110.173 31.7924C110.176 31.7933 110.173 31.7925 110.176 31.7934C110.177 31.7936 110.178 31.7941 110.179 31.7944C110.191 31.7982 110.173 31.7924 110.185 31.7963C110.187 31.7972 110.188 31.7974 110.191 31.7982C110.203 31.8023 110.19 31.7981 110.202 31.8021C110.209 31.8043 110.207 31.8038 110.214 31.806C110.219 31.8077 110.22 31.8082 110.225 31.8099C110.241 31.815 110.222 31.8086 110.237 31.8137C110.242 31.8155 110.255 31.8197 110.26 31.8214L110.418 31.3471C110.369 31.3306 110.375 31.3327 110.325 31.3161C110.305 31.3092 110.323 31.3153 110.302 31.3083C110.295 31.306 110.297 31.3067 110.29 31.3044C110.287 31.3032 110.288 31.3036 110.284 31.3024C110.284 31.3023 110.283 31.3021 110.283 31.3019C110.282 31.3018 110.282 31.3016 110.281 31.3015C110.281 31.3013 110.28 31.3011 110.28 31.301C110.279 31.3008 110.279 31.3006 110.278 31.3005C110.271 31.2982 110.262 31.295 110.255 31.2926C110.244 31.2891 110.242 31.2882 110.231 31.2847C110.224 31.2824 110.226 31.2831 110.219 31.2808C110.214 31.279 110.219 31.2806 110.213 31.2788C110.213 31.2786 110.212 31.2785 110.212 31.2783C110.211 31.2781 110.211 31.278 110.21 31.2778C110.21 31.2776 110.209 31.2775 110.209 31.2773C110.208 31.2772 110.208 31.277 110.207 31.2768C110.207 31.2767 110.206 31.2765 110.206 31.2763C110.206 31.2762 110.205 31.276 110.205 31.2758C110.198 31.2736 110.208 31.277 110.202 31.2748C110.201 31.2747 110.201 31.2745 110.2 31.2743C110.2 31.2742 110.199 31.274 110.199 31.2738C110.198 31.2737 110.198 31.2735 110.197 31.2734C110.197 31.2732 110.196 31.273 110.196 31.2729C110.188 31.2702 110.192 31.2715 110.184 31.2689C110.178 31.2671 110.186 31.2697 110.181 31.2679C110.18 31.2677 110.18 31.2676 110.179 31.2674C110.179 31.2672 110.178 31.2671 110.178 31.2669C110.174 31.2656 110.176 31.2662 110.172 31.2649C110.168 31.2636 110.164 31.2623 110.16 31.2609C110.152 31.2583 110.156 31.2596 110.148 31.2569C110.132 31.2516 110.152 31.2583 110.136 31.2529C110.118 31.247 110.142 31.2549 110.124 31.2489C110.116 31.2463 110.126 31.2496 110.118 31.2469C110.117 31.2468 110.117 31.2466 110.116 31.2464C110.116 31.2463 110.115 31.2461 110.115 31.2459C110.114 31.2458 110.114 31.2456 110.113 31.2454C110.113 31.2453 110.112 31.2451 110.112 31.2449C110.105 31.2425 110.107 31.2433 110.1 31.2409C110.1 31.2409 110.094 31.2389 110.094 31.2389C110.094 31.2389 110.091 31.2379 110.091 31.2379C110.09 31.2377 110.09 31.2376 110.089 31.2374C110.089 31.2372 110.088 31.2371 110.088 31.2369C110.087 31.2367 110.087 31.2366 110.086 31.2364C110.086 31.2362 110.085 31.236 110.085 31.2359C110.084 31.2357 110.084 31.2355 110.083 31.2354C110.083 31.2352 110.082 31.235 110.082 31.2349C110.063 31.2286 110.094 31.2391 110.076 31.2329C110.072 31.2317 110.067 31.23 110.063 31.2288C110.063 31.2287 110.062 31.2285 110.062 31.2283C110.061 31.2282 110.061 31.228 110.06 31.2278C110.06 31.2276 110.059 31.2275 110.059 31.2273C110.058 31.2271 110.058 31.227 110.057 31.2268C110.052 31.225 110.057 31.2266 110.051 31.2248C110.046 31.223 110.045 31.2225 110.039 31.2207C110.005 31.2092 109.976 31.1998 109.941 31.1881C109.898 31.1735 109.887 31.1698 109.842 31.1551C109.826 31.1495 109.809 31.144 109.792 31.1384C109.776 31.1329 109.784 31.1356 109.767 31.1301C109.745 31.1226 109.764 31.1291 109.742 31.1217C109.714 31.1123 109.72 31.1142 109.691 31.1048C109.68 31.101 109.69 31.1043 109.679 31.1006C109.677 31.1001 109.677 31.1 109.676 31.0995C109.675 31.0993 109.674 31.0992 109.674 31.099C109.673 31.0988 109.673 31.0986 109.672 31.0984C109.671 31.098 109.671 31.0979 109.669 31.0974C109.667 31.0968 109.668 31.097 109.666 31.0963C109.655 31.0926 109.674 31.099 109.663 31.0953C109.662 31.0951 109.662 31.0949 109.661 31.0947C109.661 31.0946 109.66 31.0944 109.66 31.0942C109.658 31.0937 109.658 31.0936 109.656 31.0931C109.651 31.0913 109.659 31.094 109.653 31.0921C109.641 31.0878 109.653 31.0921 109.641 31.0878L109.482 31.5622ZM110.385 31.8629C110.408 31.8706 110.388 31.8639 110.41 31.8715C110.416 31.8735 110.418 31.8739 110.423 31.8758C110.426 31.8766 110.427 31.8772 110.43 31.878C110.43 31.8781 110.433 31.8789 110.433 31.8791C110.437 31.8805 110.432 31.8787 110.436 31.8801C110.453 31.8858 110.445 31.883 110.462 31.8887C110.47 31.8915 110.466 31.8901 110.475 31.8929C110.476 31.8933 110.48 31.8948 110.481 31.8951C110.482 31.8954 110.483 31.8958 110.484 31.8961C110.485 31.8963 110.485 31.8965 110.486 31.8967C110.486 31.8968 110.487 31.897 110.487 31.8972C110.506 31.9034 110.52 31.908 110.538 31.9141C110.565 31.9229 110.537 31.9138 110.564 31.9226C110.575 31.9263 110.578 31.9272 110.589 31.9309C110.604 31.9359 110.624 31.9427 110.639 31.9476C110.661 31.955 110.666 31.9568 110.688 31.9641C110.732 31.9787 110.743 31.9824 110.786 31.9968C110.795 31.9998 110.789 31.9979 110.798 32.0009C110.799 32.001 110.799 32.0012 110.8 32.0014C110.8 32.0015 110.801 32.0017 110.802 32.0019C110.803 32.0023 110.803 32.0024 110.805 32.0029C110.807 32.0038 110.805 32.003 110.808 32.0039C110.81 32.0048 110.808 32.004 110.811 32.0049C110.821 32.0085 110.824 32.0094 110.835 32.013C110.838 32.014 110.835 32.0129 110.838 32.014C110.841 32.0151 110.837 32.0138 110.841 32.015C110.841 32.0151 110.842 32.0153 110.842 32.0155C110.843 32.0156 110.843 32.0158 110.844 32.016C110.845 32.0164 110.845 32.0165 110.847 32.017C110.855 32.0196 110.845 32.0163 110.853 32.019C110.857 32.0203 110.855 32.0196 110.859 32.021C110.866 32.0233 110.864 32.0226 110.871 32.025C110.875 32.0263 110.879 32.0276 110.883 32.029C110.89 32.0313 110.923 32.0425 110.93 32.0448C110.938 32.0475 110.928 32.0442 110.936 32.0468C110.942 32.0486 110.937 32.047 110.942 32.0488C110.947 32.0505 110.943 32.049 110.948 32.0507C110.951 32.0516 110.948 32.0509 110.951 32.0517C110.958 32.0539 110.947 32.0505 110.954 32.0527C110.958 32.054 110.953 32.0524 110.957 32.0537C110.957 32.0539 110.958 32.054 110.958 32.0542C110.959 32.0544 110.959 32.0545 110.96 32.0547C110.964 32.056 110.962 32.0553 110.966 32.0566C110.966 32.0568 110.967 32.057 110.967 32.0571C110.968 32.0573 110.968 32.0575 110.969 32.0576C110.969 32.0578 110.97 32.058 110.97 32.0581C110.971 32.0583 110.971 32.0584 110.972 32.0586C110.972 32.0588 110.973 32.0589 110.973 32.0591C110.974 32.0593 110.974 32.0594 110.975 32.0596C110.979 32.0612 110.973 32.059 110.978 32.0606C110.998 32.0675 111.004 32.0693 111.024 32.0762C111.035 32.0796 111.037 32.0805 111.048 32.0839C111.066 32.0899 111.041 32.0818 111.059 32.0878C111.06 32.0879 111.06 32.0881 111.061 32.0883C111.061 32.0884 111.062 32.0886 111.062 32.0887C111.063 32.0889 111.063 32.0891 111.064 32.0892C111.064 32.0894 111.065 32.0895 111.065 32.0897C111.065 32.0899 111.066 32.09 111.066 32.0902C111.067 32.0904 111.067 32.0905 111.068 32.0907C111.068 32.0908 111.069 32.091 111.069 32.0912C111.07 32.0913 111.07 32.0915 111.071 32.0916C111.112 32.1053 111.122 32.1087 111.162 32.1222L111.321 31.6478C111.304 31.6423 111.292 31.6382 111.275 31.6326C111.272 31.6318 111.272 31.6316 111.269 31.6307C111.269 31.6306 111.268 31.6304 111.268 31.6302C111.267 31.6301 111.267 31.6299 111.266 31.6298C111.266 31.6296 111.265 31.6294 111.265 31.6293C111.264 31.6291 111.264 31.629 111.263 31.6288C111.262 31.6282 111.262 31.6284 111.261 31.6278C111.26 31.6277 111.26 31.6275 111.259 31.6274C111.259 31.6272 111.258 31.6271 111.258 31.6269C111.256 31.6262 111.254 31.6257 111.252 31.625C111.251 31.6248 111.251 31.6247 111.251 31.6245C111.25 31.6243 111.25 31.6242 111.249 31.624C111.247 31.6232 111.249 31.6239 111.246 31.6231C111.246 31.6229 111.245 31.6227 111.245 31.6226C111.244 31.6224 111.244 31.6223 111.243 31.6221C111.243 31.6219 111.242 31.6218 111.242 31.6216C111.241 31.6215 111.241 31.6213 111.24 31.6211C111.228 31.6169 111.242 31.6216 111.229 31.6173C111.229 31.6173 111.217 31.6134 111.217 31.6134C111.21 31.6109 111.213 31.6122 111.206 31.6096C111.201 31.6079 111.199 31.6074 111.194 31.6057C111.192 31.6048 111.191 31.6046 111.188 31.6038C111.186 31.6031 111.187 31.6034 111.185 31.6028C111.185 31.6026 111.184 31.6025 111.184 31.6023C111.183 31.6021 111.183 31.602 111.182 31.6018C111.182 31.6017 111.182 31.6015 111.181 31.6013C111.181 31.6012 111.18 31.601 111.18 31.6009C111.179 31.6007 111.179 31.6005 111.178 31.6004C111.178 31.6002 111.177 31.6 111.177 31.5999C111.174 31.599 111.173 31.5988 111.171 31.5979C111.17 31.5978 111.17 31.5976 111.169 31.5974C111.169 31.5973 111.168 31.5971 111.168 31.597C111.167 31.5965 111.166 31.5964 111.165 31.596C111.162 31.5951 111.162 31.5949 111.159 31.594C111.145 31.5894 111.161 31.5948 111.147 31.5901C111.127 31.5832 111.157 31.5932 111.136 31.5862C111.13 31.5845 111.129 31.584 111.124 31.5823C111.116 31.5797 111.129 31.5839 111.121 31.5813C111.118 31.5804 111.121 31.5812 111.118 31.5803C111.115 31.5795 111.115 31.5792 111.112 31.5784C111.106 31.5762 111.113 31.5786 111.106 31.5764C111.104 31.5755 111.106 31.5763 111.103 31.5754C111.103 31.5753 111.102 31.5751 111.102 31.5749C111.101 31.5748 111.101 31.5746 111.1 31.5744C111.1 31.5744 111.097 31.5734 111.097 31.5734C111.093 31.5721 111.098 31.5738 111.094 31.5725C111.094 31.5723 111.093 31.5721 111.093 31.572C111.092 31.5718 111.092 31.5716 111.091 31.5715C111.085 31.5693 111.095 31.5727 111.088 31.5705C111.085 31.5694 111.089 31.5706 111.086 31.5695C111.082 31.5682 111.087 31.5698 111.083 31.5685C111.076 31.5663 111.083 31.5687 111.077 31.5665C111.071 31.5648 111.076 31.5663 111.071 31.5646C111.059 31.5606 111.08 31.5675 111.068 31.5636C111.065 31.5627 111.067 31.5635 111.065 31.5626C111.058 31.5604 111.068 31.5638 111.062 31.5616C111.061 31.5614 111.061 31.5612 111.06 31.5611C111.06 31.5609 111.059 31.5607 111.059 31.5606C111.057 31.5598 111.058 31.5603 111.056 31.5596C111.052 31.5583 111.057 31.5599 111.053 31.5586C111.045 31.5559 111.049 31.5573 111.041 31.5546C111.039 31.554 111.037 31.5532 111.035 31.5526C111.028 31.5504 111.036 31.5528 111.029 31.5506C111.022 31.5484 111.033 31.5519 111.026 31.5496C111.024 31.5491 111.025 31.5492 111.023 31.5486C111.022 31.5485 111.022 31.5483 111.021 31.5481C111.021 31.548 111.02 31.5478 111.02 31.5476C111.008 31.5436 111.029 31.5506 111.017 31.5466C111.006 31.5431 111.016 31.5462 111.005 31.5426C111.002 31.5417 110.996 31.5395 110.993 31.5386C110.982 31.535 110.979 31.5341 110.969 31.5306C110.968 31.5304 110.968 31.5302 110.967 31.5301C110.967 31.5299 110.966 31.5297 110.966 31.5296C110.963 31.5287 110.965 31.5294 110.963 31.5285C110.962 31.5284 110.962 31.5282 110.961 31.528C110.961 31.5279 110.96 31.5277 110.96 31.5275C110.955 31.526 110.961 31.528 110.957 31.5265C110.948 31.5235 110.953 31.5255 110.944 31.5225C110.901 31.5081 110.89 31.5044 110.846 31.4898C110.838 31.4871 110.842 31.4884 110.834 31.4857C110.831 31.4848 110.831 31.4845 110.828 31.4836C110.827 31.4834 110.827 31.4833 110.826 31.4831C110.826 31.4829 110.825 31.4828 110.825 31.4826C110.824 31.4824 110.824 31.4822 110.823 31.4821C110.823 31.4819 110.822 31.4817 110.822 31.4816C110.809 31.4773 110.822 31.4817 110.809 31.4774C110.808 31.477 110.804 31.4758 110.803 31.4753C110.792 31.4717 110.808 31.477 110.797 31.4733C110.782 31.4683 110.762 31.4616 110.747 31.4566C110.736 31.4529 110.708 31.4435 110.696 31.4398C110.696 31.4396 110.695 31.4394 110.695 31.4393C110.694 31.4391 110.694 31.4389 110.693 31.4387C110.693 31.4386 110.692 31.4384 110.692 31.4382C110.691 31.438 110.691 31.4379 110.69 31.4377C110.686 31.4364 110.687 31.4368 110.684 31.4356C110.683 31.4354 110.683 31.4352 110.682 31.435C110.682 31.4349 110.681 31.4347 110.681 31.4345C110.668 31.4303 110.69 31.4377 110.677 31.4335C110.677 31.4333 110.676 31.4331 110.676 31.4329C110.675 31.4328 110.675 31.4326 110.674 31.4324C110.674 31.4322 110.673 31.432 110.673 31.4319C110.672 31.4317 110.672 31.4315 110.671 31.4313C110.66 31.4276 110.67 31.4309 110.658 31.4271C110.655 31.4262 110.655 31.4259 110.652 31.425C110.646 31.4231 110.651 31.4247 110.646 31.4229C110.643 31.4219 110.642 31.4217 110.639 31.4207C110.635 31.4193 110.64 31.4211 110.636 31.4197C110.635 31.4195 110.635 31.4193 110.634 31.4191C110.634 31.419 110.633 31.4188 110.633 31.4186C110.631 31.4181 110.631 31.418 110.63 31.4175C110.624 31.4156 110.632 31.4184 110.626 31.4165C110.618 31.4136 110.629 31.4172 110.62 31.4143C110.619 31.4142 110.619 31.414 110.618 31.4138C110.618 31.4136 110.617 31.4134 110.617 31.4133C110.614 31.4123 110.616 31.4132 110.614 31.4122C110.611 31.4113 110.61 31.411 110.607 31.4101C110.605 31.4094 110.603 31.4086 110.601 31.4079C110.589 31.4041 110.606 31.4096 110.594 31.4058C110.583 31.402 110.58 31.401 110.569 31.3972C110.568 31.397 110.568 31.3968 110.567 31.3967C110.566 31.3965 110.566 31.3963 110.565 31.3961C110.565 31.3959 110.564 31.3958 110.564 31.3956C110.563 31.3954 110.563 31.3952 110.562 31.395C110.558 31.3938 110.563 31.3952 110.559 31.394C110.558 31.3938 110.558 31.3936 110.557 31.3934C110.557 31.3933 110.556 31.3931 110.556 31.3929C110.55 31.391 110.549 31.3905 110.543 31.3886L110.385 31.8629ZM111.176 32.1262C111.387 32.1839 111.58 32.2535 111.754 32.3345L111.965 31.8812C111.762 31.787 111.543 31.7081 111.307 31.6438L111.176 32.1262ZM111.841 32.3769C112.03 32.4722 112.195 32.5818 112.339 32.7048L112.664 32.3252C112.488 32.1738 112.288 32.0425 112.067 31.9307L111.841 32.3769ZM112.345 32.7102C112.495 32.8304 112.63 32.973 112.748 33.1392L113.155 32.8495C113.011 32.6471 112.846 32.4702 112.658 32.3198L112.345 32.7102ZM112.801 33.2181C112.905 33.3773 112.996 33.5573 113.073 33.759L113.54 33.581C113.452 33.3494 113.346 33.1371 113.22 32.9451L112.801 33.2181ZM113.074 33.7628C113.163 33.9852 113.232 34.2667 113.277 34.6117L113.773 34.5475C113.724 34.1746 113.648 33.8496 113.539 33.5772L113.074 33.7628ZM113.293 34.7547C113.322 35.0251 113.336 35.3284 113.336 35.665H113.836C113.836 35.3145 113.821 34.9934 113.791 34.7024L113.293 34.7547ZM113.336 35.665C113.336 36.1496 113.276 36.5736 113.159 36.9402L113.636 37.092C113.771 36.6671 113.836 36.1904 113.836 35.665H113.336ZM113.091 37.1306C112.931 37.5369 112.693 37.8693 112.376 38.1329L112.696 38.5171C113.08 38.1973 113.367 37.7947 113.557 37.3142L113.091 37.1306ZM112.376 38.1329C112.043 38.4111 111.6 38.6237 111.036 38.7623L111.156 39.2478C111.774 39.0957 112.291 38.8549 112.696 38.5171L112.376 38.1329ZM110.796 38.8154C110.346 38.9045 109.83 38.95 109.246 38.95V39.45C109.855 39.45 110.404 39.4026 110.893 39.3059L110.796 38.8154ZM109.246 38.95H107.529V39.45H109.246V38.95ZM107.254 38.95H105.536V39.45H107.254V38.95ZM102.006 23.835C102.006 23.6187 102.027 23.3646 102.071 23.0715L101.576 22.9984C101.53 23.3086 101.506 23.588 101.506 23.835H102.006ZM102.09 22.948C102.128 22.713 102.18 22.456 102.245 22.1768L101.758 22.0632C101.691 22.3514 101.637 22.6195 101.596 22.8676L102.09 22.948ZM102.244 22.1825C102.329 21.853 102.449 21.5276 102.607 21.2062L102.158 20.9863C101.986 21.3367 101.853 21.6938 101.759 22.0575L102.244 22.1825ZM102.683 21.0567C102.84 20.7583 103.029 20.4631 103.251 20.1711L102.852 19.8689C102.615 20.1811 102.411 20.4993 102.24 20.8237L102.683 21.0567ZM103.25 20.1721C103.498 19.8484 103.792 19.5469 104.132 19.2678L103.815 18.8811C103.447 19.1829 103.126 19.5117 102.853 19.8679L103.25 20.1721ZM104.292 19.1411C104.613 18.8944 104.973 18.666 105.373 18.4563L105.14 18.0136C104.718 18.2352 104.334 18.4787 103.987 18.7445L104.292 19.1411ZM105.373 18.4563C105.822 18.2206 106.344 18.0421 106.943 17.9235L106.845 17.433C106.208 17.5593 105.639 17.752 105.14 18.0136L105.373 18.4563ZM107.207 17.8757C107.719 17.7922 108.282 17.75 108.896 17.75V17.25C108.26 17.25 107.67 17.2937 107.127 17.3822L107.207 17.8757ZM108.896 17.75H111.797V17.25H108.896V17.75ZM112.261 17.75H115.161V17.25H112.261V17.75ZM114.977 17.3315L113.794 18.6278L114.163 18.9648L115.346 17.6685L114.977 17.3315ZM113.605 18.8352L112.422 20.1315L112.791 20.4685L113.974 19.1722L113.605 18.8352ZM112.606 20.05H110.889V20.55H112.606V20.05ZM110.614 20.05H108.896V20.55H110.614V20.05ZM108.896 20.05C108.288 20.05 107.738 20.0974 107.249 20.1941L107.347 20.6846C107.797 20.5955 108.313 20.55 108.896 20.55V20.05ZM106.987 20.2522C106.369 20.4043 105.852 20.6451 105.446 20.9829L105.766 21.3671C106.1 21.0889 106.543 20.8763 107.107 20.7377L106.987 20.2522ZM105.446 20.9829C105.063 21.3027 104.776 21.7053 104.586 22.1858L105.051 22.3694C105.212 21.9631 105.45 21.6307 105.766 21.3671L105.446 20.9829ZM104.507 22.408C104.372 22.8329 104.306 23.3096 104.306 23.835H104.806C104.806 23.3504 104.867 22.9264 104.984 22.5598L104.507 22.408ZM104.306 23.835C104.306 24.1897 104.322 24.516 104.353 24.8133L104.85 24.7609C104.821 24.4841 104.806 24.1756 104.806 23.835H104.306ZM104.372 24.9707C104.42 25.3447 104.496 25.6736 104.603 25.954L105.07 25.776C104.981 25.5418 104.912 25.2532 104.868 24.9066L104.372 24.9707ZM104.604 25.9578C104.692 26.178 104.796 26.3809 104.916 26.5657L105.335 26.294C105.235 26.1388 105.146 25.9651 105.069 25.7722L104.604 25.9578ZM104.977 26.6575C105.114 26.8526 105.269 27.0253 105.444 27.1748L105.769 26.7952C105.628 26.6743 105.501 26.5332 105.387 26.3708L104.977 26.6575ZM105.45 27.1802C105.631 27.3249 105.828 27.4543 106.042 27.5687L106.278 27.1281C106.09 27.0273 105.918 26.9144 105.763 26.7898L105.45 27.1802ZM106.142 27.6207C106.343 27.7223 106.559 27.811 106.787 27.8872L106.946 27.4128C106.738 27.3437 106.545 27.264 106.366 27.174L106.142 27.6207ZM106.801 27.8912C107.05 27.9591 107.313 28.0355 107.591 28.1204L107.737 27.6422C107.455 27.556 107.187 27.4782 106.932 27.4088L106.801 27.8912ZM107.717 28.1592C107.968 28.2368 108.229 28.3212 108.502 28.4122L108.661 27.9378C108.384 27.8458 108.119 27.7604 107.865 27.6816L107.717 28.1592ZM108.331 28.175V29.4713H108.831V28.175H108.331ZM108.331 29.6787V30.975H108.831V29.6787H108.331ZM108.663 30.7385C108.284 30.6088 107.906 30.4841 107.528 30.3643L107.377 30.841C107.751 30.9596 108.126 31.0831 108.5 31.2115L108.663 30.7385ZM107.345 30.307C106.964 30.1878 106.582 30.0737 106.2 29.9646L106.063 30.4454C106.441 30.5533 106.818 30.6663 107.196 30.7843L107.345 30.307ZM106.206 29.9665C105.846 29.8531 105.502 29.7188 105.175 29.5639L104.961 30.0156C105.309 30.1809 105.675 30.3235 106.056 30.4435L106.206 29.9665ZM105.016 29.4862C104.684 29.3186 104.369 29.1288 104.072 28.9166L103.781 29.3234C104.099 29.5508 104.436 29.7539 104.791 29.9327L105.016 29.4862ZM104.075 28.9191C103.788 28.7062 103.522 28.4539 103.279 28.1613L102.895 28.4809C103.162 28.8026 103.456 29.0829 103.778 29.3209L104.075 28.9191ZM103.168 28.023C102.951 27.7435 102.753 27.4296 102.574 27.0807L102.129 27.3093C102.321 27.683 102.536 28.0232 102.773 28.3293L103.168 28.023ZM102.576 27.0858C102.383 26.6874 102.236 26.2048 102.14 25.6339L101.647 25.7169C101.749 26.323 101.908 26.8534 102.127 27.3042L102.576 27.0858ZM102.103 25.3893C102.039 24.9234 102.006 24.4056 102.006 23.835H101.506C101.506 24.424 101.54 24.965 101.607 25.4574L102.103 25.3893ZM131.806 21.35H132.056V21.1H131.806V21.35ZM131.806 42V42.25H132.056V42H131.806ZM129.006 42H128.756V42.25H129.006V42ZM129.006 21.35V21.1H128.756V21.35H129.006ZM123.721 20.3L123.52 20.4484L123.595 20.55H123.721V20.3ZM121.656 17.5V17.25H121.161L121.455 17.6484L121.656 17.5ZM139.156 17.5L139.357 17.6484L139.651 17.25H139.156V17.5ZM137.091 20.3V20.55H137.218L137.292 20.4484L137.091 20.3ZM131.806 21.1H130.51V21.6H131.806V21.1ZM130.303 21.1H129.006V21.6H130.303V21.1ZM128.756 21.35V30.9102H129.256V21.35H128.756ZM128.756 32.4398V42H129.256V32.4398H128.756ZM129.006 42.25H130.303V41.75H129.006V42.25ZM130.51 42.25H131.806V41.75H130.51V42.25ZM132.056 42V32.4398H131.556V42H132.056ZM132.056 30.9102V21.35H131.556V30.9102H132.056ZM123.922 20.1516L122.966 18.8553L122.564 19.1521L123.52 20.4484L123.922 20.1516ZM122.813 18.6479L121.857 17.3516L121.455 17.6484L122.411 18.9447L122.813 18.6479ZM121.656 17.75H129.758V17.25H121.656V17.75ZM131.054 17.75H139.156V17.25H131.054V17.75ZM138.955 17.3516L137.999 18.6479L138.401 18.9447L139.357 17.6484L138.955 17.3516ZM137.846 18.8553L136.89 20.1516L137.292 20.4484L138.248 19.1521L137.846 18.8553ZM137.091 20.05H130.901V20.55H137.091V20.05ZM129.911 20.05H123.721V20.55H129.911V20.05ZM152.993 42H152.743L153.227 42.0856L152.993 42ZM152.993 34.37L152.758 34.2847L152.743 34.326V34.37H152.993ZM159.118 17.5V17.25H158.942L158.883 17.4147L159.118 17.5ZM161.918 17.5L162.152 17.5856L162.275 17.25H161.918V17.5ZM143.018 17.5V17.25H142.66L142.783 17.5856L143.018 17.5ZM145.818 17.5L146.053 17.4147L145.993 17.25H145.818V17.5ZM151.943 34.37H152.193V34.326L152.178 34.2847L151.943 34.37ZM151.943 42L151.708 42.0856L152.193 42H151.943ZM153.243 42V38.4676H152.743V42H153.243ZM153.243 37.9024V34.37H152.743V37.9024H153.243ZM153.228 34.4553L156.063 26.6451L155.593 26.4745L152.758 34.2847L153.228 34.4553ZM156.517 25.3955L159.353 17.5853L158.883 17.4147L156.047 25.2249L156.517 25.3955ZM159.118 17.75H160.414V17.25H159.118V17.75ZM160.621 17.75H161.918V17.25H160.621V17.75ZM161.683 17.4144L157.551 28.757L158.021 28.9282L162.152 17.5856L161.683 17.4144ZM156.89 30.5718L152.758 41.9144L153.227 42.0856L157.359 30.743L156.89 30.5718ZM143.018 17.75H144.314V17.25H143.018V17.75ZM144.521 17.75H145.818V17.25H144.521V17.75ZM145.583 17.5853L148.418 25.3955L148.888 25.2249L146.053 17.4147L145.583 17.5853ZM148.872 26.6451L151.708 34.4553L152.178 34.2847L149.342 26.4745L148.872 26.6451ZM151.693 34.37V37.9024H152.193V34.37H151.693ZM151.693 38.4676V42H152.193V38.4676H151.693ZM152.177 41.9144L148.046 30.5718L147.576 30.743L151.708 42.0856L152.177 41.9144ZM147.384 28.757L143.252 17.4144L142.783 17.5856L146.915 28.9282L147.384 28.757ZM173.312 21.175L173.079 21.0841L173.045 21.173L173.078 21.2624L173.312 21.175ZM174.747 17.5L174.981 17.4127L174.753 16.7989L174.514 17.4091L174.747 17.5ZM183.882 42V42.25H184.242L184.116 41.9127L183.882 42ZM181.082 42L180.848 42.0874L180.909 42.25H181.082V42ZM164.912 42L164.68 41.9068L164.542 42.25H164.912V42ZM172.717 22.575L172.95 22.4845L172.721 21.8946L172.485 22.4818L172.717 22.575ZM174.117 26.18L174.349 26.2738L174.386 26.1819L174.35 26.0895L174.117 26.18ZM167.712 42V42.25H167.881L167.944 42.0938L167.712 42ZM173.545 21.2659L174.209 19.5645L173.744 19.3827L173.079 21.0841L173.545 21.2659ZM174.316 19.2923L174.98 17.5909L174.514 17.4091L173.85 19.1105L174.316 19.2923ZM174.513 17.5873L178.742 28.9299L179.211 28.7553L174.981 17.4127L174.513 17.5873ZM179.419 30.7447L183.648 42.0873L184.116 41.9127L179.887 30.5701L179.419 30.7447ZM183.882 41.75H182.586V42.25H183.882V41.75ZM182.378 41.75H181.082V42.25H182.378V41.75ZM181.316 41.9126L177.719 32.2714L177.251 32.4462L180.848 42.0874L181.316 41.9126ZM177.144 30.7288L173.546 21.0876L173.078 21.2624L176.675 30.9036L177.144 30.7288ZM164.912 42.25H166.208V41.75H164.912V42.25ZM166.416 42.25H167.712V41.75H166.416V42.25ZM167.944 42.0938L170.909 34.7697L170.446 34.5821L167.48 41.9062L167.944 42.0938ZM171.384 33.5979L174.349 26.2738L173.885 26.0862L170.92 33.4103L171.384 33.5979ZM174.35 26.0895L173.702 24.4205L173.236 24.6015L173.884 26.2705L174.35 26.0895ZM173.598 24.1535L172.95 22.4845L172.484 22.6655L173.132 24.3345L173.598 24.1535ZM172.485 22.4818L168.872 31.4748L169.336 31.6613L172.949 22.6682L172.485 22.4818ZM168.294 32.9137L164.68 41.9068L165.144 42.0932L168.758 33.1002L168.294 32.9137ZM199.125 39.2V38.95H198.875V39.2H199.125ZM199.3 39.2V39.45H199.312L199.324 39.4489L199.3 39.2ZM200.91 38.885L200.977 39.1257L200.91 38.885ZM202.555 38.22L202.435 38.0005L202.435 38.0005L202.555 38.22ZM203.85 37.17L204.042 37.33L204.042 37.33L203.85 37.17ZM204.375 19.845L204.214 19.6533L204.125 19.7283V19.845H204.375ZM207.175 17.5H207.425V16.9645L207.014 17.3083L207.175 17.5ZM206.44 38.675L206.637 38.8285L206.64 38.825L206.44 38.675ZM204.55 40.355L204.68 40.5689L204.684 40.5659L204.55 40.355ZM201.995 41.51L202.067 41.7495L202.072 41.7478L201.995 41.51ZM199.3 42V42.2504L199.313 42.2496L199.3 42ZM199.125 42H198.875V42.25H199.125V42ZM190.2 17.5L190.361 17.3083L189.95 16.9645V17.5H190.2ZM193 19.845H193.25V19.7283L193.161 19.6533L193 19.845ZM193.525 37.17L193.717 37.01L193.717 37.01L193.525 37.17ZM194.82 38.255L194.693 38.4704L194.7 38.4745L194.82 38.255ZM196.465 38.92L196.398 39.1609L196.407 39.1631L196.465 38.92ZM198.075 39.2H198.325V38.9727L198.099 38.9511L198.075 39.2ZM198.075 42L198.062 42.2496L198.325 42.2639V42H198.075ZM195.38 41.51L195.303 41.7478L195.308 41.7495L195.38 41.51ZM192.825 40.355L192.691 40.566L192.695 40.5688L192.825 40.355ZM190.935 38.675L190.735 38.825L190.738 38.8285L190.935 38.675ZM198.875 39.2V40.4963H199.375V39.2H198.875ZM198.875 40.7037V42H199.375V40.7037H198.875ZM199.125 42.25H199.206V41.75H199.125V42.25ZM199.219 42.25H199.3V41.75H199.219V42.25ZM199.313 42.2496C199.737 42.2268 200.167 42.1766 200.605 42.0993L200.518 41.6069C200.099 41.6809 199.689 41.7286 199.287 41.7504L199.313 42.2496ZM200.81 42.0615C201.222 41.9812 201.641 41.8771 202.067 41.7495L201.923 41.2705C201.513 41.3937 201.109 41.4937 200.714 41.5707L200.81 42.0615ZM202.072 41.7478C202.502 41.6082 202.915 41.4514 203.311 41.2774L203.11 40.8196C202.73 40.9866 202.332 41.1375 201.918 41.2722L202.072 41.7478ZM203.505 41.1904C203.915 41.0021 204.306 40.795 204.68 40.5688L204.42 40.1412C204.064 40.3572 203.689 40.5555 203.296 40.736L203.505 41.1904ZM204.684 40.5659C205.037 40.3416 205.362 40.1022 205.659 39.8477L205.334 39.4679C205.056 39.706 204.75 39.9315 204.416 40.1441L204.684 40.5659ZM205.805 39.7193C206.115 39.4399 206.393 39.143 206.637 38.8285L206.243 38.5215C206.017 38.8116 205.76 39.0871 205.471 39.3479L205.805 39.7193ZM206.64 38.825C206.873 38.5142 207.056 38.1906 207.186 37.8543L206.72 37.6737C206.608 37.9636 206.448 38.2474 206.24 38.525L206.64 38.825ZM207.247 37.6846C207.366 37.3258 207.425 36.9556 207.425 36.575H206.925C206.925 36.9028 206.874 37.2199 206.772 37.5275L207.247 37.6846ZM207.425 36.575V27.744H206.925V36.575H207.425ZM207.425 26.331V17.5H206.925V26.331H207.425ZM207.014 17.3083L205.718 18.394L206.039 18.7773L207.336 17.6917L207.014 17.3083ZM205.511 18.5677L204.214 19.6533L204.536 20.0367L205.832 18.951L205.511 18.5677ZM204.125 19.845V27.1853H204.625V19.845H204.125ZM204.125 28.3597V35.7H204.625V28.3597H204.125ZM204.125 35.7C204.125 35.9328 204.092 36.1489 204.027 36.3497L204.502 36.5038C204.585 36.2496 204.625 35.9812 204.625 35.7H204.125ZM203.992 36.4481C203.915 36.6472 203.804 36.8343 203.658 37.01L204.042 37.33C204.222 37.1147 204.361 36.8806 204.458 36.628L203.992 36.4481ZM203.658 37.01C203.503 37.196 203.331 37.3676 203.141 37.5248L203.46 37.9097C203.673 37.7332 203.867 37.54 204.042 37.33L203.658 37.01ZM203.05 37.5983C202.862 37.7455 202.657 37.8796 202.435 38.0005L202.675 38.4395C202.919 38.306 203.147 38.157 203.358 37.992L203.05 37.5983ZM202.435 38.0005C202.203 38.127 201.964 38.2413 201.717 38.3433L201.908 38.8054C202.171 38.6966 202.427 38.5747 202.675 38.4395L202.435 38.0005ZM201.599 38.3909C201.354 38.4872 201.102 38.5716 200.843 38.6443L200.977 39.1257C201.253 39.0486 201.521 38.9588 201.782 38.8562L201.599 38.3909ZM200.843 38.6443C200.593 38.7143 200.352 38.7732 200.121 38.821L200.222 39.3106C200.466 39.2602 200.717 39.1986 200.977 39.1257L200.843 38.6443ZM200.005 38.8443C199.75 38.8936 199.507 38.9291 199.276 38.9511L199.324 39.4489C199.572 39.4252 199.831 39.3872 200.1 39.3352L200.005 38.8443ZM199.3 38.95H199.219V39.45H199.3V38.95ZM199.206 38.95H199.125V39.45H199.206V38.95ZM190.45 36.575V27.744H189.95V36.575H190.45ZM190.45 26.331V17.5H189.95V26.331H190.45ZM190.039 17.6917L191.336 18.7773L191.657 18.394L190.361 17.3083L190.039 17.6917ZM191.543 18.951L192.839 20.0367L193.161 19.6533L191.864 18.5677L191.543 18.951ZM192.75 19.845V27.1853H193.25V19.845H192.75ZM192.75 28.3597V35.7H193.25V28.3597H192.75ZM192.75 35.7C192.75 35.9812 192.79 36.2496 192.873 36.5038L193.348 36.3497C193.283 36.1489 193.25 35.9328 193.25 35.7H192.75ZM192.917 36.628C193.014 36.8806 193.153 37.1147 193.333 37.33L193.717 37.01C193.571 36.8343 193.46 36.6472 193.383 36.4481L192.917 36.628ZM193.333 37.33C193.508 37.5402 193.702 37.7362 193.915 37.9179L194.24 37.5376C194.048 37.3737 193.874 37.1978 193.717 37.01L193.333 37.33ZM194.017 38.0024C194.225 38.1714 194.451 38.3273 194.693 38.4702L194.947 38.0398C194.725 37.9086 194.52 37.7666 194.332 37.6139L194.017 38.0024ZM194.7 38.4745C194.948 38.6097 195.204 38.7316 195.467 38.8404L195.658 38.3783C195.411 38.2763 195.172 38.162 194.94 38.0355L194.7 38.4745ZM195.593 38.8912C195.854 38.9938 196.122 39.0836 196.398 39.1607L196.532 38.6793C196.273 38.6066 196.021 38.5222 195.776 38.4259L195.593 38.8912ZM196.407 39.1631C196.667 39.2255 196.918 39.2789 197.161 39.3232L197.25 38.8313C197.017 38.7888 196.775 38.7373 196.523 38.6769L196.407 39.1631ZM197.282 39.3448C197.549 39.3907 197.805 39.4255 198.051 39.4489L198.099 38.9511C197.867 38.929 197.623 38.8961 197.367 38.8521L197.282 39.3448ZM197.825 39.2V40.4963H198.325V39.2H197.825ZM197.825 40.7037V42H198.325V40.7037H197.825ZM198.088 41.7504C197.686 41.7286 197.276 41.6809 196.857 41.6069L196.77 42.0993C197.208 42.1766 197.638 42.2268 198.062 42.2496L198.088 41.7504ZM196.661 41.5707C196.266 41.4937 195.862 41.3937 195.452 41.2705L195.308 41.7495C195.734 41.8771 196.153 41.9812 196.565 42.0615L196.661 41.5707ZM195.457 41.2722C195.043 41.1375 194.645 40.9866 194.265 40.8196L194.064 41.2774C194.46 41.4514 194.873 41.6082 195.303 41.7478L195.457 41.2722ZM194.079 40.736C193.686 40.5555 193.311 40.3572 192.955 40.1412L192.695 40.5688C193.069 40.795 193.46 41.0021 193.87 41.1904L194.079 40.736ZM192.959 40.1441C192.625 39.9315 192.319 39.706 192.041 39.4679L191.716 39.8477C192.013 40.1022 192.338 40.3416 192.691 40.5659L192.959 40.1441ZM191.904 39.3479C191.615 39.0871 191.358 38.8116 191.132 38.5215L190.738 38.8285C190.982 39.143 191.26 39.4399 191.57 39.7193L191.904 39.3479ZM191.135 38.525C190.927 38.2474 190.767 37.9636 190.655 37.6737L190.189 37.8543C190.319 38.1906 190.502 38.5142 190.735 38.825L191.135 38.525ZM190.603 37.5275C190.501 37.2199 190.45 36.9028 190.45 36.575H189.95C189.95 36.9556 190.009 37.3258 190.128 37.6846L190.603 37.5275ZM216.461 42H216.211V42.25H216.461V42ZM216.461 29.4L216.622 29.2083L216.211 28.8645V29.4H216.461ZM219.261 31.745H219.511V31.6283L219.422 31.5533L219.261 31.745ZM219.261 39.2H219.011V39.45H219.261V39.2ZM227.346 39.2L227.548 39.0516L227.473 38.95H227.346V39.2ZM229.411 42V42.25H229.906L229.613 41.8516L229.411 42ZM216.461 17.5L216.622 17.3083L216.211 16.9645V17.5H216.461ZM219.261 19.845H219.511V19.7283L219.422 19.6533L219.261 19.845ZM219.261 30.695L219.101 30.8867L219.511 31.2305V30.695H219.261ZM216.461 28.35H216.211V28.4667L216.301 28.5417L216.461 28.35ZM216.711 42V36.1667H216.211V42H216.711ZM216.711 35.2333V29.4H216.211V35.2333H216.711ZM216.301 29.5917L217.597 30.6773L217.918 30.294L216.622 29.2083L216.301 29.5917ZM217.805 30.851L219.101 31.9367L219.422 31.5533L218.126 30.4677L217.805 30.851ZM219.011 31.745V35.1964H219.511V31.745H219.011ZM219.011 35.7486V39.2H219.511V35.7486H219.011ZM219.261 39.45H223.004V38.95H219.261V39.45ZM223.603 39.45H227.346V38.95H223.603V39.45ZM227.145 39.3484L228.101 40.6447L228.504 40.3479L227.548 39.0516L227.145 39.3484ZM228.254 40.8521L229.21 42.1484L229.613 41.8516L228.657 40.5553L228.254 40.8521ZM229.411 41.75H223.416V42.25H229.411V41.75ZM222.457 41.75H216.461V42.25H222.457V41.75ZM216.211 17.5V22.5231H216.711V17.5H216.211ZM216.211 23.3269V28.35H216.711V23.3269H216.211ZM216.301 28.5417L217.597 29.6273L217.918 29.244L216.622 28.1583L216.301 28.5417ZM217.805 29.801L219.101 30.8867L219.422 30.5033L218.126 29.4177L217.805 29.801ZM219.511 30.695V25.6719H219.011V30.695H219.511ZM219.511 24.8681V19.845H219.011V24.8681H219.511ZM219.422 19.6533L218.126 18.5677L217.805 18.951L219.101 20.0367L219.422 19.6533ZM217.918 18.394L216.622 17.3083L216.301 17.6917L217.597 18.7773L217.918 18.394ZM243.945 21.35H244.195V21.1H243.945V21.35ZM243.945 42V42.25H244.195V42H243.945ZM241.145 42H240.895V42.25H241.145V42ZM241.145 21.35V21.1H240.895V21.35H241.145ZM235.86 20.3L235.659 20.4484L235.734 20.55H235.86V20.3ZM233.795 17.5V17.25H233.3L233.594 17.6484L233.795 17.5ZM251.295 17.5L251.496 17.6484L251.79 17.25H251.295V17.5ZM249.23 20.3V20.55H249.356L249.431 20.4484L249.23 20.3ZM243.945 21.1H242.649V21.6H243.945V21.1ZM242.441 21.1H241.145V21.6H242.441V21.1ZM240.895 21.35V30.9102H241.395V21.35H240.895ZM240.895 32.4398V42H241.395V32.4398H240.895ZM241.145 42.25H242.441V41.75H241.145V42.25ZM242.649 42.25H243.945V41.75H242.649V42.25ZM244.195 42V32.4398H243.695V42H244.195ZM244.195 30.9102V21.35H243.695V30.9102H244.195ZM236.061 20.1516L235.105 18.8553L234.703 19.1521L235.659 20.4484L236.061 20.1516ZM234.952 18.6479L233.996 17.3516L233.594 17.6484L234.55 18.9447L234.952 18.6479ZM233.795 17.75H241.897V17.25H233.795V17.75ZM243.193 17.75H251.295V17.25H243.193V17.75ZM251.094 17.3516L250.138 18.6479L250.54 18.9447L251.496 17.6484L251.094 17.3516ZM249.985 18.8553L249.029 20.1516L249.431 20.4484L250.387 19.1521L249.985 18.8553ZM249.23 20.05H243.04V20.55H249.23V20.05ZM242.05 20.05H235.86V20.55H242.05V20.05Z" fill="#090A0E"/>
<path d="M39.5833 2H10.4167C7.65399 2 5.00447 3.09747 3.05097 5.05097C1.09747 7.00447 0 9.65399 0 12.4167V41.5833C0 44.346 1.09747 46.9955 3.05097 48.949C5.00447 50.9025 7.65399 52 10.4167 52H39.5833C42.346 52 44.9955 50.9025 46.949 48.949C48.9025 46.9955 50 44.346 50 41.5833V12.4167C50 9.65399 48.9025 7.00447 46.949 5.05097C44.9955 3.09747 42.346 2 39.5833 2V2ZM25 43.6667C21.7036 43.6667 18.4813 42.6892 15.7405 40.8578C12.9997 39.0265 10.8635 36.4235 9.60201 33.3781C8.34055 30.3326 8.01049 26.9815 8.65358 23.7485C9.29667 20.5155 10.884 17.5458 13.2149 15.2149C15.5458 12.884 18.5155 11.2967 21.7485 10.6536C24.9815 10.0105 28.3326 10.3405 31.3781 11.602C34.4235 12.8635 37.0265 14.9997 38.8578 17.7405C40.6892 20.4813 41.6667 23.7036 41.6667 27C41.6667 31.4203 39.9107 35.6595 36.7851 38.7851C33.6595 41.9107 29.4203 43.6667 25 43.6667Z" fill="#090A0E"/>
<path d="M25 14.5C22.5277 14.5 20.111 15.2331 18.0554 16.6066C15.9998 17.9801 14.3976 19.9324 13.4515 22.2165C12.5054 24.5005 12.2579 27.0139 12.7402 29.4386C13.2225 31.8634 14.413 34.0907 16.1612 35.8388C17.9093 37.587 20.1366 38.7775 22.5614 39.2598C24.9861 39.7421 27.4995 39.4946 29.7835 38.5485C32.0676 37.6024 34.0199 36.0002 35.3934 33.9446C36.7669 31.889 37.5 29.4723 37.5 27C37.5 23.6848 36.183 20.5054 33.8388 18.1612C31.4946 15.817 28.3152 14.5 25 14.5ZM31.25 29.0833H28.5833C28.1247 29.8777 27.4168 30.4985 26.5694 30.8495C25.722 31.2005 24.7825 31.2621 23.8965 31.0247C23.0105 30.7873 22.2276 30.2642 21.6693 29.5365C21.1109 28.8088 20.8082 27.9172 20.8082 27C20.8082 26.0828 21.1109 25.1912 21.6693 24.4635C22.2276 23.7358 23.0105 23.2127 23.8965 22.9753C24.7825 22.7379 25.722 22.7995 26.5694 23.1505C27.4168 23.5015 28.1247 24.1223 28.5833 24.9167H31.25C31.8025 24.9167 32.3324 25.1362 32.7231 25.5269C33.1138 25.9176 33.3333 26.4475 33.3333 27C33.3333 27.5525 33.1138 28.0824 32.7231 28.4731C32.3324 28.8638 31.8025 29.0833 31.25 29.0833Z" fill="#090A0E"/>
<path d="M259 30C259 13.4315 272.431 0 289 0H333.167C336.388 0 339 2.61167 339 5.83333C339 21.9416 325.942 35 309.833 35H260C259.448 35 259 34.5523 259 34V30Z" fill="#07080A"/>
<path d="M277.79 18.715C277.895 18.715 277.955 18.79 278.015 18.865C278.105 19 278.3 19.72 278.3 20.11C278.3 20.41 278.075 20.695 277.625 20.695C277.625 21.76 278.375 22 278.72 22C279.065 22 279.38 21.865 279.65 21.67C279.935 21.865 280.25 22 280.595 22C280.94 22 281.69 21.76 281.69 20.695C281.3 20.695 280.79 20.26 280.325 19.15C279.83 17.965 278.735 14.41 278.735 13.225C278.735 13.015 278.75 12.835 278.78 12.595C278.69 12.55 278.6 12.52 278.465 12.52C278.33 12.52 278.15 12.55 278.03 12.58C277.91 12.61 277.805 12.61 277.685 12.61C277.52 12.61 277.34 12.52 277.235 12.43C277.175 12.355 277.055 12.205 276.965 12.205C276.86 12.205 276.755 12.355 276.68 12.43C276.59 12.52 276.455 12.61 276.305 12.61C276.185 12.61 276.02 12.61 275.885 12.58C275.765 12.55 275.66 12.52 275.54 12.52C275.45 12.52 275.375 12.535 275.3 12.565C275.36 12.835 275.36 13.105 275.36 13.51C275.36 13.96 274.58 17.98 273.965 19.615C273.68 20.395 273.14 20.695 272.69 20.695C272.69 21.685 273.275 22 273.545 22C273.89 22 274.205 21.865 274.46 21.67C274.745 21.865 275.06 22 275.405 22C275.75 22 276.53 21.76 276.53 20.695C276.125 20.695 275.84 20.41 275.84 20.11C275.84 19.675 275.945 19.15 276.05 18.865C276.08 18.76 276.155 18.715 276.23 18.715H277.79ZM276.485 17.32C276.395 17.32 276.32 17.29 276.32 17.11C276.32 16.51 276.575 15.505 276.89 15.055C277.28 15.505 277.505 16.51 277.505 17.11C277.505 17.29 277.34 17.32 277.22 17.32H276.485ZM287.429 16.195C287.429 14.95 287.729 13.735 288.224 12.64C288.059 12.55 287.909 12.52 287.774 12.52C287.669 12.52 287.549 12.55 287.444 12.58C287.309 12.61 287.234 12.61 287.099 12.61C286.949 12.61 286.799 12.505 286.679 12.385C286.574 12.295 286.484 12.205 286.394 12.205C286.289 12.205 286.184 12.355 286.109 12.43C286.004 12.52 285.824 12.61 285.674 12.61C285.539 12.61 285.449 12.61 285.314 12.58C285.194 12.55 285.044 12.52 284.894 12.52C284.714 12.52 284.549 12.55 284.369 12.64C285.044 13.735 285.329 14.95 285.329 16.195V18.445C285.329 19.03 285.254 20.56 284.354 20.695C284.354 21.76 285.104 22 285.449 22C285.794 22 286.124 21.865 286.394 21.67C286.679 21.97 287.474 22.135 288.074 22.135C288.524 22.135 288.974 22.045 289.244 21.955C289.544 21.85 289.919 21.67 290.399 21.67C290.864 21.67 291.374 21.91 291.749 22C291.749 21.64 291.584 21.145 291.254 20.89C291.509 20.56 291.704 20.155 291.704 19.555C291.704 18.37 290.639 17.875 289.559 18.19C289.799 18.535 289.904 18.895 289.904 19.21C289.904 20.005 289.394 20.62 288.569 20.62C287.429 20.62 287.429 19.54 287.429 18.445V16.195ZM297.381 18.085C300.561 18.445 301.491 16.72 301.491 15.055C301.491 13.48 300.336 12.52 298.566 12.52C298.161 12.52 297.846 12.55 297.606 12.58C297.336 12.61 297.171 12.61 297.006 12.61C296.871 12.61 296.706 12.52 296.616 12.415C296.526 12.325 296.436 12.205 296.346 12.205C296.241 12.205 296.136 12.325 296.061 12.415C295.956 12.535 295.806 12.61 295.656 12.61C295.491 12.61 295.401 12.61 295.266 12.58C295.146 12.55 294.996 12.52 294.846 12.52C294.666 12.52 294.501 12.55 294.321 12.64C294.996 13.735 295.281 14.95 295.281 16.195V18.445C295.281 19.03 295.206 20.56 294.306 20.695C294.306 21.76 295.056 22 295.401 22C295.746 22 296.076 21.865 296.331 21.67C296.601 21.865 296.931 22 297.291 22C297.636 22 298.416 21.76 298.416 20.695C297.471 20.56 297.381 19.03 297.381 18.445V18.085ZM297.546 16.57C297.441 16.57 297.381 16.495 297.381 16.42V15.745C297.381 14.53 297.381 13.93 298.341 13.93C299.076 13.93 299.466 14.365 299.466 15.16C299.466 15.94 299.016 16.57 297.966 16.57H297.546ZM309.354 17.905C309.519 17.905 309.594 18.025 309.594 18.115C309.594 19.225 309.579 19.72 309.429 20.08C309.264 20.5 308.859 20.695 308.619 20.695C308.619 21.76 309.369 22 309.714 22C310.059 22 310.374 21.865 310.659 21.67C310.914 21.865 311.229 22 311.574 22C311.919 22 312.684 21.76 312.684 20.695C311.784 20.56 311.694 19.03 311.694 18.445V16.195C311.694 14.95 311.994 13.735 312.669 12.64C312.489 12.55 312.324 12.52 312.129 12.52C311.979 12.52 311.844 12.55 311.724 12.58C311.589 12.61 311.499 12.61 311.364 12.61C311.199 12.61 311.064 12.49 310.959 12.4C310.839 12.31 310.749 12.205 310.659 12.205C310.554 12.205 310.464 12.325 310.359 12.415C310.254 12.505 310.074 12.61 309.939 12.61C309.819 12.61 309.714 12.61 309.594 12.58C309.474 12.55 309.324 12.52 309.174 12.52C308.979 12.52 308.814 12.55 308.634 12.64C309.039 13.555 309.594 15.07 309.594 16.165C309.594 16.33 309.519 16.405 309.354 16.405H307.089C306.924 16.405 306.834 16.33 306.834 16.165C306.834 15.07 307.389 13.555 307.794 12.64C307.614 12.55 307.449 12.52 307.269 12.52C307.104 12.52 306.969 12.55 306.849 12.58C306.714 12.61 306.624 12.61 306.489 12.61C306.354 12.61 306.144 12.445 306.039 12.355C305.964 12.295 305.874 12.205 305.784 12.205C305.694 12.205 305.589 12.295 305.499 12.385C305.379 12.49 305.244 12.61 305.139 12.61C305.019 12.61 304.899 12.61 304.719 12.58C304.599 12.55 304.449 12.52 304.299 12.52C304.119 12.52 303.954 12.55 303.774 12.64C304.449 13.735 304.734 14.95 304.734 16.195V18.445C304.734 19.03 304.659 20.56 303.759 20.695C303.759 21.76 304.509 22 304.854 22C305.199 22 305.529 21.865 305.784 21.67C306.054 21.865 306.369 22 306.714 22C307.059 22 307.824 21.76 307.824 20.695C307.569 20.695 307.164 20.5 306.999 20.08C306.864 19.72 306.834 19.225 306.834 18.115C306.834 18.025 306.924 17.905 307.089 17.905H309.354ZM320.378 18.715C320.483 18.715 320.543 18.79 320.603 18.865C320.693 19 320.888 19.72 320.888 20.11C320.888 20.41 320.663 20.695 320.213 20.695C320.213 21.76 320.963 22 321.308 22C321.653 22 321.968 21.865 322.238 21.67C322.523 21.865 322.838 22 323.183 22C323.528 22 324.278 21.76 324.278 20.695C323.888 20.695 323.378 20.26 322.913 19.15C322.418 17.965 321.323 14.41 321.323 13.225C321.323 13.015 321.338 12.835 321.368 12.595C321.278 12.55 321.188 12.52 321.053 12.52C320.918 12.52 320.738 12.55 320.618 12.58C320.498 12.61 320.393 12.61 320.273 12.61C320.108 12.61 319.928 12.52 319.823 12.43C319.763 12.355 319.643 12.205 319.553 12.205C319.448 12.205 319.343 12.355 319.268 12.43C319.178 12.52 319.043 12.61 318.893 12.61C318.773 12.61 318.608 12.61 318.473 12.58C318.353 12.55 318.248 12.52 318.128 12.52C318.038 12.52 317.963 12.535 317.888 12.565C317.948 12.835 317.948 13.105 317.948 13.51C317.948 13.96 317.168 17.98 316.553 19.615C316.268 20.395 315.728 20.695 315.278 20.695C315.278 21.685 315.863 22 316.133 22C316.478 22 316.793 21.865 317.048 21.67C317.333 21.865 317.648 22 317.993 22C318.338 22 319.118 21.76 319.118 20.695C318.713 20.695 318.428 20.41 318.428 20.11C318.428 19.675 318.533 19.15 318.638 18.865C318.668 18.76 318.743 18.715 318.818 18.715H320.378ZM319.073 17.32C318.983 17.32 318.908 17.29 318.908 17.11C318.908 16.51 319.163 15.505 319.478 15.055C319.868 15.505 320.093 16.51 320.093 17.11C320.093 17.29 319.928 17.32 319.808 17.32H319.073Z" fill="white"/>
</svg>
