<svg width="673" height="401" viewBox="0 0 673 401" fill="none" xmlns="http://www.w3.org/2000/svg">
<rect y="21.4208" width="649" height="378.947" rx="50" fill="#090A0E"/>
<rect x="25.5" y="2.86816" width="645" height="378.732" rx="47.5" fill="white" stroke="#090A0E" stroke-width="5"/>
<path d="M255.575 157V139.125H252V157H255.575ZM264.918 139.125H259.593V157H264.918C276.818 157 276.818 139.125 264.918 139.125ZM264.918 142.7C271.868 142.7 271.868 153.425 264.918 153.425H263.168V142.7H264.918ZM290.65 157.375L298.05 139.125H293.925L291.525 145.2L290.25 148.775L288.95 145.075L286.575 139.125H282.45L289.85 157.375H290.65ZM309.468 157V153.425H303.793V149.85H308.493V146.275H303.793V142.7H309.168V139.125H300.218V157H309.468ZM325.765 157L321.615 149.625C326.865 148.1 326.24 139.125 319.865 139.125H312.815V157H316.39V150.175H318.115L321.715 157H325.765ZM316.39 142.7H319.54C321.965 142.7 321.965 146.7 319.54 146.7H316.39V142.7ZM331.722 157V139.125H328.147V157H331.722ZM344.665 142.7V139.125H335.74V157H339.315V149.85H343.865V146.275H339.315V142.7H344.665ZM351.18 157V139.125H347.605V157H351.18ZM366.573 143.275L366.998 139.6C365.923 139.125 364.723 138.9 363.473 138.9C351.373 138.9 351.348 157.05 363.473 157.05C364.723 157.05 366.298 156.75 367.398 156.3L366.923 152.6C366.248 152.95 365.023 153.4 363.473 153.4C356.398 153.4 356.398 142.5 363.473 142.5C365.023 142.5 365.898 142.925 366.573 143.275ZM368.637 157H372.687L373.387 155.075H379.312L380.037 157H384.062L376.537 138.475H376.162L368.637 157ZM374.687 151.725L376.362 147.075L377.987 151.725H374.687ZM391.923 157V142.7H396.373V139.15H383.898V142.7H388.348V157H391.923ZM402.645 157V139.125H399.07V157H402.645ZM415.263 157.25C427.563 157.25 427.563 138.825 415.263 138.825C402.963 138.825 402.963 157.25 415.263 157.25ZM415.263 153.55C408.113 153.55 408.113 142.5 415.263 142.5C422.413 142.5 422.413 153.55 415.263 153.55ZM431.405 147.275L440.455 157.375H441.405V139.15H437.805V149.25L428.78 138.75H427.83V157H431.405V147.275Z" fill="#090A0E"/>
<path d="M94.6826 195.78C94.2666 196.073 93.7334 196.305 93.083 196.474C92.4326 196.639 91.6357 196.721 90.6924 196.721C89.7549 196.721 88.8086 196.665 87.8535 196.554V194.849C88.709 195.042 89.5703 195.139 90.4375 195.139C91.3047 195.139 91.9551 195.092 92.3887 194.998C92.8223 194.898 93.1709 194.769 93.4346 194.611C93.9209 194.318 94.1641 193.937 94.1641 193.469C94.1641 193.105 94.0703 192.824 93.8828 192.625C93.584 192.314 93.1533 192.03 92.5908 191.772L90.3408 190.744C89.5674 190.381 89.0195 190.044 88.6973 189.733C88.0059 189.065 87.6602 188.292 87.6602 187.413C87.6602 186.511 88.0527 185.781 88.8379 185.224C89.6992 184.615 90.9238 184.31 92.5117 184.31C93.5371 184.31 94.4746 184.351 95.3242 184.433V186.112C94.6035 185.948 93.7979 185.866 92.9072 185.866C92.0225 185.866 91.3779 185.913 90.9736 186.007C90.5752 186.095 90.2617 186.209 90.0332 186.349C89.6172 186.607 89.4092 186.947 89.4092 187.369C89.4092 187.779 89.541 188.119 89.8047 188.389C90.0391 188.617 90.4668 188.881 91.0879 189.18L93.3994 190.278C94.167 190.641 94.7031 190.984 95.0078 191.307C95.3184 191.629 95.5469 191.954 95.6934 192.282C95.8398 192.604 95.9131 192.994 95.9131 193.451C95.9131 193.902 95.8135 194.33 95.6143 194.734C95.415 195.133 95.1045 195.481 94.6826 195.78ZM102.47 196.773C99.1533 196.773 97.4951 195.153 97.4951 191.913C97.4951 190.518 97.9551 189.402 98.875 188.564C99.7012 187.803 100.645 187.422 101.705 187.422C102.859 187.422 103.762 187.808 104.412 188.582C105.016 189.303 105.317 190.266 105.317 191.474V192.159H99.3232C99.3232 193.817 100 194.831 101.354 195.2C101.676 195.288 102.171 195.332 102.839 195.332C103.513 195.332 104.172 195.241 104.816 195.059V196.545C104.172 196.697 103.39 196.773 102.47 196.773ZM103.56 190.867C103.56 190.305 103.404 189.83 103.094 189.443C102.73 188.998 102.229 188.775 101.591 188.775C100.917 188.775 100.369 188.989 99.9473 189.417C99.5605 189.815 99.3672 190.299 99.3672 190.867H103.56ZM111.338 188.933C110.465 188.933 109.688 189.229 109.009 189.821V196.633H107.251V187.562H108.877L109 188.547C109.955 187.797 110.942 187.422 111.962 187.422C113.04 187.422 113.831 187.744 114.335 188.389C114.862 189.068 115.126 190.164 115.126 191.676V196.633H113.368V191.676C113.368 190.223 112.976 189.355 112.19 189.074C111.938 188.98 111.654 188.933 111.338 188.933ZM119.134 188.556C119.644 188.163 120.215 187.876 120.848 187.694C121.486 187.513 122.043 187.422 122.518 187.422C122.992 187.422 123.358 187.433 123.616 187.457V183.555H125.365V196.633H123.792L123.722 195.587C123.364 196.061 122.822 196.413 122.096 196.641C121.814 196.729 121.527 196.773 121.234 196.773C120.947 196.773 120.663 196.744 120.382 196.685C120.101 196.627 119.819 196.53 119.538 196.395C119.263 196.255 118.999 196.073 118.747 195.85C118.495 195.622 118.27 195.344 118.07 195.016C117.648 194.295 117.438 193.442 117.438 192.458C117.438 191.474 117.593 190.677 117.903 190.067C118.22 189.452 118.63 188.948 119.134 188.556ZM120.197 189.601C119.898 189.883 119.667 190.246 119.503 190.691C119.345 191.131 119.266 191.667 119.266 192.3C119.266 192.927 119.342 193.445 119.494 193.855C119.646 194.26 119.837 194.576 120.065 194.805C120.47 195.215 120.956 195.42 121.524 195.42C122.257 195.42 122.863 195.15 123.344 194.611C123.467 194.476 123.555 194.356 123.607 194.251V188.846L123.432 188.828C123.162 188.793 122.84 188.775 122.465 188.775C122.096 188.775 121.7 188.843 121.278 188.977C120.856 189.106 120.496 189.314 120.197 189.601ZM132.493 196.773C129.177 196.773 127.519 195.153 127.519 191.913C127.519 190.518 127.979 189.402 128.898 188.564C129.725 187.803 130.668 187.422 131.729 187.422C132.883 187.422 133.785 187.808 134.436 188.582C135.039 189.303 135.341 190.266 135.341 191.474V192.159H129.347C129.347 193.817 130.023 194.831 131.377 195.2C131.699 195.288 132.194 195.332 132.862 195.332C133.536 195.332 134.195 195.241 134.84 195.059V196.545C134.195 196.697 133.413 196.773 132.493 196.773ZM133.583 190.867C133.583 190.305 133.428 189.83 133.117 189.443C132.754 188.998 132.253 188.775 131.614 188.775C130.94 188.775 130.393 188.989 129.971 189.417C129.584 189.815 129.391 190.299 129.391 190.867H133.583ZM143.04 189.171C142.718 189.077 142.331 189.03 141.88 189.03C141.435 189.03 141.068 189.077 140.781 189.171C140.494 189.259 140.242 189.367 140.025 189.496C139.627 189.73 139.337 189.994 139.155 190.287V196.633H137.397V187.562H139.085L139.155 188.819C139.595 188.268 140.236 187.855 141.08 187.58C141.385 187.474 141.733 187.422 142.126 187.422C142.519 187.422 142.823 187.451 143.04 187.51V189.171ZM147.004 196.773C146.271 196.773 145.53 196.721 144.78 196.615V195.059C145.542 195.241 146.315 195.332 147.101 195.332C148.671 195.332 149.456 195.001 149.456 194.339C149.456 194.087 149.395 193.899 149.271 193.776C149.09 193.583 148.803 193.39 148.41 193.196L147.127 192.607C146.295 192.191 145.756 191.857 145.51 191.605C145.047 191.137 144.815 190.58 144.815 189.935C144.815 189.209 145.152 188.617 145.826 188.16C146.553 187.668 147.572 187.422 148.885 187.422C149.547 187.422 150.215 187.469 150.889 187.562V189.065C150.15 188.931 149.506 188.863 148.955 188.863C148.41 188.863 147.985 188.898 147.681 188.969C147.382 189.039 147.156 189.127 147.004 189.232C146.764 189.396 146.644 189.61 146.644 189.874C146.644 190.132 146.726 190.343 146.89 190.507C147.06 190.665 147.323 190.838 147.681 191.025L148.973 191.649C149.816 192.089 150.358 192.426 150.599 192.66C151.056 193.105 151.284 193.665 151.284 194.339C151.284 195.059 150.921 195.64 150.194 196.079C149.433 196.542 148.369 196.773 147.004 196.773ZM163.853 188.933C162.985 188.933 162.212 189.229 161.532 189.821V196.633H159.774V183.555H161.532V188.538C162.481 187.794 163.463 187.422 164.477 187.422C165.561 187.422 166.354 187.744 166.858 188.389C167.386 189.068 167.649 190.164 167.649 191.676V196.633H165.892V191.676C165.892 190.223 165.496 189.355 164.705 189.074C164.453 188.98 164.169 188.933 163.853 188.933ZM170.673 195.016C170.479 194.682 170.324 194.289 170.207 193.838C170.096 193.387 170.04 192.798 170.04 192.071C170.04 191.345 170.195 190.677 170.506 190.067C170.822 189.452 171.232 188.948 171.736 188.556C172.715 187.8 173.931 187.422 175.384 187.422C176.14 187.422 176.711 187.439 177.098 187.474C177.098 187.474 177.382 187.504 177.95 187.562V196.633H176.368L176.298 195.587C175.946 196.056 175.41 196.404 174.689 196.633C174.414 196.721 174.13 196.765 173.837 196.765C173.55 196.765 173.266 196.735 172.984 196.677C172.703 196.618 172.422 196.521 172.141 196.387C171.865 196.252 171.602 196.073 171.35 195.85C171.098 195.622 170.872 195.344 170.673 195.016ZM176.192 188.854C175.817 188.807 175.442 188.784 175.067 188.784C174.698 188.784 174.303 188.851 173.881 188.986C173.459 189.115 173.099 189.32 172.8 189.601C172.179 190.187 171.868 191.081 171.868 192.282C171.868 193.419 172.135 194.26 172.668 194.805C173.072 195.209 173.559 195.411 174.127 195.411C174.859 195.411 175.463 195.144 175.938 194.611C176.055 194.476 176.14 194.356 176.192 194.251V188.854ZM179.523 187.562H181.413L183.883 194.919L186.361 187.562H188.242L184.771 196.633H183.004L179.523 187.562ZM193.981 196.773C190.665 196.773 189.007 195.153 189.007 191.913C189.007 190.518 189.467 189.402 190.387 188.564C191.213 187.803 192.156 187.422 193.217 187.422C194.371 187.422 195.273 187.808 195.924 188.582C196.527 189.303 196.829 190.266 196.829 191.474V192.159H190.835C190.835 193.817 191.512 194.831 192.865 195.2C193.188 195.288 193.683 195.332 194.351 195.332C195.024 195.332 195.684 195.241 196.328 195.059V196.545C195.684 196.697 194.901 196.773 193.981 196.773ZM195.071 190.867C195.071 190.305 194.916 189.83 194.605 189.443C194.242 188.998 193.741 188.775 193.103 188.775C192.429 188.775 191.881 188.989 191.459 189.417C191.072 189.815 190.879 190.299 190.879 190.867H195.071ZM208.018 195.244C208.211 195.314 208.504 195.349 208.896 195.349C209.289 195.349 209.617 195.303 209.881 195.209V196.615C209.758 196.644 209.579 196.662 209.345 196.668L208.791 196.685C208.668 196.685 208.574 196.685 208.51 196.685C207.379 196.685 206.544 196.316 206.005 195.578C205.571 194.98 205.354 194.189 205.354 193.205V188.907H204.054V188.081L205.354 187.562L205.776 185.312H207.112V187.562H209.925V188.907H207.112V193.196C207.112 194.345 207.414 195.027 208.018 195.244ZM216.341 188.933C215.474 188.933 214.7 189.229 214.021 189.821V196.633H212.263V183.555H214.021V188.538C214.97 187.794 215.951 187.422 216.965 187.422C218.049 187.422 218.843 187.744 219.347 188.389C219.874 189.068 220.138 190.164 220.138 191.676V196.633H218.38V191.676C218.38 190.223 217.984 189.355 217.193 189.074C216.941 188.98 216.657 188.933 216.341 188.933ZM226.993 196.773C223.677 196.773 222.019 195.153 222.019 191.913C222.019 190.518 222.479 189.402 223.398 188.564C224.225 187.803 225.168 187.422 226.229 187.422C227.383 187.422 228.285 187.808 228.936 188.582C229.539 189.303 229.841 190.266 229.841 191.474V192.159H223.847C223.847 193.817 224.523 194.831 225.877 195.2C226.199 195.288 226.694 195.332 227.362 195.332C228.036 195.332 228.695 195.241 229.34 195.059V196.545C228.695 196.697 227.913 196.773 226.993 196.773ZM228.083 190.867C228.083 190.305 227.928 189.83 227.617 189.443C227.254 188.998 226.753 188.775 226.114 188.775C225.44 188.775 224.893 188.989 224.471 189.417C224.084 189.815 223.891 190.299 223.891 190.867H228.083ZM237.18 192.08C237.18 190.656 237.634 189.502 238.542 188.617C239.392 187.791 240.443 187.378 241.697 187.378C242.928 187.378 243.956 187.791 244.782 188.617C245.661 189.496 246.101 190.65 246.101 192.08C246.101 193.504 245.658 194.652 244.773 195.525C243.936 196.357 242.907 196.773 241.688 196.773C240.452 196.773 239.403 196.357 238.542 195.525C237.634 194.652 237.18 193.504 237.18 192.08ZM239.008 192.08C239.008 193.58 239.488 194.599 240.449 195.139C240.789 195.326 241.196 195.42 241.671 195.42C242.146 195.42 242.547 195.326 242.875 195.139C243.203 194.945 243.473 194.693 243.684 194.383C244.076 193.785 244.272 193.017 244.272 192.08C244.272 190.592 243.801 189.572 242.857 189.021C242.529 188.828 242.137 188.731 241.68 188.731C241.223 188.731 240.824 188.828 240.484 189.021C240.15 189.209 239.875 189.458 239.658 189.768C239.225 190.378 239.008 191.148 239.008 192.08ZM250.152 200.148H248.395V187.562H249.977L250.047 188.599C250.398 188.131 250.938 187.782 251.664 187.554C251.945 187.466 252.229 187.422 252.517 187.422C252.81 187.422 253.097 187.454 253.378 187.518C253.659 187.577 253.938 187.677 254.213 187.817C254.488 187.952 254.752 188.134 255.004 188.362C255.256 188.585 255.479 188.863 255.672 189.197C256.094 189.918 256.305 190.811 256.305 191.878C256.305 193.507 255.742 194.752 254.617 195.613C253.621 196.381 252.408 196.765 250.979 196.765H250.539C250.398 196.765 250.27 196.762 250.152 196.756V200.148ZM250.152 195.332C250.316 195.379 250.639 195.402 251.119 195.402C251.6 195.402 252.051 195.335 252.473 195.2C252.895 195.065 253.252 194.857 253.545 194.576C254.166 193.978 254.477 193.079 254.477 191.878C254.477 190.747 254.207 189.912 253.668 189.373C253.27 188.974 252.783 188.775 252.209 188.775C251.488 188.775 250.891 189.042 250.416 189.575C250.293 189.71 250.205 189.83 250.152 189.935V195.332ZM262.035 195.244C262.229 195.314 262.521 195.349 262.914 195.349C263.307 195.349 263.635 195.303 263.898 195.209V196.615C263.775 196.644 263.597 196.662 263.362 196.668L262.809 196.685C262.686 196.685 262.592 196.685 262.527 196.685C261.396 196.685 260.562 196.316 260.022 195.578C259.589 194.98 259.372 194.189 259.372 193.205V188.907H258.071V188.081L259.372 187.562L259.794 185.312H261.13V187.562H263.942V188.907H261.13V193.196C261.13 194.345 261.432 195.027 262.035 195.244ZM268.328 184.926C268.328 185.26 268.217 185.517 267.994 185.699C267.777 185.875 267.505 185.963 267.177 185.963C266.849 185.963 266.576 185.875 266.359 185.699C266.148 185.517 266.043 185.26 266.043 184.926C266.043 184.586 266.148 184.328 266.359 184.152C266.576 183.976 266.849 183.889 267.177 183.889C267.505 183.889 267.777 183.976 267.994 184.152C268.217 184.328 268.328 184.586 268.328 184.926ZM266.271 187.562H268.029V196.633H266.271V187.562ZM270.209 192.08C270.209 190.656 270.663 189.502 271.571 188.617C272.421 187.791 273.473 187.378 274.727 187.378C275.957 187.378 276.985 187.791 277.812 188.617C278.69 189.496 279.13 190.65 279.13 192.08C279.13 193.504 278.688 194.652 277.803 195.525C276.965 196.357 275.937 196.773 274.718 196.773C273.481 196.773 272.433 196.357 271.571 195.525C270.663 194.652 270.209 193.504 270.209 192.08ZM272.037 192.08C272.037 193.58 272.518 194.599 273.479 195.139C273.818 195.326 274.226 195.42 274.7 195.42C275.175 195.42 275.576 195.326 275.904 195.139C276.232 194.945 276.502 194.693 276.713 194.383C277.105 193.785 277.302 193.017 277.302 192.08C277.302 190.592 276.83 189.572 275.887 189.021C275.559 188.828 275.166 188.731 274.709 188.731C274.252 188.731 273.854 188.828 273.514 189.021C273.18 189.209 272.904 189.458 272.688 189.768C272.254 190.378 272.037 191.148 272.037 192.08ZM285.379 188.933C284.506 188.933 283.729 189.229 283.05 189.821V196.633H281.292V187.562H282.918L283.041 188.547C283.996 187.797 284.983 187.422 286.003 187.422C287.081 187.422 287.872 187.744 288.376 188.389C288.903 189.068 289.167 190.164 289.167 191.676V196.633H287.409V191.676C287.409 190.223 287.017 189.355 286.231 189.074C285.979 188.98 285.695 188.933 285.379 188.933ZM301.059 195.244C301.252 195.314 301.545 195.349 301.938 195.349C302.33 195.349 302.658 195.303 302.922 195.209V196.615C302.799 196.644 302.62 196.662 302.386 196.668L301.832 196.685C301.709 196.685 301.615 196.685 301.551 196.685C300.42 196.685 299.585 196.316 299.046 195.578C298.612 194.98 298.396 194.189 298.396 193.205V188.907H297.095V188.081L298.396 187.562L298.817 185.312H300.153V187.562H302.966V188.907H300.153V193.196C300.153 194.345 300.455 195.027 301.059 195.244ZM304.715 192.08C304.715 190.656 305.169 189.502 306.077 188.617C306.927 187.791 307.979 187.378 309.232 187.378C310.463 187.378 311.491 187.791 312.317 188.617C313.196 189.496 313.636 190.65 313.636 192.08C313.636 193.504 313.193 194.652 312.309 195.525C311.471 196.357 310.442 196.773 309.224 196.773C307.987 196.773 306.938 196.357 306.077 195.525C305.169 194.652 304.715 193.504 304.715 192.08ZM306.543 192.08C306.543 193.58 307.023 194.599 307.984 195.139C308.324 195.326 308.731 195.42 309.206 195.42C309.681 195.42 310.082 195.326 310.41 195.139C310.738 194.945 311.008 194.693 311.219 194.383C311.611 193.785 311.808 193.017 311.808 192.08C311.808 190.592 311.336 189.572 310.393 189.021C310.064 188.828 309.672 188.731 309.215 188.731C308.758 188.731 308.359 188.828 308.02 189.021C307.686 189.209 307.41 189.458 307.193 189.768C306.76 190.378 306.543 191.148 306.543 192.08ZM320.553 187.562H322.442L324.912 194.919L327.391 187.562H329.271L325.8 196.633H324.033L320.553 187.562ZM335.011 196.773C331.694 196.773 330.036 195.153 330.036 191.913C330.036 190.518 330.496 189.402 331.416 188.564C332.242 187.803 333.186 187.422 334.246 187.422C335.4 187.422 336.303 187.808 336.953 188.582C337.557 189.303 337.858 190.266 337.858 191.474V192.159H331.864C331.864 193.817 332.541 194.831 333.895 195.2C334.217 195.288 334.712 195.332 335.38 195.332C336.054 195.332 336.713 195.241 337.357 195.059V196.545C336.713 196.697 335.931 196.773 335.011 196.773ZM336.101 190.867C336.101 190.305 335.945 189.83 335.635 189.443C335.271 188.998 334.771 188.775 334.132 188.775C333.458 188.775 332.91 188.989 332.488 189.417C332.102 189.815 331.908 190.299 331.908 190.867H336.101ZM345.558 189.171C345.235 189.077 344.849 189.03 344.397 189.03C343.952 189.03 343.586 189.077 343.299 189.171C343.012 189.259 342.76 189.367 342.543 189.496C342.145 189.73 341.854 189.994 341.673 190.287V196.633H339.915V187.562H341.603L341.673 188.819C342.112 188.268 342.754 187.855 343.598 187.58C343.902 187.474 344.251 187.422 344.644 187.422C345.036 187.422 345.341 187.451 345.558 187.51V189.171ZM349.346 184.926C349.346 185.26 349.234 185.517 349.012 185.699C348.795 185.875 348.522 185.963 348.194 185.963C347.866 185.963 347.594 185.875 347.377 185.699C347.166 185.517 347.061 185.26 347.061 184.926C347.061 184.586 347.166 184.328 347.377 184.152C347.594 183.976 347.866 183.889 348.194 183.889C348.522 183.889 348.795 183.976 349.012 184.152C349.234 184.328 349.346 184.586 349.346 184.926ZM347.289 187.562H349.047V196.633H347.289V187.562ZM356.421 184.873C356.21 184.803 355.917 184.767 355.542 184.767C355.167 184.767 354.868 184.803 354.646 184.873C354.429 184.943 354.256 185.046 354.127 185.181C353.904 185.421 353.793 185.813 353.793 186.358V187.562H356.061V188.907H353.793V196.633H352.035V188.907H350.945V188.081L352.035 187.562V186.596C352.035 185.98 352.088 185.517 352.193 185.207C352.305 184.896 352.437 184.639 352.589 184.433C352.741 184.228 352.946 184.05 353.204 183.897C353.749 183.575 354.514 183.414 355.498 183.414C355.908 183.414 356.216 183.437 356.421 183.484V184.873ZM357.449 198.883C357.607 198.93 357.821 198.953 358.091 198.953C358.366 198.953 358.647 198.897 358.935 198.786C359.222 198.681 359.471 198.531 359.682 198.338C360.033 198.021 360.353 197.523 360.64 196.844L356.913 187.562H358.785L361.404 194.787L363.751 187.562H365.605L361.879 197.749C361.598 198.511 361.208 199.094 360.71 199.498C360.054 200.025 359.178 200.289 358.082 200.289C357.982 200.289 357.88 200.283 357.774 200.271L357.449 200.236V198.883ZM376.1 195.244C376.293 195.314 376.586 195.349 376.979 195.349C377.371 195.349 377.699 195.303 377.963 195.209V196.615C377.84 196.644 377.661 196.662 377.427 196.668L376.873 196.685C376.75 196.685 376.656 196.685 376.592 196.685C375.461 196.685 374.626 196.316 374.087 195.578C373.653 194.98 373.437 194.189 373.437 193.205V188.907H372.136V188.081L373.437 187.562L373.858 185.312H375.194V187.562H378.007V188.907H375.194V193.196C375.194 194.345 375.496 195.027 376.1 195.244ZM384.423 188.933C383.556 188.933 382.782 189.229 382.103 189.821V196.633H380.345V183.555H382.103V188.538C383.052 187.794 384.033 187.422 385.047 187.422C386.131 187.422 386.925 187.744 387.429 188.389C387.956 189.068 388.22 190.164 388.22 191.676V196.633H386.462V191.676C386.462 190.223 386.066 189.355 385.275 189.074C385.023 188.98 384.739 188.933 384.423 188.933ZM395.075 196.773C391.759 196.773 390.101 195.153 390.101 191.913C390.101 190.518 390.561 189.402 391.48 188.564C392.307 187.803 393.25 187.422 394.311 187.422C395.465 187.422 396.367 187.808 397.018 188.582C397.621 189.303 397.923 190.266 397.923 191.474V192.159H391.929C391.929 193.817 392.605 194.831 393.959 195.2C394.281 195.288 394.776 195.332 395.444 195.332C396.118 195.332 396.777 195.241 397.422 195.059V196.545C396.777 196.697 395.995 196.773 395.075 196.773ZM396.165 190.867C396.165 190.305 396.01 189.83 395.699 189.443C395.336 188.998 394.835 188.775 394.196 188.775C393.522 188.775 392.975 188.989 392.553 189.417C392.166 189.815 391.973 190.299 391.973 190.867H396.165ZM401.904 184.926C401.904 185.26 401.793 185.517 401.57 185.699C401.354 185.875 401.081 185.963 400.753 185.963C400.425 185.963 400.152 185.875 399.936 185.699C399.725 185.517 399.619 185.26 399.619 184.926C399.619 184.586 399.725 184.328 399.936 184.152C400.152 183.976 400.425 183.889 400.753 183.889C401.081 183.889 401.354 183.976 401.57 184.152C401.793 184.328 401.904 184.586 401.904 184.926ZM399.848 187.562H401.605V196.633H399.848V187.562ZM410.14 189.171C409.817 189.077 409.431 189.03 408.979 189.03C408.534 189.03 408.168 189.077 407.881 189.171C407.594 189.259 407.342 189.367 407.125 189.496C406.727 189.73 406.437 189.994 406.255 190.287V196.633H404.497V187.562H406.185L406.255 188.819C406.694 188.268 407.336 187.855 408.18 187.58C408.484 187.474 408.833 187.422 409.226 187.422C409.618 187.422 409.923 187.451 410.14 187.51V189.171ZM419.922 184.926C419.922 185.26 419.811 185.517 419.588 185.699C419.371 185.875 419.099 185.963 418.771 185.963C418.442 185.963 418.17 185.875 417.953 185.699C417.742 185.517 417.637 185.26 417.637 184.926C417.637 184.586 417.742 184.328 417.953 184.152C418.17 183.976 418.442 183.889 418.771 183.889C419.099 183.889 419.371 183.976 419.588 184.152C419.811 184.328 419.922 184.586 419.922 184.926ZM417.865 187.562H419.623V196.633H417.865V187.562ZM423.763 188.556C424.272 188.163 424.844 187.876 425.477 187.694C426.115 187.513 426.672 187.422 427.146 187.422C427.621 187.422 427.987 187.433 428.245 187.457V183.555H429.994V196.633H428.421L428.351 195.587C427.993 196.061 427.451 196.413 426.725 196.641C426.443 196.729 426.156 196.773 425.863 196.773C425.576 196.773 425.292 196.744 425.011 196.685C424.729 196.627 424.448 196.53 424.167 196.395C423.892 196.255 423.628 196.073 423.376 195.85C423.124 195.622 422.898 195.344 422.699 195.016C422.277 194.295 422.066 193.442 422.066 192.458C422.066 191.474 422.222 190.677 422.532 190.067C422.849 189.452 423.259 188.948 423.763 188.556ZM424.826 189.601C424.527 189.883 424.296 190.246 424.132 190.691C423.974 191.131 423.895 191.667 423.895 192.3C423.895 192.927 423.971 193.445 424.123 193.855C424.275 194.26 424.466 194.576 424.694 194.805C425.099 195.215 425.585 195.42 426.153 195.42C426.886 195.42 427.492 195.15 427.973 194.611C428.096 194.476 428.184 194.356 428.236 194.251V188.846L428.061 188.828C427.791 188.793 427.469 188.775 427.094 188.775C426.725 188.775 426.329 188.843 425.907 188.977C425.485 189.106 425.125 189.314 424.826 189.601ZM437.122 196.773C433.806 196.773 432.147 195.153 432.147 191.913C432.147 190.518 432.607 189.402 433.527 188.564C434.354 187.803 435.297 187.422 436.357 187.422C437.512 187.422 438.414 187.808 439.064 188.582C439.668 189.303 439.97 190.266 439.97 191.474V192.159H433.976C433.976 193.817 434.652 194.831 436.006 195.2C436.328 195.288 436.823 195.332 437.491 195.332C438.165 195.332 438.824 195.241 439.469 195.059V196.545C438.824 196.697 438.042 196.773 437.122 196.773ZM438.212 190.867C438.212 190.305 438.057 189.83 437.746 189.443C437.383 188.998 436.882 188.775 436.243 188.775C435.569 188.775 435.021 188.989 434.6 189.417C434.213 189.815 434.02 190.299 434.02 190.867H438.212ZM445.99 188.933C445.117 188.933 444.341 189.229 443.661 189.821V196.633H441.903V187.562H443.529L443.652 188.547C444.607 187.797 445.595 187.422 446.614 187.422C447.692 187.422 448.483 187.744 448.987 188.389C449.515 189.068 449.778 190.164 449.778 191.676V196.633H448.021V191.676C448.021 190.223 447.628 189.355 446.843 189.074C446.591 188.98 446.307 188.933 445.99 188.933ZM455.676 195.244C455.869 195.314 456.162 195.349 456.555 195.349C456.947 195.349 457.275 195.303 457.539 195.209V196.615C457.416 196.644 457.237 196.662 457.003 196.668L456.449 196.685C456.326 196.685 456.232 196.685 456.168 196.685C455.037 196.685 454.202 196.316 453.663 195.578C453.229 194.98 453.013 194.189 453.013 193.205V188.907H451.712V188.081L453.013 187.562L453.435 185.312H454.771V187.562H457.583V188.907H454.771V193.196C454.771 194.345 455.072 195.027 455.676 195.244ZM461.969 184.926C461.969 185.26 461.857 185.517 461.635 185.699C461.418 185.875 461.146 185.963 460.817 185.963C460.489 185.963 460.217 185.875 460 185.699C459.789 185.517 459.684 185.26 459.684 184.926C459.684 184.586 459.789 184.328 460 184.152C460.217 183.976 460.489 183.889 460.817 183.889C461.146 183.889 461.418 183.976 461.635 184.152C461.857 184.328 461.969 184.586 461.969 184.926ZM459.912 187.562H461.67V196.633H459.912V187.562ZM467.699 195.244C467.893 195.314 468.186 195.349 468.578 195.349C468.971 195.349 469.299 195.303 469.562 195.209V196.615C469.439 196.644 469.261 196.662 469.026 196.668L468.473 196.685C468.35 196.685 468.256 196.685 468.191 196.685C467.061 196.685 466.226 196.316 465.687 195.578C465.253 194.98 465.036 194.189 465.036 193.205V188.907H463.735V188.081L465.036 187.562L465.458 185.312H466.794V187.562H469.606V188.907H466.794V193.196C466.794 194.345 467.096 195.027 467.699 195.244ZM471.566 198.883C471.725 198.93 471.938 198.953 472.208 198.953C472.483 198.953 472.765 198.897 473.052 198.786C473.339 198.681 473.588 198.531 473.799 198.338C474.15 198.021 474.47 197.523 474.757 196.844L471.03 187.562H472.902L475.521 194.787L477.868 187.562H479.723L475.996 197.749C475.715 198.511 475.325 199.094 474.827 199.498C474.171 200.025 473.295 200.289 472.199 200.289C472.1 200.289 471.997 200.283 471.892 200.271L471.566 200.236V198.883ZM487.36 195.016C487.167 194.682 487.012 194.289 486.895 193.838C486.783 193.387 486.728 192.798 486.728 192.071C486.728 191.345 486.883 190.677 487.193 190.067C487.51 189.452 487.92 188.948 488.424 188.556C489.402 187.8 490.618 187.422 492.071 187.422C492.827 187.422 493.398 187.439 493.785 187.474C493.785 187.474 494.069 187.504 494.638 187.562V196.633H493.056L492.985 195.587C492.634 196.056 492.098 196.404 491.377 196.633C491.102 196.721 490.817 196.765 490.524 196.765C490.237 196.765 489.953 196.735 489.672 196.677C489.391 196.618 489.109 196.521 488.828 196.387C488.553 196.252 488.289 196.073 488.037 195.85C487.785 195.622 487.56 195.344 487.36 195.016ZM492.88 188.854C492.505 188.807 492.13 188.784 491.755 188.784C491.386 188.784 490.99 188.851 490.568 188.986C490.146 189.115 489.786 189.32 489.487 189.601C488.866 190.187 488.556 191.081 488.556 192.282C488.556 193.419 488.822 194.26 489.355 194.805C489.76 195.209 490.246 195.411 490.814 195.411C491.547 195.411 492.15 195.144 492.625 194.611C492.742 194.476 492.827 194.356 492.88 194.251V188.854ZM500.711 195.244C500.904 195.314 501.197 195.349 501.59 195.349C501.982 195.349 502.311 195.303 502.574 195.209V196.615C502.451 196.644 502.272 196.662 502.038 196.668L501.484 196.685C501.361 196.685 501.268 196.685 501.203 196.685C500.072 196.685 499.237 196.316 498.698 195.578C498.265 194.98 498.048 194.189 498.048 193.205V188.907H496.747V188.081L498.048 187.562L498.47 185.312H499.806V187.562H502.618V188.907H499.806V193.196C499.806 194.345 500.107 195.027 500.711 195.244ZM514.211 195.244C514.404 195.314 514.697 195.349 515.09 195.349C515.482 195.349 515.811 195.303 516.074 195.209V196.615C515.951 196.644 515.772 196.662 515.538 196.668L514.984 196.685C514.861 196.685 514.768 196.685 514.703 196.685C513.572 196.685 512.737 196.316 512.198 195.578C511.765 194.98 511.548 194.189 511.548 193.205V188.907H510.247V188.081L511.548 187.562L511.97 185.312H513.306V187.562H516.118V188.907H513.306V193.196C513.306 194.345 513.607 195.027 514.211 195.244ZM522.534 188.933C521.667 188.933 520.894 189.229 520.214 189.821V196.633H518.456V183.555H520.214V188.538C521.163 187.794 522.145 187.422 523.158 187.422C524.242 187.422 525.036 187.744 525.54 188.389C526.067 189.068 526.331 190.164 526.331 191.676V196.633H524.573V191.676C524.573 190.223 524.178 189.355 523.387 189.074C523.135 188.98 522.851 188.933 522.534 188.933ZM533.187 196.773C529.87 196.773 528.212 195.153 528.212 191.913C528.212 190.518 528.672 189.402 529.592 188.564C530.418 187.803 531.361 187.422 532.422 187.422C533.576 187.422 534.479 187.808 535.129 188.582C535.732 189.303 536.034 190.266 536.034 191.474V192.159H530.04C530.04 193.817 530.717 194.831 532.07 195.2C532.393 195.288 532.888 195.332 533.556 195.332C534.229 195.332 534.889 195.241 535.533 195.059V196.545C534.889 196.697 534.106 196.773 533.187 196.773ZM534.276 190.867C534.276 190.305 534.121 189.83 533.811 189.443C533.447 188.998 532.946 188.775 532.308 188.775C531.634 188.775 531.086 188.989 530.664 189.417C530.277 189.815 530.084 190.299 530.084 190.867H534.276ZM545.852 200.148H544.094V187.562H545.676L545.746 188.599C546.098 188.131 546.637 187.782 547.363 187.554C547.645 187.466 547.929 187.422 548.216 187.422C548.509 187.422 548.796 187.454 549.077 187.518C549.358 187.577 549.637 187.677 549.912 187.817C550.188 187.952 550.451 188.134 550.703 188.362C550.955 188.585 551.178 188.863 551.371 189.197C551.793 189.918 552.004 190.811 552.004 191.878C552.004 193.507 551.441 194.752 550.316 195.613C549.32 196.381 548.107 196.765 546.678 196.765H546.238C546.098 196.765 545.969 196.762 545.852 196.756V200.148ZM545.852 195.332C546.016 195.379 546.338 195.402 546.818 195.402C547.299 195.402 547.75 195.335 548.172 195.2C548.594 195.065 548.951 194.857 549.244 194.576C549.865 193.978 550.176 193.079 550.176 191.878C550.176 190.747 549.906 189.912 549.367 189.373C548.969 188.974 548.482 188.775 547.908 188.775C547.188 188.775 546.59 189.042 546.115 189.575C545.992 189.71 545.904 189.83 545.852 189.935V195.332ZM553.885 192.08C553.885 190.656 554.339 189.502 555.247 188.617C556.097 187.791 557.148 187.378 558.402 187.378C559.633 187.378 560.661 187.791 561.487 188.617C562.366 189.496 562.806 190.65 562.806 192.08C562.806 193.504 562.363 194.652 561.479 195.525C560.641 196.357 559.612 196.773 558.394 196.773C557.157 196.773 556.108 196.357 555.247 195.525C554.339 194.652 553.885 193.504 553.885 192.08ZM555.713 192.08C555.713 193.58 556.193 194.599 557.154 195.139C557.494 195.326 557.901 195.42 558.376 195.42C558.851 195.42 559.252 195.326 559.58 195.139C559.908 194.945 560.178 194.693 560.389 194.383C560.781 193.785 560.978 193.017 560.978 192.08C560.978 190.592 560.506 189.572 559.562 189.021C559.234 188.828 558.842 188.731 558.385 188.731C557.928 188.731 557.529 188.828 557.189 189.021C556.855 189.209 556.58 189.458 556.363 189.768C555.93 190.378 555.713 191.148 555.713 192.08ZM567.016 184.926C567.016 185.26 566.904 185.517 566.682 185.699C566.465 185.875 566.192 185.963 565.864 185.963C565.536 185.963 565.264 185.875 565.047 185.699C564.836 185.517 564.73 185.26 564.73 184.926C564.73 184.586 564.836 184.328 565.047 184.152C565.264 183.976 565.536 183.889 565.864 183.889C566.192 183.889 566.465 183.976 566.682 184.152C566.904 184.328 567.016 184.586 567.016 184.926ZM564.959 187.562H566.717V196.633H564.959V187.562ZM573.572 188.933C572.699 188.933 571.923 189.229 571.243 189.821V196.633H569.485V187.562H571.111L571.234 188.547C572.189 187.797 573.177 187.422 574.196 187.422C575.274 187.422 576.065 187.744 576.569 188.389C577.097 189.068 577.36 190.164 577.36 191.676V196.633H575.603V191.676C575.603 190.223 575.21 189.355 574.425 189.074C574.173 188.98 573.889 188.933 573.572 188.933ZM583.258 195.244C583.451 195.314 583.744 195.349 584.137 195.349C584.529 195.349 584.857 195.303 585.121 195.209V196.615C584.998 196.644 584.819 196.662 584.585 196.668L584.031 196.685C583.908 196.685 583.814 196.685 583.75 196.685C582.619 196.685 581.784 196.316 581.245 195.578C580.812 194.98 580.595 194.189 580.595 193.205V188.907H579.294V188.081L580.595 187.562L581.017 185.312H582.353V187.562H585.165V188.907H582.353V193.196C582.353 194.345 582.654 195.027 583.258 195.244ZM592.908 192.08C592.908 190.656 593.362 189.502 594.271 188.617C595.12 187.791 596.172 187.378 597.426 187.378C598.656 187.378 599.685 187.791 600.511 188.617C601.39 189.496 601.829 190.65 601.829 192.08C601.829 193.504 601.387 194.652 600.502 195.525C599.664 196.357 598.636 196.773 597.417 196.773C596.181 196.773 595.132 196.357 594.271 195.525C593.362 194.652 592.908 193.504 592.908 192.08ZM594.736 192.08C594.736 193.58 595.217 194.599 596.178 195.139C596.518 195.326 596.925 195.42 597.399 195.42C597.874 195.42 598.275 195.326 598.604 195.139C598.932 194.945 599.201 194.693 599.412 194.383C599.805 193.785 600.001 193.017 600.001 192.08C600.001 190.592 599.529 189.572 598.586 189.021C598.258 188.828 597.865 188.731 597.408 188.731C596.951 188.731 596.553 188.828 596.213 189.021C595.879 189.209 595.604 189.458 595.387 189.768C594.953 190.378 594.736 191.148 594.736 192.08ZM608.597 184.873C608.386 184.803 608.093 184.767 607.718 184.767C607.343 184.767 607.044 184.803 606.821 184.873C606.604 184.943 606.432 185.046 606.303 185.181C606.08 185.421 605.969 185.813 605.969 186.358V187.562H608.236V188.907H605.969V196.633H604.211V188.907H603.121V188.081L604.211 187.562V186.596C604.211 185.98 604.264 185.517 604.369 185.207C604.48 184.896 604.612 184.639 604.765 184.433C604.917 184.228 605.122 184.05 605.38 183.897C605.925 183.575 606.689 183.414 607.674 183.414C608.084 183.414 608.392 183.437 608.597 183.484V184.873ZM92.9512 220.773C92.2188 220.773 91.4775 220.721 90.7275 220.615V219.059C91.4893 219.241 92.2627 219.332 93.0479 219.332C94.6182 219.332 95.4033 219.001 95.4033 218.339C95.4033 218.087 95.3418 217.899 95.2188 217.776C95.0371 217.583 94.75 217.39 94.3574 217.196L93.0742 216.607C92.2422 216.191 91.7031 215.857 91.457 215.605C90.9941 215.137 90.7627 214.58 90.7627 213.935C90.7627 213.209 91.0996 212.617 91.7734 212.16C92.5 211.668 93.5195 211.422 94.832 211.422C95.4941 211.422 96.1621 211.469 96.8359 211.562V213.065C96.0977 212.931 95.4531 212.863 94.9023 212.863C94.3574 212.863 93.9326 212.898 93.6279 212.969C93.3291 213.039 93.1035 213.127 92.9512 213.232C92.7109 213.396 92.5908 213.61 92.5908 213.874C92.5908 214.132 92.6729 214.343 92.8369 214.507C93.0068 214.665 93.2705 214.838 93.6279 215.025L94.9199 215.649C95.7637 216.089 96.3057 216.426 96.5459 216.66C97.0029 217.105 97.2314 217.665 97.2314 218.339C97.2314 219.059 96.8682 219.64 96.1416 220.079C95.3799 220.542 94.3164 220.773 92.9512 220.773ZM103.964 220.773C100.647 220.773 98.9893 219.153 98.9893 215.913C98.9893 214.518 99.4492 213.402 100.369 212.564C101.195 211.803 102.139 211.422 103.199 211.422C104.354 211.422 105.256 211.808 105.906 212.582C106.51 213.303 106.812 214.266 106.812 215.474V216.159H100.817C100.817 217.817 101.494 218.831 102.848 219.2C103.17 219.288 103.665 219.332 104.333 219.332C105.007 219.332 105.666 219.241 106.311 219.059V220.545C105.666 220.697 104.884 220.773 103.964 220.773ZM105.054 214.867C105.054 214.305 104.898 213.83 104.588 213.443C104.225 212.998 103.724 212.775 103.085 212.775C102.411 212.775 101.863 212.989 101.441 213.417C101.055 213.815 100.861 214.299 100.861 214.867H105.054ZM112.832 212.933C111.959 212.933 111.183 213.229 110.503 213.821V220.633H108.745V211.562H110.371L110.494 212.547C111.449 211.797 112.437 211.422 113.456 211.422C114.534 211.422 115.325 211.744 115.829 212.389C116.356 213.068 116.62 214.164 116.62 215.676V220.633H114.862V215.676C114.862 214.223 114.47 213.355 113.685 213.074C113.433 212.98 113.148 212.933 112.832 212.933ZM120.628 212.556C121.138 212.163 121.709 211.876 122.342 211.694C122.98 211.513 123.537 211.422 124.012 211.422C124.486 211.422 124.853 211.433 125.11 211.457V207.555H126.859V220.633H125.286L125.216 219.587C124.858 220.061 124.316 220.413 123.59 220.641C123.309 220.729 123.021 220.773 122.729 220.773C122.441 220.773 122.157 220.744 121.876 220.685C121.595 220.627 121.313 220.53 121.032 220.395C120.757 220.255 120.493 220.073 120.241 219.85C119.989 219.622 119.764 219.344 119.564 219.016C119.143 218.295 118.932 217.442 118.932 216.458C118.932 215.474 119.087 214.677 119.397 214.067C119.714 213.452 120.124 212.948 120.628 212.556ZM121.691 213.601C121.393 213.883 121.161 214.246 120.997 214.691C120.839 215.131 120.76 215.667 120.76 216.3C120.76 216.927 120.836 217.445 120.988 217.855C121.141 218.26 121.331 218.576 121.56 218.805C121.964 219.215 122.45 219.42 123.019 219.42C123.751 219.42 124.357 219.15 124.838 218.611C124.961 218.476 125.049 218.356 125.102 218.251V212.846L124.926 212.828C124.656 212.793 124.334 212.775 123.959 212.775C123.59 212.775 123.194 212.843 122.772 212.977C122.351 213.106 121.99 213.314 121.691 213.601ZM131.799 208.926C131.799 209.26 131.688 209.517 131.465 209.699C131.248 209.875 130.976 209.963 130.647 209.963C130.319 209.963 130.047 209.875 129.83 209.699C129.619 209.517 129.514 209.26 129.514 208.926C129.514 208.586 129.619 208.328 129.83 208.152C130.047 207.976 130.319 207.889 130.647 207.889C130.976 207.889 131.248 207.976 131.465 208.152C131.688 208.328 131.799 208.586 131.799 208.926ZM129.742 211.562H131.5V220.633H129.742V211.562ZM138.355 212.933C137.482 212.933 136.706 213.229 136.026 213.821V220.633H134.269V211.562H135.895L136.018 212.547C136.973 211.797 137.96 211.422 138.979 211.422C140.058 211.422 140.849 211.744 141.353 212.389C141.88 213.068 142.144 214.164 142.144 215.676V220.633H140.386V215.676C140.386 214.223 139.993 213.355 139.208 213.074C138.956 212.98 138.672 212.933 138.355 212.933ZM149.939 224.096C149.43 224.224 148.773 224.289 147.971 224.289C147.174 224.289 146.591 224.23 146.222 224.113V222.549C146.685 222.748 147.25 222.848 147.918 222.848C148.592 222.853 149.087 222.809 149.403 222.716C149.72 222.622 149.969 222.47 150.15 222.259C150.479 221.878 150.643 221.189 150.643 220.193V219.727C150.197 220.173 149.611 220.483 148.885 220.659C148.592 220.729 148.299 220.765 148.006 220.765C147.713 220.765 147.426 220.732 147.145 220.668C146.869 220.603 146.594 220.501 146.318 220.36C146.043 220.214 145.779 220.026 145.527 219.798C145.275 219.563 145.053 219.273 144.859 218.928C144.426 218.178 144.209 217.255 144.209 216.159C144.197 215.145 144.49 214.255 145.088 213.487C145.604 212.819 146.312 212.301 147.215 211.932C148.035 211.592 148.923 211.422 149.878 211.422C150.833 211.422 151.674 211.469 152.4 211.562V220.193C152.4 222.385 151.58 223.685 149.939 224.096ZM150.643 212.846C150.268 212.799 149.898 212.775 149.535 212.775C149.172 212.775 148.765 212.843 148.313 212.977C147.862 213.112 147.467 213.317 147.127 213.593C146.383 214.196 146.011 215.052 146.011 216.159C146.011 217.36 146.301 218.236 146.881 218.787C147.314 219.203 147.845 219.411 148.472 219.411C149.228 219.411 149.863 219.144 150.379 218.611C150.502 218.476 150.59 218.356 150.643 218.251V212.846ZM155.494 218.998H157.19V220.633C157.19 221.769 156.971 222.607 156.531 223.146C156.039 223.744 155.236 224.043 154.123 224.043V222.593C154.861 222.593 155.295 222.226 155.424 221.494C155.471 221.248 155.494 220.961 155.494 220.633V218.998ZM169.029 219.244C169.223 219.314 169.516 219.349 169.908 219.349C170.301 219.349 170.629 219.303 170.893 219.209V220.615C170.77 220.644 170.591 220.662 170.356 220.668L169.803 220.685C169.68 220.685 169.586 220.685 169.521 220.685C168.391 220.685 167.556 220.316 167.017 219.578C166.583 218.98 166.366 218.189 166.366 217.205V212.907H165.065V212.081L166.366 211.562L166.788 209.312H168.124V211.562H170.937V212.907H168.124V217.196C168.124 218.345 168.426 219.027 169.029 219.244ZM172.686 216.08C172.686 214.656 173.14 213.502 174.048 212.617C174.897 211.791 175.949 211.378 177.203 211.378C178.434 211.378 179.462 211.791 180.288 212.617C181.167 213.496 181.606 214.65 181.606 216.08C181.606 217.504 181.164 218.652 180.279 219.525C179.441 220.357 178.413 220.773 177.194 220.773C175.958 220.773 174.909 220.357 174.048 219.525C173.14 218.652 172.686 217.504 172.686 216.08ZM174.514 216.08C174.514 217.58 174.994 218.599 175.955 219.139C176.295 219.326 176.702 219.42 177.177 219.42C177.651 219.42 178.053 219.326 178.381 219.139C178.709 218.945 178.979 218.693 179.189 218.383C179.582 217.785 179.778 217.017 179.778 216.08C179.778 214.592 179.307 213.572 178.363 213.021C178.035 212.828 177.643 212.731 177.186 212.731C176.729 212.731 176.33 212.828 175.99 213.021C175.656 213.209 175.381 213.458 175.164 213.768C174.73 214.378 174.514 215.148 174.514 216.08ZM191.652 224.148H189.895V211.562H191.477L191.547 212.599C191.898 212.131 192.438 211.782 193.164 211.554C193.445 211.466 193.729 211.422 194.017 211.422C194.31 211.422 194.597 211.454 194.878 211.518C195.159 211.577 195.438 211.677 195.713 211.817C195.988 211.952 196.252 212.134 196.504 212.362C196.756 212.585 196.979 212.863 197.172 213.197C197.594 213.918 197.805 214.811 197.805 215.878C197.805 217.507 197.242 218.752 196.117 219.613C195.121 220.381 193.908 220.765 192.479 220.765H192.039C191.898 220.765 191.77 220.762 191.652 220.756V224.148ZM191.652 219.332C191.816 219.379 192.139 219.402 192.619 219.402C193.1 219.402 193.551 219.335 193.973 219.2C194.395 219.065 194.752 218.857 195.045 218.576C195.666 217.978 195.977 217.079 195.977 215.878C195.977 214.747 195.707 213.912 195.168 213.373C194.77 212.974 194.283 212.775 193.709 212.775C192.988 212.775 192.391 213.042 191.916 213.575C191.793 213.71 191.705 213.83 191.652 213.935V219.332ZM206.04 213.171C205.718 213.077 205.331 213.03 204.88 213.03C204.435 213.03 204.068 213.077 203.781 213.171C203.494 213.259 203.242 213.367 203.025 213.496C202.627 213.73 202.337 213.994 202.155 214.287V220.633H200.397V211.562H202.085L202.155 212.819C202.595 212.268 203.236 211.855 204.08 211.58C204.385 211.474 204.733 211.422 205.126 211.422C205.519 211.422 205.823 211.451 206.04 211.51V213.171ZM207.191 216.08C207.191 214.656 207.646 213.502 208.554 212.617C209.403 211.791 210.455 211.378 211.709 211.378C212.939 211.378 213.968 211.791 214.794 212.617C215.673 213.496 216.112 214.65 216.112 216.08C216.112 217.504 215.67 218.652 214.785 219.525C213.947 220.357 212.919 220.773 211.7 220.773C210.464 220.773 209.415 220.357 208.554 219.525C207.646 218.652 207.191 217.504 207.191 216.08ZM209.02 216.08C209.02 217.58 209.5 218.599 210.461 219.139C210.801 219.326 211.208 219.42 211.683 219.42C212.157 219.42 212.559 219.326 212.887 219.139C213.215 218.945 213.484 218.693 213.695 218.383C214.088 217.785 214.284 217.017 214.284 216.08C214.284 214.592 213.812 213.572 212.869 213.021C212.541 212.828 212.148 212.731 211.691 212.731C211.234 212.731 210.836 212.828 210.496 213.021C210.162 213.209 209.887 213.458 209.67 213.768C209.236 214.378 209.02 215.148 209.02 216.08ZM217.035 211.562H218.925L221.395 218.919L223.873 211.562H225.754L222.282 220.633H220.516L217.035 211.562ZM229.305 208.926C229.305 209.26 229.193 209.517 228.971 209.699C228.754 209.875 228.481 209.963 228.153 209.963C227.825 209.963 227.553 209.875 227.336 209.699C227.125 209.517 227.02 209.26 227.02 208.926C227.02 208.586 227.125 208.328 227.336 208.152C227.553 207.976 227.825 207.889 228.153 207.889C228.481 207.889 228.754 207.976 228.971 208.152C229.193 208.328 229.305 208.586 229.305 208.926ZM227.248 211.562H229.006V220.633H227.248V211.562ZM233.146 212.556C233.655 212.163 234.227 211.876 234.859 211.694C235.498 211.513 236.055 211.422 236.529 211.422C237.004 211.422 237.37 211.433 237.628 211.457V207.555H239.377V220.633H237.804L237.733 219.587C237.376 220.061 236.834 220.413 236.107 220.641C235.826 220.729 235.539 220.773 235.246 220.773C234.959 220.773 234.675 220.744 234.394 220.685C234.112 220.627 233.831 220.53 233.55 220.395C233.274 220.255 233.011 220.073 232.759 219.85C232.507 219.622 232.281 219.344 232.082 219.016C231.66 218.295 231.449 217.442 231.449 216.458C231.449 215.474 231.604 214.677 231.915 214.067C232.231 213.452 232.642 212.948 233.146 212.556ZM234.209 213.601C233.91 213.883 233.679 214.246 233.515 214.691C233.356 215.131 233.277 215.667 233.277 216.3C233.277 216.927 233.354 217.445 233.506 217.855C233.658 218.26 233.849 218.576 234.077 218.805C234.481 219.215 234.968 219.42 235.536 219.42C236.269 219.42 236.875 219.15 237.355 218.611C237.479 218.476 237.566 218.356 237.619 218.251V212.846L237.443 212.828C237.174 212.793 236.852 212.775 236.477 212.775C236.107 212.775 235.712 212.843 235.29 212.977C234.868 213.106 234.508 213.314 234.209 213.601ZM246.505 220.773C243.188 220.773 241.53 219.153 241.53 215.913C241.53 214.518 241.99 213.402 242.91 212.564C243.736 211.803 244.68 211.422 245.74 211.422C246.895 211.422 247.797 211.808 248.447 212.582C249.051 213.303 249.353 214.266 249.353 215.474V216.159H243.358C243.358 217.817 244.035 218.831 245.389 219.2C245.711 219.288 246.206 219.332 246.874 219.332C247.548 219.332 248.207 219.241 248.852 219.059V220.545C248.207 220.697 247.425 220.773 246.505 220.773ZM247.595 214.867C247.595 214.305 247.439 213.83 247.129 213.443C246.766 212.998 246.265 212.775 245.626 212.775C244.952 212.775 244.404 212.989 243.982 213.417C243.596 213.815 243.402 214.299 243.402 214.867H247.595ZM263.046 213.171C262.724 213.077 262.337 213.03 261.886 213.03C261.44 213.03 261.074 213.077 260.787 213.171C260.5 213.259 260.248 213.367 260.031 213.496C259.633 213.73 259.343 213.994 259.161 214.287V220.633H257.403V211.562H259.091L259.161 212.819C259.601 212.268 260.242 211.855 261.086 211.58C261.391 211.474 261.739 211.422 262.132 211.422C262.524 211.422 262.829 211.451 263.046 211.51V213.171ZM269.022 220.773C265.706 220.773 264.048 219.153 264.048 215.913C264.048 214.518 264.508 213.402 265.428 212.564C266.254 211.803 267.197 211.422 268.258 211.422C269.412 211.422 270.314 211.808 270.965 212.582C271.568 213.303 271.87 214.266 271.87 215.474V216.159H265.876C265.876 217.817 266.553 218.831 267.906 219.2C268.229 219.288 268.724 219.332 269.392 219.332C270.065 219.332 270.725 219.241 271.369 219.059V220.545C270.725 220.697 269.942 220.773 269.022 220.773ZM270.112 214.867C270.112 214.305 269.957 213.83 269.646 213.443C269.283 212.998 268.782 212.775 268.144 212.775C267.47 212.775 266.922 212.989 266.5 213.417C266.113 213.815 265.92 214.299 265.92 214.867H270.112ZM280.316 220.606C279.965 220.718 279.355 220.773 278.488 220.773C277.621 220.773 276.883 220.668 276.273 220.457C275.67 220.246 275.154 219.935 274.727 219.525C273.842 218.676 273.399 217.498 273.399 215.992C273.399 214.533 273.93 213.385 274.99 212.547C275.939 211.797 277.105 211.422 278.488 211.422C279.344 211.422 279.93 211.451 280.246 211.51V213.074C279.754 212.916 279.191 212.837 278.559 212.837C277.932 212.837 277.41 212.925 276.994 213.1C276.578 213.27 276.238 213.502 275.975 213.795C275.477 214.351 275.228 215.084 275.228 215.992C275.228 217.527 275.781 218.55 276.889 219.059C277.281 219.241 277.665 219.332 278.04 219.332C278.415 219.332 278.702 219.323 278.901 219.306C279.106 219.288 279.3 219.265 279.481 219.235C279.868 219.171 280.146 219.103 280.316 219.033V220.606ZM284.834 208.926C284.834 209.26 284.723 209.517 284.5 209.699C284.283 209.875 284.011 209.963 283.683 209.963C283.354 209.963 283.082 209.875 282.865 209.699C282.654 209.517 282.549 209.26 282.549 208.926C282.549 208.586 282.654 208.328 282.865 208.152C283.082 207.976 283.354 207.889 283.683 207.889C284.011 207.889 284.283 207.976 284.5 208.152C284.723 208.328 284.834 208.586 284.834 208.926ZM282.777 211.562H284.535V220.633H282.777V211.562ZM289.193 224.148H287.436V211.562H289.018L289.088 212.599C289.439 212.131 289.979 211.782 290.705 211.554C290.986 211.466 291.271 211.422 291.558 211.422C291.851 211.422 292.138 211.454 292.419 211.518C292.7 211.577 292.979 211.677 293.254 211.817C293.529 211.952 293.793 212.134 294.045 212.362C294.297 212.585 294.52 212.863 294.713 213.197C295.135 213.918 295.346 214.811 295.346 215.878C295.346 217.507 294.783 218.752 293.658 219.613C292.662 220.381 291.449 220.765 290.02 220.765H289.58C289.439 220.765 289.311 220.762 289.193 220.756V224.148ZM289.193 219.332C289.357 219.379 289.68 219.402 290.16 219.402C290.641 219.402 291.092 219.335 291.514 219.2C291.936 219.065 292.293 218.857 292.586 218.576C293.207 217.978 293.518 217.079 293.518 215.878C293.518 214.747 293.248 213.912 292.709 213.373C292.311 212.974 291.824 212.775 291.25 212.775C290.529 212.775 289.932 213.042 289.457 213.575C289.334 213.71 289.246 213.83 289.193 213.935V219.332ZM299.863 208.926C299.863 209.26 299.752 209.517 299.529 209.699C299.312 209.875 299.04 209.963 298.712 209.963C298.384 209.963 298.111 209.875 297.895 209.699C297.684 209.517 297.578 209.26 297.578 208.926C297.578 208.586 297.684 208.328 297.895 208.152C298.111 207.976 298.384 207.889 298.712 207.889C299.04 207.889 299.312 207.976 299.529 208.152C299.752 208.328 299.863 208.586 299.863 208.926ZM297.807 211.562H299.564V220.633H297.807V211.562ZM306.569 220.773C303.253 220.773 301.595 219.153 301.595 215.913C301.595 214.518 302.055 213.402 302.975 212.564C303.801 211.803 304.744 211.422 305.805 211.422C306.959 211.422 307.861 211.808 308.512 212.582C309.115 213.303 309.417 214.266 309.417 215.474V216.159H303.423C303.423 217.817 304.1 218.831 305.453 219.2C305.775 219.288 306.271 219.332 306.938 219.332C307.612 219.332 308.271 219.241 308.916 219.059V220.545C308.271 220.697 307.489 220.773 306.569 220.773ZM307.659 214.867C307.659 214.305 307.504 213.83 307.193 213.443C306.83 212.998 306.329 212.775 305.69 212.775C305.017 212.775 304.469 212.989 304.047 213.417C303.66 213.815 303.467 214.299 303.467 214.867H307.659ZM315.438 212.933C314.564 212.933 313.788 213.229 313.108 213.821V220.633H311.351V211.562H312.977L313.1 212.547C314.055 211.797 315.042 211.422 316.062 211.422C317.14 211.422 317.931 211.744 318.435 212.389C318.962 213.068 319.226 214.164 319.226 215.676V220.633H317.468V215.676C317.468 214.223 317.075 213.355 316.29 213.074C316.038 212.98 315.754 212.933 315.438 212.933ZM325.123 219.244C325.316 219.314 325.609 219.349 326.002 219.349C326.395 219.349 326.723 219.303 326.986 219.209V220.615C326.863 220.644 326.685 220.662 326.45 220.668L325.896 220.685C325.773 220.685 325.68 220.685 325.615 220.685C324.484 220.685 323.649 220.316 323.11 219.578C322.677 218.98 322.46 218.189 322.46 217.205V212.907H321.159V212.081L322.46 211.562L322.882 209.312H324.218V211.562H327.03V212.907H324.218V217.196C324.218 218.345 324.52 219.027 325.123 219.244ZM331.592 220.773C330.859 220.773 330.118 220.721 329.368 220.615V219.059C330.13 219.241 330.903 219.332 331.688 219.332C333.259 219.332 334.044 219.001 334.044 218.339C334.044 218.087 333.982 217.899 333.859 217.776C333.678 217.583 333.391 217.39 332.998 217.196L331.715 216.607C330.883 216.191 330.344 215.857 330.098 215.605C329.635 215.137 329.403 214.58 329.403 213.935C329.403 213.209 329.74 212.617 330.414 212.16C331.141 211.668 332.16 211.422 333.473 211.422C334.135 211.422 334.803 211.469 335.477 211.562V213.065C334.738 212.931 334.094 212.863 333.543 212.863C332.998 212.863 332.573 212.898 332.269 212.969C331.97 213.039 331.744 213.127 331.592 213.232C331.352 213.396 331.231 213.61 331.231 213.874C331.231 214.132 331.313 214.343 331.478 214.507C331.647 214.665 331.911 214.838 332.269 215.025L333.561 215.649C334.404 216.089 334.946 216.426 335.187 216.66C335.644 217.105 335.872 217.665 335.872 218.339C335.872 219.059 335.509 219.64 334.782 220.079C334.021 220.542 332.957 220.773 331.592 220.773ZM343.141 211.562H345.013L347.342 218.769L349.697 211.562H351.525L353.907 218.743L356.122 211.562H357.862L354.812 220.633H353.002L350.559 213.76L348.247 220.633H346.437L343.141 211.562ZM361.422 208.926C361.422 209.26 361.311 209.517 361.088 209.699C360.871 209.875 360.599 209.963 360.271 209.963C359.942 209.963 359.67 209.875 359.453 209.699C359.242 209.517 359.137 209.26 359.137 208.926C359.137 208.586 359.242 208.328 359.453 208.152C359.67 207.976 359.942 207.889 360.271 207.889C360.599 207.889 360.871 207.976 361.088 208.152C361.311 208.328 361.422 208.586 361.422 208.926ZM359.365 211.562H361.123V220.633H359.365V211.562ZM367.152 219.244C367.346 219.314 367.639 219.349 368.031 219.349C368.424 219.349 368.752 219.303 369.016 219.209V220.615C368.893 220.644 368.714 220.662 368.479 220.668L367.926 220.685C367.803 220.685 367.709 220.685 367.645 220.685C366.514 220.685 365.679 220.316 365.14 219.578C364.706 218.98 364.489 218.189 364.489 217.205V212.907H363.188V212.081L364.489 211.562L364.911 209.312H366.247V211.562H369.06V212.907H366.247V217.196C366.247 218.345 366.549 219.027 367.152 219.244ZM375.476 212.933C374.608 212.933 373.835 213.229 373.155 213.821V220.633H371.397V207.555H373.155V212.538C374.104 211.794 375.086 211.422 376.1 211.422C377.184 211.422 377.978 211.744 378.481 212.389C379.009 213.068 379.272 214.164 379.272 215.676V220.633H377.515V215.676C377.515 214.223 377.119 213.355 376.328 213.074C376.076 212.98 375.792 212.933 375.476 212.933ZM386.646 211.562H388.536L391.006 218.919L393.484 211.562H395.365L391.894 220.633H390.127L386.646 211.562ZM401.104 220.773C397.788 220.773 396.13 219.153 396.13 215.913C396.13 214.518 396.59 213.402 397.51 212.564C398.336 211.803 399.279 211.422 400.34 211.422C401.494 211.422 402.396 211.808 403.047 212.582C403.65 213.303 403.952 214.266 403.952 215.474V216.159H397.958C397.958 217.817 398.635 218.831 399.988 219.2C400.311 219.288 400.806 219.332 401.474 219.332C402.147 219.332 402.807 219.241 403.451 219.059V220.545C402.807 220.697 402.024 220.773 401.104 220.773ZM402.194 214.867C402.194 214.305 402.039 213.83 401.729 213.443C401.365 212.998 400.864 212.775 400.226 212.775C399.552 212.775 399.004 212.989 398.582 213.417C398.195 213.815 398.002 214.299 398.002 214.867H402.194ZM411.651 213.171C411.329 213.077 410.942 213.03 410.491 213.03C410.046 213.03 409.68 213.077 409.393 213.171C409.105 213.259 408.854 213.367 408.637 213.496C408.238 213.73 407.948 213.994 407.767 214.287V220.633H406.009V211.562H407.696L407.767 212.819C408.206 212.268 408.848 211.855 409.691 211.58C409.996 211.474 410.345 211.422 410.737 211.422C411.13 211.422 411.435 211.451 411.651 211.51V213.171ZM415.439 208.926C415.439 209.26 415.328 209.517 415.105 209.699C414.889 209.875 414.616 209.963 414.288 209.963C413.96 209.963 413.688 209.875 413.471 209.699C413.26 209.517 413.154 209.26 413.154 208.926C413.154 208.586 413.26 208.328 413.471 208.152C413.688 207.976 413.96 207.889 414.288 207.889C414.616 207.889 414.889 207.976 415.105 208.152C415.328 208.328 415.439 208.586 415.439 208.926ZM413.383 211.562H415.141V220.633H413.383V211.562ZM422.515 208.873C422.304 208.803 422.011 208.767 421.636 208.767C421.261 208.767 420.962 208.803 420.739 208.873C420.522 208.943 420.35 209.046 420.221 209.181C419.998 209.421 419.887 209.813 419.887 210.358V211.562H422.154V212.907H419.887V220.633H418.129V212.907H417.039V212.081L418.129 211.562V210.596C418.129 209.98 418.182 209.517 418.287 209.207C418.398 208.896 418.53 208.639 418.683 208.433C418.835 208.228 419.04 208.05 419.298 207.897C419.843 207.575 420.607 207.414 421.592 207.414C422.002 207.414 422.31 207.437 422.515 207.484V208.873ZM425.969 208.926C425.969 209.26 425.857 209.517 425.635 209.699C425.418 209.875 425.146 209.963 424.817 209.963C424.489 209.963 424.217 209.875 424 209.699C423.789 209.517 423.684 209.26 423.684 208.926C423.684 208.586 423.789 208.328 424 208.152C424.217 207.976 424.489 207.889 424.817 207.889C425.146 207.889 425.418 207.976 425.635 208.152C425.857 208.328 425.969 208.586 425.969 208.926ZM423.912 211.562H425.67V220.633H423.912V211.562ZM434.951 220.606C434.6 220.718 433.99 220.773 433.123 220.773C432.256 220.773 431.518 220.668 430.908 220.457C430.305 220.246 429.789 219.935 429.361 219.525C428.477 218.676 428.034 217.498 428.034 215.992C428.034 214.533 428.564 213.385 429.625 212.547C430.574 211.797 431.74 211.422 433.123 211.422C433.979 211.422 434.564 211.451 434.881 211.51V213.074C434.389 212.916 433.826 212.837 433.193 212.837C432.566 212.837 432.045 212.925 431.629 213.1C431.213 213.27 430.873 213.502 430.609 213.795C430.111 214.351 429.862 215.084 429.862 215.992C429.862 217.527 430.416 218.55 431.523 219.059C431.916 219.241 432.3 219.332 432.675 219.332C433.05 219.332 433.337 219.323 433.536 219.306C433.741 219.288 433.935 219.265 434.116 219.235C434.503 219.171 434.781 219.103 434.951 219.033V220.606ZM437.825 219.016C437.632 218.682 437.477 218.289 437.359 217.838C437.248 217.387 437.192 216.798 437.192 216.071C437.192 215.345 437.348 214.677 437.658 214.067C437.975 213.452 438.385 212.948 438.889 212.556C439.867 211.8 441.083 211.422 442.536 211.422C443.292 211.422 443.863 211.439 444.25 211.474C444.25 211.474 444.534 211.504 445.103 211.562V220.633H443.521L443.45 219.587C443.099 220.056 442.562 220.404 441.842 220.633C441.566 220.721 441.282 220.765 440.989 220.765C440.702 220.765 440.418 220.735 440.137 220.677C439.855 220.618 439.574 220.521 439.293 220.387C439.018 220.252 438.754 220.073 438.502 219.85C438.25 219.622 438.024 219.344 437.825 219.016ZM443.345 212.854C442.97 212.807 442.595 212.784 442.22 212.784C441.851 212.784 441.455 212.851 441.033 212.986C440.611 213.115 440.251 213.32 439.952 213.601C439.331 214.187 439.021 215.081 439.021 216.282C439.021 217.419 439.287 218.26 439.82 218.805C440.225 219.209 440.711 219.411 441.279 219.411C442.012 219.411 442.615 219.144 443.09 218.611C443.207 218.476 443.292 218.356 443.345 218.251V212.854ZM451.176 219.244C451.369 219.314 451.662 219.349 452.055 219.349C452.447 219.349 452.775 219.303 453.039 219.209V220.615C452.916 220.644 452.737 220.662 452.503 220.668L451.949 220.685C451.826 220.685 451.732 220.685 451.668 220.685C450.537 220.685 449.702 220.316 449.163 219.578C448.729 218.98 448.513 218.189 448.513 217.205V212.907H447.212V212.081L448.513 211.562L448.935 209.312H450.271V211.562H453.083V212.907H450.271V217.196C450.271 218.345 450.572 219.027 451.176 219.244ZM457.469 208.926C457.469 209.26 457.357 209.517 457.135 209.699C456.918 209.875 456.646 209.963 456.317 209.963C455.989 209.963 455.717 209.875 455.5 209.699C455.289 209.517 455.184 209.26 455.184 208.926C455.184 208.586 455.289 208.328 455.5 208.152C455.717 207.976 455.989 207.889 456.317 207.889C456.646 207.889 456.918 207.976 457.135 208.152C457.357 208.328 457.469 208.586 457.469 208.926ZM455.412 211.562H457.17V220.633H455.412V211.562ZM459.35 216.08C459.35 214.656 459.804 213.502 460.712 212.617C461.562 211.791 462.613 211.378 463.867 211.378C465.098 211.378 466.126 211.791 466.952 212.617C467.831 213.496 468.271 214.65 468.271 216.08C468.271 217.504 467.828 218.652 466.943 219.525C466.105 220.357 465.077 220.773 463.858 220.773C462.622 220.773 461.573 220.357 460.712 219.525C459.804 218.652 459.35 217.504 459.35 216.08ZM461.178 216.08C461.178 217.58 461.658 218.599 462.619 219.139C462.959 219.326 463.366 219.42 463.841 219.42C464.315 219.42 464.717 219.326 465.045 219.139C465.373 218.945 465.643 218.693 465.854 218.383C466.246 217.785 466.442 217.017 466.442 216.08C466.442 214.592 465.971 213.572 465.027 213.021C464.699 212.828 464.307 212.731 463.85 212.731C463.393 212.731 462.994 212.828 462.654 213.021C462.32 213.209 462.045 213.458 461.828 213.768C461.395 214.378 461.178 215.148 461.178 216.08ZM474.52 212.933C473.646 212.933 472.87 213.229 472.19 213.821V220.633H470.433V211.562H472.059L472.182 212.547C473.137 211.797 474.124 211.422 475.144 211.422C476.222 211.422 477.013 211.744 477.517 212.389C478.044 213.068 478.308 214.164 478.308 215.676V220.633H476.55V215.676C476.55 214.223 476.157 213.355 475.372 213.074C475.12 212.98 474.836 212.933 474.52 212.933ZM486.35 216.08C486.35 214.656 486.804 213.502 487.712 212.617C488.562 211.791 489.613 211.378 490.867 211.378C492.098 211.378 493.126 211.791 493.952 212.617C494.831 213.496 495.271 214.65 495.271 216.08C495.271 217.504 494.828 218.652 493.943 219.525C493.105 220.357 492.077 220.773 490.858 220.773C489.622 220.773 488.573 220.357 487.712 219.525C486.804 218.652 486.35 217.504 486.35 216.08ZM488.178 216.08C488.178 217.58 488.658 218.599 489.619 219.139C489.959 219.326 490.366 219.42 490.841 219.42C491.315 219.42 491.717 219.326 492.045 219.139C492.373 218.945 492.643 218.693 492.854 218.383C493.246 217.785 493.442 217.017 493.442 216.08C493.442 214.592 492.971 213.572 492.027 213.021C491.699 212.828 491.307 212.731 490.85 212.731C490.393 212.731 489.994 212.828 489.654 213.021C489.32 213.209 489.045 213.458 488.828 213.768C488.395 214.378 488.178 215.148 488.178 216.08ZM502.038 208.873C501.827 208.803 501.534 208.767 501.159 208.767C500.784 208.767 500.485 208.803 500.263 208.873C500.046 208.943 499.873 209.046 499.744 209.181C499.521 209.421 499.41 209.813 499.41 210.358V211.562H501.678V212.907H499.41V220.633H497.652V212.907H496.562V212.081L497.652 211.562V210.596C497.652 209.98 497.705 209.517 497.811 209.207C497.922 208.896 498.054 208.639 498.206 208.433C498.358 208.228 498.563 208.05 498.821 207.897C499.366 207.575 500.131 207.414 501.115 207.414C501.525 207.414 501.833 207.437 502.038 207.484V208.873ZM512.699 219.244C512.893 219.314 513.186 219.349 513.578 219.349C513.971 219.349 514.299 219.303 514.562 219.209V220.615C514.439 220.644 514.261 220.662 514.026 220.668L513.473 220.685C513.35 220.685 513.256 220.685 513.191 220.685C512.061 220.685 511.226 220.316 510.687 219.578C510.253 218.98 510.036 218.189 510.036 217.205V212.907H508.735V212.081L510.036 211.562L510.458 209.312H511.794V211.562H514.606V212.907H511.794V217.196C511.794 218.345 512.096 219.027 512.699 219.244ZM521.022 212.933C520.155 212.933 519.382 213.229 518.702 213.821V220.633H516.944V207.555H518.702V212.538C519.651 211.794 520.633 211.422 521.646 211.422C522.73 211.422 523.524 211.744 524.028 212.389C524.556 213.068 524.819 214.164 524.819 215.676V220.633H523.062V215.676C523.062 214.223 522.666 213.355 521.875 213.074C521.623 212.98 521.339 212.933 521.022 212.933ZM531.675 220.773C528.358 220.773 526.7 219.153 526.7 215.913C526.7 214.518 527.16 213.402 528.08 212.564C528.906 211.803 529.85 211.422 530.91 211.422C532.064 211.422 532.967 211.808 533.617 212.582C534.221 213.303 534.522 214.266 534.522 215.474V216.159H528.528C528.528 217.817 529.205 218.831 530.559 219.2C530.881 219.288 531.376 219.332 532.044 219.332C532.718 219.332 533.377 219.241 534.021 219.059V220.545C533.377 220.697 532.595 220.773 531.675 220.773ZM532.765 214.867C532.765 214.305 532.609 213.83 532.299 213.443C531.936 212.998 531.435 212.775 530.796 212.775C530.122 212.775 529.574 212.989 529.152 213.417C528.766 213.815 528.572 214.299 528.572 214.867H532.765ZM544.674 220.773C543.941 220.773 543.2 220.721 542.45 220.615V219.059C543.212 219.241 543.985 219.332 544.771 219.332C546.341 219.332 547.126 219.001 547.126 218.339C547.126 218.087 547.064 217.899 546.941 217.776C546.76 217.583 546.473 217.39 546.08 217.196L544.797 216.607C543.965 216.191 543.426 215.857 543.18 215.605C542.717 215.137 542.485 214.58 542.485 213.935C542.485 213.209 542.822 212.617 543.496 212.16C544.223 211.668 545.242 211.422 546.555 211.422C547.217 211.422 547.885 211.469 548.559 211.562V213.065C547.82 212.931 547.176 212.863 546.625 212.863C546.08 212.863 545.655 212.898 545.351 212.969C545.052 213.039 544.826 213.127 544.674 213.232C544.434 213.396 544.313 213.61 544.313 213.874C544.313 214.132 544.396 214.343 544.56 214.507C544.729 214.665 544.993 214.838 545.351 215.025L546.643 215.649C547.486 216.089 548.028 216.426 548.269 216.66C548.726 217.105 548.954 217.665 548.954 218.339C548.954 219.059 548.591 219.64 547.864 220.079C547.103 220.542 546.039 220.773 544.674 220.773ZM555.687 220.773C552.37 220.773 550.712 219.153 550.712 215.913C550.712 214.518 551.172 213.402 552.092 212.564C552.918 211.803 553.861 211.422 554.922 211.422C556.076 211.422 556.979 211.808 557.629 212.582C558.232 213.303 558.534 214.266 558.534 215.474V216.159H552.54C552.54 217.817 553.217 218.831 554.57 219.2C554.893 219.288 555.388 219.332 556.056 219.332C556.729 219.332 557.389 219.241 558.033 219.059V220.545C557.389 220.697 556.606 220.773 555.687 220.773ZM556.776 214.867C556.776 214.305 556.621 213.83 556.311 213.443C555.947 212.998 555.446 212.775 554.808 212.775C554.134 212.775 553.586 212.989 553.164 213.417C552.777 213.815 552.584 214.299 552.584 214.867H556.776ZM564.555 212.933C563.682 212.933 562.905 213.229 562.226 213.821V220.633H560.468V211.562H562.094L562.217 212.547C563.172 211.797 564.159 211.422 565.179 211.422C566.257 211.422 567.048 211.744 567.552 212.389C568.079 213.068 568.343 214.164 568.343 215.676V220.633H566.585V215.676C566.585 214.223 566.192 213.355 565.407 213.074C565.155 212.98 564.871 212.933 564.555 212.933ZM572.351 212.556C572.86 212.163 573.432 211.876 574.064 211.694C574.703 211.513 575.26 211.422 575.734 211.422C576.209 211.422 576.575 211.433 576.833 211.457V207.555H578.582V220.633H577.009L576.938 219.587C576.581 220.061 576.039 220.413 575.312 220.641C575.031 220.729 574.744 220.773 574.451 220.773C574.164 220.773 573.88 220.744 573.599 220.685C573.317 220.627 573.036 220.53 572.755 220.395C572.479 220.255 572.216 220.073 571.964 219.85C571.712 219.622 571.486 219.344 571.287 219.016C570.865 218.295 570.654 217.442 570.654 216.458C570.654 215.474 570.81 214.677 571.12 214.067C571.437 213.452 571.847 212.948 572.351 212.556ZM573.414 213.601C573.115 213.883 572.884 214.246 572.72 214.691C572.562 215.131 572.482 215.667 572.482 216.3C572.482 216.927 572.559 217.445 572.711 217.855C572.863 218.26 573.054 218.576 573.282 218.805C573.687 219.215 574.173 219.42 574.741 219.42C575.474 219.42 576.08 219.15 576.561 218.611C576.684 218.476 576.771 218.356 576.824 218.251V212.846L576.648 212.828C576.379 212.793 576.057 212.775 575.682 212.775C575.312 212.775 574.917 212.843 574.495 212.977C574.073 213.106 573.713 213.314 573.414 213.601ZM585.71 220.773C582.394 220.773 580.735 219.153 580.735 215.913C580.735 214.518 581.195 213.402 582.115 212.564C582.941 211.803 583.885 211.422 584.945 211.422C586.1 211.422 587.002 211.808 587.652 212.582C588.256 213.303 588.558 214.266 588.558 215.474V216.159H582.563C582.563 217.817 583.24 218.831 584.594 219.2C584.916 219.288 585.411 219.332 586.079 219.332C586.753 219.332 587.412 219.241 588.057 219.059V220.545C587.412 220.697 586.63 220.773 585.71 220.773ZM586.8 214.867C586.8 214.305 586.645 213.83 586.334 213.443C585.971 212.998 585.47 212.775 584.831 212.775C584.157 212.775 583.609 212.989 583.188 213.417C582.801 213.815 582.607 214.299 582.607 214.867H586.8ZM596.257 213.171C595.935 213.077 595.548 213.03 595.097 213.03C594.651 213.03 594.285 213.077 593.998 213.171C593.711 213.259 593.459 213.367 593.242 213.496C592.844 213.73 592.554 213.994 592.372 214.287V220.633H590.614V211.562H592.302L592.372 212.819C592.812 212.268 593.453 211.855 594.297 211.58C594.602 211.474 594.95 211.422 595.343 211.422C595.735 211.422 596.04 211.451 596.257 211.51V213.171ZM600.221 220.773C599.488 220.773 598.747 220.721 597.997 220.615V219.059C598.759 219.241 599.532 219.332 600.317 219.332C601.888 219.332 602.673 219.001 602.673 218.339C602.673 218.087 602.611 217.899 602.488 217.776C602.307 217.583 602.02 217.39 601.627 217.196L600.344 216.607C599.512 216.191 598.973 215.857 598.727 215.605C598.264 215.137 598.032 214.58 598.032 213.935C598.032 213.209 598.369 212.617 599.043 212.16C599.77 211.668 600.789 211.422 602.102 211.422C602.764 211.422 603.432 211.469 604.105 211.562V213.065C603.367 212.931 602.723 212.863 602.172 212.863C601.627 212.863 601.202 212.898 600.897 212.969C600.599 213.039 600.373 213.127 600.221 213.232C599.98 213.396 599.86 213.61 599.86 213.874C599.86 214.132 599.942 214.343 600.106 214.507C600.276 214.665 600.54 214.838 600.897 215.025L602.189 215.649C603.033 216.089 603.575 216.426 603.815 216.66C604.272 217.105 604.501 217.665 604.501 218.339C604.501 219.059 604.138 219.64 603.411 220.079C602.649 220.542 601.586 220.773 600.221 220.773ZM317.116 232.926C317.116 233.26 317.005 233.517 316.782 233.699C316.565 233.875 316.293 233.963 315.965 233.963C315.637 233.963 315.364 233.875 315.147 233.699C314.937 233.517 314.831 233.26 314.831 232.926C314.831 232.586 314.937 232.328 315.147 232.152C315.364 231.976 315.637 231.889 315.965 231.889C316.293 231.889 316.565 231.976 316.782 232.152C317.005 232.328 317.116 232.586 317.116 232.926ZM315.06 235.562H316.817V244.633H315.06V235.562ZM320.957 236.556C321.467 236.163 322.038 235.876 322.671 235.694C323.31 235.513 323.866 235.422 324.341 235.422C324.815 235.422 325.182 235.433 325.439 235.457V231.555H327.188V244.633H325.615L325.545 243.587C325.188 244.061 324.646 244.413 323.919 244.641C323.638 244.729 323.351 244.773 323.058 244.773C322.771 244.773 322.486 244.744 322.205 244.685C321.924 244.627 321.643 244.53 321.361 244.395C321.086 244.255 320.822 244.073 320.57 243.85C320.318 243.622 320.093 243.344 319.894 243.016C319.472 242.295 319.261 241.442 319.261 240.458C319.261 239.474 319.416 238.677 319.727 238.067C320.043 237.452 320.453 236.948 320.957 236.556ZM322.021 237.601C321.722 237.883 321.49 238.246 321.326 238.691C321.168 239.131 321.089 239.667 321.089 240.3C321.089 240.927 321.165 241.445 321.317 241.855C321.47 242.26 321.66 242.576 321.889 242.805C322.293 243.215 322.779 243.42 323.348 243.42C324.08 243.42 324.687 243.15 325.167 242.611C325.29 242.476 325.378 242.356 325.431 242.251V236.846L325.255 236.828C324.985 236.793 324.663 236.775 324.288 236.775C323.919 236.775 323.523 236.843 323.102 236.977C322.68 237.106 322.319 237.314 322.021 237.601ZM334.316 244.773C331 244.773 329.342 243.153 329.342 239.913C329.342 238.518 329.802 237.402 330.722 236.564C331.548 235.803 332.491 235.422 333.552 235.422C334.706 235.422 335.608 235.808 336.259 236.582C336.862 237.303 337.164 238.266 337.164 239.474V240.159H331.17C331.17 241.817 331.847 242.831 333.2 243.2C333.522 243.288 334.018 243.332 334.686 243.332C335.359 243.332 336.019 243.241 336.663 243.059V244.545C336.019 244.697 335.236 244.773 334.316 244.773ZM335.406 238.867C335.406 238.305 335.251 237.83 334.94 237.443C334.577 236.998 334.076 236.775 333.438 236.775C332.764 236.775 332.216 236.989 331.794 237.417C331.407 237.815 331.214 238.299 331.214 238.867H335.406ZM343.185 236.933C342.312 236.933 341.535 237.229 340.855 237.821V244.633H339.098V235.562H340.724L340.847 236.547C341.802 235.797 342.789 235.422 343.809 235.422C344.887 235.422 345.678 235.744 346.182 236.389C346.709 237.068 346.973 238.164 346.973 239.676V244.633H345.215V239.676C345.215 238.223 344.822 237.355 344.037 237.074C343.785 236.98 343.501 236.933 343.185 236.933ZM352.87 243.244C353.063 243.314 353.356 243.349 353.749 243.349C354.142 243.349 354.47 243.303 354.733 243.209V244.615C354.61 244.644 354.432 244.662 354.197 244.668L353.644 244.685C353.521 244.685 353.427 244.685 353.362 244.685C352.231 244.685 351.396 244.316 350.857 243.578C350.424 242.98 350.207 242.189 350.207 241.205V236.907H348.906V236.081L350.207 235.562L350.629 233.312H351.965V235.562H354.777V236.907H351.965V241.196C351.965 242.345 352.267 243.027 352.87 243.244ZM359.163 232.926C359.163 233.26 359.052 233.517 358.829 233.699C358.612 233.875 358.34 233.963 358.012 233.963C357.684 233.963 357.411 233.875 357.194 233.699C356.983 233.517 356.878 233.26 356.878 232.926C356.878 232.586 356.983 232.328 357.194 232.152C357.411 231.976 357.684 231.889 358.012 231.889C358.34 231.889 358.612 231.976 358.829 232.152C359.052 232.328 359.163 232.586 359.163 232.926ZM357.106 235.562H358.864V244.633H357.106V235.562ZM364.894 243.244C365.087 243.314 365.38 243.349 365.772 243.349C366.165 243.349 366.493 243.303 366.757 243.209V244.615C366.634 244.644 366.455 244.662 366.221 244.668L365.667 244.685C365.544 244.685 365.45 244.685 365.386 244.685C364.255 244.685 363.42 244.316 362.881 243.578C362.447 242.98 362.23 242.189 362.23 241.205V236.907H360.93V236.081L362.23 235.562L362.652 233.312H363.988V235.562H366.801V236.907H363.988V241.196C363.988 242.345 364.29 243.027 364.894 243.244ZM368.761 246.883C368.919 246.93 369.133 246.953 369.402 246.953C369.678 246.953 369.959 246.897 370.246 246.786C370.533 246.681 370.782 246.531 370.993 246.338C371.345 246.021 371.664 245.523 371.951 244.844L368.225 235.562H370.097L372.716 242.787L375.062 235.562H376.917L373.19 245.749C372.909 246.511 372.52 247.094 372.021 247.498C371.365 248.025 370.489 248.289 369.394 248.289C369.294 248.289 369.191 248.283 369.086 248.271L368.761 248.236V246.883ZM379.044 244.852C378.692 244.852 378.399 244.759 378.165 244.571C377.937 244.378 377.822 244.102 377.822 243.745C377.822 243.382 377.937 243.103 378.165 242.91C378.399 242.717 378.692 242.62 379.044 242.62C379.401 242.62 379.697 242.717 379.932 242.91C380.166 243.103 380.283 243.382 380.283 243.745C380.283 244.102 380.166 244.378 379.932 244.571C379.697 244.759 379.401 244.852 379.044 244.852Z" fill="#090A0E"/>
</svg>
