<svg width="254" height="50" viewBox="0 0 254 50" fill="none" xmlns="http://www.w3.org/2000/svg">
<path d="M60.2 15.5H74.165L70.805 18.3H60.2V15.5ZM63.07 29.15V40H60.27V26.35H72.065L70 29.15H63.07ZM86.7936 19.175L88.2286 15.5L97.3636 40H94.5636L86.7936 19.175ZM78.3936 40L86.1986 20.575L87.5986 24.18L81.1936 40H78.3936ZM105.536 37.2H109.246C110.74 37.2 111.836 36.9083 112.536 36.325C113.236 35.7417 113.586 34.855 113.586 33.665C113.586 32.8017 113.493 32.1367 113.306 31.67C113.12 31.18 112.851 30.795 112.501 30.515C112.175 30.235 111.755 30.025 111.241 29.885C110.751 29.7217 110.191 29.535 109.561 29.325V26.525C110.378 26.805 111.195 27.0733 112.011 27.33C112.828 27.5633 113.551 27.9133 114.181 28.38C114.835 28.8467 115.36 29.4883 115.756 30.305C116.176 31.1217 116.386 32.2417 116.386 33.665C116.386 34.1083 116.293 34.6917 116.106 35.415C115.943 36.115 115.593 36.815 115.056 37.515C114.543 38.1917 113.82 38.775 112.886 39.265C111.976 39.755 110.763 40 109.246 40H102.981L105.536 37.2ZM101.756 21.835C101.756 21.3917 101.838 20.82 102.001 20.12C102.188 19.3967 102.538 18.6967 103.051 18.02C103.588 17.32 104.323 16.725 105.256 16.235C106.19 15.745 107.403 15.5 108.896 15.5H115.161L112.606 18.3H108.896C107.403 18.3 106.306 18.5917 105.606 19.175C104.906 19.7583 104.556 20.645 104.556 21.835C104.556 22.6983 104.65 23.375 104.836 23.865C105.023 24.3317 105.28 24.705 105.606 24.985C105.956 25.265 106.376 25.4867 106.866 25.65C107.38 25.79 107.951 25.965 108.581 26.175V28.975C107.765 28.695 106.948 28.4383 106.131 28.205C105.315 27.9483 104.58 27.5867 103.926 27.12C103.296 26.6533 102.771 26.0117 102.351 25.195C101.955 24.3783 101.756 23.2583 101.756 21.835ZM131.806 19.35V40H129.006V19.35H131.806ZM123.721 18.3L121.656 15.5H139.156L137.091 18.3H123.721ZM152.993 40V32.37L159.118 15.5H161.918L152.993 40ZM143.018 15.5H145.818L151.943 32.37V40L143.018 15.5ZM173.312 19.175L174.747 15.5L183.882 40H181.082L173.312 19.175ZM164.912 40L172.717 20.575L174.117 24.18L167.712 40H164.912ZM199.125 37.2H199.3C199.79 37.1533 200.327 37.0483 200.91 36.885C201.493 36.7217 202.042 36.5 202.555 36.22C203.068 35.94 203.5 35.59 203.85 35.17C204.2 34.75 204.375 34.26 204.375 33.7V17.845L207.175 15.5V34.575C207.175 35.3217 206.93 36.0217 206.44 36.675C205.95 37.305 205.32 37.865 204.55 38.355C203.78 38.8217 202.928 39.2067 201.995 39.51C201.062 39.79 200.163 39.9533 199.3 40H199.125V37.2ZM190.2 34.575V15.5L193 17.845V33.7C193 34.26 193.175 34.75 193.525 35.17C193.875 35.59 194.307 35.9517 194.82 36.255C195.333 36.535 195.882 36.7567 196.465 36.92C197.048 37.06 197.585 37.1533 198.075 37.2V40C197.212 39.9533 196.313 39.79 195.38 39.51C194.447 39.2067 193.595 38.8217 192.825 38.355C192.055 37.865 191.425 37.305 190.935 36.675C190.445 36.0217 190.2 35.3217 190.2 34.575ZM216.461 40V27.4L219.261 29.745V37.2H227.346L229.411 40H216.461ZM216.461 15.5L219.261 17.845V28.695L216.461 26.35V15.5ZM243.945 19.35V40H241.145V19.35H243.945ZM235.86 18.3L233.795 15.5H251.295L249.23 18.3H235.86Z" fill="#090A0E"/>
<path d="M60.2 15.5V15.25H59.95V15.5H60.2ZM74.165 15.5L74.325 15.6921L74.8555 15.25H74.165V15.5ZM70.805 18.3V18.55H70.8955L70.965 18.4921L70.805 18.3ZM60.2 18.3H59.95V18.55H60.2V18.3ZM63.07 29.15V28.9H62.82V29.15H63.07ZM63.07 40V40.25H63.32V40H63.07ZM60.27 40H60.02V40.25H60.27V40ZM60.27 26.35V26.1H60.02V26.35H60.27ZM72.065 26.35L72.2662 26.4984L72.56 26.1H72.065V26.35ZM70 29.15V29.4H70.1263L70.2012 29.2984L70 29.15ZM59.95 15.5V16.7963H60.45V15.5H59.95ZM59.95 17.0037V18.3H60.45V17.0037H59.95ZM60.2 18.55H65.1097V18.05H60.2V18.55ZM65.8953 18.55H70.805V18.05H65.8953V18.55ZM70.965 18.4921L72.5206 17.1958L72.2005 16.8116L70.645 18.1079L70.965 18.4921ZM72.7695 16.9884L74.325 15.6921L74.005 15.3079L72.4494 16.6042L72.7695 16.9884ZM74.165 15.25H67.6997V15.75H74.165V15.25ZM66.6653 15.25H60.2V15.75H66.6653V15.25ZM62.82 29.15V34.1731H63.32V29.15H62.82ZM62.82 34.9769V40H63.32V34.9769H62.82ZM63.07 39.75H61.7737V40.25H63.07V39.75ZM61.5663 39.75H60.27V40.25H61.5663V39.75ZM60.52 40V33.6806H60.02V40H60.52ZM60.52 32.6694V26.35H60.02V32.6694H60.52ZM60.27 26.6H65.7306V26.1H60.27V26.6ZM66.6044 26.6H72.065V26.1H66.6044V26.6ZM71.8638 26.2016L70.9078 27.4979L71.3102 27.7947L72.2662 26.4984L71.8638 26.2016ZM70.7548 27.7053L69.7988 29.0016L70.2012 29.2984L71.1572 28.0021L70.7548 27.7053ZM70 28.9H66.7917V29.4H70V28.9ZM66.2783 28.9H63.07V29.4H66.2783V28.9ZM86.7936 19.175L86.5607 19.0841L86.526 19.173L86.5593 19.2624L86.7936 19.175ZM88.2286 15.5L88.4628 15.4127L88.2339 14.7989L87.9957 15.4091L88.2286 15.5ZM97.3636 40V40.25H97.7236L97.5978 39.9127L97.3636 40ZM94.5636 40L94.3293 40.0874L94.39 40.25H94.5636V40ZM78.3936 40L78.1616 39.9068L78.0237 40.25H78.3936V40ZM86.1986 20.575L86.4316 20.4845L86.2025 19.8946L85.9666 20.4818L86.1986 20.575ZM87.5986 24.18L87.8303 24.2738L87.8675 24.1819L87.8316 24.0895L87.5986 24.18ZM81.1936 40V40.25H81.3621L81.4253 40.0938L81.1936 40ZM87.0264 19.2659L87.6908 17.5645L87.225 17.3827L86.5607 19.0841L87.0264 19.2659ZM87.7971 17.2923L88.4614 15.5909L87.9957 15.4091L87.3313 17.1105L87.7971 17.2923ZM87.9943 15.5873L92.2235 26.9299L92.692 26.7553L88.4628 15.4127L87.9943 15.5873ZM92.9001 28.7447L97.1293 40.0873L97.5978 39.9127L93.3686 28.5701L92.9001 28.7447ZM97.3636 39.75H96.0673V40.25H97.3636V39.75ZM95.8599 39.75H94.5636V40.25H95.8599V39.75ZM94.7978 39.9126L91.2006 30.2714L90.7321 30.4462L94.3293 40.0874L94.7978 39.9126ZM90.625 28.7288L87.0278 19.0876L86.5593 19.2624L90.1566 28.9036L90.625 28.7288ZM78.3936 40.25H79.6899V39.75H78.3936V40.25ZM79.8973 40.25H81.1936V39.75H79.8973V40.25ZM81.4253 40.0938L84.3906 32.7697L83.9271 32.5821L80.9618 39.9062L81.4253 40.0938ZM84.865 31.5979L87.8303 24.2738L87.3668 24.0862L84.4015 31.4103L84.865 31.5979ZM87.8316 24.0895L87.1835 22.4205L86.7174 22.6015L87.3655 24.2705L87.8316 24.0895ZM87.0797 22.1535L86.4316 20.4845L85.9655 20.6655L86.6137 22.3345L87.0797 22.1535ZM85.9666 20.4818L82.3532 29.4748L82.8171 29.6613L86.4305 20.6682L85.9666 20.4818ZM81.775 30.9137L78.1616 39.9068L78.6255 40.0932L82.239 31.1002L81.775 30.9137ZM105.536 37.2V36.95H105.426L105.352 37.0315L105.536 37.2ZM112.536 36.325L112.696 36.5171L112.536 36.325ZM113.306 31.67L113.073 31.759L113.074 31.7628L113.306 31.67ZM112.501 30.515L112.339 30.7049L112.345 30.7102L112.501 30.515ZM111.241 29.885L111.162 30.1225L111.176 30.1262L111.241 29.885ZM109.561 29.325H109.311V29.5052L109.482 29.5622L109.561 29.325ZM109.561 26.525L109.643 26.2885L109.311 26.175V26.525H109.561ZM112.011 27.33L111.936 27.5686L111.943 27.5704L112.011 27.33ZM114.181 28.38L114.033 28.5809L114.036 28.5834L114.181 28.38ZM115.756 30.305L115.532 30.4143L115.534 30.4193L115.756 30.305ZM116.106 35.415L115.864 35.3525L115.863 35.3582L116.106 35.415ZM115.056 37.515L114.858 37.3629L114.857 37.3639L115.056 37.515ZM112.886 39.265L112.77 39.0436L112.768 39.0449L112.886 39.265ZM102.981 40L102.797 39.8315L102.415 40.25H102.981V40ZM102.001 20.12L101.759 20.0575L101.758 20.0632L102.001 20.12ZM103.051 18.02L102.853 17.8679L102.852 17.8689L103.051 18.02ZM105.256 16.235L105.373 16.4563L105.256 16.235ZM115.161 15.5L115.346 15.6685L115.728 15.25H115.161V15.5ZM112.606 18.3V18.55H112.717L112.791 18.4685L112.606 18.3ZM105.606 19.175L105.446 18.9829L105.606 19.175ZM104.836 23.865L104.603 23.954L104.604 23.9578L104.836 23.865ZM105.606 24.985L105.444 25.1749L105.45 25.1802L105.606 24.985ZM106.866 25.65L106.787 25.8875L106.801 25.8912L106.866 25.65ZM108.581 26.175H108.831V25.9948L108.661 25.9378L108.581 26.175ZM108.581 28.975L108.5 29.2115L108.831 29.325V28.975H108.581ZM106.131 28.205L106.056 28.4436L106.063 28.4454L106.131 28.205ZM103.926 27.12L103.778 27.3209L103.781 27.3234L103.926 27.12ZM102.351 25.195L102.127 25.3043L102.129 25.3093L102.351 25.195ZM105.352 37.0315L104.169 38.3278L104.538 38.6648L105.721 37.3685L105.352 37.0315ZM103.98 38.5352L102.797 39.8315L103.166 40.1685L104.349 38.8722L103.98 38.5352ZM102.981 40.25H105.882V39.75H102.981V40.25ZM106.346 40.25H109.246V39.75H106.346V40.25ZM109.246 40.25C109.886 40.25 110.476 40.2072 111.016 40.1205L110.937 39.6268C110.428 39.7086 109.864 39.75 109.246 39.75V40.25ZM111.298 40.0703C111.943 39.944 112.513 39.75 113.005 39.4851L112.768 39.0449C112.328 39.2818 111.807 39.4611 111.202 39.5797L111.298 40.0703ZM113.003 39.4864C113.42 39.2673 113.798 39.029 114.137 38.771L113.834 38.3732C113.52 38.6125 113.166 38.8361 112.77 39.0437L113.003 39.4864ZM114.307 38.6373C114.674 38.3389 114.991 38.0153 115.256 37.6661L114.857 37.3639C114.619 37.6786 114.331 37.9739 113.992 38.2494L114.307 38.6373ZM115.255 37.6671C115.497 37.3517 115.703 37.0346 115.873 36.7155L115.432 36.4801C115.276 36.7725 115.085 37.0668 114.858 37.3629L115.255 37.6671ZM115.957 36.5527C116.134 36.1947 116.265 35.8343 116.35 35.4718L115.863 35.3582C115.788 35.6803 115.67 36.0046 115.509 36.3312L115.957 36.5527ZM116.349 35.4775C116.425 35.1828 116.486 34.9094 116.532 34.6575L116.04 34.5675C115.996 34.8056 115.938 35.0672 115.864 35.3525L116.349 35.4775ZM116.555 34.5239C116.609 34.2032 116.636 33.9163 116.636 33.665H116.136C116.136 33.8811 116.112 34.1394 116.062 34.4418L116.555 34.5239ZM116.636 33.665C116.636 33.0739 116.601 32.5309 116.529 32.0368L116.034 32.1089C116.102 32.575 116.136 33.0935 116.136 33.665H116.636ZM116.487 31.7765C116.378 31.1711 116.21 30.6411 115.979 30.1907L115.534 30.4193C115.738 30.816 115.893 31.2963 115.994 31.8645L116.487 31.7765ZM115.981 30.1958C115.797 29.8168 115.586 29.472 115.346 29.1623L114.95 29.4684C115.167 29.7486 115.361 30.0636 115.532 30.4142L115.981 30.1958ZM115.223 29.0099C114.956 28.6906 114.657 28.4126 114.327 28.1766L114.036 28.5834C114.331 28.7941 114.599 29.043 114.84 29.3307L115.223 29.0099ZM114.33 28.1791C114.02 27.9494 113.689 27.7471 113.336 27.5722L113.114 28.0201C113.441 28.1822 113.747 28.3692 114.033 28.5809L114.33 28.1791ZM113.168 27.4917C112.824 27.3325 112.462 27.1986 112.08 27.0896L111.943 27.5704C112.301 27.6726 112.639 27.7977 112.958 27.9454L113.168 27.4917ZM112.086 27.0915C111.708 26.9727 111.33 26.8514 110.952 26.7276L110.797 27.2028C111.177 27.3272 111.557 27.4491 111.936 27.5685L112.086 27.0915ZM110.771 26.6681C110.395 26.5441 110.019 26.4175 109.643 26.2885L109.48 26.7615C109.859 26.8911 110.237 27.0183 110.615 27.143L110.771 26.6681ZM109.311 26.525V27.8213H109.811V26.525H109.311ZM109.311 28.0287V29.325H109.811V28.0287H109.311ZM109.482 29.5622C109.483 29.5623 109.483 29.5625 109.484 29.5627C109.485 29.5629 109.485 29.5631 109.486 29.5632C109.486 29.5634 109.487 29.5636 109.487 29.5638C109.488 29.5639 109.488 29.5641 109.489 29.5643C109.496 29.5667 109.488 29.5641 109.495 29.5664C109.501 29.5683 109.502 29.5688 109.508 29.5707C109.521 29.5751 109.507 29.5705 109.521 29.5749C109.532 29.5787 109.522 29.5754 109.533 29.5791C109.534 29.5793 109.534 29.5795 109.535 29.5797C109.535 29.5798 109.536 29.58 109.536 29.5802C109.537 29.5804 109.538 29.5806 109.538 29.5807C109.539 29.5809 109.539 29.5811 109.54 29.5813C109.54 29.5814 109.541 29.5816 109.541 29.5818C109.542 29.582 109.542 29.5821 109.543 29.5823C109.543 29.5825 109.544 29.5827 109.544 29.5828C109.545 29.583 109.545 29.5832 109.546 29.5834C109.555 29.5865 109.549 29.5845 109.559 29.5876C109.566 29.5901 109.576 29.5935 109.584 29.596C109.601 29.6016 109.573 29.5925 109.59 29.5981C109.599 29.6009 109.588 29.5974 109.597 29.6002C109.606 29.6033 109.6 29.6013 109.609 29.6044C109.626 29.61 109.617 29.6072 109.634 29.6128C109.645 29.6165 109.648 29.6174 109.659 29.6211C109.678 29.6273 109.666 29.6233 109.684 29.6294C109.728 29.6442 109.739 29.6479 109.783 29.6625C109.801 29.6683 109.864 29.6893 109.881 29.6951C109.887 29.6969 109.888 29.6973 109.893 29.6991C109.915 29.7063 109.884 29.696 109.905 29.7032C109.913 29.7056 109.922 29.7088 109.93 29.7112C109.93 29.7114 109.931 29.7116 109.931 29.7117C109.932 29.7119 109.932 29.7121 109.933 29.7122C109.938 29.714 109.93 29.7115 109.936 29.7132C109.941 29.715 109.936 29.7135 109.942 29.7153C109.949 29.7176 109.947 29.7169 109.954 29.7193C109.961 29.7216 109.971 29.7249 109.978 29.7273C109.978 29.7274 109.979 29.7276 109.979 29.7278C109.98 29.7279 109.98 29.7281 109.981 29.7283C109.981 29.7284 109.982 29.7286 109.982 29.7288C109.983 29.7289 109.983 29.7291 109.984 29.7293C109.986 29.7299 109.988 29.7306 109.99 29.7313C109.99 29.7314 109.991 29.7316 109.991 29.7318C109.992 29.7319 109.992 29.7321 109.993 29.7323C110.001 29.7349 109.988 29.7306 109.996 29.7333C109.996 29.7334 109.997 29.7336 109.997 29.7338C109.998 29.7339 109.998 29.7341 109.999 29.7343C110.002 29.7353 109.999 29.7343 110.002 29.7353C110.006 29.7366 110.01 29.7379 110.014 29.7393C110.022 29.7419 110.018 29.7406 110.026 29.7432C110.036 29.7468 110.021 29.7417 110.032 29.7452C110.034 29.7461 110.035 29.7463 110.037 29.7472C110.046 29.7501 110.041 29.7482 110.049 29.7512C110.06 29.7547 110.063 29.7556 110.073 29.7591C110.099 29.7678 110.071 29.7582 110.097 29.767C110.111 29.7716 110.106 29.7702 110.12 29.7748C110.141 29.7818 110.146 29.7835 110.167 29.7905C110.171 29.7916 110.17 29.7913 110.173 29.7924C110.176 29.7933 110.173 29.7925 110.176 29.7934C110.177 29.7936 110.178 29.7941 110.179 29.7944C110.191 29.7982 110.173 29.7924 110.185 29.7963C110.187 29.7972 110.188 29.7974 110.191 29.7982C110.203 29.8023 110.19 29.7981 110.202 29.8021C110.209 29.8043 110.207 29.8039 110.214 29.806C110.219 29.8077 110.22 29.8082 110.225 29.8099C110.241 29.815 110.222 29.8086 110.237 29.8137C110.242 29.8155 110.255 29.8197 110.26 29.8214L110.418 29.3471C110.369 29.3306 110.375 29.3327 110.325 29.3161C110.305 29.3092 110.323 29.3153 110.302 29.3083C110.295 29.306 110.297 29.3067 110.29 29.3044C110.287 29.3032 110.288 29.3036 110.284 29.3024C110.284 29.3023 110.283 29.3021 110.283 29.3019C110.282 29.3018 110.282 29.3016 110.281 29.3015C110.281 29.3013 110.28 29.3011 110.28 29.301C110.279 29.3008 110.279 29.3006 110.278 29.3005C110.271 29.2982 110.262 29.295 110.255 29.2926C110.244 29.2891 110.242 29.2882 110.231 29.2847C110.224 29.2824 110.226 29.2831 110.219 29.2808C110.214 29.279 110.219 29.2806 110.213 29.2788C110.213 29.2786 110.212 29.2785 110.212 29.2783C110.211 29.2781 110.211 29.278 110.21 29.2778C110.21 29.2776 110.209 29.2775 110.209 29.2773C110.208 29.2772 110.208 29.277 110.207 29.2768C110.207 29.2767 110.206 29.2765 110.206 29.2763C110.206 29.2762 110.205 29.276 110.205 29.2758C110.198 29.2736 110.208 29.277 110.202 29.2748C110.201 29.2747 110.201 29.2745 110.2 29.2743C110.2 29.2742 110.199 29.274 110.199 29.2738C110.198 29.2737 110.198 29.2735 110.197 29.2734C110.197 29.2732 110.196 29.273 110.196 29.2729C110.188 29.2702 110.192 29.2715 110.184 29.2689C110.178 29.2671 110.186 29.2697 110.181 29.2679C110.18 29.2677 110.18 29.2676 110.179 29.2674C110.179 29.2672 110.178 29.2671 110.178 29.2669C110.174 29.2656 110.176 29.2662 110.172 29.2649C110.168 29.2636 110.164 29.2623 110.16 29.2609C110.152 29.2583 110.156 29.2596 110.148 29.2569C110.132 29.2516 110.152 29.2583 110.136 29.2529C110.118 29.247 110.142 29.2549 110.124 29.2489C110.116 29.2463 110.126 29.2496 110.118 29.2469C110.117 29.2468 110.117 29.2466 110.116 29.2464C110.116 29.2463 110.115 29.2461 110.115 29.2459C110.114 29.2458 110.114 29.2456 110.113 29.2454C110.113 29.2453 110.112 29.2451 110.112 29.2449C110.105 29.2425 110.107 29.2433 110.1 29.2409C110.1 29.2409 110.094 29.2389 110.094 29.2389L110.091 29.2379C110.09 29.2377 110.09 29.2376 110.089 29.2374C110.089 29.2372 110.088 29.2371 110.088 29.2369C110.087 29.2367 110.087 29.2366 110.086 29.2364C110.086 29.2362 110.085 29.236 110.085 29.2359C110.084 29.2357 110.084 29.2355 110.083 29.2354C110.083 29.2352 110.082 29.235 110.082 29.2349C110.063 29.2286 110.094 29.2391 110.076 29.2329C110.072 29.2317 110.067 29.23 110.063 29.2288C110.063 29.2287 110.062 29.2285 110.062 29.2283C110.061 29.2281 110.061 29.228 110.06 29.2278C110.06 29.2276 110.059 29.2275 110.059 29.2273C110.058 29.2271 110.058 29.227 110.057 29.2268C110.052 29.225 110.057 29.2266 110.051 29.2248C110.046 29.223 110.045 29.2225 110.039 29.2207C110.005 29.2092 109.976 29.1998 109.941 29.1881C109.898 29.1735 109.887 29.1698 109.842 29.1551C109.826 29.1495 109.809 29.144 109.792 29.1384C109.776 29.1329 109.784 29.1356 109.767 29.1301C109.745 29.1226 109.764 29.1291 109.742 29.1217C109.714 29.1123 109.72 29.1142 109.691 29.1048C109.68 29.101 109.69 29.1043 109.679 29.1006C109.677 29.1001 109.677 29.1 109.676 29.0995C109.675 29.0993 109.674 29.0992 109.674 29.099C109.673 29.0988 109.673 29.0986 109.672 29.0984C109.671 29.098 109.671 29.0979 109.669 29.0974C109.667 29.0968 109.668 29.097 109.666 29.0963C109.655 29.0926 109.674 29.099 109.663 29.0953C109.662 29.0951 109.662 29.0949 109.661 29.0947C109.661 29.0946 109.66 29.0944 109.66 29.0942C109.658 29.0937 109.658 29.0936 109.656 29.0931C109.651 29.0913 109.659 29.094 109.653 29.0921C109.641 29.0878 109.653 29.0921 109.641 29.0878L109.482 29.5622ZM110.385 29.8629C110.408 29.8706 110.388 29.8639 110.41 29.8715C110.416 29.8735 110.418 29.8739 110.423 29.8758C110.426 29.8766 110.427 29.8772 110.43 29.878C110.43 29.8781 110.433 29.8789 110.433 29.8791C110.437 29.8805 110.432 29.8787 110.436 29.8801C110.453 29.8858 110.445 29.883 110.462 29.8887C110.47 29.8915 110.466 29.8901 110.475 29.8929C110.476 29.8933 110.48 29.8948 110.481 29.8951C110.482 29.8954 110.483 29.8958 110.484 29.8961C110.485 29.8963 110.485 29.8965 110.486 29.8967C110.486 29.8968 110.487 29.897 110.487 29.8972C110.506 29.9034 110.52 29.908 110.538 29.9141C110.565 29.9229 110.537 29.9138 110.564 29.9226C110.575 29.9263 110.578 29.9272 110.589 29.9309C110.604 29.9359 110.624 29.9427 110.639 29.9476C110.661 29.955 110.666 29.9568 110.688 29.9641C110.732 29.9787 110.743 29.9824 110.786 29.9968C110.795 29.9998 110.789 29.9979 110.798 30.0009C110.799 30.001 110.799 30.0012 110.8 30.0014C110.8 30.0015 110.801 30.0017 110.802 30.0019C110.803 30.0023 110.803 30.0024 110.805 30.0029C110.807 30.0038 110.805 30.003 110.808 30.0039C110.81 30.0048 110.808 30.004 110.811 30.0049C110.821 30.0085 110.824 30.0094 110.835 30.013C110.838 30.014 110.835 30.0129 110.838 30.014C110.841 30.0151 110.837 30.0138 110.841 30.015C110.841 30.0151 110.842 30.0153 110.842 30.0155C110.843 30.0156 110.843 30.0158 110.844 30.016C110.845 30.0164 110.845 30.0165 110.847 30.017C110.855 30.0196 110.845 30.0163 110.853 30.019C110.857 30.0203 110.855 30.0196 110.859 30.021C110.866 30.0233 110.864 30.0226 110.871 30.025C110.875 30.0263 110.879 30.0276 110.883 30.029C110.89 30.0313 110.923 30.0425 110.93 30.0448C110.938 30.0475 110.928 30.0442 110.936 30.0468C110.942 30.0486 110.937 30.047 110.942 30.0488C110.947 30.0505 110.943 30.049 110.948 30.0507C110.951 30.0516 110.948 30.0509 110.951 30.0517C110.958 30.0539 110.947 30.0505 110.954 30.0527C110.958 30.054 110.953 30.0524 110.957 30.0537C110.957 30.0539 110.958 30.054 110.958 30.0542C110.959 30.0544 110.959 30.0545 110.96 30.0547C110.964 30.056 110.962 30.0553 110.966 30.0566C110.966 30.0568 110.967 30.057 110.967 30.0571C110.968 30.0573 110.968 30.0575 110.969 30.0576C110.969 30.0578 110.97 30.058 110.97 30.0581C110.971 30.0583 110.971 30.0584 110.972 30.0586C110.972 30.0588 110.973 30.0589 110.973 30.0591C110.974 30.0593 110.974 30.0594 110.975 30.0596C110.979 30.0612 110.973 30.059 110.978 30.0606C110.998 30.0675 111.004 30.0693 111.024 30.0762C111.035 30.0796 111.037 30.0805 111.048 30.0839C111.066 30.0899 111.041 30.0818 111.059 30.0878C111.06 30.0879 111.06 30.0881 111.061 30.0883C111.061 30.0884 111.062 30.0886 111.062 30.0887C111.063 30.0889 111.063 30.0891 111.064 30.0892C111.064 30.0894 111.065 30.0895 111.065 30.0897C111.065 30.0899 111.066 30.09 111.066 30.0902C111.067 30.0904 111.067 30.0905 111.068 30.0907C111.068 30.0908 111.069 30.091 111.069 30.0912C111.07 30.0913 111.07 30.0915 111.071 30.0916C111.112 30.1053 111.122 30.1087 111.162 30.1222L111.321 29.6478C111.304 29.6423 111.292 29.6382 111.275 29.6326C111.272 29.6318 111.272 29.6316 111.269 29.6307C111.269 29.6306 111.268 29.6304 111.268 29.6302C111.267 29.6301 111.267 29.6299 111.266 29.6298C111.266 29.6296 111.265 29.6294 111.265 29.6293C111.264 29.6291 111.264 29.629 111.263 29.6288C111.262 29.6282 111.262 29.6284 111.261 29.6278C111.26 29.6277 111.26 29.6275 111.259 29.6274C111.259 29.6272 111.258 29.6271 111.258 29.6269C111.256 29.6262 111.254 29.6257 111.252 29.625C111.251 29.6248 111.251 29.6247 111.251 29.6245C111.25 29.6243 111.25 29.6242 111.249 29.624C111.247 29.6232 111.249 29.6239 111.246 29.6231C111.246 29.6229 111.245 29.6227 111.245 29.6226C111.244 29.6224 111.244 29.6223 111.243 29.6221C111.243 29.6219 111.242 29.6218 111.242 29.6216C111.241 29.6215 111.241 29.6213 111.24 29.6211C111.228 29.6169 111.242 29.6216 111.229 29.6173C111.229 29.6173 111.217 29.6134 111.217 29.6134C111.21 29.6109 111.213 29.6122 111.206 29.6096C111.201 29.6079 111.199 29.6074 111.194 29.6057C111.192 29.6048 111.191 29.6046 111.188 29.6038C111.186 29.6031 111.187 29.6034 111.185 29.6028C111.185 29.6026 111.184 29.6025 111.184 29.6023C111.183 29.6021 111.183 29.602 111.182 29.6018C111.182 29.6017 111.182 29.6015 111.181 29.6013C111.181 29.6012 111.18 29.601 111.18 29.6009C111.179 29.6007 111.179 29.6005 111.178 29.6004C111.178 29.6002 111.177 29.6 111.177 29.5999C111.174 29.599 111.173 29.5988 111.171 29.5979C111.17 29.5978 111.17 29.5976 111.169 29.5975C111.169 29.5973 111.168 29.5971 111.168 29.597C111.167 29.5965 111.166 29.5964 111.165 29.596C111.162 29.5951 111.162 29.5949 111.159 29.594C111.145 29.5894 111.161 29.5948 111.147 29.5901C111.127 29.5832 111.157 29.5932 111.136 29.5862C111.13 29.5845 111.129 29.584 111.124 29.5823C111.116 29.5797 111.129 29.5839 111.121 29.5813C111.118 29.5804 111.121 29.5812 111.118 29.5803C111.115 29.5795 111.115 29.5792 111.112 29.5784C111.106 29.5762 111.113 29.5786 111.106 29.5764C111.104 29.5755 111.106 29.5763 111.103 29.5754C111.103 29.5753 111.102 29.5751 111.102 29.5749C111.101 29.5748 111.101 29.5746 111.1 29.5744C111.1 29.5744 111.097 29.5734 111.097 29.5734C111.093 29.5721 111.098 29.5738 111.094 29.5725C111.094 29.5723 111.093 29.5721 111.093 29.572C111.092 29.5718 111.092 29.5716 111.091 29.5715C111.085 29.5693 111.095 29.5727 111.088 29.5705C111.085 29.5694 111.089 29.5706 111.086 29.5695C111.082 29.5682 111.087 29.5698 111.083 29.5685C111.076 29.5663 111.083 29.5687 111.077 29.5665C111.071 29.5648 111.076 29.5663 111.071 29.5646C111.059 29.5606 111.08 29.5675 111.068 29.5636C111.065 29.5627 111.067 29.5634 111.065 29.5626C111.058 29.5604 111.068 29.5638 111.062 29.5616C111.061 29.5614 111.061 29.5612 111.06 29.5611C111.06 29.5609 111.059 29.5607 111.059 29.5606C111.057 29.5598 111.058 29.5603 111.056 29.5596C111.052 29.5583 111.057 29.5599 111.053 29.5586C111.045 29.5559 111.049 29.5573 111.041 29.5546C111.039 29.554 111.037 29.5532 111.035 29.5526C111.028 29.5504 111.036 29.5528 111.029 29.5506C111.022 29.5484 111.033 29.5518 111.026 29.5496C111.024 29.5491 111.025 29.5492 111.023 29.5486C111.022 29.5485 111.022 29.5483 111.021 29.5481C111.021 29.548 111.02 29.5478 111.02 29.5476C111.008 29.5436 111.029 29.5506 111.017 29.5466C111.006 29.5431 111.016 29.5462 111.005 29.5426C111.002 29.5417 110.996 29.5395 110.993 29.5386C110.982 29.535 110.979 29.5341 110.969 29.5306C110.968 29.5304 110.968 29.5302 110.967 29.5301C110.967 29.5299 110.966 29.5297 110.966 29.5296C110.963 29.5287 110.965 29.5294 110.963 29.5285C110.962 29.5284 110.962 29.5282 110.961 29.528C110.961 29.5279 110.96 29.5277 110.96 29.5275C110.955 29.526 110.961 29.528 110.957 29.5265C110.948 29.5235 110.953 29.5255 110.944 29.5225C110.901 29.5081 110.89 29.5044 110.846 29.4898C110.838 29.4871 110.842 29.4884 110.834 29.4857C110.831 29.4848 110.831 29.4845 110.828 29.4836C110.827 29.4834 110.827 29.4833 110.826 29.4831C110.826 29.4829 110.825 29.4828 110.825 29.4826C110.824 29.4824 110.824 29.4822 110.823 29.4821C110.823 29.4819 110.822 29.4817 110.822 29.4816C110.809 29.4773 110.822 29.4817 110.809 29.4774C110.808 29.477 110.804 29.4758 110.803 29.4753C110.792 29.4717 110.808 29.477 110.797 29.4733C110.782 29.4683 110.762 29.4616 110.747 29.4566C110.736 29.4529 110.708 29.4435 110.696 29.4398C110.696 29.4396 110.695 29.4394 110.695 29.4393C110.694 29.4391 110.694 29.4389 110.693 29.4387C110.693 29.4386 110.692 29.4384 110.692 29.4382C110.691 29.438 110.691 29.4379 110.69 29.4377C110.686 29.4364 110.687 29.4368 110.684 29.4356C110.683 29.4354 110.683 29.4352 110.682 29.435C110.682 29.4349 110.681 29.4347 110.681 29.4345C110.668 29.4303 110.69 29.4377 110.677 29.4335C110.677 29.4333 110.676 29.4331 110.676 29.4329C110.675 29.4328 110.675 29.4326 110.674 29.4324C110.674 29.4322 110.673 29.432 110.673 29.4319C110.672 29.4317 110.672 29.4315 110.671 29.4313C110.66 29.4276 110.67 29.4309 110.658 29.4271C110.655 29.4262 110.655 29.4259 110.652 29.425C110.646 29.4231 110.651 29.4247 110.646 29.4229C110.643 29.4219 110.642 29.4217 110.639 29.4207C110.635 29.4193 110.64 29.4211 110.636 29.4197C110.635 29.4195 110.635 29.4193 110.634 29.4191C110.634 29.419 110.633 29.4188 110.633 29.4186C110.631 29.4181 110.631 29.418 110.63 29.4175C110.624 29.4156 110.632 29.4184 110.626 29.4165C110.618 29.4136 110.629 29.4172 110.62 29.4143C110.619 29.4142 110.619 29.414 110.618 29.4138C110.618 29.4136 110.617 29.4134 110.617 29.4133C110.614 29.4123 110.616 29.4132 110.614 29.4122C110.611 29.4113 110.61 29.411 110.607 29.4101C110.605 29.4094 110.603 29.4086 110.601 29.4079C110.589 29.4041 110.606 29.4096 110.594 29.4058C110.583 29.402 110.58 29.401 110.569 29.3972C110.568 29.397 110.568 29.3968 110.567 29.3967C110.566 29.3965 110.566 29.3963 110.565 29.3961C110.565 29.3959 110.564 29.3958 110.564 29.3956C110.563 29.3954 110.563 29.3952 110.562 29.395C110.558 29.3938 110.563 29.3952 110.559 29.394C110.558 29.3938 110.558 29.3936 110.557 29.3934C110.557 29.3933 110.556 29.3931 110.556 29.3929C110.55 29.391 110.549 29.3905 110.543 29.3886L110.385 29.8629ZM111.176 30.1262C111.387 30.1839 111.58 30.2535 111.754 30.3345L111.965 29.8812C111.762 29.787 111.543 29.7081 111.307 29.6438L111.176 30.1262ZM111.841 30.3769C112.03 30.4722 112.195 30.5818 112.339 30.7048L112.664 30.3252C112.488 30.1738 112.288 30.0425 112.067 29.9307L111.841 30.3769ZM112.345 30.7102C112.495 30.8304 112.63 30.973 112.748 31.1392L113.155 30.8495C113.011 30.6471 112.846 30.4702 112.658 30.3198L112.345 30.7102ZM112.801 31.2181C112.905 31.3773 112.996 31.5573 113.073 31.759L113.54 31.581C113.452 31.3494 113.346 31.1371 113.22 30.9451L112.801 31.2181ZM113.074 31.7628C113.163 31.9852 113.232 32.2667 113.277 32.6117L113.773 32.5475C113.724 32.1746 113.648 31.8496 113.539 31.5772L113.074 31.7628ZM113.293 32.7547C113.322 33.0251 113.336 33.3284 113.336 33.665H113.836C113.836 33.3145 113.821 32.9934 113.791 32.7024L113.293 32.7547ZM113.336 33.665C113.336 34.1496 113.276 34.5736 113.159 34.9402L113.636 35.092C113.771 34.6671 113.836 34.1904 113.836 33.665H113.336ZM113.091 35.1306C112.931 35.5369 112.693 35.8693 112.376 36.1329L112.696 36.5171C113.08 36.1973 113.367 35.7947 113.557 35.3142L113.091 35.1306ZM112.376 36.1329C112.043 36.4111 111.6 36.6237 111.036 36.7623L111.156 37.2478C111.774 37.0957 112.291 36.8549 112.696 36.5171L112.376 36.1329ZM110.796 36.8154C110.346 36.9045 109.83 36.95 109.246 36.95V37.45C109.855 37.45 110.404 37.4026 110.893 37.3059L110.796 36.8154ZM109.246 36.95H107.529V37.45H109.246V36.95ZM107.254 36.95H105.536V37.45H107.254V36.95ZM102.006 21.835C102.006 21.6187 102.027 21.3646 102.071 21.0715L101.576 20.9984C101.53 21.3086 101.506 21.588 101.506 21.835H102.006ZM102.09 20.948C102.128 20.713 102.18 20.456 102.245 20.1768L101.758 20.0632C101.691 20.3514 101.637 20.6195 101.596 20.8676L102.09 20.948ZM102.244 20.1825C102.329 19.853 102.449 19.5276 102.607 19.2062L102.158 18.9863C101.986 19.3367 101.853 19.6938 101.759 20.0575L102.244 20.1825ZM102.683 19.0567C102.84 18.7583 103.029 18.4631 103.251 18.1711L102.852 17.8689C102.615 18.1811 102.411 18.4993 102.24 18.8237L102.683 19.0567ZM103.25 18.1721C103.498 17.8484 103.792 17.5469 104.132 17.2678L103.815 16.8811C103.447 17.1829 103.126 17.5117 102.853 17.8679L103.25 18.1721ZM104.292 17.1411C104.613 16.8944 104.973 16.666 105.373 16.4563L105.14 16.0136C104.718 16.2352 104.334 16.4787 103.987 16.7445L104.292 17.1411ZM105.373 16.4563C105.822 16.2206 106.344 16.0421 106.943 15.9235L106.845 15.433C106.208 15.5593 105.639 15.752 105.14 16.0136L105.373 16.4563ZM107.207 15.8757C107.719 15.7922 108.282 15.75 108.896 15.75V15.25C108.26 15.25 107.67 15.2937 107.127 15.3822L107.207 15.8757ZM108.896 15.75H111.797V15.25H108.896V15.75ZM112.261 15.75H115.161V15.25H112.261V15.75ZM114.977 15.3315L113.794 16.6278L114.163 16.9648L115.346 15.6685L114.977 15.3315ZM113.605 16.8352L112.422 18.1315L112.791 18.4685L113.974 17.1722L113.605 16.8352ZM112.606 18.05H110.889V18.55H112.606V18.05ZM110.614 18.05H108.896V18.55H110.614V18.05ZM108.896 18.05C108.288 18.05 107.738 18.0974 107.249 18.1941L107.347 18.6846C107.797 18.5955 108.313 18.55 108.896 18.55V18.05ZM106.987 18.2522C106.369 18.4043 105.852 18.6451 105.446 18.9829L105.766 19.3671C106.1 19.0889 106.543 18.8763 107.107 18.7377L106.987 18.2522ZM105.446 18.9829C105.063 19.3027 104.776 19.7053 104.586 20.1858L105.051 20.3694C105.212 19.9631 105.45 19.6307 105.766 19.3671L105.446 18.9829ZM104.507 20.408C104.372 20.8329 104.306 21.3096 104.306 21.835H104.806C104.806 21.3504 104.867 20.9264 104.984 20.5598L104.507 20.408ZM104.306 21.835C104.306 22.1897 104.322 22.516 104.353 22.8133L104.85 22.7609C104.821 22.4841 104.806 22.1756 104.806 21.835H104.306ZM104.372 22.9707C104.42 23.3447 104.496 23.6736 104.603 23.954L105.07 23.776C104.981 23.5418 104.912 23.2532 104.868 22.9066L104.372 22.9707ZM104.604 23.9578C104.692 24.178 104.796 24.3809 104.916 24.5657L105.335 24.294C105.235 24.1388 105.146 23.9651 105.069 23.7722L104.604 23.9578ZM104.977 24.6575C105.114 24.8526 105.269 25.0253 105.444 25.1748L105.769 24.7952C105.628 24.6743 105.501 24.5332 105.387 24.3708L104.977 24.6575ZM105.45 25.1802C105.631 25.3249 105.828 25.4543 106.042 25.5687L106.278 25.1281C106.09 25.0273 105.918 24.9144 105.763 24.7898L105.45 25.1802ZM106.142 25.6207C106.343 25.7223 106.559 25.811 106.787 25.8872L106.946 25.4128C106.738 25.3437 106.545 25.264 106.366 25.174L106.142 25.6207ZM106.801 25.8912C107.05 25.9591 107.313 26.0355 107.591 26.1204L107.737 25.6422C107.455 25.556 107.187 25.4782 106.932 25.4088L106.801 25.8912ZM107.717 26.1592C107.968 26.2368 108.229 26.3212 108.502 26.4122L108.661 25.9378C108.384 25.8458 108.119 25.7604 107.865 25.6816L107.717 26.1592ZM108.331 26.175V27.4713H108.831V26.175H108.331ZM108.331 27.6787V28.975H108.831V27.6787H108.331ZM108.663 28.7385C108.284 28.6088 107.906 28.4841 107.528 28.3643L107.377 28.841C107.751 28.9596 108.126 29.0831 108.5 29.2115L108.663 28.7385ZM107.345 28.307C106.964 28.1878 106.582 28.0737 106.2 27.9646L106.063 28.4454C106.441 28.5533 106.818 28.6663 107.196 28.7843L107.345 28.307ZM106.206 27.9665C105.846 27.8531 105.502 27.7188 105.175 27.5639L104.961 28.0156C105.309 28.1809 105.675 28.3235 106.056 28.4435L106.206 27.9665ZM105.016 27.4862C104.684 27.3186 104.369 27.1288 104.072 26.9166L103.781 27.3234C104.099 27.5508 104.436 27.7539 104.791 27.9327L105.016 27.4862ZM104.075 26.9191C103.788 26.7062 103.522 26.4539 103.279 26.1613L102.895 26.4809C103.162 26.8026 103.456 27.0829 103.778 27.3209L104.075 26.9191ZM103.168 26.023C102.951 25.7435 102.753 25.4296 102.574 25.0807L102.129 25.3093C102.321 25.683 102.536 26.0232 102.773 26.3293L103.168 26.023ZM102.576 25.0858C102.383 24.6874 102.236 24.2048 102.14 23.6339L101.647 23.7169C101.749 24.323 101.908 24.8534 102.127 25.3042L102.576 25.0858ZM102.103 23.3893C102.039 22.9234 102.006 22.4056 102.006 21.835H101.506C101.506 22.424 101.54 22.965 101.607 23.4574L102.103 23.3893ZM131.806 19.35H132.056V19.1H131.806V19.35ZM131.806 40V40.25H132.056V40H131.806ZM129.006 40H128.756V40.25H129.006V40ZM129.006 19.35V19.1H128.756V19.35H129.006ZM123.721 18.3L123.52 18.4484L123.595 18.55H123.721V18.3ZM121.656 15.5V15.25H121.161L121.455 15.6484L121.656 15.5ZM139.156 15.5L139.357 15.6484L139.651 15.25H139.156V15.5ZM137.091 18.3V18.55H137.218L137.292 18.4484L137.091 18.3ZM131.806 19.1H130.51V19.6H131.806V19.1ZM130.303 19.1H129.006V19.6H130.303V19.1ZM128.756 19.35V28.9102H129.256V19.35H128.756ZM128.756 30.4398V40H129.256V30.4398H128.756ZM129.006 40.25H130.303V39.75H129.006V40.25ZM130.51 40.25H131.806V39.75H130.51V40.25ZM132.056 40V30.4398H131.556V40H132.056ZM132.056 28.9102V19.35H131.556V28.9102H132.056ZM123.922 18.1516L122.966 16.8553L122.564 17.1521L123.52 18.4484L123.922 18.1516ZM122.813 16.6479L121.857 15.3516L121.455 15.6484L122.411 16.9447L122.813 16.6479ZM121.656 15.75H129.758V15.25H121.656V15.75ZM131.054 15.75H139.156V15.25H131.054V15.75ZM138.955 15.3516L137.999 16.6479L138.401 16.9447L139.357 15.6484L138.955 15.3516ZM137.846 16.8553L136.89 18.1516L137.292 18.4484L138.248 17.1521L137.846 16.8553ZM137.091 18.05H130.901V18.55H137.091V18.05ZM129.911 18.05H123.721V18.55H129.911V18.05ZM152.993 40H152.743L153.227 40.0856L152.993 40ZM152.993 32.37L152.758 32.2847L152.743 32.326V32.37H152.993ZM159.118 15.5V15.25H158.942L158.883 15.4147L159.118 15.5ZM161.918 15.5L162.152 15.5856L162.275 15.25H161.918V15.5ZM143.018 15.5V15.25H142.66L142.783 15.5856L143.018 15.5ZM145.818 15.5L146.053 15.4147L145.993 15.25H145.818V15.5ZM151.943 32.37H152.193V32.326L152.178 32.2847L151.943 32.37ZM151.943 40L151.708 40.0856L152.193 40H151.943ZM153.243 40V36.4676H152.743V40H153.243ZM153.243 35.9024V32.37H152.743V35.9024H153.243ZM153.228 32.4553L156.063 24.6451L155.593 24.4745L152.758 32.2847L153.228 32.4553ZM156.517 23.3955L159.353 15.5853L158.883 15.4147L156.047 23.2249L156.517 23.3955ZM159.118 15.75H160.414V15.25H159.118V15.75ZM160.621 15.75H161.918V15.25H160.621V15.75ZM161.683 15.4144L157.551 26.757L158.021 26.9282L162.152 15.5856L161.683 15.4144ZM156.89 28.5718L152.758 39.9144L153.227 40.0856L157.359 28.743L156.89 28.5718ZM143.018 15.75H144.314V15.25H143.018V15.75ZM144.521 15.75H145.818V15.25H144.521V15.75ZM145.583 15.5853L148.418 23.3955L148.888 23.2249L146.053 15.4147L145.583 15.5853ZM148.872 24.6451L151.708 32.4553L152.178 32.2847L149.342 24.4745L148.872 24.6451ZM151.693 32.37V35.9024H152.193V32.37H151.693ZM151.693 36.4676V40H152.193V36.4676H151.693ZM152.177 39.9144L148.046 28.5718L147.576 28.743L151.708 40.0856L152.177 39.9144ZM147.384 26.757L143.252 15.4144L142.783 15.5856L146.915 26.9282L147.384 26.757ZM173.312 19.175L173.079 19.0841L173.045 19.173L173.078 19.2624L173.312 19.175ZM174.747 15.5L174.981 15.4127L174.753 14.7989L174.514 15.4091L174.747 15.5ZM183.882 40V40.25H184.242L184.116 39.9127L183.882 40ZM181.082 40L180.848 40.0874L180.909 40.25H181.082V40ZM164.912 40L164.68 39.9068L164.542 40.25H164.912V40ZM172.717 20.575L172.95 20.4845L172.721 19.8946L172.485 20.4818L172.717 20.575ZM174.117 24.18L174.349 24.2738L174.386 24.1819L174.35 24.0895L174.117 24.18ZM167.712 40V40.25H167.881L167.944 40.0938L167.712 40ZM173.545 19.2659L174.209 17.5645L173.744 17.3827L173.079 19.0841L173.545 19.2659ZM174.316 17.2923L174.98 15.5909L174.514 15.4091L173.85 17.1105L174.316 17.2923ZM174.513 15.5873L178.742 26.9299L179.211 26.7553L174.981 15.4127L174.513 15.5873ZM179.419 28.7447L183.648 40.0873L184.116 39.9127L179.887 28.5701L179.419 28.7447ZM183.882 39.75H182.586V40.25H183.882V39.75ZM182.378 39.75H181.082V40.25H182.378V39.75ZM181.316 39.9126L177.719 30.2714L177.251 30.4462L180.848 40.0874L181.316 39.9126ZM177.144 28.7288L173.546 19.0876L173.078 19.2624L176.675 28.9036L177.144 28.7288ZM164.912 40.25H166.208V39.75H164.912V40.25ZM166.416 40.25H167.712V39.75H166.416V40.25ZM167.944 40.0938L170.909 32.7697L170.446 32.5821L167.48 39.9062L167.944 40.0938ZM171.384 31.5979L174.349 24.2738L173.885 24.0862L170.92 31.4103L171.384 31.5979ZM174.35 24.0895L173.702 22.4205L173.236 22.6015L173.884 24.2705L174.35 24.0895ZM173.598 22.1535L172.95 20.4845L172.484 20.6655L173.132 22.3345L173.598 22.1535ZM172.485 20.4818L168.872 29.4748L169.336 29.6613L172.949 20.6682L172.485 20.4818ZM168.294 30.9137L164.68 39.9068L165.144 40.0932L168.758 31.1002L168.294 30.9137ZM199.125 37.2V36.95H198.875V37.2H199.125ZM199.3 37.2V37.45H199.312L199.324 37.4489L199.3 37.2ZM200.91 36.885L200.977 37.1257L200.91 36.885ZM202.555 36.22L202.435 36.0005L202.555 36.22ZM203.85 35.17L204.042 35.33L203.85 35.17ZM204.375 17.845L204.214 17.6533L204.125 17.7283V17.845H204.375ZM207.175 15.5H207.425V14.9645L207.014 15.3083L207.175 15.5ZM206.44 36.675L206.637 36.8285L206.64 36.825L206.44 36.675ZM204.55 38.355L204.68 38.5689L204.684 38.5659L204.55 38.355ZM201.995 39.51L202.067 39.7495L202.072 39.7478L201.995 39.51ZM199.3 40V40.2504L199.313 40.2496L199.3 40ZM199.125 40H198.875V40.25H199.125V40ZM190.2 15.5L190.361 15.3083L189.95 14.9645V15.5H190.2ZM193 17.845H193.25V17.7283L193.161 17.6533L193 17.845ZM193.525 35.17L193.717 35.01V35.01L193.525 35.17ZM194.82 36.255L194.693 36.4704L194.7 36.4745L194.82 36.255ZM196.465 36.92L196.398 37.1609L196.407 37.1631L196.465 36.92ZM198.075 37.2H198.325V36.9727L198.099 36.9511L198.075 37.2ZM198.075 40L198.062 40.2496L198.325 40.2639V40H198.075ZM195.38 39.51L195.303 39.7478L195.308 39.7495L195.38 39.51ZM192.825 38.355L192.691 38.566L192.695 38.5688L192.825 38.355ZM190.935 36.675L190.735 36.825L190.738 36.8285L190.935 36.675ZM198.875 37.2V38.4963H199.375V37.2H198.875ZM198.875 38.7037V40H199.375V38.7037H198.875ZM199.125 40.25H199.206V39.75H199.125V40.25ZM199.219 40.25H199.3V39.75H199.219V40.25ZM199.313 40.2496C199.737 40.2268 200.167 40.1766 200.605 40.0993L200.518 39.6069C200.099 39.6809 199.689 39.7286 199.287 39.7504L199.313 40.2496ZM200.81 40.0615C201.222 39.9812 201.641 39.8771 202.067 39.7495L201.923 39.2705C201.513 39.3937 201.109 39.4937 200.714 39.5707L200.81 40.0615ZM202.072 39.7478C202.502 39.6082 202.915 39.4514 203.311 39.2774L203.11 38.8196C202.73 38.9866 202.332 39.1375 201.918 39.2722L202.072 39.7478ZM203.505 39.1904C203.915 39.0021 204.306 38.795 204.68 38.5688L204.42 38.1412C204.064 38.3572 203.689 38.5555 203.296 38.736L203.505 39.1904ZM204.684 38.5659C205.037 38.3416 205.362 38.1022 205.659 37.8477L205.334 37.4679C205.056 37.706 204.75 37.9315 204.416 38.1441L204.684 38.5659ZM205.805 37.7193C206.115 37.4399 206.393 37.143 206.637 36.8285L206.243 36.5215C206.017 36.8116 205.76 37.0871 205.471 37.3479L205.805 37.7193ZM206.64 36.825C206.873 36.5142 207.056 36.1906 207.186 35.8543L206.72 35.6737C206.608 35.9636 206.448 36.2474 206.24 36.525L206.64 36.825ZM207.247 35.6846C207.366 35.3258 207.425 34.9556 207.425 34.575H206.925C206.925 34.9028 206.874 35.2199 206.772 35.5275L207.247 35.6846ZM207.425 34.575V25.744H206.925V34.575H207.425ZM207.425 24.331V15.5H206.925V24.331H207.425ZM207.014 15.3083L205.718 16.394L206.039 16.7773L207.336 15.6917L207.014 15.3083ZM205.511 16.5677L204.214 17.6533L204.536 18.0367L205.832 16.951L205.511 16.5677ZM204.125 17.845V25.1853H204.625V17.845H204.125ZM204.125 26.3597V33.7H204.625V26.3597H204.125ZM204.125 33.7C204.125 33.9328 204.092 34.1489 204.027 34.3497L204.502 34.5038C204.585 34.2496 204.625 33.9812 204.625 33.7H204.125ZM203.992 34.4481C203.915 34.6472 203.804 34.8343 203.658 35.01L204.042 35.33C204.222 35.1147 204.361 34.8806 204.458 34.628L203.992 34.4481ZM203.658 35.01C203.503 35.196 203.331 35.3676 203.141 35.5248L203.46 35.9097C203.673 35.7332 203.867 35.54 204.042 35.33L203.658 35.01ZM203.05 35.5983C202.862 35.7455 202.657 35.8796 202.435 36.0005L202.675 36.4395C202.919 36.306 203.147 36.157 203.358 35.992L203.05 35.5983ZM202.435 36.0005C202.203 36.127 201.964 36.2413 201.717 36.3433L201.908 36.8054C202.171 36.6966 202.427 36.5747 202.675 36.4395L202.435 36.0005ZM201.599 36.3909C201.354 36.4872 201.102 36.5716 200.843 36.6443L200.977 37.1257C201.253 37.0486 201.521 36.9588 201.782 36.8562L201.599 36.3909ZM200.843 36.6443C200.593 36.7143 200.352 36.7732 200.121 36.821L200.222 37.3106C200.466 37.2602 200.717 37.1986 200.977 37.1257L200.843 36.6443ZM200.005 36.8443C199.75 36.8936 199.507 36.9291 199.276 36.9511L199.324 37.4489C199.572 37.4252 199.831 37.3872 200.1 37.3352L200.005 36.8443ZM199.3 36.95H199.219V37.45H199.3V36.95ZM199.206 36.95H199.125V37.45H199.206V36.95ZM190.45 34.575V25.744H189.95V34.575H190.45ZM190.45 24.331V15.5H189.95V24.331H190.45ZM190.039 15.6917L191.336 16.7773L191.657 16.394L190.361 15.3083L190.039 15.6917ZM191.543 16.951L192.839 18.0367L193.161 17.6533L191.864 16.5677L191.543 16.951ZM192.75 17.845V25.1853H193.25V17.845H192.75ZM192.75 26.3597V33.7H193.25V26.3597H192.75ZM192.75 33.7C192.75 33.9812 192.79 34.2496 192.873 34.5038L193.348 34.3497C193.283 34.1489 193.25 33.9328 193.25 33.7H192.75ZM192.917 34.628C193.014 34.8806 193.153 35.1147 193.333 35.33L193.717 35.01C193.571 34.8343 193.46 34.6472 193.383 34.4481L192.917 34.628ZM193.333 35.33C193.508 35.5402 193.702 35.7362 193.915 35.9179L194.24 35.5376C194.048 35.3737 193.874 35.1978 193.717 35.01L193.333 35.33ZM194.017 36.0024C194.225 36.1714 194.451 36.3273 194.693 36.4702L194.947 36.0398C194.725 35.9086 194.52 35.7666 194.332 35.6139L194.017 36.0024ZM194.7 36.4745C194.948 36.6097 195.204 36.7316 195.467 36.8404L195.658 36.3783C195.411 36.2763 195.172 36.162 194.94 36.0355L194.7 36.4745ZM195.593 36.8912C195.854 36.9938 196.122 37.0836 196.398 37.1607L196.532 36.6793C196.273 36.6066 196.021 36.5222 195.776 36.4259L195.593 36.8912ZM196.407 37.1631C196.667 37.2255 196.918 37.2789 197.161 37.3232L197.25 36.8313C197.017 36.7888 196.775 36.7373 196.523 36.6769L196.407 37.1631ZM197.282 37.3448C197.549 37.3907 197.805 37.4255 198.051 37.4489L198.099 36.9511C197.867 36.929 197.623 36.8961 197.367 36.8521L197.282 37.3448ZM197.825 37.2V38.4963H198.325V37.2H197.825ZM197.825 38.7037V40H198.325V38.7037H197.825ZM198.089 39.7504C197.686 39.7286 197.276 39.6809 196.857 39.6069L196.77 40.0993C197.208 40.1766 197.638 40.2268 198.062 40.2496L198.089 39.7504ZM196.661 39.5707C196.266 39.4937 195.862 39.3937 195.452 39.2705L195.308 39.7495C195.734 39.8771 196.153 39.9812 196.565 40.0615L196.661 39.5707ZM195.457 39.2722C195.043 39.1375 194.645 38.9866 194.265 38.8196L194.064 39.2774C194.46 39.4514 194.873 39.6082 195.303 39.7478L195.457 39.2722ZM194.079 38.736C193.686 38.5555 193.311 38.3572 192.955 38.1412L192.695 38.5688C193.069 38.795 193.46 39.0021 193.87 39.1904L194.079 38.736ZM192.959 38.1441C192.625 37.9315 192.319 37.706 192.041 37.4679L191.716 37.8477C192.013 38.1022 192.338 38.3416 192.691 38.5659L192.959 38.1441ZM191.904 37.3479C191.615 37.0871 191.358 36.8116 191.132 36.5215L190.738 36.8285C190.982 37.143 191.26 37.4399 191.57 37.7193L191.904 37.3479ZM191.135 36.525C190.927 36.2474 190.767 35.9636 190.655 35.6737L190.189 35.8543C190.319 36.1906 190.502 36.5142 190.735 36.825L191.135 36.525ZM190.603 35.5275C190.501 35.2199 190.45 34.9028 190.45 34.575H189.95C189.95 34.9556 190.009 35.3258 190.128 35.6846L190.603 35.5275ZM216.461 40H216.211V40.25H216.461V40ZM216.461 27.4L216.622 27.2083L216.211 26.8645V27.4H216.461ZM219.261 29.745H219.511V29.6283L219.422 29.5533L219.261 29.745ZM219.261 37.2H219.011V37.45H219.261V37.2ZM227.346 37.2L227.548 37.0516L227.473 36.95H227.346V37.2ZM229.411 40V40.25H229.906L229.613 39.8516L229.411 40ZM216.461 15.5L216.622 15.3083L216.211 14.9645V15.5H216.461ZM219.261 17.845H219.511V17.7283L219.422 17.6533L219.261 17.845ZM219.261 28.695L219.101 28.8867L219.511 29.2305V28.695H219.261ZM216.461 26.35H216.211V26.4667L216.301 26.5417L216.461 26.35ZM216.711 40V34.1667H216.211V40H216.711ZM216.711 33.2333V27.4H216.211V33.2333H216.711ZM216.301 27.5917L217.597 28.6773L217.918 28.294L216.622 27.2083L216.301 27.5917ZM217.805 28.851L219.101 29.9367L219.422 29.5533L218.126 28.4677L217.805 28.851ZM219.011 29.745V33.1964H219.511V29.745H219.011ZM219.011 33.7486V37.2H219.511V33.7486H219.011ZM219.261 37.45H223.004V36.95H219.261V37.45ZM223.603 37.45H227.346V36.95H223.603V37.45ZM227.145 37.3484L228.101 38.6447L228.504 38.3479L227.548 37.0516L227.145 37.3484ZM228.254 38.8521L229.21 40.1484L229.613 39.8516L228.657 38.5553L228.254 38.8521ZM229.411 39.75H223.416V40.25H229.411V39.75ZM222.457 39.75H216.461V40.25H222.457V39.75ZM216.211 15.5V20.5231H216.711V15.5H216.211ZM216.211 21.3269V26.35H216.711V21.3269H216.211ZM216.301 26.5417L217.597 27.6273L217.918 27.244L216.622 26.1583L216.301 26.5417ZM217.805 27.801L219.101 28.8867L219.422 28.5033L218.126 27.4177L217.805 27.801ZM219.511 28.695V23.6719H219.011V28.695H219.511ZM219.511 22.8681V17.845H219.011V22.8681H219.511ZM219.422 17.6533L218.126 16.5677L217.805 16.951L219.101 18.0367L219.422 17.6533ZM217.918 16.394L216.622 15.3083L216.301 15.6917L217.597 16.7773L217.918 16.394ZM243.945 19.35H244.195V19.1H243.945V19.35ZM243.945 40V40.25H244.195V40H243.945ZM241.145 40H240.895V40.25H241.145V40ZM241.145 19.35V19.1H240.895V19.35H241.145ZM235.86 18.3L235.659 18.4484L235.734 18.55H235.86V18.3ZM233.795 15.5V15.25H233.3L233.594 15.6484L233.795 15.5ZM251.295 15.5L251.496 15.6484L251.79 15.25H251.295V15.5ZM249.23 18.3V18.55H249.356L249.431 18.4484L249.23 18.3ZM243.945 19.1H242.649V19.6H243.945V19.1ZM242.441 19.1H241.145V19.6H242.441V19.1ZM240.895 19.35V28.9102H241.395V19.35H240.895ZM240.895 30.4398V40H241.395V30.4398H240.895ZM241.145 40.25H242.441V39.75H241.145V40.25ZM242.649 40.25H243.945V39.75H242.649V40.25ZM244.195 40V30.4398H243.695V40H244.195ZM244.195 28.9102V19.35H243.695V28.9102H244.195ZM236.061 18.1516L235.105 16.8553L234.703 17.1521L235.659 18.4484L236.061 18.1516ZM234.952 16.6479L233.996 15.3516L233.594 15.6484L234.55 16.9447L234.952 16.6479ZM233.795 15.75H241.897V15.25H233.795V15.75ZM243.193 15.75H251.295V15.25H243.193V15.75ZM251.094 15.3516L250.138 16.6479L250.54 16.9447L251.496 15.6484L251.094 15.3516ZM249.985 16.8553L249.029 18.1516L249.431 18.4484L250.387 17.1521L249.985 16.8553ZM249.23 18.05H243.04V18.55H249.23V18.05ZM242.05 18.05H235.86V18.55H242.05V18.05Z" fill="#090A0E"/>
<path d="M39.5833 0H10.4167C7.65399 0 5.00447 1.09747 3.05097 3.05097C1.09747 5.00447 0 7.65399 0 10.4167V39.5833C0 42.346 1.09747 44.9955 3.05097 46.949C5.00447 48.9025 7.65399 50 10.4167 50H39.5833C42.346 50 44.9955 48.9025 46.949 46.949C48.9025 44.9955 50 42.346 50 39.5833V10.4167C50 7.65399 48.9025 5.00447 46.949 3.05097C44.9955 1.09747 42.346 0 39.5833 0ZM25 41.6667C21.7036 41.6667 18.4813 40.6892 15.7405 38.8578C12.9997 37.0265 10.8635 34.4235 9.60201 31.3781C8.34055 28.3326 8.01049 24.9815 8.65358 21.7485C9.29667 18.5155 10.884 15.5458 13.2149 13.2149C15.5458 10.884 18.5155 9.29667 21.7485 8.65358C24.9815 8.01049 28.3326 8.34055 31.3781 9.60201C34.4235 10.8635 37.0265 12.9997 38.8578 15.7405C40.6892 18.4813 41.6667 21.7036 41.6667 25C41.6667 29.4203 39.9107 33.6595 36.7851 36.7851C33.6595 39.9107 29.4203 41.6667 25 41.6667Z" fill="#090A0E"/>
<path d="M25 12.5C22.5277 12.5 20.111 13.2331 18.0554 14.6066C15.9998 15.9801 14.3976 17.9324 13.4515 20.2165C12.5054 22.5005 12.2579 25.0139 12.7402 27.4386C13.2225 29.8634 14.413 32.0907 16.1612 33.8388C17.9093 35.587 20.1366 36.7775 22.5614 37.2598C24.9861 37.7421 27.4995 37.4946 29.7835 36.5485C32.0676 35.6024 34.0199 34.0002 35.3934 31.9446C36.7669 29.889 37.5 27.4723 37.5 25C37.5 21.6848 36.183 18.5054 33.8388 16.1612C31.4946 13.817 28.3152 12.5 25 12.5ZM31.25 27.0833H28.5833C28.1247 27.8777 27.4168 28.4985 26.5694 28.8495C25.722 29.2005 24.7825 29.2621 23.8965 29.0247C23.0105 28.7873 22.2276 28.2642 21.6693 27.5365C21.1109 26.8088 20.8082 25.9172 20.8082 25C20.8082 24.0828 21.1109 23.1912 21.6693 22.4635C22.2276 21.7358 23.0105 21.2127 23.8965 20.9753C24.7825 20.7379 25.722 20.7995 26.5694 21.1505C27.4168 21.5015 28.1247 22.1223 28.5833 22.9167H31.25C31.8025 22.9167 32.3324 23.1362 32.7231 23.5269C33.1138 23.9176 33.3333 24.4475 33.3333 25C33.3333 25.5525 33.1138 26.0824 32.7231 26.4731C32.3324 26.8638 31.8025 27.0833 31.25 27.0833Z" fill="#090A0E"/>
</svg>
