<svg width="612" height="142" viewBox="0 0 612 142" fill="none" xmlns="http://www.w3.org/2000/svg">
<g filter="url(#filter0_d_4529_34070)">
<rect x="6" y="28" width="600" height="105" rx="20" fill="white"/>
</g>
<g filter="url(#filter1_d_4529_34070)">
<rect x="6" y="3" width="600" height="125" rx="20" fill="white"/>
</g>
<path d="M39.575 45V38.175H43.025C49.95 38.175 49.975 27.15 43.025 27.15H36V45H39.575ZM39.575 34.7V30.7H42.725C45.125 30.7 45.125 34.7 42.725 34.7H39.575ZM60.3135 45V41.425H54.6385V37.85H59.3385V34.275H54.6385V30.7H60.0135V27.125H51.0635V45H60.3135ZM72.9111 45V41.425H67.2361V37.85H71.9361V34.275H67.2361V30.7H72.6111V27.125H63.6611V45H72.9111ZM89.2088 45L85.0588 37.625C90.3088 36.1 89.6838 27.125 83.3088 27.125H76.2588V45H79.8338V38.175H81.5588L85.1588 45H89.2088ZM79.8338 30.7H82.9838C85.4088 30.7 85.4088 34.7 82.9838 34.7H79.8338V30.7ZM90.5408 38.125H99.6408V34.8H90.5408V38.125ZM107.768 34.4L101.093 45H112.893V41.375H107.593L111.118 35.925C114.118 31.75 112.368 27.15 107.118 26.875C105.368 26.8 103.193 27.5 101.818 28.5L102.693 31.95C103.268 31.45 105.243 30.425 106.818 30.525C107.868 30.575 108.668 31.325 108.668 32.325C108.668 32.325 108.718 33.05 107.768 34.4ZM114.93 38.125H124.03V34.8H114.93V38.125ZM130.908 45V38.175H134.358C141.283 38.175 141.308 27.15 134.358 27.15H127.333V45H130.908ZM130.908 34.7V30.7H134.058C136.458 30.7 136.458 34.7 134.058 34.7H130.908ZM151.646 45V41.425H145.971V37.85H150.671V34.275H145.971V30.7H151.346V27.125H142.396V45H151.646ZM164.244 45V41.425H158.569V37.85H163.269V34.275H158.569V30.7H163.944V27.125H154.994V45H164.244ZM180.542 45L176.392 37.625C181.642 36.1 181.017 27.125 174.642 27.125H167.592V45H171.167V38.175H172.892L176.492 45H180.542ZM171.167 30.7H174.317C176.742 30.7 176.742 34.7 174.317 34.7H171.167V30.7ZM189.203 43.85C191.628 45.1 193.853 45.225 194.853 45.15C198.203 44.975 200.253 42.7 200.253 39.725C200.253 36.875 197.853 35.275 195.078 34.25C194.053 33.9 193.178 33.45 193.078 32.45C193.003 31.45 193.578 30.525 194.853 30.45C195.403 30.425 196.528 30.4 198.503 31.2L198.953 27.75C196.653 26.95 195.428 26.95 194.503 27C191.528 27.15 189.453 29.45 189.453 32.45C189.453 35.45 191.953 36.875 194.753 37.9C195.753 38.25 196.528 38.7 196.603 39.725C196.703 40.7 195.803 41.45 194.753 41.525C193.928 41.6 191.703 41.55 189.653 40.1L189.203 43.85ZM215.761 45V27.125H212.186V34.275H206.836V27.125H203.261V45H206.836V37.85H212.186V45H215.761ZM218.189 45H222.239L222.939 43.075H228.864L229.589 45H233.614L226.089 26.475H225.714L218.189 45ZM224.239 39.725L225.914 35.075L227.539 39.725H224.239ZM249.072 45L244.922 37.625C250.172 36.1 249.547 27.125 243.172 27.125H236.122V45H239.697V38.175H241.422L245.022 45H249.072ZM239.697 30.7H242.847C245.272 30.7 245.272 34.7 242.847 34.7H239.697V30.7ZM255.029 45V27.125H251.454V45H255.029ZM262.622 35.275L271.672 45.375H272.622V27.15H269.022V37.25L259.997 26.75H259.047V45H262.622V35.275ZM289.549 43.9V36.05H285.924V41.425C285.599 41.475 285.249 41.525 284.924 41.525C278.024 41.525 277.699 30.85 284.924 30.6C286.824 30.55 287.974 30.95 288.674 31.25L289.099 27.625C288.774 27.525 287.049 26.9 284.924 26.975C272.524 27.425 273.124 45.1 284.924 45.1C286.624 45.1 288.174 44.675 289.549 43.9Z" fill="#090A0E"/>
<path d="M42.3232 74.1475C41.9072 74.4404 41.374 74.6719 40.7236 74.8418C40.0732 75.0059 39.2764 75.0879 38.333 75.0879C37.3955 75.0879 36.4492 75.0322 35.4941 74.9209V73.2158C36.3496 73.4092 37.2109 73.5059 38.0781 73.5059C38.9453 73.5059 39.5957 73.459 40.0293 73.3652C40.4629 73.2656 40.8115 73.1367 41.0752 72.9785C41.5615 72.6855 41.8047 72.3047 41.8047 71.8359C41.8047 71.4727 41.7109 71.1914 41.5234 70.9922C41.2246 70.6816 40.7939 70.3975 40.2314 70.1396L37.9814 69.1113C37.208 68.748 36.6602 68.4111 36.3379 68.1006C35.6465 67.4326 35.3008 66.6592 35.3008 65.7803C35.3008 64.8779 35.6934 64.1484 36.4785 63.5918C37.3398 62.9824 38.5645 62.6777 40.1523 62.6777C41.1777 62.6777 42.1152 62.7188 42.9648 62.8008V64.4795C42.2441 64.3154 41.4385 64.2334 40.5479 64.2334C39.6631 64.2334 39.0186 64.2803 38.6143 64.374C38.2158 64.4619 37.9023 64.5762 37.6738 64.7168C37.2578 64.9746 37.0498 65.3145 37.0498 65.7363C37.0498 66.1465 37.1816 66.4863 37.4453 66.7559C37.6797 66.9844 38.1074 67.248 38.7285 67.5469L41.04 68.6455C41.8076 69.0088 42.3438 69.3516 42.6484 69.6738C42.959 69.9961 43.1875 70.3213 43.334 70.6494C43.4805 70.9717 43.5537 71.3613 43.5537 71.8184C43.5537 72.2695 43.4541 72.6973 43.2549 73.1016C43.0557 73.5 42.7451 73.8486 42.3232 74.1475ZM49.9521 67.3008C49.085 67.3008 48.3115 67.5967 47.6318 68.1885V75H45.874V61.9219H47.6318V66.9053C48.5811 66.1611 49.5625 65.7891 50.5762 65.7891C51.6602 65.7891 52.4541 66.1113 52.958 66.7559C53.4854 67.4355 53.749 68.5312 53.749 70.043V75H51.9912V70.043C51.9912 68.5898 51.5957 67.7227 50.8047 67.4414C50.5527 67.3477 50.2686 67.3008 49.9521 67.3008ZM56.7725 73.3828C56.5791 73.0488 56.4238 72.6562 56.3066 72.2051C56.1953 71.7539 56.1396 71.165 56.1396 70.4385C56.1396 69.7119 56.2949 69.0439 56.6055 68.4346C56.9219 67.8193 57.332 67.3154 57.8359 66.9229C58.8145 66.167 60.0303 65.7891 61.4834 65.7891C62.2393 65.7891 62.8105 65.8066 63.1973 65.8418C63.1973 65.8418 63.4814 65.8711 64.0498 65.9297V75H62.4678L62.3975 73.9541C62.0459 74.4229 61.5098 74.7715 60.7891 75C60.5137 75.0879 60.2295 75.1318 59.9365 75.1318C59.6494 75.1318 59.3652 75.1025 59.084 75.0439C58.8027 74.9854 58.5215 74.8887 58.2402 74.7539C57.9648 74.6191 57.7012 74.4404 57.4492 74.2178C57.1973 73.9893 56.9717 73.7109 56.7725 73.3828ZM62.292 67.2217C61.917 67.1748 61.542 67.1514 61.167 67.1514C60.7979 67.1514 60.4023 67.2188 59.9805 67.3535C59.5586 67.4824 59.1982 67.6875 58.8994 67.9688C58.2783 68.5547 57.9678 69.4482 57.9678 70.6494C57.9678 71.7861 58.2344 72.627 58.7676 73.1719C59.1719 73.5762 59.6582 73.7783 60.2266 73.7783C60.959 73.7783 61.5625 73.5117 62.0371 72.9785C62.1543 72.8438 62.2393 72.7236 62.292 72.6182V67.2217ZM72.6279 67.5381C72.3057 67.4443 71.9189 67.3975 71.4678 67.3975C71.0225 67.3975 70.6562 67.4443 70.3691 67.5381C70.082 67.626 69.8301 67.7344 69.6133 67.8633C69.2148 68.0977 68.9248 68.3613 68.7432 68.6543V75H66.9854V65.9297H68.6729L68.7432 67.1865C69.1826 66.6357 69.8242 66.2227 70.668 65.9473C70.9727 65.8418 71.3213 65.7891 71.7139 65.7891C72.1064 65.7891 72.4111 65.8184 72.6279 65.877V67.5381ZM76.416 63.293C76.416 63.627 76.3047 63.8848 76.082 64.0664C75.8652 64.2422 75.5928 64.3301 75.2646 64.3301C74.9365 64.3301 74.6641 64.2422 74.4473 64.0664C74.2363 63.8848 74.1309 63.627 74.1309 63.293C74.1309 62.9531 74.2363 62.6953 74.4473 62.5195C74.6641 62.3438 74.9365 62.2559 75.2646 62.2559C75.5928 62.2559 75.8652 62.3438 76.082 62.5195C76.3047 62.6953 76.416 62.9531 76.416 63.293ZM74.3594 65.9297H76.1172V75H74.3594V65.9297ZM82.9727 67.3008C82.0996 67.3008 81.3232 67.5967 80.6436 68.1885V75H78.8857V65.9297H80.5117L80.6348 66.9141C81.5898 66.1641 82.5771 65.7891 83.5967 65.7891C84.6748 65.7891 85.4658 66.1113 85.9697 66.7559C86.4971 67.4355 86.7607 68.5312 86.7607 70.043V75H85.0029V70.043C85.0029 68.5898 84.6104 67.7227 83.8252 67.4414C83.5732 67.3477 83.2891 67.3008 82.9727 67.3008ZM94.5566 78.4629C94.0469 78.5918 93.3906 78.6562 92.5879 78.6562C91.791 78.6562 91.208 78.5977 90.8389 78.4805V76.916C91.3018 77.1152 91.8672 77.2148 92.5352 77.2148C93.209 77.2207 93.7041 77.1768 94.0205 77.083C94.3369 76.9893 94.5859 76.8369 94.7676 76.626C95.0957 76.2451 95.2598 75.5566 95.2598 74.5605V74.0947C94.8145 74.54 94.2285 74.8506 93.502 75.0264C93.209 75.0967 92.916 75.1318 92.623 75.1318C92.3301 75.1318 92.043 75.0996 91.7617 75.0352C91.4863 74.9707 91.2109 74.8682 90.9355 74.7275C90.6602 74.5811 90.3965 74.3936 90.1445 74.165C89.8926 73.9307 89.6699 73.6406 89.4766 73.2949C89.043 72.5449 88.8262 71.6221 88.8262 70.5264C88.8145 69.5127 89.1074 68.6221 89.7051 67.8545C90.2207 67.1865 90.9297 66.668 91.832 66.2988C92.6523 65.959 93.54 65.7891 94.4951 65.7891C95.4502 65.7891 96.291 65.8359 97.0176 65.9297V74.5605C97.0176 76.752 96.1973 78.0527 94.5566 78.4629ZM95.2598 67.2129C94.8848 67.166 94.5156 67.1426 94.1523 67.1426C93.7891 67.1426 93.3818 67.21 92.9307 67.3447C92.4795 67.4795 92.084 67.6846 91.7441 67.96C91 68.5635 90.6279 69.4189 90.6279 70.5264C90.6279 71.7275 90.918 72.6035 91.498 73.1543C91.9316 73.5703 92.4619 73.7783 93.0889 73.7783C93.8447 73.7783 94.4805 73.5117 94.9961 72.9785C95.1191 72.8438 95.207 72.7236 95.2598 72.6182V67.2129ZM105.297 70.4473C105.297 69.0234 105.751 67.8691 106.659 66.9844C107.509 66.1582 108.561 65.7451 109.814 65.7451C111.045 65.7451 112.073 66.1582 112.899 66.9844C113.778 67.8633 114.218 69.0176 114.218 70.4473C114.218 71.8711 113.775 73.0195 112.891 73.8926C112.053 74.7246 111.024 75.1406 109.806 75.1406C108.569 75.1406 107.521 74.7246 106.659 73.8926C105.751 73.0195 105.297 71.8711 105.297 70.4473ZM107.125 70.4473C107.125 71.9473 107.605 72.9668 108.566 73.5059C108.906 73.6934 109.313 73.7871 109.788 73.7871C110.263 73.7871 110.664 73.6934 110.992 73.5059C111.32 73.3125 111.59 73.0605 111.801 72.75C112.193 72.1523 112.39 71.3848 112.39 70.4473C112.39 68.959 111.918 67.9395 110.975 67.3887C110.646 67.1953 110.254 67.0986 109.797 67.0986C109.34 67.0986 108.941 67.1953 108.602 67.3887C108.268 67.5762 107.992 67.8252 107.775 68.1357C107.342 68.7451 107.125 69.5156 107.125 70.4473ZM120.985 63.2402C120.774 63.1699 120.481 63.1348 120.106 63.1348C119.731 63.1348 119.433 63.1699 119.21 63.2402C118.993 63.3105 118.82 63.4131 118.691 63.5479C118.469 63.7881 118.357 64.1807 118.357 64.7256V65.9297H120.625V67.2744H118.357V75H116.6V67.2744H115.51V66.4482L116.6 65.9297V64.9629C116.6 64.3477 116.652 63.8848 116.758 63.5742C116.869 63.2637 117.001 63.0059 117.153 62.8008C117.306 62.5957 117.511 62.417 117.769 62.2646C118.313 61.9424 119.078 61.7812 120.062 61.7812C120.473 61.7812 120.78 61.8047 120.985 61.8516V63.2402ZM130.609 75.1406C129.877 75.1406 129.136 75.0879 128.386 74.9824V73.4268C129.147 73.6084 129.921 73.6992 130.706 73.6992C132.276 73.6992 133.062 73.3682 133.062 72.7061C133.062 72.4541 133 72.2666 132.877 72.1436C132.695 71.9502 132.408 71.7568 132.016 71.5635L130.732 70.9746C129.9 70.5586 129.361 70.2246 129.115 69.9727C128.652 69.5039 128.421 68.9473 128.421 68.3027C128.421 67.5762 128.758 66.9844 129.432 66.5273C130.158 66.0352 131.178 65.7891 132.49 65.7891C133.152 65.7891 133.82 65.8359 134.494 65.9297V67.4326C133.756 67.2979 133.111 67.2305 132.561 67.2305C132.016 67.2305 131.591 67.2656 131.286 67.3359C130.987 67.4062 130.762 67.4941 130.609 67.5996C130.369 67.7637 130.249 67.9775 130.249 68.2412C130.249 68.499 130.331 68.71 130.495 68.874C130.665 69.0322 130.929 69.2051 131.286 69.3926L132.578 70.0166C133.422 70.4561 133.964 70.793 134.204 71.0273C134.661 71.4727 134.89 72.0322 134.89 72.7061C134.89 73.4268 134.526 74.0068 133.8 74.4463C133.038 74.9092 131.975 75.1406 130.609 75.1406ZM141.622 75.1406C138.306 75.1406 136.647 73.5205 136.647 70.2803C136.647 68.8857 137.107 67.7695 138.027 66.9316C138.854 66.1699 139.797 65.7891 140.857 65.7891C142.012 65.7891 142.914 66.1758 143.564 66.9492C144.168 67.6699 144.47 68.6338 144.47 69.8408V70.5264H138.476C138.476 72.1846 139.152 73.1982 140.506 73.5674C140.828 73.6553 141.323 73.6992 141.991 73.6992C142.665 73.6992 143.324 73.6084 143.969 73.4268V74.9121C143.324 75.0645 142.542 75.1406 141.622 75.1406ZM142.712 69.2344C142.712 68.6719 142.557 68.1973 142.246 67.8105C141.883 67.3652 141.382 67.1426 140.743 67.1426C140.069 67.1426 139.521 67.3564 139.1 67.7842C138.713 68.1826 138.52 68.666 138.52 69.2344H142.712ZM150.49 67.3008C149.617 67.3008 148.841 67.5967 148.161 68.1885V75H146.403V65.9297H148.029L148.152 66.9141C149.107 66.1641 150.095 65.7891 151.114 65.7891C152.192 65.7891 152.983 66.1113 153.487 66.7559C154.015 67.4355 154.278 68.5312 154.278 70.043V75H152.521V70.043C152.521 68.5898 152.128 67.7227 151.343 67.4414C151.091 67.3477 150.807 67.3008 150.49 67.3008ZM159.139 75.1406C158.406 75.1406 157.665 75.0879 156.915 74.9824V73.4268C157.677 73.6084 158.45 73.6992 159.235 73.6992C160.806 73.6992 161.591 73.3682 161.591 72.7061C161.591 72.4541 161.529 72.2666 161.406 72.1436C161.225 71.9502 160.938 71.7568 160.545 71.5635L159.262 70.9746C158.43 70.5586 157.891 70.2246 157.645 69.9727C157.182 69.5039 156.95 68.9473 156.95 68.3027C156.95 67.5762 157.287 66.9844 157.961 66.5273C158.688 66.0352 159.707 65.7891 161.02 65.7891C161.682 65.7891 162.35 65.8359 163.023 65.9297V67.4326C162.285 67.2979 161.641 67.2305 161.09 67.2305C160.545 67.2305 160.12 67.2656 159.815 67.3359C159.517 67.4062 159.291 67.4941 159.139 67.5996C158.898 67.7637 158.778 67.9775 158.778 68.2412C158.778 68.499 158.86 68.71 159.024 68.874C159.194 69.0322 159.458 69.2051 159.815 69.3926L161.107 70.0166C161.951 70.4561 162.493 70.793 162.733 71.0273C163.19 71.4727 163.419 72.0322 163.419 72.7061C163.419 73.4268 163.056 74.0068 162.329 74.4463C161.567 74.9092 160.504 75.1406 159.139 75.1406ZM167.963 63.293C167.963 63.627 167.852 63.8848 167.629 64.0664C167.412 64.2422 167.14 64.3301 166.812 64.3301C166.483 64.3301 166.211 64.2422 165.994 64.0664C165.783 63.8848 165.678 63.627 165.678 63.293C165.678 62.9531 165.783 62.6953 165.994 62.5195C166.211 62.3438 166.483 62.2559 166.812 62.2559C167.14 62.2559 167.412 62.3438 167.629 62.5195C167.852 62.6953 167.963 62.9531 167.963 63.293ZM165.906 65.9297H167.664V75H165.906V65.9297ZM173.693 73.6113C173.887 73.6816 174.18 73.7168 174.572 73.7168C174.965 73.7168 175.293 73.6699 175.557 73.5762V74.9824C175.434 75.0117 175.255 75.0293 175.021 75.0352L174.467 75.0527C174.344 75.0527 174.25 75.0527 174.186 75.0527C173.055 75.0527 172.22 74.6836 171.681 73.9453C171.247 73.3477 171.03 72.5566 171.03 71.5723V67.2744H169.729V66.4482L171.03 65.9297L171.452 63.6797H172.788V65.9297H175.601V67.2744H172.788V71.5635C172.788 72.7119 173.09 73.3945 173.693 73.6113ZM179.986 63.293C179.986 63.627 179.875 63.8848 179.652 64.0664C179.436 64.2422 179.163 64.3301 178.835 64.3301C178.507 64.3301 178.234 64.2422 178.018 64.0664C177.807 63.8848 177.701 63.627 177.701 63.293C177.701 62.9531 177.807 62.6953 178.018 62.5195C178.234 62.3438 178.507 62.2559 178.835 62.2559C179.163 62.2559 179.436 62.3438 179.652 62.5195C179.875 62.6953 179.986 62.9531 179.986 63.293ZM177.93 65.9297H179.688V75H177.93V65.9297ZM181.217 65.9297H183.106L185.576 73.2861L188.055 65.9297H189.936L186.464 75H184.697L181.217 65.9297ZM195.675 75.1406C192.358 75.1406 190.7 73.5205 190.7 70.2803C190.7 68.8857 191.16 67.7695 192.08 66.9316C192.906 66.1699 193.85 65.7891 194.91 65.7891C196.064 65.7891 196.967 66.1758 197.617 66.9492C198.221 67.6699 198.522 68.6338 198.522 69.8408V70.5264H192.528C192.528 72.1846 193.205 73.1982 194.559 73.5674C194.881 73.6553 195.376 73.6992 196.044 73.6992C196.718 73.6992 197.377 73.6084 198.021 73.4268V74.9121C197.377 75.0645 196.595 75.1406 195.675 75.1406ZM196.765 69.2344C196.765 68.6719 196.609 68.1973 196.299 67.8105C195.936 67.3652 195.435 67.1426 194.796 67.1426C194.122 67.1426 193.574 67.3564 193.152 67.7842C192.766 68.1826 192.572 68.666 192.572 69.2344H196.765ZM208.498 63.293C208.498 63.627 208.387 63.8848 208.164 64.0664C207.947 64.2422 207.675 64.3301 207.347 64.3301C207.019 64.3301 206.746 64.2422 206.529 64.0664C206.318 63.8848 206.213 63.627 206.213 63.293C206.213 62.9531 206.318 62.6953 206.529 62.5195C206.746 62.3438 207.019 62.2559 207.347 62.2559C207.675 62.2559 207.947 62.3438 208.164 62.5195C208.387 62.6953 208.498 62.9531 208.498 63.293ZM206.441 65.9297H208.199V75H206.441V65.9297ZM215.055 67.3008C214.182 67.3008 213.405 67.5967 212.726 68.1885V75H210.968V65.9297H212.594L212.717 66.9141C213.672 66.1641 214.659 65.7891 215.679 65.7891C216.757 65.7891 217.548 66.1113 218.052 66.7559C218.579 67.4355 218.843 68.5312 218.843 70.043V75H217.085V70.043C217.085 68.5898 216.692 67.7227 215.907 67.4414C215.655 67.3477 215.371 67.3008 215.055 67.3008ZM226.085 63.2402C225.874 63.1699 225.581 63.1348 225.206 63.1348C224.831 63.1348 224.532 63.1699 224.31 63.2402C224.093 63.3105 223.92 63.4131 223.791 63.5479C223.568 63.7881 223.457 64.1807 223.457 64.7256V65.9297H225.725V67.2744H223.457V75H221.699V67.2744H220.609V66.4482L221.699 65.9297V64.9629C221.699 64.3477 221.752 63.8848 221.857 63.5742C221.969 63.2637 222.101 63.0059 222.253 62.8008C222.405 62.5957 222.61 62.417 222.868 62.2646C223.413 61.9424 224.178 61.7812 225.162 61.7812C225.572 61.7812 225.88 61.8047 226.085 61.8516V63.2402ZM226.902 70.4473C226.902 69.0234 227.356 67.8691 228.265 66.9844C229.114 66.1582 230.166 65.7451 231.42 65.7451C232.65 65.7451 233.679 66.1582 234.505 66.9844C235.384 67.8633 235.823 69.0176 235.823 70.4473C235.823 71.8711 235.381 73.0195 234.496 73.8926C233.658 74.7246 232.63 75.1406 231.411 75.1406C230.175 75.1406 229.126 74.7246 228.265 73.8926C227.356 73.0195 226.902 71.8711 226.902 70.4473ZM228.73 70.4473C228.73 71.9473 229.211 72.9668 230.172 73.5059C230.512 73.6934 230.919 73.7871 231.394 73.7871C231.868 73.7871 232.27 73.6934 232.598 73.5059C232.926 73.3125 233.195 73.0605 233.406 72.75C233.799 72.1523 233.995 71.3848 233.995 70.4473C233.995 68.959 233.523 67.9395 232.58 67.3887C232.252 67.1953 231.859 67.0986 231.402 67.0986C230.945 67.0986 230.547 67.1953 230.207 67.3887C229.873 67.5762 229.598 67.8252 229.381 68.1357C228.947 68.7451 228.73 69.5156 228.73 70.4473ZM243.751 67.5381C243.429 67.4443 243.042 67.3975 242.591 67.3975C242.146 67.3975 241.779 67.4443 241.492 67.5381C241.205 67.626 240.953 67.7344 240.736 67.8633C240.338 68.0977 240.048 68.3613 239.866 68.6543V75H238.108V65.9297H239.796L239.866 67.1865C240.306 66.6357 240.947 66.2227 241.791 65.9473C242.096 65.8418 242.444 65.7891 242.837 65.7891C243.229 65.7891 243.534 65.8184 243.751 65.877V67.5381ZM247.284 68.1885L247.293 75H245.535V65.9297H247.152L247.275 66.9229C247.92 66.3838 248.67 66.0322 249.525 65.8682C249.801 65.8154 250.07 65.7891 250.334 65.7891C251.43 65.7891 252.256 66.252 252.812 67.1777C253.832 66.252 254.898 65.7891 256.012 65.7891C257.113 65.7891 257.916 66.1201 258.42 66.7822C258.924 67.4561 259.176 68.5693 259.176 70.1221V75H257.418V70.1836C257.418 68.6602 257.052 67.749 256.319 67.4502C256.073 67.3506 255.786 67.3008 255.458 67.3008C254.673 67.3008 253.952 67.582 253.296 68.1445V75H251.538V70.1133C251.538 69.0703 251.383 68.3379 251.072 67.916C250.773 67.5059 250.237 67.3008 249.464 67.3008C248.696 67.3008 247.97 67.5967 247.284 68.1885ZM262.401 73.3828C262.208 73.0488 262.053 72.6562 261.936 72.2051C261.824 71.7539 261.769 71.165 261.769 70.4385C261.769 69.7119 261.924 69.0439 262.234 68.4346C262.551 67.8193 262.961 67.3154 263.465 66.9229C264.443 66.167 265.659 65.7891 267.112 65.7891C267.868 65.7891 268.439 65.8066 268.826 65.8418C268.826 65.8418 269.11 65.8711 269.679 65.9297V75H268.097L268.026 73.9541C267.675 74.4229 267.139 74.7715 266.418 75C266.143 75.0879 265.858 75.1318 265.565 75.1318C265.278 75.1318 264.994 75.1025 264.713 75.0439C264.432 74.9854 264.15 74.8887 263.869 74.7539C263.594 74.6191 263.33 74.4404 263.078 74.2178C262.826 73.9893 262.601 73.7109 262.401 73.3828ZM267.921 67.2217C267.546 67.1748 267.171 67.1514 266.796 67.1514C266.427 67.1514 266.031 67.2188 265.609 67.3535C265.188 67.4824 264.827 67.6875 264.528 67.9688C263.907 68.5547 263.597 69.4482 263.597 70.6494C263.597 71.7861 263.863 72.627 264.396 73.1719C264.801 73.5762 265.287 73.7783 265.855 73.7783C266.588 73.7783 267.191 73.5117 267.666 72.9785C267.783 72.8438 267.868 72.7236 267.921 72.6182V67.2217ZM275.752 73.6113C275.945 73.6816 276.238 73.7168 276.631 73.7168C277.023 73.7168 277.352 73.6699 277.615 73.5762V74.9824C277.492 75.0117 277.313 75.0293 277.079 75.0352L276.525 75.0527C276.402 75.0527 276.309 75.0527 276.244 75.0527C275.113 75.0527 274.278 74.6836 273.739 73.9453C273.306 73.3477 273.089 72.5566 273.089 71.5723V67.2744H271.788V66.4482L273.089 65.9297L273.511 63.6797H274.847V65.9297H277.659V67.2744H274.847V71.5635C274.847 72.7119 275.148 73.3945 275.752 73.6113ZM282.045 63.293C282.045 63.627 281.934 63.8848 281.711 64.0664C281.494 64.2422 281.222 64.3301 280.894 64.3301C280.565 64.3301 280.293 64.2422 280.076 64.0664C279.865 63.8848 279.76 63.627 279.76 63.293C279.76 62.9531 279.865 62.6953 280.076 62.5195C280.293 62.3438 280.565 62.2559 280.894 62.2559C281.222 62.2559 281.494 62.3438 281.711 62.5195C281.934 62.6953 282.045 62.9531 282.045 63.293ZM279.988 65.9297H281.746V75H279.988V65.9297ZM283.926 70.4473C283.926 69.0234 284.38 67.8691 285.288 66.9844C286.138 66.1582 287.189 65.7451 288.443 65.7451C289.674 65.7451 290.702 66.1582 291.528 66.9844C292.407 67.8633 292.847 69.0176 292.847 70.4473C292.847 71.8711 292.404 73.0195 291.52 73.8926C290.682 74.7246 289.653 75.1406 288.435 75.1406C287.198 75.1406 286.149 74.7246 285.288 73.8926C284.38 73.0195 283.926 71.8711 283.926 70.4473ZM285.754 70.4473C285.754 71.9473 286.234 72.9668 287.195 73.5059C287.535 73.6934 287.942 73.7871 288.417 73.7871C288.892 73.7871 289.293 73.6934 289.621 73.5059C289.949 73.3125 290.219 73.0605 290.43 72.75C290.822 72.1523 291.019 71.3848 291.019 70.4473C291.019 68.959 290.547 67.9395 289.604 67.3887C289.275 67.1953 288.883 67.0986 288.426 67.0986C287.969 67.0986 287.57 67.1953 287.23 67.3887C286.896 67.5762 286.621 67.8252 286.404 68.1357C285.971 68.7451 285.754 69.5156 285.754 70.4473ZM299.096 67.3008C298.223 67.3008 297.446 67.5967 296.767 68.1885V75H295.009V65.9297H296.635L296.758 66.9141C297.713 66.1641 298.7 65.7891 299.72 65.7891C300.798 65.7891 301.589 66.1113 302.093 66.7559C302.62 67.4355 302.884 68.5312 302.884 70.043V75H301.126V70.043C301.126 68.5898 300.733 67.7227 299.948 67.4414C299.696 67.3477 299.412 67.3008 299.096 67.3008ZM317.86 73.9893C317.356 74.3818 316.785 74.6719 316.146 74.8594C315.514 75.041 314.828 75.1318 314.09 75.1318C313.357 75.1318 312.537 75.0879 311.629 75V61.9219H313.387V66.835C313.773 66.3955 314.31 66.082 314.995 65.8945C315.253 65.8242 315.517 65.7891 315.786 65.7891C316.062 65.7891 316.34 65.8184 316.621 65.877C316.902 65.9297 317.181 66.0234 317.456 66.1582C317.737 66.293 318.004 66.4717 318.256 66.6943C318.508 66.917 318.73 67.1953 318.924 67.5293C319.352 68.2441 319.565 69.0938 319.565 70.0781C319.565 71.0566 319.407 71.8535 319.091 72.4688C318.78 73.084 318.37 73.5908 317.86 73.9893ZM313.396 73.708C313.56 73.7549 313.882 73.7783 314.362 73.7783C314.843 73.7783 315.294 73.7109 315.716 73.5762C316.138 73.4414 316.498 73.2305 316.797 72.9434C317.424 72.3398 317.737 71.4404 317.737 70.2451C317.737 68.7861 317.312 67.8311 316.463 67.3799C316.158 67.2217 315.848 67.1426 315.531 67.1426C315.215 67.1426 314.939 67.1836 314.705 67.2656C314.471 67.3477 314.266 67.4473 314.09 67.5645C313.756 67.793 313.524 68.0391 313.396 68.3027V73.708ZM326.228 75.1406C322.911 75.1406 321.253 73.5205 321.253 70.2803C321.253 68.8857 321.713 67.7695 322.633 66.9316C323.459 66.1699 324.402 65.7891 325.463 65.7891C326.617 65.7891 327.52 66.1758 328.17 66.9492C328.773 67.6699 329.075 68.6338 329.075 69.8408V70.5264H323.081C323.081 72.1846 323.758 73.1982 325.111 73.5674C325.434 73.6553 325.929 73.6992 326.597 73.6992C327.271 73.6992 327.93 73.6084 328.574 73.4268V74.9121C327.93 75.0645 327.147 75.1406 326.228 75.1406ZM327.317 69.2344C327.317 68.6719 327.162 68.1973 326.852 67.8105C326.488 67.3652 325.987 67.1426 325.349 67.1426C324.675 67.1426 324.127 67.3564 323.705 67.7842C323.318 68.1826 323.125 68.666 323.125 69.2344H327.317ZM334.27 73.6113C334.463 73.6816 334.756 73.7168 335.148 73.7168C335.541 73.7168 335.869 73.6699 336.133 73.5762V74.9824C336.01 75.0117 335.831 75.0293 335.597 75.0352L335.043 75.0527C334.92 75.0527 334.826 75.0527 334.762 75.0527C333.631 75.0527 332.796 74.6836 332.257 73.9453C331.823 73.3477 331.606 72.5566 331.606 71.5723V67.2744H330.306V66.4482L331.606 65.9297L332.028 63.6797H333.364V65.9297H336.177V67.2744H333.364V71.5635C333.364 72.7119 333.666 73.3945 334.27 73.6113ZM337.293 65.9297H339.165L341.494 73.1367L343.85 65.9297H345.678L348.06 73.1104L350.274 65.9297H352.015L348.965 75H347.154L344.711 68.127L342.399 75H340.589L337.293 65.9297ZM357.763 75.1406C354.446 75.1406 352.788 73.5205 352.788 70.2803C352.788 68.8857 353.248 67.7695 354.168 66.9316C354.994 66.1699 355.938 65.7891 356.998 65.7891C358.152 65.7891 359.055 66.1758 359.705 66.9492C360.309 67.6699 360.61 68.6338 360.61 69.8408V70.5264H354.616C354.616 72.1846 355.293 73.1982 356.646 73.5674C356.969 73.6553 357.464 73.6992 358.132 73.6992C358.806 73.6992 359.465 73.6084 360.109 73.4268V74.9121C359.465 75.0645 358.683 75.1406 357.763 75.1406ZM358.853 69.2344C358.853 68.6719 358.697 68.1973 358.387 67.8105C358.023 67.3652 357.522 67.1426 356.884 67.1426C356.21 67.1426 355.662 67.3564 355.24 67.7842C354.854 68.1826 354.66 68.666 354.66 69.2344H358.853ZM366.78 75.1406C363.464 75.1406 361.806 73.5205 361.806 70.2803C361.806 68.8857 362.266 67.7695 363.186 66.9316C364.012 66.1699 364.955 65.7891 366.016 65.7891C367.17 65.7891 368.072 66.1758 368.723 66.9492C369.326 67.6699 369.628 68.6338 369.628 69.8408V70.5264H363.634C363.634 72.1846 364.311 73.1982 365.664 73.5674C365.986 73.6553 366.481 73.6992 367.149 73.6992C367.823 73.6992 368.482 73.6084 369.127 73.4268V74.9121C368.482 75.0645 367.7 75.1406 366.78 75.1406ZM367.87 69.2344C367.87 68.6719 367.715 68.1973 367.404 67.8105C367.041 67.3652 366.54 67.1426 365.901 67.1426C365.228 67.1426 364.68 67.3564 364.258 67.7842C363.871 68.1826 363.678 68.666 363.678 69.2344H367.87ZM375.648 67.3008C374.775 67.3008 373.999 67.5967 373.319 68.1885V75H371.562V65.9297H373.188L373.311 66.9141C374.266 66.1641 375.253 65.7891 376.272 65.7891C377.351 65.7891 378.142 66.1113 378.646 66.7559C379.173 67.4355 379.437 68.5312 379.437 70.043V75H377.679V70.043C377.679 68.5898 377.286 67.7227 376.501 67.4414C376.249 67.3477 375.965 67.3008 375.648 67.3008ZM389.957 78.5156H388.199V65.9297H389.781L389.852 66.9668C390.203 66.498 390.742 66.1494 391.469 65.9209C391.75 65.833 392.034 65.7891 392.321 65.7891C392.614 65.7891 392.901 65.8213 393.183 65.8857C393.464 65.9443 393.742 66.0439 394.018 66.1846C394.293 66.3193 394.557 66.501 394.809 66.7295C395.061 66.9521 395.283 67.2305 395.477 67.5645C395.898 68.2852 396.109 69.1787 396.109 70.2451C396.109 71.874 395.547 73.1191 394.422 73.9805C393.426 74.748 392.213 75.1318 390.783 75.1318H390.344C390.203 75.1318 390.074 75.1289 389.957 75.123V78.5156ZM389.957 73.6992C390.121 73.7461 390.443 73.7695 390.924 73.7695C391.404 73.7695 391.855 73.7021 392.277 73.5674C392.699 73.4326 393.057 73.2246 393.35 72.9434C393.971 72.3457 394.281 71.4463 394.281 70.2451C394.281 69.1143 394.012 68.2793 393.473 67.7402C393.074 67.3418 392.588 67.1426 392.014 67.1426C391.293 67.1426 390.695 67.4092 390.221 67.9424C390.098 68.0771 390.01 68.1973 389.957 68.3027V73.6992ZM398.983 73.3828C398.79 73.0488 398.635 72.6562 398.518 72.2051C398.406 71.7539 398.351 71.165 398.351 70.4385C398.351 69.7119 398.506 69.0439 398.816 68.4346C399.133 67.8193 399.543 67.3154 400.047 66.9229C401.025 66.167 402.241 65.7891 403.694 65.7891C404.45 65.7891 405.021 65.8066 405.408 65.8418C405.408 65.8418 405.692 65.8711 406.261 65.9297V75H404.679L404.608 73.9541C404.257 74.4229 403.721 74.7715 403 75C402.725 75.0879 402.44 75.1318 402.147 75.1318C401.86 75.1318 401.576 75.1025 401.295 75.0439C401.014 74.9854 400.732 74.8887 400.451 74.7539C400.176 74.6191 399.912 74.4404 399.66 74.2178C399.408 73.9893 399.183 73.7109 398.983 73.3828ZM404.503 67.2217C404.128 67.1748 403.753 67.1514 403.378 67.1514C403.009 67.1514 402.613 67.2188 402.191 67.3535C401.77 67.4824 401.409 67.6875 401.11 67.9688C400.489 68.5547 400.179 69.4482 400.179 70.6494C400.179 71.7861 400.445 72.627 400.979 73.1719C401.383 73.5762 401.869 73.7783 402.438 73.7783C403.17 73.7783 403.773 73.5117 404.248 72.9785C404.365 72.8438 404.45 72.7236 404.503 72.6182V67.2217ZM414.839 67.5381C414.517 67.4443 414.13 67.3975 413.679 67.3975C413.233 67.3975 412.867 67.4443 412.58 67.5381C412.293 67.626 412.041 67.7344 411.824 67.8633C411.426 68.0977 411.136 68.3613 410.954 68.6543V75H409.196V65.9297H410.884L410.954 67.1865C411.394 66.6357 412.035 66.2227 412.879 65.9473C413.184 65.8418 413.532 65.7891 413.925 65.7891C414.317 65.7891 414.622 65.8184 414.839 65.877V67.5381ZM419.84 73.6113C420.033 73.6816 420.326 73.7168 420.719 73.7168C421.111 73.7168 421.439 73.6699 421.703 73.5762V74.9824C421.58 75.0117 421.401 75.0293 421.167 75.0352L420.613 75.0527C420.49 75.0527 420.396 75.0527 420.332 75.0527C419.201 75.0527 418.366 74.6836 417.827 73.9453C417.394 73.3477 417.177 72.5566 417.177 71.5723V67.2744H415.876V66.4482L417.177 65.9297L417.599 63.6797H418.935V65.9297H421.747V67.2744H418.935V71.5635C418.935 72.7119 419.236 73.3945 419.84 73.6113ZM426.133 63.293C426.133 63.627 426.021 63.8848 425.799 64.0664C425.582 64.2422 425.31 64.3301 424.981 64.3301C424.653 64.3301 424.381 64.2422 424.164 64.0664C423.953 63.8848 423.848 63.627 423.848 63.293C423.848 62.9531 423.953 62.6953 424.164 62.5195C424.381 62.3438 424.653 62.2559 424.981 62.2559C425.31 62.2559 425.582 62.3438 425.799 62.5195C426.021 62.6953 426.133 62.9531 426.133 63.293ZM424.076 65.9297H425.834V75H424.076V65.9297ZM432.839 75.1406C429.522 75.1406 427.864 73.5205 427.864 70.2803C427.864 68.8857 428.324 67.7695 429.244 66.9316C430.07 66.1699 431.014 65.7891 432.074 65.7891C433.229 65.7891 434.131 66.1758 434.781 66.9492C435.385 67.6699 435.687 68.6338 435.687 69.8408V70.5264H429.692C429.692 72.1846 430.369 73.1982 431.723 73.5674C432.045 73.6553 432.54 73.6992 433.208 73.6992C433.882 73.6992 434.541 73.6084 435.186 73.4268V74.9121C434.541 75.0645 433.759 75.1406 432.839 75.1406ZM433.929 69.2344C433.929 68.6719 433.773 68.1973 433.463 67.8105C433.1 67.3652 432.599 67.1426 431.96 67.1426C431.286 67.1426 430.738 67.3564 430.316 67.7842C429.93 68.1826 429.736 68.666 429.736 69.2344H433.929ZM439.844 75.1406C439.111 75.1406 438.37 75.0879 437.62 74.9824V73.4268C438.382 73.6084 439.155 73.6992 439.94 73.6992C441.511 73.6992 442.296 73.3682 442.296 72.7061C442.296 72.4541 442.234 72.2666 442.111 72.1436C441.93 71.9502 441.643 71.7568 441.25 71.5635L439.967 70.9746C439.135 70.5586 438.596 70.2246 438.35 69.9727C437.887 69.5039 437.655 68.9473 437.655 68.3027C437.655 67.5762 437.992 66.9844 438.666 66.5273C439.393 66.0352 440.412 65.7891 441.725 65.7891C442.387 65.7891 443.055 65.8359 443.729 65.9297V67.4326C442.99 67.2979 442.346 67.2305 441.795 67.2305C441.25 67.2305 440.825 67.2656 440.521 67.3359C440.222 67.4062 439.996 67.4941 439.844 67.5996C439.604 67.7637 439.483 67.9775 439.483 68.2412C439.483 68.499 439.565 68.71 439.729 68.874C439.899 69.0322 440.163 69.2051 440.521 69.3926L441.812 70.0166C442.656 70.4561 443.198 70.793 443.438 71.0273C443.896 71.4727 444.124 72.0322 444.124 72.7061C444.124 73.4268 443.761 74.0068 443.034 74.4463C442.272 74.9092 441.209 75.1406 439.844 75.1406ZM452.746 69.0938H458.723V70.4473H452.746V69.0938ZM43.668 98.9297C43.0879 99.0352 42.3057 99.0879 41.3213 99.0879C40.3428 99.0879 39.458 98.9531 38.667 98.6836C37.8818 98.4141 37.2051 98.0156 36.6367 97.4883C35.418 96.3574 34.8086 94.7812 34.8086 92.7598C34.8086 91.4414 35.1221 90.2988 35.749 89.332C36.5986 88.0254 37.9023 87.1934 39.6602 86.8359C40.1992 86.7305 40.8408 86.6777 41.585 86.6777C42.335 86.6777 42.9355 86.7188 43.3867 86.8008V88.4795C42.9766 88.3506 42.3408 88.2861 41.4795 88.2861C40.624 88.2861 39.8975 88.3916 39.2998 88.6025C38.7021 88.8135 38.207 89.1152 37.8145 89.5078C37.0293 90.2754 36.6367 91.3594 36.6367 92.7598C36.6367 94.1719 37.0234 95.291 37.7969 96.1172C38.6348 97.0078 39.8389 97.4531 41.4092 97.4531C42.3291 97.4531 43.082 97.3828 43.668 97.2422V98.9297ZM45.2852 94.4473C45.2852 93.0234 45.7393 91.8691 46.6475 90.9844C47.4971 90.1582 48.5488 89.7451 49.8027 89.7451C51.0332 89.7451 52.0615 90.1582 52.8877 90.9844C53.7666 91.8633 54.2061 93.0176 54.2061 94.4473C54.2061 95.8711 53.7637 97.0195 52.8789 97.8926C52.041 98.7246 51.0127 99.1406 49.7939 99.1406C48.5576 99.1406 47.5088 98.7246 46.6475 97.8926C45.7393 97.0195 45.2852 95.8711 45.2852 94.4473ZM47.1133 94.4473C47.1133 95.9473 47.5938 96.9668 48.5547 97.5059C48.8945 97.6934 49.3018 97.7871 49.7764 97.7871C50.251 97.7871 50.6523 97.6934 50.9805 97.5059C51.3086 97.3125 51.5781 97.0605 51.7891 96.75C52.1816 96.1523 52.3779 95.3848 52.3779 94.4473C52.3779 92.959 51.9062 91.9395 50.9629 91.3887C50.6348 91.1953 50.2422 91.0986 49.7852 91.0986C49.3281 91.0986 48.9297 91.1953 48.5898 91.3887C48.2559 91.5762 47.9805 91.8252 47.7637 92.1357C47.3301 92.7451 47.1133 93.5156 47.1133 94.4473ZM60.4551 91.3008C59.582 91.3008 58.8057 91.5967 58.126 92.1885V99H56.3682V89.9297H57.9941L58.1172 90.9141C59.0723 90.1641 60.0596 89.7891 61.0791 89.7891C62.1572 89.7891 62.9482 90.1113 63.4521 90.7559C63.9795 91.4355 64.2432 92.5312 64.2432 94.043V99H62.4854V94.043C62.4854 92.5898 62.0928 91.7227 61.3076 91.4414C61.0557 91.3477 60.7715 91.3008 60.4551 91.3008ZM70.1406 97.6113C70.334 97.6816 70.627 97.7168 71.0195 97.7168C71.4121 97.7168 71.7402 97.6699 72.0039 97.5762V98.9824C71.8809 99.0117 71.7021 99.0293 71.4678 99.0352L70.9141 99.0527C70.791 99.0527 70.6973 99.0527 70.6328 99.0527C69.502 99.0527 68.667 98.6836 68.1279 97.9453C67.6943 97.3477 67.4775 96.5566 67.4775 95.5723V91.2744H66.1768V90.4482L67.4775 89.9297L67.8994 87.6797H69.2354V89.9297H72.0479V91.2744H69.2354V95.5635C69.2354 96.7119 69.5371 97.3945 70.1406 97.6113ZM80.1514 91.5381C79.8291 91.4443 79.4424 91.3975 78.9912 91.3975C78.5459 91.3975 78.1797 91.4443 77.8926 91.5381C77.6055 91.626 77.3535 91.7344 77.1367 91.8633C76.7383 92.0977 76.4482 92.3613 76.2666 92.6543V99H74.5088V89.9297H76.1963L76.2666 91.1865C76.7061 90.6357 77.3477 90.2227 78.1914 89.9473C78.4961 89.8418 78.8447 89.7891 79.2373 89.7891C79.6299 89.7891 79.9346 89.8184 80.1514 89.877V91.5381ZM82.2959 97.3828C82.1025 97.0488 81.9473 96.6562 81.8301 96.2051C81.7188 95.7539 81.6631 95.165 81.6631 94.4385C81.6631 93.7119 81.8184 93.0439 82.1289 92.4346C82.4453 91.8193 82.8555 91.3154 83.3594 90.9229C84.3379 90.167 85.5537 89.7891 87.0068 89.7891C87.7627 89.7891 88.334 89.8066 88.7207 89.8418C88.7207 89.8418 89.0049 89.8711 89.5732 89.9297V99H87.9912L87.9209 97.9541C87.5693 98.4229 87.0332 98.7715 86.3125 99C86.0371 99.0879 85.7529 99.1318 85.46 99.1318C85.1729 99.1318 84.8887 99.1025 84.6074 99.0439C84.3262 98.9854 84.0449 98.8887 83.7637 98.7539C83.4883 98.6191 83.2246 98.4404 82.9727 98.2178C82.7207 97.9893 82.4951 97.7109 82.2959 97.3828ZM87.8154 91.2217C87.4404 91.1748 87.0654 91.1514 86.6904 91.1514C86.3213 91.1514 85.9258 91.2188 85.5039 91.3535C85.082 91.4824 84.7217 91.6875 84.4229 91.9688C83.8018 92.5547 83.4912 93.4482 83.4912 94.6494C83.4912 95.7861 83.7578 96.627 84.291 97.1719C84.6953 97.5762 85.1816 97.7783 85.75 97.7783C86.4824 97.7783 87.0859 97.5117 87.5605 96.9785C87.6777 96.8438 87.7627 96.7236 87.8154 96.6182V91.2217ZM98.8984 98.9736C98.5469 99.085 97.9375 99.1406 97.0703 99.1406C96.2031 99.1406 95.4648 99.0352 94.8555 98.8242C94.252 98.6133 93.7363 98.3027 93.3086 97.8926C92.4238 97.043 91.9814 95.8652 91.9814 94.3594C91.9814 92.9004 92.5117 91.752 93.5723 90.9141C94.5215 90.1641 95.6875 89.7891 97.0703 89.7891C97.9258 89.7891 98.5117 89.8184 98.8281 89.877V91.4414C98.3359 91.2832 97.7734 91.2041 97.1406 91.2041C96.5137 91.2041 95.9922 91.292 95.5762 91.4678C95.1602 91.6377 94.8203 91.8691 94.5566 92.1621C94.0586 92.7188 93.8096 93.4512 93.8096 94.3594C93.8096 95.8945 94.3633 96.917 95.4707 97.4268C95.8633 97.6084 96.2471 97.6992 96.6221 97.6992C96.9971 97.6992 97.2842 97.6904 97.4834 97.6729C97.6885 97.6553 97.8818 97.6318 98.0635 97.6025C98.4502 97.5381 98.7285 97.4707 98.8984 97.4004V98.9736ZM104.629 97.6113C104.822 97.6816 105.115 97.7168 105.508 97.7168C105.9 97.7168 106.229 97.6699 106.492 97.5762V98.9824C106.369 99.0117 106.19 99.0293 105.956 99.0352L105.402 99.0527C105.279 99.0527 105.186 99.0527 105.121 99.0527C103.99 99.0527 103.155 98.6836 102.616 97.9453C102.183 97.3477 101.966 96.5566 101.966 95.5723V91.2744H100.665V90.4482L101.966 89.9297L102.388 87.6797H103.724V89.9297H106.536V91.2744H103.724V95.5635C103.724 96.7119 104.025 97.3945 104.629 97.6113ZM114.279 94.4473C114.279 93.0234 114.733 91.8691 115.642 90.9844C116.491 90.1582 117.543 89.7451 118.797 89.7451C120.027 89.7451 121.056 90.1582 121.882 90.9844C122.761 91.8633 123.2 93.0176 123.2 94.4473C123.2 95.8711 122.758 97.0195 121.873 97.8926C121.035 98.7246 120.007 99.1406 118.788 99.1406C117.552 99.1406 116.503 98.7246 115.642 97.8926C114.733 97.0195 114.279 95.8711 114.279 94.4473ZM116.107 94.4473C116.107 95.9473 116.588 96.9668 117.549 97.5059C117.889 97.6934 118.296 97.7871 118.771 97.7871C119.245 97.7871 119.646 97.6934 119.975 97.5059C120.303 97.3125 120.572 97.0605 120.783 96.75C121.176 96.1523 121.372 95.3848 121.372 94.4473C121.372 92.959 120.9 91.9395 119.957 91.3887C119.629 91.1953 119.236 91.0986 118.779 91.0986C118.322 91.0986 117.924 91.1953 117.584 91.3887C117.25 91.5762 116.975 91.8252 116.758 92.1357C116.324 92.7451 116.107 93.5156 116.107 94.4473ZM129.968 87.2402C129.757 87.1699 129.464 87.1348 129.089 87.1348C128.714 87.1348 128.415 87.1699 128.192 87.2402C127.976 87.3105 127.803 87.4131 127.674 87.5479C127.451 87.7881 127.34 88.1807 127.34 88.7256V89.9297H129.607V91.2744H127.34V99H125.582V91.2744H124.492V90.4482L125.582 89.9297V88.9629C125.582 88.3477 125.635 87.8848 125.74 87.5742C125.852 87.2637 125.983 87.0059 126.136 86.8008C126.288 86.5957 126.493 86.417 126.751 86.2646C127.296 85.9424 128.061 85.7812 129.045 85.7812C129.455 85.7812 129.763 85.8047 129.968 85.8516V87.2402ZM135.979 87.2402C135.769 87.1699 135.476 87.1348 135.101 87.1348C134.726 87.1348 134.427 87.1699 134.204 87.2402C133.987 87.3105 133.814 87.4131 133.686 87.5479C133.463 87.7881 133.352 88.1807 133.352 88.7256V89.9297H135.619V91.2744H133.352V99H131.594V91.2744H130.504V90.4482L131.594 89.9297V88.9629C131.594 88.3477 131.646 87.8848 131.752 87.5742C131.863 87.2637 131.995 87.0059 132.147 86.8008C132.3 86.5957 132.505 86.417 132.763 86.2646C133.308 85.9424 134.072 85.7812 135.057 85.7812C135.467 85.7812 135.774 85.8047 135.979 85.8516V87.2402ZM141.622 99.1406C138.306 99.1406 136.647 97.5205 136.647 94.2803C136.647 92.8857 137.107 91.7695 138.027 90.9316C138.854 90.1699 139.797 89.7891 140.857 89.7891C142.012 89.7891 142.914 90.1758 143.564 90.9492C144.168 91.6699 144.47 92.6338 144.47 93.8408V94.5264H138.476C138.476 96.1846 139.152 97.1982 140.506 97.5674C140.828 97.6553 141.323 97.6992 141.991 97.6992C142.665 97.6992 143.324 97.6084 143.969 97.4268V98.9121C143.324 99.0645 142.542 99.1406 141.622 99.1406ZM142.712 93.2344C142.712 92.6719 142.557 92.1973 142.246 91.8105C141.883 91.3652 141.382 91.1426 140.743 91.1426C140.069 91.1426 139.521 91.3564 139.1 91.7842C138.713 92.1826 138.52 92.666 138.52 93.2344H142.712ZM152.169 91.5381C151.847 91.4443 151.46 91.3975 151.009 91.3975C150.563 91.3975 150.197 91.4443 149.91 91.5381C149.623 91.626 149.371 91.7344 149.154 91.8633C148.756 92.0977 148.466 92.3613 148.284 92.6543V99H146.526V89.9297H148.214L148.284 91.1865C148.724 90.6357 149.365 90.2227 150.209 89.9473C150.514 89.8418 150.862 89.7891 151.255 89.7891C151.647 89.7891 151.952 89.8184 152.169 89.877V91.5381ZM156.133 99.1406C155.4 99.1406 154.659 99.0879 153.909 98.9824V97.4268C154.671 97.6084 155.444 97.6992 156.229 97.6992C157.8 97.6992 158.585 97.3682 158.585 96.7061C158.585 96.4541 158.523 96.2666 158.4 96.1436C158.219 95.9502 157.932 95.7568 157.539 95.5635L156.256 94.9746C155.424 94.5586 154.885 94.2246 154.639 93.9727C154.176 93.5039 153.944 92.9473 153.944 92.3027C153.944 91.5762 154.281 90.9844 154.955 90.5273C155.682 90.0352 156.701 89.7891 158.014 89.7891C158.676 89.7891 159.344 89.8359 160.018 89.9297V91.4326C159.279 91.2979 158.635 91.2305 158.084 91.2305C157.539 91.2305 157.114 91.2656 156.81 91.3359C156.511 91.4062 156.285 91.4941 156.133 91.5996C155.893 91.7637 155.772 91.9775 155.772 92.2412C155.772 92.499 155.854 92.71 156.019 92.874C156.188 93.0322 156.452 93.2051 156.81 93.3926L158.102 94.0166C158.945 94.4561 159.487 94.793 159.728 95.0273C160.185 95.4727 160.413 96.0322 160.413 96.7061C160.413 97.4268 160.05 98.0068 159.323 98.4463C158.562 98.9092 157.498 99.1406 156.133 99.1406ZM163.129 97.3652H164.825V99C164.825 100.137 164.605 100.975 164.166 101.514C163.674 102.111 162.871 102.41 161.758 102.41V100.96C162.496 100.96 162.93 100.594 163.059 99.8613C163.105 99.6152 163.129 99.3281 163.129 99V97.3652ZM177.64 99.1406C174.323 99.1406 172.665 97.5205 172.665 94.2803C172.665 92.8857 173.125 91.7695 174.045 90.9316C174.871 90.1699 175.814 89.7891 176.875 89.7891C178.029 89.7891 178.932 90.1758 179.582 90.9492C180.186 91.6699 180.487 92.6338 180.487 93.8408V94.5264H174.493C174.493 96.1846 175.17 97.1982 176.523 97.5674C176.846 97.6553 177.341 97.6992 178.009 97.6992C178.683 97.6992 179.342 97.6084 179.986 97.4268V98.9121C179.342 99.0645 178.56 99.1406 177.64 99.1406ZM178.729 93.2344C178.729 92.6719 178.574 92.1973 178.264 91.8105C177.9 91.3652 177.399 91.1426 176.761 91.1426C176.087 91.1426 175.539 91.3564 175.117 91.7842C174.73 92.1826 174.537 92.666 174.537 93.2344H178.729ZM181.182 89.9297H183.071L185.541 97.2861L188.02 89.9297H189.9L186.429 99H184.662L181.182 89.9297ZM193.451 87.293C193.451 87.627 193.34 87.8848 193.117 88.0664C192.9 88.2422 192.628 88.3301 192.3 88.3301C191.972 88.3301 191.699 88.2422 191.482 88.0664C191.271 87.8848 191.166 87.627 191.166 87.293C191.166 86.9531 191.271 86.6953 191.482 86.5195C191.699 86.3438 191.972 86.2559 192.3 86.2559C192.628 86.2559 192.9 86.3438 193.117 86.5195C193.34 86.6953 193.451 86.9531 193.451 87.293ZM191.395 89.9297H193.152V99H191.395V89.9297ZM197.292 90.9229C197.802 90.5303 198.373 90.2432 199.006 90.0615C199.645 89.8799 200.201 89.7891 200.676 89.7891C201.15 89.7891 201.517 89.8008 201.774 89.8242V85.9219H203.523V99H201.95L201.88 97.9541C201.522 98.4287 200.98 98.7803 200.254 99.0088C199.973 99.0967 199.686 99.1406 199.393 99.1406C199.105 99.1406 198.821 99.1113 198.54 99.0527C198.259 98.9941 197.978 98.8975 197.696 98.7627C197.421 98.6221 197.157 98.4404 196.905 98.2178C196.653 97.9893 196.428 97.7109 196.229 97.3828C195.807 96.6621 195.596 95.8096 195.596 94.8252C195.596 93.8408 195.751 93.0439 196.062 92.4346C196.378 91.8193 196.788 91.3154 197.292 90.9229ZM198.355 91.9688C198.057 92.25 197.825 92.6133 197.661 93.0586C197.503 93.498 197.424 94.0342 197.424 94.667C197.424 95.2939 197.5 95.8125 197.652 96.2227C197.805 96.627 197.995 96.9434 198.224 97.1719C198.628 97.582 199.114 97.7871 199.683 97.7871C200.415 97.7871 201.021 97.5176 201.502 96.9785C201.625 96.8438 201.713 96.7236 201.766 96.6182V91.2129L201.59 91.1953C201.32 91.1602 200.998 91.1426 200.623 91.1426C200.254 91.1426 199.858 91.21 199.437 91.3447C199.015 91.4736 198.654 91.6816 198.355 91.9688ZM210.651 99.1406C207.335 99.1406 205.677 97.5205 205.677 94.2803C205.677 92.8857 206.137 91.7695 207.057 90.9316C207.883 90.1699 208.826 89.7891 209.887 89.7891C211.041 89.7891 211.943 90.1758 212.594 90.9492C213.197 91.6699 213.499 92.6338 213.499 93.8408V94.5264H207.505C207.505 96.1846 208.182 97.1982 209.535 97.5674C209.857 97.6553 210.353 97.6992 211.021 97.6992C211.694 97.6992 212.354 97.6084 212.998 97.4268V98.9121C212.354 99.0645 211.571 99.1406 210.651 99.1406ZM211.741 93.2344C211.741 92.6719 211.586 92.1973 211.275 91.8105C210.912 91.3652 210.411 91.1426 209.772 91.1426C209.099 91.1426 208.551 91.3564 208.129 91.7842C207.742 92.1826 207.549 92.666 207.549 93.2344H211.741ZM219.52 91.3008C218.646 91.3008 217.87 91.5967 217.19 92.1885V99H215.433V89.9297H217.059L217.182 90.9141C218.137 90.1641 219.124 89.7891 220.144 89.7891C221.222 89.7891 222.013 90.1113 222.517 90.7559C223.044 91.4355 223.308 92.5312 223.308 94.043V99H221.55V94.043C221.55 92.5898 221.157 91.7227 220.372 91.4414C220.12 91.3477 219.836 91.3008 219.52 91.3008ZM232.457 98.9736C232.105 99.085 231.496 99.1406 230.629 99.1406C229.762 99.1406 229.023 99.0352 228.414 98.8242C227.811 98.6133 227.295 98.3027 226.867 97.8926C225.982 97.043 225.54 95.8652 225.54 94.3594C225.54 92.9004 226.07 91.752 227.131 90.9141C228.08 90.1641 229.246 89.7891 230.629 89.7891C231.484 89.7891 232.07 89.8184 232.387 89.877V91.4414C231.895 91.2832 231.332 91.2041 230.699 91.2041C230.072 91.2041 229.551 91.292 229.135 91.4678C228.719 91.6377 228.379 91.8691 228.115 92.1621C227.617 92.7188 227.368 93.4512 227.368 94.3594C227.368 95.8945 227.922 96.917 229.029 97.4268C229.422 97.6084 229.806 97.6992 230.181 97.6992C230.556 97.6992 230.843 97.6904 231.042 97.6729C231.247 97.6553 231.44 97.6318 231.622 97.6025C232.009 97.5381 232.287 97.4707 232.457 97.4004V98.9736ZM239.163 99.1406C235.847 99.1406 234.188 97.5205 234.188 94.2803C234.188 92.8857 234.648 91.7695 235.568 90.9316C236.395 90.1699 237.338 89.7891 238.398 89.7891C239.553 89.7891 240.455 90.1758 241.105 90.9492C241.709 91.6699 242.011 92.6338 242.011 93.8408V94.5264H236.017C236.017 96.1846 236.693 97.1982 238.047 97.5674C238.369 97.6553 238.864 97.6992 239.532 97.6992C240.206 97.6992 240.865 97.6084 241.51 97.4268V98.9121C240.865 99.0645 240.083 99.1406 239.163 99.1406ZM240.253 93.2344C240.253 92.6719 240.098 92.1973 239.787 91.8105C239.424 91.3652 238.923 91.1426 238.284 91.1426C237.61 91.1426 237.062 91.3564 236.641 91.7842C236.254 92.1826 236.061 92.666 236.061 93.2344H240.253ZM252.162 99.1406C251.43 99.1406 250.688 99.0879 249.938 98.9824V97.4268C250.7 97.6084 251.474 97.6992 252.259 97.6992C253.829 97.6992 254.614 97.3682 254.614 96.7061C254.614 96.4541 254.553 96.2666 254.43 96.1436C254.248 95.9502 253.961 95.7568 253.568 95.5635L252.285 94.9746C251.453 94.5586 250.914 94.2246 250.668 93.9727C250.205 93.5039 249.974 92.9473 249.974 92.3027C249.974 91.5762 250.311 90.9844 250.984 90.5273C251.711 90.0352 252.73 89.7891 254.043 89.7891C254.705 89.7891 255.373 89.8359 256.047 89.9297V91.4326C255.309 91.2979 254.664 91.2305 254.113 91.2305C253.568 91.2305 253.144 91.2656 252.839 91.3359C252.54 91.4062 252.314 91.4941 252.162 91.5996C251.922 91.7637 251.802 91.9775 251.802 92.2412C251.802 92.499 251.884 92.71 252.048 92.874C252.218 93.0322 252.481 93.2051 252.839 93.3926L254.131 94.0166C254.975 94.4561 255.517 94.793 255.757 95.0273C256.214 95.4727 256.442 96.0322 256.442 96.7061C256.442 97.4268 256.079 98.0068 255.353 98.4463C254.591 98.9092 253.527 99.1406 252.162 99.1406ZM263.017 91.3008C262.149 91.3008 261.376 91.5967 260.696 92.1885V99H258.938V85.9219H260.696V90.9053C261.646 90.1611 262.627 89.7891 263.641 89.7891C264.725 89.7891 265.519 90.1113 266.022 90.7559C266.55 91.4355 266.813 92.5312 266.813 94.043V99H265.056V94.043C265.056 92.5898 264.66 91.7227 263.869 91.4414C263.617 91.3477 263.333 91.3008 263.017 91.3008ZM269.837 97.3828C269.644 97.0488 269.488 96.6562 269.371 96.2051C269.26 95.7539 269.204 95.165 269.204 94.4385C269.204 93.7119 269.359 93.0439 269.67 92.4346C269.986 91.8193 270.396 91.3154 270.9 90.9229C271.879 90.167 273.095 89.7891 274.548 89.7891C275.304 89.7891 275.875 89.8066 276.262 89.8418C276.262 89.8418 276.546 89.8711 277.114 89.9297V99H275.532L275.462 97.9541C275.11 98.4229 274.574 98.7715 273.854 99C273.578 99.0879 273.294 99.1318 273.001 99.1318C272.714 99.1318 272.43 99.1025 272.148 99.0439C271.867 98.9854 271.586 98.8887 271.305 98.7539C271.029 98.6191 270.766 98.4404 270.514 98.2178C270.262 97.9893 270.036 97.7109 269.837 97.3828ZM275.356 91.2217C274.981 91.1748 274.606 91.1514 274.231 91.1514C273.862 91.1514 273.467 91.2188 273.045 91.3535C272.623 91.4824 272.263 91.6875 271.964 91.9688C271.343 92.5547 271.032 93.4482 271.032 94.6494C271.032 95.7861 271.299 96.627 271.832 97.1719C272.236 97.5762 272.723 97.7783 273.291 97.7783C274.023 97.7783 274.627 97.5117 275.102 96.9785C275.219 96.8438 275.304 96.7236 275.356 96.6182V91.2217ZM285.692 91.5381C285.37 91.4443 284.983 91.3975 284.532 91.3975C284.087 91.3975 283.721 91.4443 283.434 91.5381C283.146 91.626 282.895 91.7344 282.678 91.8633C282.279 92.0977 281.989 92.3613 281.808 92.6543V99H280.05V89.9297H281.737L281.808 91.1865C282.247 90.6357 282.889 90.2227 283.732 89.9473C284.037 89.8418 284.386 89.7891 284.778 89.7891C285.171 89.7891 285.476 89.8184 285.692 89.877V91.5381ZM289.48 87.293C289.48 87.627 289.369 87.8848 289.146 88.0664C288.93 88.2422 288.657 88.3301 288.329 88.3301C288.001 88.3301 287.729 88.2422 287.512 88.0664C287.301 87.8848 287.195 87.627 287.195 87.293C287.195 86.9531 287.301 86.6953 287.512 86.5195C287.729 86.3438 288.001 86.2559 288.329 86.2559C288.657 86.2559 288.93 86.3438 289.146 86.5195C289.369 86.6953 289.48 86.9531 289.48 87.293ZM287.424 89.9297H289.182V99H287.424V89.9297ZM296.037 91.3008C295.164 91.3008 294.388 91.5967 293.708 92.1885V99H291.95V89.9297H293.576L293.699 90.9141C294.654 90.1641 295.642 89.7891 296.661 89.7891C297.739 89.7891 298.53 90.1113 299.034 90.7559C299.562 91.4355 299.825 92.5312 299.825 94.043V99H298.067V94.043C298.067 92.5898 297.675 91.7227 296.89 91.4414C296.638 91.3477 296.354 91.3008 296.037 91.3008ZM307.621 102.463C307.111 102.592 306.455 102.656 305.652 102.656C304.855 102.656 304.272 102.598 303.903 102.48V100.916C304.366 101.115 304.932 101.215 305.6 101.215C306.273 101.221 306.769 101.177 307.085 101.083C307.401 100.989 307.65 100.837 307.832 100.626C308.16 100.245 308.324 99.5566 308.324 98.5605V98.0947C307.879 98.54 307.293 98.8506 306.566 99.0264C306.273 99.0967 305.98 99.1318 305.688 99.1318C305.395 99.1318 305.107 99.0996 304.826 99.0352C304.551 98.9707 304.275 98.8682 304 98.7275C303.725 98.5811 303.461 98.3936 303.209 98.165C302.957 97.9307 302.734 97.6406 302.541 97.2949C302.107 96.5449 301.891 95.6221 301.891 94.5264C301.879 93.5127 302.172 92.6221 302.77 91.8545C303.285 91.1865 303.994 90.668 304.896 90.2988C305.717 89.959 306.604 89.7891 307.56 89.7891C308.515 89.7891 309.355 89.8359 310.082 89.9297V98.5605C310.082 100.752 309.262 102.053 307.621 102.463ZM308.324 91.2129C307.949 91.166 307.58 91.1426 307.217 91.1426C306.854 91.1426 306.446 91.21 305.995 91.3447C305.544 91.4795 305.148 91.6846 304.809 91.96C304.064 92.5635 303.692 93.4189 303.692 94.5264C303.692 95.7275 303.982 96.6035 304.562 97.1543C304.996 97.5703 305.526 97.7783 306.153 97.7783C306.909 97.7783 307.545 97.5117 308.061 96.9785C308.184 96.8438 308.271 96.7236 308.324 96.6182V91.2129ZM313.844 99.2197C313.492 99.2197 313.199 99.126 312.965 98.9385C312.736 98.7451 312.622 98.4697 312.622 98.1123C312.622 97.749 312.736 97.4707 312.965 97.2773C313.199 97.084 313.492 96.9873 313.844 96.9873C314.201 96.9873 314.497 97.084 314.731 97.2773C314.966 97.4707 315.083 97.749 315.083 98.1123C315.083 98.4697 314.966 98.7451 314.731 98.9385C314.497 99.126 314.201 99.2197 313.844 99.2197Z" fill="#090A0E"/>
<defs>
<filter id="filter0_d_4529_34070" x="0" y="25" width="612" height="117" filterUnits="userSpaceOnUse" color-interpolation-filters="sRGB">
<feFlood flood-opacity="0" result="BackgroundImageFix"/>
<feColorMatrix in="SourceAlpha" type="matrix" values="0 0 0 0 0 0 0 0 0 0 0 0 0 0 0 0 0 0 127 0" result="hardAlpha"/>
<feOffset dy="3"/>
<feGaussianBlur stdDeviation="3"/>
<feColorMatrix type="matrix" values="0 0 0 0 0 0 0 0 0 0 0 0 0 0 0 0 0 0 0.15 0"/>
<feBlend mode="normal" in2="BackgroundImageFix" result="effect1_dropShadow_4529_34070"/>
<feBlend mode="normal" in="SourceGraphic" in2="effect1_dropShadow_4529_34070" result="shape"/>
</filter>
<filter id="filter1_d_4529_34070" x="0" y="0" width="612" height="137" filterUnits="userSpaceOnUse" color-interpolation-filters="sRGB">
<feFlood flood-opacity="0" result="BackgroundImageFix"/>
<feColorMatrix in="SourceAlpha" type="matrix" values="0 0 0 0 0 0 0 0 0 0 0 0 0 0 0 0 0 0 127 0" result="hardAlpha"/>
<feOffset dy="3"/>
<feGaussianBlur stdDeviation="3"/>
<feColorMatrix type="matrix" values="0 0 0 0 0 0 0 0 0 0 0 0 0 0 0 0 0 0 0.15 0"/>
<feBlend mode="normal" in2="BackgroundImageFix" result="effect1_dropShadow_4529_34070"/>
<feBlend mode="normal" in="SourceGraphic" in2="effect1_dropShadow_4529_34070" result="shape"/>
</filter>
</defs>
</svg>
