<svg width="612" height="144" viewBox="0 0 612 144" fill="none" xmlns="http://www.w3.org/2000/svg">
<g filter="url(#filter0_d_4529_34069)">
<rect x="6" y="30" width="600" height="105" rx="20" fill="white"/>
</g>
<g filter="url(#filter1_d_4529_34069)">
<rect x="6" y="26" width="600" height="105" rx="20" fill="white"/>
</g>
<g filter="url(#filter2_d_4529_34069)">
<rect x="6" y="3" width="600" height="125" rx="20" fill="white"/>
</g>
<path d="M39.575 57V50.175H43.025C49.95 50.175 49.975 39.15 43.025 39.15H36V57H39.575ZM39.575 46.7V42.7H42.725C45.125 42.7 45.125 46.7 42.725 46.7H39.575ZM64.0135 57L59.8635 49.625C65.1135 48.1 64.4885 39.125 58.1135 39.125H51.0635V57H54.6385V50.175H56.3635L59.9635 57H64.0135ZM54.6385 42.7H57.7885C60.2135 42.7 60.2135 46.7 57.7885 46.7H54.6385V42.7ZM69.9705 57V39.125H66.3955V57H69.9705ZM80.3383 57.375L87.7383 39.125H83.6133L81.2133 45.2L79.9383 48.775L78.6383 45.075L76.2633 39.125H72.1383L79.5383 57.375H80.3383ZM86.524 57H90.574L91.274 55.075H97.199L97.924 57H101.949L94.424 38.475H94.049L86.524 57ZM92.574 51.725L94.249 47.075L95.874 51.725H92.574ZM115.246 43.275L115.671 39.6C114.596 39.125 113.396 38.9 112.146 38.9C100.046 38.9 100.021 57.05 112.146 57.05C113.396 57.05 114.971 56.75 116.071 56.3L115.596 52.6C114.921 52.95 113.696 53.4 112.146 53.4C105.071 53.4 105.071 42.5 112.146 42.5C113.696 42.5 114.571 42.925 115.246 43.275ZM123.285 57H126.835V48.95L133.085 39.125H128.71L125.06 45.275L121.41 39.125H117.06L123.285 48.95V57ZM151.175 42.7V39.125H142.25V57H145.825V49.85H150.375V46.275H145.825V42.7H151.175ZM162.715 57.25C175.015 57.25 175.015 38.825 162.715 38.825C150.415 38.825 150.415 57.25 162.715 57.25ZM162.715 53.55C155.565 53.55 155.565 42.5 162.715 42.5C169.865 42.5 169.865 53.55 162.715 53.55ZM186.657 43.275L187.082 39.6C186.007 39.125 184.807 38.9 183.557 38.9C171.457 38.9 171.432 57.05 183.557 57.05C184.807 57.05 186.382 56.75 187.482 56.3L187.007 52.6C186.332 52.95 185.107 53.4 183.557 53.4C176.482 53.4 176.482 42.5 183.557 42.5C185.107 42.5 185.982 42.925 186.657 43.275ZM203.146 50.775V39.125H199.596V50.75C199.596 54.5 193.796 54.5 193.796 50.75V39.125H190.221V50.775C190.221 59.275 203.146 59.275 203.146 50.775ZM206.269 55.85C208.694 57.1 210.919 57.225 211.919 57.15C215.269 56.975 217.319 54.7 217.319 51.725C217.319 48.875 214.919 47.275 212.144 46.25C211.119 45.9 210.244 45.45 210.144 44.45C210.069 43.45 210.644 42.525 211.919 42.45C212.469 42.425 213.594 42.4 215.569 43.2L216.019 39.75C213.719 38.95 212.494 38.95 211.569 39C208.594 39.15 206.519 41.45 206.519 44.45C206.519 47.45 209.019 48.875 211.819 49.9C212.819 50.25 213.594 50.7 213.669 51.725C213.769 52.7 212.869 53.45 211.819 53.525C210.994 53.6 208.769 53.55 206.719 52.1L206.269 55.85ZM229.576 57V53.425H223.901V49.85H228.601V46.275H223.901V42.7H229.276V39.125H220.326V57H229.576ZM238.249 39.125H232.924V57H238.249C250.149 57 250.149 39.125 238.249 39.125ZM238.249 42.7C245.199 42.7 245.199 53.425 238.249 53.425H236.499V42.7H238.249Z" fill="#090A0E"/>
<path d="M42.3232 86.1475C41.9072 86.4404 41.374 86.6719 40.7236 86.8418C40.0732 87.0059 39.2764 87.0879 38.333 87.0879C37.3955 87.0879 36.4492 87.0322 35.4941 86.9209V85.2158C36.3496 85.4092 37.2109 85.5059 38.0781 85.5059C38.9453 85.5059 39.5957 85.459 40.0293 85.3652C40.4629 85.2656 40.8115 85.1367 41.0752 84.9785C41.5615 84.6855 41.8047 84.3047 41.8047 83.8359C41.8047 83.4727 41.7109 83.1914 41.5234 82.9922C41.2246 82.6816 40.7939 82.3975 40.2314 82.1396L37.9814 81.1113C37.208 80.748 36.6602 80.4111 36.3379 80.1006C35.6465 79.4326 35.3008 78.6592 35.3008 77.7803C35.3008 76.8779 35.6934 76.1484 36.4785 75.5918C37.3398 74.9824 38.5645 74.6777 40.1523 74.6777C41.1777 74.6777 42.1152 74.7188 42.9648 74.8008V76.4795C42.2441 76.3154 41.4385 76.2334 40.5479 76.2334C39.6631 76.2334 39.0186 76.2803 38.6143 76.374C38.2158 76.4619 37.9023 76.5762 37.6738 76.7168C37.2578 76.9746 37.0498 77.3145 37.0498 77.7363C37.0498 78.1465 37.1816 78.4863 37.4453 78.7559C37.6797 78.9844 38.1074 79.248 38.7285 79.5469L41.04 80.6455C41.8076 81.0088 42.3438 81.3516 42.6484 81.6738C42.959 81.9961 43.1875 82.3213 43.334 82.6494C43.4805 82.9717 43.5537 83.3613 43.5537 83.8184C43.5537 84.2695 43.4541 84.6973 43.2549 85.1016C43.0557 85.5 42.7451 85.8486 42.3232 86.1475ZM49.9521 79.3008C49.085 79.3008 48.3115 79.5967 47.6318 80.1885V87H45.874V73.9219H47.6318V78.9053C48.5811 78.1611 49.5625 77.7891 50.5762 77.7891C51.6602 77.7891 52.4541 78.1113 52.958 78.7559C53.4854 79.4355 53.749 80.5312 53.749 82.043V87H51.9912V82.043C51.9912 80.5898 51.5957 79.7227 50.8047 79.4414C50.5527 79.3477 50.2686 79.3008 49.9521 79.3008ZM56.7725 85.3828C56.5791 85.0488 56.4238 84.6562 56.3066 84.2051C56.1953 83.7539 56.1396 83.165 56.1396 82.4385C56.1396 81.7119 56.2949 81.0439 56.6055 80.4346C56.9219 79.8193 57.332 79.3154 57.8359 78.9229C58.8145 78.167 60.0303 77.7891 61.4834 77.7891C62.2393 77.7891 62.8105 77.8066 63.1973 77.8418C63.1973 77.8418 63.4814 77.8711 64.0498 77.9297V87H62.4678L62.3975 85.9541C62.0459 86.4229 61.5098 86.7715 60.7891 87C60.5137 87.0879 60.2295 87.1318 59.9365 87.1318C59.6494 87.1318 59.3652 87.1025 59.084 87.0439C58.8027 86.9854 58.5215 86.8887 58.2402 86.7539C57.9648 86.6191 57.7012 86.4404 57.4492 86.2178C57.1973 85.9893 56.9717 85.7109 56.7725 85.3828ZM62.292 79.2217C61.917 79.1748 61.542 79.1514 61.167 79.1514C60.7979 79.1514 60.4023 79.2188 59.9805 79.3535C59.5586 79.4824 59.1982 79.6875 58.8994 79.9688C58.2783 80.5547 57.9678 81.4482 57.9678 82.6494C57.9678 83.7861 58.2344 84.627 58.7676 85.1719C59.1719 85.5762 59.6582 85.7783 60.2266 85.7783C60.959 85.7783 61.5625 85.5117 62.0371 84.9785C62.1543 84.8438 62.2393 84.7236 62.292 84.6182V79.2217ZM72.6279 79.5381C72.3057 79.4443 71.9189 79.3975 71.4678 79.3975C71.0225 79.3975 70.6562 79.4443 70.3691 79.5381C70.082 79.626 69.8301 79.7344 69.6133 79.8633C69.2148 80.0977 68.9248 80.3613 68.7432 80.6543V87H66.9854V77.9297H68.6729L68.7432 79.1865C69.1826 78.6357 69.8242 78.2227 70.668 77.9473C70.9727 77.8418 71.3213 77.7891 71.7139 77.7891C72.1064 77.7891 72.4111 77.8184 72.6279 77.877V79.5381ZM76.416 75.293C76.416 75.627 76.3047 75.8848 76.082 76.0664C75.8652 76.2422 75.5928 76.3301 75.2646 76.3301C74.9365 76.3301 74.6641 76.2422 74.4473 76.0664C74.2363 75.8848 74.1309 75.627 74.1309 75.293C74.1309 74.9531 74.2363 74.6953 74.4473 74.5195C74.6641 74.3438 74.9365 74.2559 75.2646 74.2559C75.5928 74.2559 75.8652 74.3438 76.082 74.5195C76.3047 74.6953 76.416 74.9531 76.416 75.293ZM74.3594 77.9297H76.1172V87H74.3594V77.9297ZM82.9727 79.3008C82.0996 79.3008 81.3232 79.5967 80.6436 80.1885V87H78.8857V77.9297H80.5117L80.6348 78.9141C81.5898 78.1641 82.5771 77.7891 83.5967 77.7891C84.6748 77.7891 85.4658 78.1113 85.9697 78.7559C86.4971 79.4355 86.7607 80.5312 86.7607 82.043V87H85.0029V82.043C85.0029 80.5898 84.6104 79.7227 83.8252 79.4414C83.5732 79.3477 83.2891 79.3008 82.9727 79.3008ZM94.5566 90.4629C94.0469 90.5918 93.3906 90.6562 92.5879 90.6562C91.791 90.6562 91.208 90.5977 90.8389 90.4805V88.916C91.3018 89.1152 91.8672 89.2148 92.5352 89.2148C93.209 89.2207 93.7041 89.1768 94.0205 89.083C94.3369 88.9893 94.5859 88.8369 94.7676 88.626C95.0957 88.2451 95.2598 87.5566 95.2598 86.5605V86.0947C94.8145 86.54 94.2285 86.8506 93.502 87.0264C93.209 87.0967 92.916 87.1318 92.623 87.1318C92.3301 87.1318 92.043 87.0996 91.7617 87.0352C91.4863 86.9707 91.2109 86.8682 90.9355 86.7275C90.6602 86.5811 90.3965 86.3936 90.1445 86.165C89.8926 85.9307 89.6699 85.6406 89.4766 85.2949C89.043 84.5449 88.8262 83.6221 88.8262 82.5264C88.8145 81.5127 89.1074 80.6221 89.7051 79.8545C90.2207 79.1865 90.9297 78.668 91.832 78.2988C92.6523 77.959 93.54 77.7891 94.4951 77.7891C95.4502 77.7891 96.291 77.8359 97.0176 77.9297V86.5605C97.0176 88.752 96.1973 90.0527 94.5566 90.4629ZM95.2598 79.2129C94.8848 79.166 94.5156 79.1426 94.1523 79.1426C93.7891 79.1426 93.3818 79.21 92.9307 79.3447C92.4795 79.4795 92.084 79.6846 91.7441 79.96C91 80.5635 90.6279 81.4189 90.6279 82.5264C90.6279 83.7275 90.918 84.6035 91.498 85.1543C91.9316 85.5703 92.4619 85.7783 93.0889 85.7783C93.8447 85.7783 94.4805 85.5117 94.9961 84.9785C95.1191 84.8438 95.207 84.7236 95.2598 84.6182V79.2129ZM110.491 75.2402C110.28 75.1699 109.987 75.1348 109.612 75.1348C109.237 75.1348 108.938 75.1699 108.716 75.2402C108.499 75.3105 108.326 75.4131 108.197 75.5479C107.975 75.7881 107.863 76.1807 107.863 76.7256V77.9297H110.131V79.2744H107.863V87H106.105V79.2744H105.016V78.4482L106.105 77.9297V76.9629C106.105 76.3477 106.158 75.8848 106.264 75.5742C106.375 75.2637 106.507 75.0059 106.659 74.8008C106.812 74.5957 107.017 74.417 107.274 74.2646C107.819 73.9424 108.584 73.7812 109.568 73.7812C109.979 73.7812 110.286 73.8047 110.491 73.8516V75.2402ZM113.945 75.293C113.945 75.627 113.834 75.8848 113.611 76.0664C113.395 76.2422 113.122 76.3301 112.794 76.3301C112.466 76.3301 112.193 76.2422 111.977 76.0664C111.766 75.8848 111.66 75.627 111.66 75.293C111.66 74.9531 111.766 74.6953 111.977 74.5195C112.193 74.3438 112.466 74.2559 112.794 74.2559C113.122 74.2559 113.395 74.3438 113.611 74.5195C113.834 74.6953 113.945 74.9531 113.945 75.293ZM111.889 77.9297H113.646V87H111.889V77.9297ZM116.793 73.9219H118.551V83.5635C118.551 84.7236 118.814 85.4062 119.342 85.6113C119.518 85.6816 119.705 85.7168 119.904 85.7168C120.104 85.7168 120.282 85.6934 120.44 85.6465V87L120.115 87.0352C120.01 87.0469 119.907 87.0527 119.808 87.0527C118.683 87.0527 117.871 86.6836 117.373 85.9453C116.986 85.3652 116.793 84.5742 116.793 83.5723V73.9219ZM126.663 87.1406C123.347 87.1406 121.688 85.5205 121.688 82.2803C121.688 80.8857 122.148 79.7695 123.068 78.9316C123.895 78.1699 124.838 77.7891 125.898 77.7891C127.053 77.7891 127.955 78.1758 128.605 78.9492C129.209 79.6699 129.511 80.6338 129.511 81.8408V82.5264H123.517C123.517 84.1846 124.193 85.1982 125.547 85.5674C125.869 85.6553 126.364 85.6992 127.032 85.6992C127.706 85.6992 128.365 85.6084 129.01 85.4268V86.9121C128.365 87.0645 127.583 87.1406 126.663 87.1406ZM127.753 81.2344C127.753 80.6719 127.598 80.1973 127.287 79.8105C126.924 79.3652 126.423 79.1426 125.784 79.1426C125.11 79.1426 124.562 79.3564 124.141 79.7842C123.754 80.1826 123.561 80.666 123.561 81.2344H127.753ZM133.668 87.1406C132.936 87.1406 132.194 87.0879 131.444 86.9824V85.4268C132.206 85.6084 132.979 85.6992 133.765 85.6992C135.335 85.6992 136.12 85.3682 136.12 84.7061C136.12 84.4541 136.059 84.2666 135.936 84.1436C135.754 83.9502 135.467 83.7568 135.074 83.5635L133.791 82.9746C132.959 82.5586 132.42 82.2246 132.174 81.9727C131.711 81.5039 131.479 80.9473 131.479 80.3027C131.479 79.5762 131.816 78.9844 132.49 78.5273C133.217 78.0352 134.236 77.7891 135.549 77.7891C136.211 77.7891 136.879 77.8359 137.553 77.9297V79.4326C136.814 79.2979 136.17 79.2305 135.619 79.2305C135.074 79.2305 134.649 79.2656 134.345 79.3359C134.046 79.4062 133.82 79.4941 133.668 79.5996C133.428 79.7637 133.308 79.9775 133.308 80.2412C133.308 80.499 133.39 80.71 133.554 80.874C133.724 81.0322 133.987 81.2051 134.345 81.3926L135.637 82.0166C136.48 82.4561 137.022 82.793 137.263 83.0273C137.72 83.4727 137.948 84.0322 137.948 84.7061C137.948 85.4268 137.585 86.0068 136.858 86.4463C136.097 86.9092 135.033 87.1406 133.668 87.1406ZM148.486 75.293C148.486 75.627 148.375 75.8848 148.152 76.0664C147.936 76.2422 147.663 76.3301 147.335 76.3301C147.007 76.3301 146.734 76.2422 146.518 76.0664C146.307 75.8848 146.201 75.627 146.201 75.293C146.201 74.9531 146.307 74.6953 146.518 74.5195C146.734 74.3438 147.007 74.2559 147.335 74.2559C147.663 74.2559 147.936 74.3438 148.152 74.5195C148.375 74.6953 148.486 74.9531 148.486 75.293ZM146.43 77.9297H148.188V87H146.43V77.9297ZM155.043 79.3008C154.17 79.3008 153.394 79.5967 152.714 80.1885V87H150.956V77.9297H152.582L152.705 78.9141C153.66 78.1641 154.647 77.7891 155.667 77.7891C156.745 77.7891 157.536 78.1113 158.04 78.7559C158.567 79.4355 158.831 80.5312 158.831 82.043V87H157.073V82.043C157.073 80.5898 156.681 79.7227 155.896 79.4414C155.644 79.3477 155.359 79.3008 155.043 79.3008ZM167.866 85.3828C167.673 85.0488 167.518 84.6562 167.4 84.2051C167.289 83.7539 167.233 83.165 167.233 82.4385C167.233 81.7119 167.389 81.0439 167.699 80.4346C168.016 79.8193 168.426 79.3154 168.93 78.9229C169.908 78.167 171.124 77.7891 172.577 77.7891C173.333 77.7891 173.904 77.8066 174.291 77.8418C174.291 77.8418 174.575 77.8711 175.144 77.9297V87H173.562L173.491 85.9541C173.14 86.4229 172.604 86.7715 171.883 87C171.607 87.0879 171.323 87.1318 171.03 87.1318C170.743 87.1318 170.459 87.1025 170.178 87.0439C169.896 86.9854 169.615 86.8887 169.334 86.7539C169.059 86.6191 168.795 86.4404 168.543 86.2178C168.291 85.9893 168.065 85.7109 167.866 85.3828ZM173.386 79.2217C173.011 79.1748 172.636 79.1514 172.261 79.1514C171.892 79.1514 171.496 79.2188 171.074 79.3535C170.652 79.4824 170.292 79.6875 169.993 79.9688C169.372 80.5547 169.062 81.4482 169.062 82.6494C169.062 83.7861 169.328 84.627 169.861 85.1719C170.266 85.5762 170.752 85.7783 171.32 85.7783C172.053 85.7783 172.656 85.5117 173.131 84.9785C173.248 84.8438 173.333 84.7236 173.386 84.6182V79.2217ZM185.84 90.5156H184.082V77.9297H185.664L185.734 78.9668C186.086 78.498 186.625 78.1494 187.352 77.9209C187.633 77.833 187.917 77.7891 188.204 77.7891C188.497 77.7891 188.784 77.8213 189.065 77.8857C189.347 77.9443 189.625 78.0439 189.9 78.1846C190.176 78.3193 190.439 78.501 190.691 78.7295C190.943 78.9521 191.166 79.2305 191.359 79.5645C191.781 80.2852 191.992 81.1787 191.992 82.2451C191.992 83.874 191.43 85.1191 190.305 85.9805C189.309 86.748 188.096 87.1318 186.666 87.1318H186.227C186.086 87.1318 185.957 87.1289 185.84 87.123V90.5156ZM185.84 85.6992C186.004 85.7461 186.326 85.7695 186.807 85.7695C187.287 85.7695 187.738 85.7021 188.16 85.5674C188.582 85.4326 188.939 85.2246 189.232 84.9434C189.854 84.3457 190.164 83.4463 190.164 82.2451C190.164 81.1143 189.895 80.2793 189.355 79.7402C188.957 79.3418 188.471 79.1426 187.896 79.1426C187.176 79.1426 186.578 79.4092 186.104 79.9424C185.98 80.0771 185.893 80.1973 185.84 80.3027V85.6992ZM200.228 79.5381C199.905 79.4443 199.519 79.3975 199.067 79.3975C198.622 79.3975 198.256 79.4443 197.969 79.5381C197.682 79.626 197.43 79.7344 197.213 79.8633C196.814 80.0977 196.524 80.3613 196.343 80.6543V87H194.585V77.9297H196.272L196.343 79.1865C196.782 78.6357 197.424 78.2227 198.268 77.9473C198.572 77.8418 198.921 77.7891 199.313 77.7891C199.706 77.7891 200.011 77.8184 200.228 77.877V79.5381ZM204.016 75.293C204.016 75.627 203.904 75.8848 203.682 76.0664C203.465 76.2422 203.192 76.3301 202.864 76.3301C202.536 76.3301 202.264 76.2422 202.047 76.0664C201.836 75.8848 201.73 75.627 201.73 75.293C201.73 74.9531 201.836 74.6953 202.047 74.5195C202.264 74.3438 202.536 74.2559 202.864 74.2559C203.192 74.2559 203.465 74.3438 203.682 74.5195C203.904 74.6953 204.016 74.9531 204.016 75.293ZM201.959 77.9297H203.717V87H201.959V77.9297ZM205.246 77.9297H207.136L209.605 85.2861L212.084 77.9297H213.965L210.493 87H208.727L205.246 77.9297ZM215.872 85.3828C215.679 85.0488 215.523 84.6562 215.406 84.2051C215.295 83.7539 215.239 83.165 215.239 82.4385C215.239 81.7119 215.395 81.0439 215.705 80.4346C216.021 79.8193 216.432 79.3154 216.936 78.9229C217.914 78.167 219.13 77.7891 220.583 77.7891C221.339 77.7891 221.91 77.8066 222.297 77.8418C222.297 77.8418 222.581 77.8711 223.149 77.9297V87H221.567L221.497 85.9541C221.146 86.4229 220.609 86.7715 219.889 87C219.613 87.0879 219.329 87.1318 219.036 87.1318C218.749 87.1318 218.465 87.1025 218.184 87.0439C217.902 86.9854 217.621 86.8887 217.34 86.7539C217.064 86.6191 216.801 86.4404 216.549 86.2178C216.297 85.9893 216.071 85.7109 215.872 85.3828ZM221.392 79.2217C221.017 79.1748 220.642 79.1514 220.267 79.1514C219.897 79.1514 219.502 79.2188 219.08 79.3535C218.658 79.4824 218.298 79.6875 217.999 79.9688C217.378 80.5547 217.067 81.4482 217.067 82.6494C217.067 83.7861 217.334 84.627 217.867 85.1719C218.271 85.5762 218.758 85.7783 219.326 85.7783C220.059 85.7783 220.662 85.5117 221.137 84.9785C221.254 84.8438 221.339 84.7236 221.392 84.6182V79.2217ZM232.475 86.9736C232.123 87.085 231.514 87.1406 230.646 87.1406C229.779 87.1406 229.041 87.0352 228.432 86.8242C227.828 86.6133 227.312 86.3027 226.885 85.8926C226 85.043 225.558 83.8652 225.558 82.3594C225.558 80.9004 226.088 79.752 227.148 78.9141C228.098 78.1641 229.264 77.7891 230.646 77.7891C231.502 77.7891 232.088 77.8184 232.404 77.877V79.4414C231.912 79.2832 231.35 79.2041 230.717 79.2041C230.09 79.2041 229.568 79.292 229.152 79.4678C228.736 79.6377 228.396 79.8691 228.133 80.1621C227.635 80.7188 227.386 81.4512 227.386 82.3594C227.386 83.8945 227.939 84.917 229.047 85.4268C229.439 85.6084 229.823 85.6992 230.198 85.6992C230.573 85.6992 230.86 85.6904 231.06 85.6729C231.265 85.6553 231.458 85.6318 231.64 85.6025C232.026 85.5381 232.305 85.4707 232.475 85.4004V86.9736ZM234.566 89.25C234.725 89.2969 234.938 89.3203 235.208 89.3203C235.483 89.3203 235.765 89.2646 236.052 89.1533C236.339 89.0479 236.588 88.8984 236.799 88.7051C237.15 88.3887 237.47 87.8906 237.757 87.2109L234.03 77.9297H235.902L238.521 85.1543L240.868 77.9297H242.723L238.996 88.1162C238.715 88.8779 238.325 89.4609 237.827 89.8652C237.171 90.3926 236.295 90.6562 235.199 90.6562C235.1 90.6562 234.997 90.6504 234.892 90.6387L234.566 90.6035V89.25ZM254.562 75.2402C254.351 75.1699 254.058 75.1348 253.683 75.1348C253.308 75.1348 253.009 75.1699 252.786 75.2402C252.569 75.3105 252.396 75.4131 252.268 75.5479C252.045 75.7881 251.934 76.1807 251.934 76.7256V77.9297H254.201V79.2744H251.934V87H250.176V79.2744H249.086V78.4482L250.176 77.9297V76.9629C250.176 76.3477 250.229 75.8848 250.334 75.5742C250.445 75.2637 250.577 75.0059 250.729 74.8008C250.882 74.5957 251.087 74.417 251.345 74.2646C251.89 73.9424 252.654 73.7812 253.639 73.7812C254.049 73.7812 254.356 73.8047 254.562 73.8516V75.2402ZM255.379 82.4473C255.379 81.0234 255.833 79.8691 256.741 78.9844C257.591 78.1582 258.643 77.7451 259.896 77.7451C261.127 77.7451 262.155 78.1582 262.981 78.9844C263.86 79.8633 264.3 81.0176 264.3 82.4473C264.3 83.8711 263.857 85.0195 262.973 85.8926C262.135 86.7246 261.106 87.1406 259.888 87.1406C258.651 87.1406 257.603 86.7246 256.741 85.8926C255.833 85.0195 255.379 83.8711 255.379 82.4473ZM257.207 82.4473C257.207 83.9473 257.688 84.9668 258.648 85.5059C258.988 85.6934 259.396 85.7871 259.87 85.7871C260.345 85.7871 260.746 85.6934 261.074 85.5059C261.402 85.3125 261.672 85.0605 261.883 84.75C262.275 84.1523 262.472 83.3848 262.472 82.4473C262.472 80.959 262 79.9395 261.057 79.3887C260.729 79.1953 260.336 79.0986 259.879 79.0986C259.422 79.0986 259.023 79.1953 258.684 79.3887C258.35 79.5762 258.074 79.8252 257.857 80.1357C257.424 80.7451 257.207 81.5156 257.207 82.4473ZM272.975 86.9736C272.623 87.085 272.014 87.1406 271.146 87.1406C270.279 87.1406 269.541 87.0352 268.932 86.8242C268.328 86.6133 267.812 86.3027 267.385 85.8926C266.5 85.043 266.058 83.8652 266.058 82.3594C266.058 80.9004 266.588 79.752 267.648 78.9141C268.598 78.1641 269.764 77.7891 271.146 77.7891C272.002 77.7891 272.588 77.8184 272.904 77.877V79.4414C272.412 79.2832 271.85 79.2041 271.217 79.2041C270.59 79.2041 270.068 79.292 269.652 79.4678C269.236 79.6377 268.896 79.8691 268.633 80.1621C268.135 80.7188 267.886 81.4512 267.886 82.3594C267.886 83.8945 268.439 84.917 269.547 85.4268C269.939 85.6084 270.323 85.6992 270.698 85.6992C271.073 85.6992 271.36 85.6904 271.56 85.6729C271.765 85.6553 271.958 85.6318 272.14 85.6025C272.526 85.5381 272.805 85.4707 272.975 85.4004V86.9736ZM281.359 84.7764V77.9297H283.117V87H281.535L281.377 86.042C280.51 86.7744 279.552 87.1406 278.503 87.1406C277.39 87.1406 276.602 86.833 276.139 86.2178C275.658 85.5908 275.418 84.5098 275.418 82.9746V77.9297H277.176V82.8867C277.176 83.9707 277.331 84.709 277.642 85.1016C277.917 85.4531 278.441 85.6289 279.215 85.6289C279.994 85.6289 280.709 85.3447 281.359 84.7764ZM288.18 87.1406C287.447 87.1406 286.706 87.0879 285.956 86.9824V85.4268C286.718 85.6084 287.491 85.6992 288.276 85.6992C289.847 85.6992 290.632 85.3682 290.632 84.7061C290.632 84.4541 290.57 84.2666 290.447 84.1436C290.266 83.9502 289.979 83.7568 289.586 83.5635L288.303 82.9746C287.471 82.5586 286.932 82.2246 286.686 81.9727C286.223 81.5039 285.991 80.9473 285.991 80.3027C285.991 79.5762 286.328 78.9844 287.002 78.5273C287.729 78.0352 288.748 77.7891 290.061 77.7891C290.723 77.7891 291.391 77.8359 292.064 77.9297V79.4326C291.326 79.2979 290.682 79.2305 290.131 79.2305C289.586 79.2305 289.161 79.2656 288.856 79.3359C288.558 79.4062 288.332 79.4941 288.18 79.5996C287.939 79.7637 287.819 79.9775 287.819 80.2412C287.819 80.499 287.901 80.71 288.065 80.874C288.235 81.0322 288.499 81.2051 288.856 81.3926L290.148 82.0166C290.992 82.4561 291.534 82.793 291.774 83.0273C292.231 83.4727 292.46 84.0322 292.46 84.7061C292.46 85.4268 292.097 86.0068 291.37 86.4463C290.608 86.9092 289.545 87.1406 288.18 87.1406ZM299.192 87.1406C295.876 87.1406 294.218 85.5205 294.218 82.2803C294.218 80.8857 294.678 79.7695 295.598 78.9316C296.424 78.1699 297.367 77.7891 298.428 77.7891C299.582 77.7891 300.484 78.1758 301.135 78.9492C301.738 79.6699 302.04 80.6338 302.04 81.8408V82.5264H296.046C296.046 84.1846 296.723 85.1982 298.076 85.5674C298.398 85.6553 298.894 85.6992 299.562 85.6992C300.235 85.6992 300.895 85.6084 301.539 85.4268V86.9121C300.895 87.0645 300.112 87.1406 299.192 87.1406ZM300.282 81.2344C300.282 80.6719 300.127 80.1973 299.816 79.8105C299.453 79.3652 298.952 79.1426 298.313 79.1426C297.64 79.1426 297.092 79.3564 296.67 79.7842C296.283 80.1826 296.09 80.666 296.09 81.2344H300.282ZM305.345 78.9229C305.854 78.5303 306.426 78.2432 307.059 78.0615C307.697 77.8799 308.254 77.7891 308.729 77.7891C309.203 77.7891 309.569 77.8008 309.827 77.8242V73.9219H311.576V87H310.003L309.933 85.9541C309.575 86.4287 309.033 86.7803 308.307 87.0088C308.025 87.0967 307.738 87.1406 307.445 87.1406C307.158 87.1406 306.874 87.1113 306.593 87.0527C306.312 86.9941 306.03 86.8975 305.749 86.7627C305.474 86.6221 305.21 86.4404 304.958 86.2178C304.706 85.9893 304.48 85.7109 304.281 85.3828C303.859 84.6621 303.648 83.8096 303.648 82.8252C303.648 81.8408 303.804 81.0439 304.114 80.4346C304.431 79.8193 304.841 79.3154 305.345 78.9229ZM306.408 79.9688C306.109 80.25 305.878 80.6133 305.714 81.0586C305.556 81.498 305.477 82.0342 305.477 82.667C305.477 83.2939 305.553 83.8125 305.705 84.2227C305.857 84.627 306.048 84.9434 306.276 85.1719C306.681 85.582 307.167 85.7871 307.735 85.7871C308.468 85.7871 309.074 85.5176 309.555 84.9785C309.678 84.8438 309.766 84.7236 309.818 84.6182V79.2129L309.643 79.1953C309.373 79.1602 309.051 79.1426 308.676 79.1426C308.307 79.1426 307.911 79.21 307.489 79.3447C307.067 79.4736 306.707 79.6816 306.408 79.9688ZM319.24 77.9297H321.112L323.441 85.1367L325.797 77.9297H327.625L330.007 85.1104L332.222 77.9297H333.962L330.912 87H329.102L326.658 80.127L324.347 87H322.536L319.24 77.9297ZM335.878 85.3828C335.685 85.0488 335.529 84.6562 335.412 84.2051C335.301 83.7539 335.245 83.165 335.245 82.4385C335.245 81.7119 335.4 81.0439 335.711 80.4346C336.027 79.8193 336.438 79.3154 336.941 78.9229C337.92 78.167 339.136 77.7891 340.589 77.7891C341.345 77.7891 341.916 77.8066 342.303 77.8418C342.303 77.8418 342.587 77.8711 343.155 77.9297V87H341.573L341.503 85.9541C341.151 86.4229 340.615 86.7715 339.895 87C339.619 87.0879 339.335 87.1318 339.042 87.1318C338.755 87.1318 338.471 87.1025 338.189 87.0439C337.908 86.9854 337.627 86.8887 337.346 86.7539C337.07 86.6191 336.807 86.4404 336.555 86.2178C336.303 85.9893 336.077 85.7109 335.878 85.3828ZM341.397 79.2217C341.022 79.1748 340.647 79.1514 340.272 79.1514C339.903 79.1514 339.508 79.2188 339.086 79.3535C338.664 79.4824 338.304 79.6875 338.005 79.9688C337.384 80.5547 337.073 81.4482 337.073 82.6494C337.073 83.7861 337.34 84.627 337.873 85.1719C338.277 85.5762 338.764 85.7783 339.332 85.7783C340.064 85.7783 340.668 85.5117 341.143 84.9785C341.26 84.8438 341.345 84.7236 341.397 84.6182V79.2217ZM345.59 89.25C345.748 89.2969 345.962 89.3203 346.231 89.3203C346.507 89.3203 346.788 89.2646 347.075 89.1533C347.362 89.0479 347.611 88.8984 347.822 88.7051C348.174 88.3887 348.493 87.8906 348.78 87.2109L345.054 77.9297H346.926L349.545 85.1543L351.892 77.9297H353.746L350.02 88.1162C349.738 88.8779 349.349 89.4609 348.851 89.8652C348.194 90.3926 347.318 90.6562 346.223 90.6562C346.123 90.6562 346.021 90.6504 345.915 90.6387L345.59 90.6035V89.25ZM355.873 87.2197C355.521 87.2197 355.229 87.126 354.994 86.9385C354.766 86.7451 354.651 86.4697 354.651 86.1123C354.651 85.749 354.766 85.4707 354.994 85.2773C355.229 85.084 355.521 84.9873 355.873 84.9873C356.23 84.9873 356.526 85.084 356.761 85.2773C356.995 85.4707 357.112 85.749 357.112 86.1123C357.112 86.4697 356.995 86.7451 356.761 86.9385C356.526 87.126 356.23 87.2197 355.873 87.2197Z" fill="#090A0E"/>
<defs>
<filter id="filter0_d_4529_34069" x="0" y="27" width="612" height="117" filterUnits="userSpaceOnUse" color-interpolation-filters="sRGB">
<feFlood flood-opacity="0" result="BackgroundImageFix"/>
<feColorMatrix in="SourceAlpha" type="matrix" values="0 0 0 0 0 0 0 0 0 0 0 0 0 0 0 0 0 0 127 0" result="hardAlpha"/>
<feOffset dy="3"/>
<feGaussianBlur stdDeviation="3"/>
<feColorMatrix type="matrix" values="0 0 0 0 0 0 0 0 0 0 0 0 0 0 0 0 0 0 0.15 0"/>
<feBlend mode="normal" in2="BackgroundImageFix" result="effect1_dropShadow_4529_34069"/>
<feBlend mode="normal" in="SourceGraphic" in2="effect1_dropShadow_4529_34069" result="shape"/>
</filter>
<filter id="filter1_d_4529_34069" x="0" y="23" width="612" height="117" filterUnits="userSpaceOnUse" color-interpolation-filters="sRGB">
<feFlood flood-opacity="0" result="BackgroundImageFix"/>
<feColorMatrix in="SourceAlpha" type="matrix" values="0 0 0 0 0 0 0 0 0 0 0 0 0 0 0 0 0 0 127 0" result="hardAlpha"/>
<feOffset dy="3"/>
<feGaussianBlur stdDeviation="3"/>
<feColorMatrix type="matrix" values="0 0 0 0 0 0 0 0 0 0 0 0 0 0 0 0 0 0 0.15 0"/>
<feBlend mode="normal" in2="BackgroundImageFix" result="effect1_dropShadow_4529_34069"/>
<feBlend mode="normal" in="SourceGraphic" in2="effect1_dropShadow_4529_34069" result="shape"/>
</filter>
<filter id="filter2_d_4529_34069" x="0" y="0" width="612" height="137" filterUnits="userSpaceOnUse" color-interpolation-filters="sRGB">
<feFlood flood-opacity="0" result="BackgroundImageFix"/>
<feColorMatrix in="SourceAlpha" type="matrix" values="0 0 0 0 0 0 0 0 0 0 0 0 0 0 0 0 0 0 127 0" result="hardAlpha"/>
<feOffset dy="3"/>
<feGaussianBlur stdDeviation="3"/>
<feColorMatrix type="matrix" values="0 0 0 0 0 0 0 0 0 0 0 0 0 0 0 0 0 0 0.15 0"/>
<feBlend mode="normal" in2="BackgroundImageFix" result="effect1_dropShadow_4529_34069"/>
<feBlend mode="normal" in="SourceGraphic" in2="effect1_dropShadow_4529_34069" result="shape"/>
</filter>
</defs>
</svg>
