<svg width="612" height="137" viewBox="0 0 612 137" fill="none" xmlns="http://www.w3.org/2000/svg">
<g filter="url(#filter0_d_4529_34072)">
<rect x="6" y="3" width="600" height="125" rx="20" fill="white"/>
</g>
<path d="M42.525 45V30.7H46.975V27.15H34.5V30.7H38.95V45H42.525ZM62.6219 45L58.4719 37.625C63.7219 36.1 63.0969 27.125 56.7219 27.125H49.6719V45H53.2469V38.175H54.9719L58.5719 45H62.6219ZM53.2469 30.7H56.3969C58.8219 30.7 58.8219 34.7 56.3969 34.7H53.2469V30.7ZM77.8289 38.775V27.125H74.2789V38.75C74.2789 42.5 68.4789 42.5 68.4789 38.75V27.125H64.9039V38.775C64.9039 47.275 77.8289 47.275 77.8289 38.775ZM80.9514 43.85C83.3764 45.1 85.6014 45.225 86.6014 45.15C89.9514 44.975 92.0014 42.7 92.0014 39.725C92.0014 36.875 89.6014 35.275 86.8264 34.25C85.8014 33.9 84.9264 33.45 84.8264 32.45C84.7514 31.45 85.3264 30.525 86.6014 30.45C87.1514 30.425 88.2764 30.4 90.2514 31.2L90.7014 27.75C88.4014 26.95 87.1764 26.95 86.2514 27C83.2764 27.15 81.2014 29.45 81.2014 32.45C81.2014 35.45 83.7014 36.875 86.5014 37.9C87.5014 38.25 88.2764 38.7 88.3514 39.725C88.4514 40.7 87.5514 41.45 86.5014 41.525C85.6764 41.6 83.4514 41.55 81.4014 40.1L80.9514 43.85ZM101.534 45V30.7H105.984V27.15H93.5088V30.7H97.9588V45H101.534ZM108.681 27.125V45H117.931V41.425H112.256V27.125H108.681ZM130.26 45V41.425H124.585V37.85H129.285V34.275H124.585V30.7H129.96V27.125H121.01V45H130.26ZM132.782 43.85C135.207 45.1 137.432 45.225 138.432 45.15C141.782 44.975 143.832 42.7 143.832 39.725C143.832 36.875 141.432 35.275 138.657 34.25C137.632 33.9 136.757 33.45 136.657 32.45C136.582 31.45 137.157 30.525 138.432 30.45C138.982 30.425 140.107 30.4 142.082 31.2L142.532 27.75C140.232 26.95 139.007 26.95 138.082 27C135.107 27.15 133.032 29.45 133.032 32.45C133.032 35.45 135.532 36.875 138.332 37.9C139.332 38.25 140.107 38.7 140.182 39.725C140.282 40.7 139.382 41.45 138.332 41.525C137.507 41.6 135.282 41.55 133.232 40.1L132.782 43.85ZM146.015 43.85C148.44 45.1 150.665 45.225 151.665 45.15C155.015 44.975 157.065 42.7 157.065 39.725C157.065 36.875 154.665 35.275 151.89 34.25C150.865 33.9 149.99 33.45 149.89 32.45C149.815 31.45 150.39 30.525 151.665 30.45C152.215 30.425 153.34 30.4 155.315 31.2L155.765 27.75C153.465 26.95 152.24 26.95 151.315 27C148.34 27.15 146.265 29.45 146.265 32.45C146.265 35.45 148.765 36.875 151.565 37.9C152.565 38.25 153.34 38.7 153.415 39.725C153.515 40.7 152.615 41.45 151.565 41.525C150.74 41.6 148.515 41.55 146.465 40.1L146.015 43.85ZM172.927 26.9C173.893 26.9 174.752 27.05 175.502 27.35C176.252 27.65 176.843 28.0917 177.277 28.675C177.71 29.2417 177.927 29.9417 177.927 30.775C177.927 31.925 177.585 32.8917 176.902 33.675C176.218 34.4583 175.368 35.1417 174.352 35.725L177.827 39.1C178.16 38.5333 178.452 37.9417 178.702 37.325C178.952 36.6917 179.16 36.0583 179.327 35.425H183.202C182.952 36.3583 182.585 37.3583 182.102 38.425C181.618 39.4917 181.002 40.4917 180.252 41.425L183.927 45H179.327L177.927 43.625C177.56 43.875 177.177 44.1 176.777 44.3C176.377 44.5 175.96 44.675 175.527 44.825C175.093 44.9583 174.635 45.0583 174.152 45.125C173.668 45.2083 173.168 45.25 172.652 45.25C171.302 45.25 170.143 45.0417 169.177 44.625C168.21 44.1917 167.468 43.5917 166.952 42.825C166.435 42.0583 166.177 41.175 166.177 40.175C166.177 39.325 166.302 38.6 166.552 38C166.818 37.3833 167.193 36.85 167.677 36.4C168.177 35.9333 168.768 35.5083 169.452 35.125C169.018 34.625 168.668 34.1583 168.402 33.725C168.152 33.275 167.968 32.8333 167.852 32.4C167.752 31.9667 167.702 31.5083 167.702 31.025C167.702 30.175 167.918 29.4417 168.352 28.825C168.802 28.2083 169.418 27.7333 170.202 27.4C171.002 27.0667 171.91 26.9 172.927 26.9ZM171.627 37.35C171.31 37.5833 171.035 37.825 170.802 38.075C170.585 38.325 170.41 38.5917 170.277 38.875C170.16 39.1583 170.102 39.475 170.102 39.825C170.102 40.5417 170.368 41.1083 170.902 41.525C171.435 41.925 172.102 42.125 172.902 42.125C173.435 42.125 173.935 42.0583 174.402 41.925C174.868 41.7917 175.293 41.6083 175.677 41.375L171.627 37.35ZM172.902 29.775C172.485 29.775 172.085 29.8833 171.702 30.1C171.335 30.3 171.152 30.6917 171.152 31.275C171.152 31.6917 171.252 32.0917 171.452 32.475C171.668 32.8583 171.952 33.25 172.302 33.65C173.002 33.2667 173.535 32.8833 173.902 32.5C174.285 32.1167 174.477 31.675 174.477 31.175C174.477 30.675 174.31 30.3167 173.977 30.1C173.643 29.8833 173.285 29.775 172.902 29.775ZM198.356 27.125H193.031V45H198.356C210.256 45 210.256 27.125 198.356 27.125ZM198.356 30.7C205.306 30.7 205.306 41.425 198.356 41.425H196.606V30.7H198.356ZM219.884 45V41.425H214.209V37.85H218.909V34.275H214.209V30.7H219.584V27.125H210.634V45H219.884ZM234.606 31.275L235.031 27.6C233.956 27.125 232.756 26.9 231.506 26.9C219.406 26.9 219.381 45.05 231.506 45.05C232.756 45.05 234.331 44.75 235.431 44.3L234.956 40.6C234.281 40.95 233.056 41.4 231.506 41.4C224.431 41.4 224.431 30.5 231.506 30.5C233.056 30.5 233.931 30.925 234.606 31.275ZM247.521 45V41.425H241.846V37.85H246.546V34.275H241.846V30.7H247.221V27.125H238.271V45H247.521ZM254.443 35.275L263.493 45.375H264.443V27.15H260.843V37.25L251.818 26.75H250.868V45H254.443V35.275ZM274.996 45V30.7H279.446V27.15H266.971V30.7H271.421V45H274.996ZM295.093 45L290.943 37.625C296.193 36.1 295.568 27.125 289.193 27.125H282.143V45H285.718V38.175H287.443L291.043 45H295.093ZM285.718 30.7H288.868C291.293 30.7 291.293 34.7 288.868 34.7H285.718V30.7ZM295.875 45H299.925L300.625 43.075H306.55L307.275 45H311.3L303.775 26.475H303.4L295.875 45ZM301.925 39.725L303.6 35.075L305.225 39.725H301.925ZM313.808 27.125V45H323.058V41.425H317.383V27.125H313.808ZM329.712 45V27.125H326.137V45H329.712ZM344.254 45V41.4H337.604C339.754 36.65 341.904 31.9 344.054 27.125H333.229V30.6H338.729C336.579 35.375 334.429 40.2 332.279 45H344.254ZM356.358 45V41.425H350.683V37.85H355.383V34.275H350.683V30.7H356.058V27.125H347.108V45H356.358ZM365.031 27.125H359.706V45H365.031C376.931 45 376.931 27.125 365.031 27.125ZM365.031 30.7C371.981 30.7 371.981 41.425 365.031 41.425H363.281V30.7H365.031ZM383.588 43.85C386.013 45.1 388.238 45.225 389.238 45.15C392.588 44.975 394.638 42.7 394.638 39.725C394.638 36.875 392.238 35.275 389.463 34.25C388.438 33.9 387.563 33.45 387.463 32.45C387.388 31.45 387.963 30.525 389.238 30.45C389.788 30.425 390.913 30.4 392.888 31.2L393.338 27.75C391.038 26.95 389.813 26.95 388.888 27C385.913 27.15 383.838 29.45 383.838 32.45C383.838 35.45 386.338 36.875 389.138 37.9C390.138 38.25 390.913 38.7 390.988 39.725C391.088 40.7 390.188 41.45 389.138 41.525C388.313 41.6 386.088 41.55 384.038 40.1L383.588 43.85ZM404.171 45V30.7H408.621V27.15H396.146V30.7H400.596V45H404.171ZM419.331 45.25C431.631 45.25 431.631 26.825 419.331 26.825C407.031 26.825 407.031 45.25 419.331 45.25ZM419.331 41.55C412.181 41.55 412.181 30.5 419.331 30.5C426.481 30.5 426.481 41.55 419.331 41.55ZM444.848 45L440.698 37.625C445.948 36.1 445.323 27.125 438.948 27.125H431.898V45H435.473V38.175H437.198L440.798 45H444.848ZM435.473 30.7H438.623C441.048 30.7 441.048 34.7 438.623 34.7H435.473V30.7ZM445.63 45H449.68L450.38 43.075H456.305L457.03 45H461.055L453.53 26.475H453.155L445.63 45ZM451.68 39.725L453.355 35.075L454.98 39.725H451.68ZM475.878 43.9V36.05H472.253V41.425C471.928 41.475 471.578 41.525 471.253 41.525C464.353 41.525 464.028 30.85 471.253 30.6C473.153 30.55 474.303 30.95 475.003 31.25L475.428 27.625C475.103 27.525 473.378 26.9 471.253 26.975C458.853 27.425 459.453 45.1 471.253 45.1C472.953 45.1 474.503 44.675 475.878 43.9ZM489.049 45V41.425H483.374V37.85H488.074V34.275H483.374V30.7H488.749V27.125H479.799V45H489.049Z" fill="#090A0E"/>
<path d="M33.6133 62.7656H35.4414L39.2822 72.8203L43.1055 62.7656H44.9336L40.1172 75H38.4297L33.6133 62.7656ZM50.1455 75.1406C46.8291 75.1406 45.1709 73.5205 45.1709 70.2803C45.1709 68.8857 45.6309 67.7695 46.5508 66.9316C47.377 66.1699 48.3203 65.7891 49.3809 65.7891C50.5352 65.7891 51.4375 66.1758 52.0879 66.9492C52.6914 67.6699 52.9932 68.6338 52.9932 69.8408V70.5264H46.999C46.999 72.1846 47.6758 73.1982 49.0293 73.5674C49.3516 73.6553 49.8467 73.6992 50.5146 73.6992C51.1885 73.6992 51.8477 73.6084 52.4922 73.4268V74.9121C51.8477 75.0645 51.0654 75.1406 50.1455 75.1406ZM51.2354 69.2344C51.2354 68.6719 51.0801 68.1973 50.7695 67.8105C50.4062 67.3652 49.9053 67.1426 49.2666 67.1426C48.5928 67.1426 48.0449 67.3564 47.623 67.7842C47.2363 68.1826 47.043 68.666 47.043 69.2344H51.2354ZM60.6924 67.5381C60.3701 67.4443 59.9834 67.3975 59.5322 67.3975C59.0869 67.3975 58.7207 67.4443 58.4336 67.5381C58.1465 67.626 57.8945 67.7344 57.6777 67.8633C57.2793 68.0977 56.9893 68.3613 56.8076 68.6543V75H55.0498V65.9297H56.7373L56.8076 67.1865C57.2471 66.6357 57.8887 66.2227 58.7324 65.9473C59.0371 65.8418 59.3857 65.7891 59.7783 65.7891C60.1709 65.7891 60.4756 65.8184 60.6924 65.877V67.5381ZM64.4805 63.293C64.4805 63.627 64.3691 63.8848 64.1465 64.0664C63.9297 64.2422 63.6572 64.3301 63.3291 64.3301C63.001 64.3301 62.7285 64.2422 62.5117 64.0664C62.3008 63.8848 62.1953 63.627 62.1953 63.293C62.1953 62.9531 62.3008 62.6953 62.5117 62.5195C62.7285 62.3438 63.001 62.2559 63.3291 62.2559C63.6572 62.2559 63.9297 62.3438 64.1465 62.5195C64.3691 62.6953 64.4805 62.9531 64.4805 63.293ZM62.4238 65.9297H64.1816V75H62.4238V65.9297ZM71.5557 63.2402C71.3447 63.1699 71.0518 63.1348 70.6768 63.1348C70.3018 63.1348 70.0029 63.1699 69.7803 63.2402C69.5635 63.3105 69.3906 63.4131 69.2617 63.5479C69.0391 63.7881 68.9277 64.1807 68.9277 64.7256V65.9297H71.1953V67.2744H68.9277V75H67.1699V67.2744H66.0801V66.4482L67.1699 65.9297V64.9629C67.1699 64.3477 67.2227 63.8848 67.3281 63.5742C67.4395 63.2637 67.5713 63.0059 67.7236 62.8008C67.876 62.5957 68.0811 62.417 68.3389 62.2646C68.8838 61.9424 69.6484 61.7812 70.6328 61.7812C71.043 61.7812 71.3506 61.8047 71.5557 61.8516V63.2402ZM72.584 77.25C72.7422 77.2969 72.9561 77.3203 73.2256 77.3203C73.501 77.3203 73.7822 77.2646 74.0693 77.1533C74.3564 77.0479 74.6055 76.8984 74.8164 76.7051C75.168 76.3887 75.4873 75.8906 75.7744 75.2109L72.0479 65.9297H73.9199L76.5391 73.1543L78.8857 65.9297H80.7402L77.0137 76.1162C76.7324 76.8779 76.3428 77.4609 75.8447 77.8652C75.1885 78.3926 74.3125 78.6562 73.2168 78.6562C73.1172 78.6562 73.0146 78.6504 72.9092 78.6387L72.584 78.6035V77.25ZM87.5957 77.25C87.7539 77.2969 87.9678 77.3203 88.2373 77.3203C88.5127 77.3203 88.7939 77.2646 89.0811 77.1533C89.3682 77.0479 89.6172 76.8984 89.8281 76.7051C90.1797 76.3887 90.499 75.8906 90.7861 75.2109L87.0596 65.9297H88.9316L91.5508 73.1543L93.8975 65.9297H95.752L92.0254 76.1162C91.7441 76.8779 91.3545 77.4609 90.8564 77.8652C90.2002 78.3926 89.3242 78.6562 88.2285 78.6562C88.1289 78.6562 88.0264 78.6504 87.9209 78.6387L87.5957 78.6035V77.25ZM96.4023 70.4473C96.4023 69.0234 96.8564 67.8691 97.7646 66.9844C98.6143 66.1582 99.666 65.7451 100.92 65.7451C102.15 65.7451 103.179 66.1582 104.005 66.9844C104.884 67.8633 105.323 69.0176 105.323 70.4473C105.323 71.8711 104.881 73.0195 103.996 73.8926C103.158 74.7246 102.13 75.1406 100.911 75.1406C99.6748 75.1406 98.626 74.7246 97.7646 73.8926C96.8564 73.0195 96.4023 71.8711 96.4023 70.4473ZM98.2305 70.4473C98.2305 71.9473 98.7109 72.9668 99.6719 73.5059C100.012 73.6934 100.419 73.7871 100.894 73.7871C101.368 73.7871 101.77 73.6934 102.098 73.5059C102.426 73.3125 102.695 73.0605 102.906 72.75C103.299 72.1523 103.495 71.3848 103.495 70.4473C103.495 68.959 103.023 67.9395 102.08 67.3887C101.752 67.1953 101.359 67.0986 100.902 67.0986C100.445 67.0986 100.047 67.1953 99.707 67.3887C99.373 67.5762 99.0977 67.8252 98.8809 68.1357C98.4473 68.7451 98.2305 69.5156 98.2305 70.4473ZM113.4 72.7764V65.9297H115.158V75H113.576L113.418 74.042C112.551 74.7744 111.593 75.1406 110.544 75.1406C109.431 75.1406 108.643 74.833 108.18 74.2178C107.699 73.5908 107.459 72.5098 107.459 70.9746V65.9297H109.217V70.8867C109.217 71.9707 109.372 72.709 109.683 73.1016C109.958 73.4531 110.482 73.6289 111.256 73.6289C112.035 73.6289 112.75 73.3447 113.4 72.7764ZM126.039 63.293C126.039 63.627 125.928 63.8848 125.705 64.0664C125.488 64.2422 125.216 64.3301 124.888 64.3301C124.56 64.3301 124.287 64.2422 124.07 64.0664C123.859 63.8848 123.754 63.627 123.754 63.293C123.754 62.9531 123.859 62.6953 124.07 62.5195C124.287 62.3438 124.56 62.2559 124.888 62.2559C125.216 62.2559 125.488 62.3438 125.705 62.5195C125.928 62.6953 126.039 62.9531 126.039 63.293ZM123.982 65.9297H125.74V75H123.982V65.9297ZM129.88 66.9229C130.39 66.5303 130.961 66.2432 131.594 66.0615C132.232 65.8799 132.789 65.7891 133.264 65.7891C133.738 65.7891 134.104 65.8008 134.362 65.8242V61.9219H136.111V75H134.538L134.468 73.9541C134.11 74.4287 133.568 74.7803 132.842 75.0088C132.561 75.0967 132.273 75.1406 131.98 75.1406C131.693 75.1406 131.409 75.1113 131.128 75.0527C130.847 74.9941 130.565 74.8975 130.284 74.7627C130.009 74.6221 129.745 74.4404 129.493 74.2178C129.241 73.9893 129.016 73.7109 128.816 73.3828C128.395 72.6621 128.184 71.8096 128.184 70.8252C128.184 69.8408 128.339 69.0439 128.649 68.4346C128.966 67.8193 129.376 67.3154 129.88 66.9229ZM130.943 67.9688C130.645 68.25 130.413 68.6133 130.249 69.0586C130.091 69.498 130.012 70.0342 130.012 70.667C130.012 71.2939 130.088 71.8125 130.24 72.2227C130.393 72.627 130.583 72.9434 130.812 73.1719C131.216 73.582 131.702 73.7871 132.271 73.7871C133.003 73.7871 133.609 73.5176 134.09 72.9785C134.213 72.8438 134.301 72.7236 134.354 72.6182V67.2129L134.178 67.1953C133.908 67.1602 133.586 67.1426 133.211 67.1426C132.842 67.1426 132.446 67.21 132.024 67.3447C131.603 67.4736 131.242 67.6816 130.943 67.9688ZM143.239 75.1406C139.923 75.1406 138.265 73.5205 138.265 70.2803C138.265 68.8857 138.725 67.7695 139.645 66.9316C140.471 66.1699 141.414 65.7891 142.475 65.7891C143.629 65.7891 144.531 66.1758 145.182 66.9492C145.785 67.6699 146.087 68.6338 146.087 69.8408V70.5264H140.093C140.093 72.1846 140.77 73.1982 142.123 73.5674C142.445 73.6553 142.94 73.6992 143.608 73.6992C144.282 73.6992 144.941 73.6084 145.586 73.4268V74.9121C144.941 75.0645 144.159 75.1406 143.239 75.1406ZM144.329 69.2344C144.329 68.6719 144.174 68.1973 143.863 67.8105C143.5 67.3652 142.999 67.1426 142.36 67.1426C141.687 67.1426 141.139 67.3564 140.717 67.7842C140.33 68.1826 140.137 68.666 140.137 69.2344H144.329ZM152.107 67.3008C151.234 67.3008 150.458 67.5967 149.778 68.1885V75H148.021V65.9297H149.646L149.77 66.9141C150.725 66.1641 151.712 65.7891 152.731 65.7891C153.81 65.7891 154.601 66.1113 155.104 66.7559C155.632 67.4355 155.896 68.5312 155.896 70.043V75H154.138V70.043C154.138 68.5898 153.745 67.7227 152.96 67.4414C152.708 67.3477 152.424 67.3008 152.107 67.3008ZM161.793 73.6113C161.986 73.6816 162.279 73.7168 162.672 73.7168C163.064 73.7168 163.393 73.6699 163.656 73.5762V74.9824C163.533 75.0117 163.354 75.0293 163.12 75.0352L162.566 75.0527C162.443 75.0527 162.35 75.0527 162.285 75.0527C161.154 75.0527 160.319 74.6836 159.78 73.9453C159.347 73.3477 159.13 72.5566 159.13 71.5723V67.2744H157.829V66.4482L159.13 65.9297L159.552 63.6797H160.888V65.9297H163.7V67.2744H160.888V71.5635C160.888 72.7119 161.189 73.3945 161.793 73.6113ZM168.086 63.293C168.086 63.627 167.975 63.8848 167.752 64.0664C167.535 64.2422 167.263 64.3301 166.935 64.3301C166.606 64.3301 166.334 64.2422 166.117 64.0664C165.906 63.8848 165.801 63.627 165.801 63.293C165.801 62.9531 165.906 62.6953 166.117 62.5195C166.334 62.3438 166.606 62.2559 166.935 62.2559C167.263 62.2559 167.535 62.3438 167.752 62.5195C167.975 62.6953 168.086 62.9531 168.086 63.293ZM166.029 65.9297H167.787V75H166.029V65.9297ZM173.816 73.6113C174.01 73.6816 174.303 73.7168 174.695 73.7168C175.088 73.7168 175.416 73.6699 175.68 73.5762V74.9824C175.557 75.0117 175.378 75.0293 175.144 75.0352L174.59 75.0527C174.467 75.0527 174.373 75.0527 174.309 75.0527C173.178 75.0527 172.343 74.6836 171.804 73.9453C171.37 73.3477 171.153 72.5566 171.153 71.5723V67.2744H169.853V66.4482L171.153 65.9297L171.575 63.6797H172.911V65.9297H175.724V67.2744H172.911V71.5635C172.911 72.7119 173.213 73.3945 173.816 73.6113ZM177.684 77.25C177.842 77.2969 178.056 77.3203 178.325 77.3203C178.601 77.3203 178.882 77.2646 179.169 77.1533C179.456 77.0479 179.705 76.8984 179.916 76.7051C180.268 76.3887 180.587 75.8906 180.874 75.2109L177.147 65.9297H179.02L181.639 73.1543L183.985 65.9297H185.84L182.113 76.1162C181.832 76.8779 181.442 77.4609 180.944 77.8652C180.288 78.3926 179.412 78.6562 178.316 78.6562C178.217 78.6562 178.114 78.6504 178.009 78.6387L177.684 78.6035V77.25ZM193.478 73.3828C193.284 73.0488 193.129 72.6562 193.012 72.2051C192.9 71.7539 192.845 71.165 192.845 70.4385C192.845 69.7119 193 69.0439 193.311 68.4346C193.627 67.8193 194.037 67.3154 194.541 66.9229C195.52 66.167 196.735 65.7891 198.188 65.7891C198.944 65.7891 199.516 65.8066 199.902 65.8418C199.902 65.8418 200.187 65.8711 200.755 65.9297V75H199.173L199.103 73.9541C198.751 74.4229 198.215 74.7715 197.494 75C197.219 75.0879 196.935 75.1318 196.642 75.1318C196.354 75.1318 196.07 75.1025 195.789 75.0439C195.508 74.9854 195.227 74.8887 194.945 74.7539C194.67 74.6191 194.406 74.4404 194.154 74.2178C193.902 73.9893 193.677 73.7109 193.478 73.3828ZM198.997 67.2217C198.622 67.1748 198.247 67.1514 197.872 67.1514C197.503 67.1514 197.107 67.2188 196.686 67.3535C196.264 67.4824 195.903 67.6875 195.604 67.9688C194.983 68.5547 194.673 69.4482 194.673 70.6494C194.673 71.7861 194.939 72.627 195.473 73.1719C195.877 73.5762 196.363 73.7783 196.932 73.7783C197.664 73.7783 198.268 73.5117 198.742 72.9785C198.859 72.8438 198.944 72.7236 198.997 72.6182V67.2217ZM206.828 73.6113C207.021 73.6816 207.314 73.7168 207.707 73.7168C208.1 73.7168 208.428 73.6699 208.691 73.5762V74.9824C208.568 75.0117 208.39 75.0293 208.155 75.0352L207.602 75.0527C207.479 75.0527 207.385 75.0527 207.32 75.0527C206.189 75.0527 205.354 74.6836 204.815 73.9453C204.382 73.3477 204.165 72.5566 204.165 71.5723V67.2744H202.864V66.4482L204.165 65.9297L204.587 63.6797H205.923V65.9297H208.735V67.2744H205.923V71.5635C205.923 72.7119 206.225 73.3945 206.828 73.6113ZM220.328 73.6113C220.521 73.6816 220.814 73.7168 221.207 73.7168C221.6 73.7168 221.928 73.6699 222.191 73.5762V74.9824C222.068 75.0117 221.89 75.0293 221.655 75.0352L221.102 75.0527C220.979 75.0527 220.885 75.0527 220.82 75.0527C219.689 75.0527 218.854 74.6836 218.315 73.9453C217.882 73.3477 217.665 72.5566 217.665 71.5723V67.2744H216.364V66.4482L217.665 65.9297L218.087 63.6797H219.423V65.9297H222.235V67.2744H219.423V71.5635C219.423 72.7119 219.725 73.3945 220.328 73.6113ZM228.651 67.3008C227.784 67.3008 227.011 67.5967 226.331 68.1885V75H224.573V61.9219H226.331V66.9053C227.28 66.1611 228.262 65.7891 229.275 65.7891C230.359 65.7891 231.153 66.1113 231.657 66.7559C232.185 67.4355 232.448 68.5312 232.448 70.043V75H230.69V70.043C230.69 68.5898 230.295 67.7227 229.504 67.4414C229.252 67.3477 228.968 67.3008 228.651 67.3008ZM239.304 75.1406C235.987 75.1406 234.329 73.5205 234.329 70.2803C234.329 68.8857 234.789 67.7695 235.709 66.9316C236.535 66.1699 237.479 65.7891 238.539 65.7891C239.693 65.7891 240.596 66.1758 241.246 66.9492C241.85 67.6699 242.151 68.6338 242.151 69.8408V70.5264H236.157C236.157 72.1846 236.834 73.1982 238.188 73.5674C238.51 73.6553 239.005 73.6992 239.673 73.6992C240.347 73.6992 241.006 73.6084 241.65 73.4268V74.9121C241.006 75.0645 240.224 75.1406 239.304 75.1406ZM240.394 69.2344C240.394 68.6719 240.238 68.1973 239.928 67.8105C239.564 67.3652 239.063 67.1426 238.425 67.1426C237.751 67.1426 237.203 67.3564 236.781 67.7842C236.395 68.1826 236.201 68.666 236.201 69.2344H240.394ZM251.969 78.5156H250.211V65.9297H251.793L251.863 66.9668C252.215 66.498 252.754 66.1494 253.48 65.9209C253.762 65.833 254.046 65.7891 254.333 65.7891C254.626 65.7891 254.913 65.8213 255.194 65.8857C255.476 65.9443 255.754 66.0439 256.029 66.1846C256.305 66.3193 256.568 66.501 256.82 66.7295C257.072 66.9521 257.295 67.2305 257.488 67.5645C257.91 68.2852 258.121 69.1787 258.121 70.2451C258.121 71.874 257.559 73.1191 256.434 73.9805C255.438 74.748 254.225 75.1318 252.795 75.1318H252.355C252.215 75.1318 252.086 75.1289 251.969 75.123V78.5156ZM251.969 73.6992C252.133 73.7461 252.455 73.7695 252.936 73.7695C253.416 73.7695 253.867 73.7021 254.289 73.5674C254.711 73.4326 255.068 73.2246 255.361 72.9434C255.982 72.3457 256.293 71.4463 256.293 70.2451C256.293 69.1143 256.023 68.2793 255.484 67.7402C255.086 67.3418 254.6 67.1426 254.025 67.1426C253.305 67.1426 252.707 67.4092 252.232 67.9424C252.109 68.0771 252.021 68.1973 251.969 68.3027V73.6992ZM260.002 70.4473C260.002 69.0234 260.456 67.8691 261.364 66.9844C262.214 66.1582 263.266 65.7451 264.52 65.7451C265.75 65.7451 266.778 66.1582 267.604 66.9844C268.483 67.8633 268.923 69.0176 268.923 70.4473C268.923 71.8711 268.48 73.0195 267.596 73.8926C266.758 74.7246 265.729 75.1406 264.511 75.1406C263.274 75.1406 262.226 74.7246 261.364 73.8926C260.456 73.0195 260.002 71.8711 260.002 70.4473ZM261.83 70.4473C261.83 71.9473 262.311 72.9668 263.271 73.5059C263.611 73.6934 264.019 73.7871 264.493 73.7871C264.968 73.7871 265.369 73.6934 265.697 73.5059C266.025 73.3125 266.295 73.0605 266.506 72.75C266.898 72.1523 267.095 71.3848 267.095 70.4473C267.095 68.959 266.623 67.9395 265.68 67.3887C265.352 67.1953 264.959 67.0986 264.502 67.0986C264.045 67.0986 263.646 67.1953 263.307 67.3887C262.973 67.5762 262.697 67.8252 262.48 68.1357C262.047 68.7451 261.83 69.5156 261.83 70.4473ZM273.133 63.293C273.133 63.627 273.021 63.8848 272.799 64.0664C272.582 64.2422 272.31 64.3301 271.981 64.3301C271.653 64.3301 271.381 64.2422 271.164 64.0664C270.953 63.8848 270.848 63.627 270.848 63.293C270.848 62.9531 270.953 62.6953 271.164 62.5195C271.381 62.3438 271.653 62.2559 271.981 62.2559C272.31 62.2559 272.582 62.3438 272.799 62.5195C273.021 62.6953 273.133 62.9531 273.133 63.293ZM271.076 65.9297H272.834V75H271.076V65.9297ZM279.689 67.3008C278.816 67.3008 278.04 67.5967 277.36 68.1885V75H275.603V65.9297H277.229L277.352 66.9141C278.307 66.1641 279.294 65.7891 280.313 65.7891C281.392 65.7891 282.183 66.1113 282.687 66.7559C283.214 67.4355 283.478 68.5312 283.478 70.043V75H281.72V70.043C281.72 68.5898 281.327 67.7227 280.542 67.4414C280.29 67.3477 280.006 67.3008 279.689 67.3008ZM289.375 73.6113C289.568 73.6816 289.861 73.7168 290.254 73.7168C290.646 73.7168 290.975 73.6699 291.238 73.5762V74.9824C291.115 75.0117 290.937 75.0293 290.702 75.0352L290.148 75.0527C290.025 75.0527 289.932 75.0527 289.867 75.0527C288.736 75.0527 287.901 74.6836 287.362 73.9453C286.929 73.3477 286.712 72.5566 286.712 71.5723V67.2744H285.411V66.4482L286.712 65.9297L287.134 63.6797H288.47V65.9297H291.282V67.2744H288.47V71.5635C288.47 72.7119 288.771 73.3945 289.375 73.6113ZM299.025 70.4473C299.025 69.0234 299.479 67.8691 300.388 66.9844C301.237 66.1582 302.289 65.7451 303.543 65.7451C304.773 65.7451 305.802 66.1582 306.628 66.9844C307.507 67.8633 307.946 69.0176 307.946 70.4473C307.946 71.8711 307.504 73.0195 306.619 73.8926C305.781 74.7246 304.753 75.1406 303.534 75.1406C302.298 75.1406 301.249 74.7246 300.388 73.8926C299.479 73.0195 299.025 71.8711 299.025 70.4473ZM300.854 70.4473C300.854 71.9473 301.334 72.9668 302.295 73.5059C302.635 73.6934 303.042 73.7871 303.517 73.7871C303.991 73.7871 304.393 73.6934 304.721 73.5059C305.049 73.3125 305.318 73.0605 305.529 72.75C305.922 72.1523 306.118 71.3848 306.118 70.4473C306.118 68.959 305.646 67.9395 304.703 67.3887C304.375 67.1953 303.982 67.0986 303.525 67.0986C303.068 67.0986 302.67 67.1953 302.33 67.3887C301.996 67.5762 301.721 67.8252 301.504 68.1357C301.07 68.7451 300.854 69.5156 300.854 70.4473ZM314.714 63.2402C314.503 63.1699 314.21 63.1348 313.835 63.1348C313.46 63.1348 313.161 63.1699 312.938 63.2402C312.722 63.3105 312.549 63.4131 312.42 63.5479C312.197 63.7881 312.086 64.1807 312.086 64.7256V65.9297H314.354V67.2744H312.086V75H310.328V67.2744H309.238V66.4482L310.328 65.9297V64.9629C310.328 64.3477 310.381 63.8848 310.486 63.5742C310.598 63.2637 310.729 63.0059 310.882 62.8008C311.034 62.5957 311.239 62.417 311.497 62.2646C312.042 61.9424 312.807 61.7812 313.791 61.7812C314.201 61.7812 314.509 61.8047 314.714 61.8516V63.2402ZM324.338 75.1406C323.605 75.1406 322.864 75.0879 322.114 74.9824V73.4268C322.876 73.6084 323.649 73.6992 324.435 73.6992C326.005 73.6992 326.79 73.3682 326.79 72.7061C326.79 72.4541 326.729 72.2666 326.605 72.1436C326.424 71.9502 326.137 71.7568 325.744 71.5635L324.461 70.9746C323.629 70.5586 323.09 70.2246 322.844 69.9727C322.381 69.5039 322.149 68.9473 322.149 68.3027C322.149 67.5762 322.486 66.9844 323.16 66.5273C323.887 66.0352 324.906 65.7891 326.219 65.7891C326.881 65.7891 327.549 65.8359 328.223 65.9297V67.4326C327.484 67.2979 326.84 67.2305 326.289 67.2305C325.744 67.2305 325.319 67.2656 325.015 67.3359C324.716 67.4062 324.49 67.4941 324.338 67.5996C324.098 67.7637 323.978 67.9775 323.978 68.2412C323.978 68.499 324.06 68.71 324.224 68.874C324.394 69.0322 324.657 69.2051 325.015 69.3926L326.307 70.0166C327.15 70.4561 327.692 70.793 327.933 71.0273C328.39 71.4727 328.618 72.0322 328.618 72.7061C328.618 73.4268 328.255 74.0068 327.528 74.4463C326.767 74.9092 325.703 75.1406 324.338 75.1406ZM335.351 75.1406C332.034 75.1406 330.376 73.5205 330.376 70.2803C330.376 68.8857 330.836 67.7695 331.756 66.9316C332.582 66.1699 333.525 65.7891 334.586 65.7891C335.74 65.7891 336.643 66.1758 337.293 66.9492C337.896 67.6699 338.198 68.6338 338.198 69.8408V70.5264H332.204C332.204 72.1846 332.881 73.1982 334.234 73.5674C334.557 73.6553 335.052 73.6992 335.72 73.6992C336.394 73.6992 337.053 73.6084 337.697 73.4268V74.9121C337.053 75.0645 336.271 75.1406 335.351 75.1406ZM336.44 69.2344C336.44 68.6719 336.285 68.1973 335.975 67.8105C335.611 67.3652 335.11 67.1426 334.472 67.1426C333.798 67.1426 333.25 67.3564 332.828 67.7842C332.441 68.1826 332.248 68.666 332.248 69.2344H336.44ZM344.219 67.3008C343.346 67.3008 342.569 67.5967 341.89 68.1885V75H340.132V65.9297H341.758L341.881 66.9141C342.836 66.1641 343.823 65.7891 344.843 65.7891C345.921 65.7891 346.712 66.1113 347.216 66.7559C347.743 67.4355 348.007 68.5312 348.007 70.043V75H346.249V70.043C346.249 68.5898 345.856 67.7227 345.071 67.4414C344.819 67.3477 344.535 67.3008 344.219 67.3008ZM352.015 66.9229C352.524 66.5303 353.096 66.2432 353.729 66.0615C354.367 65.8799 354.924 65.7891 355.398 65.7891C355.873 65.7891 356.239 65.8008 356.497 65.8242V61.9219H358.246V75H356.673L356.603 73.9541C356.245 74.4287 355.703 74.7803 354.977 75.0088C354.695 75.0967 354.408 75.1406 354.115 75.1406C353.828 75.1406 353.544 75.1113 353.263 75.0527C352.981 74.9941 352.7 74.8975 352.419 74.7627C352.144 74.6221 351.88 74.4404 351.628 74.2178C351.376 73.9893 351.15 73.7109 350.951 73.3828C350.529 72.6621 350.318 71.8096 350.318 70.8252C350.318 69.8408 350.474 69.0439 350.784 68.4346C351.101 67.8193 351.511 67.3154 352.015 66.9229ZM353.078 67.9688C352.779 68.25 352.548 68.6133 352.384 69.0586C352.226 69.498 352.146 70.0342 352.146 70.667C352.146 71.2939 352.223 71.8125 352.375 72.2227C352.527 72.627 352.718 72.9434 352.946 73.1719C353.351 73.582 353.837 73.7871 354.405 73.7871C355.138 73.7871 355.744 73.5176 356.225 72.9785C356.348 72.8438 356.436 72.7236 356.488 72.6182V67.2129L356.312 67.1953C356.043 67.1602 355.721 67.1426 355.346 67.1426C354.977 67.1426 354.581 67.21 354.159 67.3447C353.737 67.4736 353.377 67.6816 353.078 67.9688ZM363.186 63.293C363.186 63.627 363.074 63.8848 362.852 64.0664C362.635 64.2422 362.362 64.3301 362.034 64.3301C361.706 64.3301 361.434 64.2422 361.217 64.0664C361.006 63.8848 360.9 63.627 360.9 63.293C360.9 62.9531 361.006 62.6953 361.217 62.5195C361.434 62.3438 361.706 62.2559 362.034 62.2559C362.362 62.2559 362.635 62.3438 362.852 62.5195C363.074 62.6953 363.186 62.9531 363.186 63.293ZM361.129 65.9297H362.887V75H361.129V65.9297ZM369.742 67.3008C368.869 67.3008 368.093 67.5967 367.413 68.1885V75H365.655V65.9297H367.281L367.404 66.9141C368.359 66.1641 369.347 65.7891 370.366 65.7891C371.444 65.7891 372.235 66.1113 372.739 66.7559C373.267 67.4355 373.53 68.5312 373.53 70.043V75H371.772V70.043C371.772 68.5898 371.38 67.7227 370.595 67.4414C370.343 67.3477 370.059 67.3008 369.742 67.3008ZM381.326 78.4629C380.816 78.5918 380.16 78.6562 379.357 78.6562C378.561 78.6562 377.978 78.5977 377.608 78.4805V76.916C378.071 77.1152 378.637 77.2148 379.305 77.2148C379.979 77.2207 380.474 77.1768 380.79 77.083C381.106 76.9893 381.355 76.8369 381.537 76.626C381.865 76.2451 382.029 75.5566 382.029 74.5605V74.0947C381.584 74.54 380.998 74.8506 380.271 75.0264C379.979 75.0967 379.686 75.1318 379.393 75.1318C379.1 75.1318 378.812 75.0996 378.531 75.0352C378.256 74.9707 377.98 74.8682 377.705 74.7275C377.43 74.5811 377.166 74.3936 376.914 74.165C376.662 73.9307 376.439 73.6406 376.246 73.2949C375.812 72.5449 375.596 71.6221 375.596 70.5264C375.584 69.5127 375.877 68.6221 376.475 67.8545C376.99 67.1865 377.699 66.668 378.602 66.2988C379.422 65.959 380.31 65.7891 381.265 65.7891C382.22 65.7891 383.061 65.8359 383.787 65.9297V74.5605C383.787 76.752 382.967 78.0527 381.326 78.4629ZM382.029 67.2129C381.654 67.166 381.285 67.1426 380.922 67.1426C380.559 67.1426 380.151 67.21 379.7 67.3447C379.249 67.4795 378.854 67.6846 378.514 67.96C377.77 68.5635 377.397 69.4189 377.397 70.5264C377.397 71.7275 377.688 72.6035 378.268 73.1543C378.701 73.5703 379.231 73.7783 379.858 73.7783C380.614 73.7783 381.25 73.5117 381.766 72.9785C381.889 72.8438 381.977 72.7236 382.029 72.6182V67.2129ZM386.881 73.3652H388.577V75C388.577 76.1367 388.357 76.9746 387.918 77.5137C387.426 78.1113 386.623 78.4102 385.51 78.4102V76.96C386.248 76.96 386.682 76.5938 386.811 75.8613C386.857 75.6152 386.881 75.3281 386.881 75V73.3652ZM400.416 73.6113C400.609 73.6816 400.902 73.7168 401.295 73.7168C401.688 73.7168 402.016 73.6699 402.279 73.5762V74.9824C402.156 75.0117 401.978 75.0293 401.743 75.0352L401.189 75.0527C401.066 75.0527 400.973 75.0527 400.908 75.0527C399.777 75.0527 398.942 74.6836 398.403 73.9453C397.97 73.3477 397.753 72.5566 397.753 71.5723V67.2744H396.452V66.4482L397.753 65.9297L398.175 63.6797H399.511V65.9297H402.323V67.2744H399.511V71.5635C399.511 72.7119 399.812 73.3945 400.416 73.6113ZM404.072 70.4473C404.072 69.0234 404.526 67.8691 405.435 66.9844C406.284 66.1582 407.336 65.7451 408.59 65.7451C409.82 65.7451 410.849 66.1582 411.675 66.9844C412.554 67.8633 412.993 69.0176 412.993 70.4473C412.993 71.8711 412.551 73.0195 411.666 73.8926C410.828 74.7246 409.8 75.1406 408.581 75.1406C407.345 75.1406 406.296 74.7246 405.435 73.8926C404.526 73.0195 404.072 71.8711 404.072 70.4473ZM405.9 70.4473C405.9 71.9473 406.381 72.9668 407.342 73.5059C407.682 73.6934 408.089 73.7871 408.563 73.7871C409.038 73.7871 409.439 73.6934 409.768 73.5059C410.096 73.3125 410.365 73.0605 410.576 72.75C410.969 72.1523 411.165 71.3848 411.165 70.4473C411.165 68.959 410.693 67.9395 409.75 67.3887C409.422 67.1953 409.029 67.0986 408.572 67.0986C408.115 67.0986 407.717 67.1953 407.377 67.3887C407.043 67.5762 406.768 67.8252 406.551 68.1357C406.117 68.7451 405.9 69.5156 405.9 70.4473ZM423.039 78.5156H421.281V65.9297H422.863L422.934 66.9668C423.285 66.498 423.824 66.1494 424.551 65.9209C424.832 65.833 425.116 65.7891 425.403 65.7891C425.696 65.7891 425.983 65.8213 426.265 65.8857C426.546 65.9443 426.824 66.0439 427.1 66.1846C427.375 66.3193 427.639 66.501 427.891 66.7295C428.143 66.9521 428.365 67.2305 428.559 67.5645C428.98 68.2852 429.191 69.1787 429.191 70.2451C429.191 71.874 428.629 73.1191 427.504 73.9805C426.508 74.748 425.295 75.1318 423.865 75.1318H423.426C423.285 75.1318 423.156 75.1289 423.039 75.123V78.5156ZM423.039 73.6992C423.203 73.7461 423.525 73.7695 424.006 73.7695C424.486 73.7695 424.938 73.7021 425.359 73.5674C425.781 73.4326 426.139 73.2246 426.432 72.9434C427.053 72.3457 427.363 71.4463 427.363 70.2451C427.363 69.1143 427.094 68.2793 426.555 67.7402C426.156 67.3418 425.67 67.1426 425.096 67.1426C424.375 67.1426 423.777 67.4092 423.303 67.9424C423.18 68.0771 423.092 68.1973 423.039 68.3027V73.6992ZM437.427 67.5381C437.104 67.4443 436.718 67.3975 436.267 67.3975C435.821 67.3975 435.455 67.4443 435.168 67.5381C434.881 67.626 434.629 67.7344 434.412 67.8633C434.014 68.0977 433.724 68.3613 433.542 68.6543V75H431.784V65.9297H433.472L433.542 67.1865C433.981 66.6357 434.623 66.2227 435.467 65.9473C435.771 65.8418 436.12 65.7891 436.513 65.7891C436.905 65.7891 437.21 65.8184 437.427 65.877V67.5381ZM438.578 70.4473C438.578 69.0234 439.032 67.8691 439.94 66.9844C440.79 66.1582 441.842 65.7451 443.096 65.7451C444.326 65.7451 445.354 66.1582 446.181 66.9844C447.06 67.8633 447.499 69.0176 447.499 70.4473C447.499 71.8711 447.057 73.0195 446.172 73.8926C445.334 74.7246 444.306 75.1406 443.087 75.1406C441.851 75.1406 440.802 74.7246 439.94 73.8926C439.032 73.0195 438.578 71.8711 438.578 70.4473ZM440.406 70.4473C440.406 71.9473 440.887 72.9668 441.848 73.5059C442.188 73.6934 442.595 73.7871 443.069 73.7871C443.544 73.7871 443.945 73.6934 444.273 73.5059C444.602 73.3125 444.871 73.0605 445.082 72.75C445.475 72.1523 445.671 71.3848 445.671 70.4473C445.671 68.959 445.199 67.9395 444.256 67.3887C443.928 67.1953 443.535 67.0986 443.078 67.0986C442.621 67.0986 442.223 67.1953 441.883 67.3887C441.549 67.5762 441.273 67.8252 441.057 68.1357C440.623 68.7451 440.406 69.5156 440.406 70.4473ZM448.422 65.9297H450.312L452.781 73.2861L455.26 65.9297H457.141L453.669 75H451.902L448.422 65.9297ZM460.691 63.293C460.691 63.627 460.58 63.8848 460.357 64.0664C460.141 64.2422 459.868 64.3301 459.54 64.3301C459.212 64.3301 458.939 64.2422 458.723 64.0664C458.512 63.8848 458.406 63.627 458.406 63.293C458.406 62.9531 458.512 62.6953 458.723 62.5195C458.939 62.3438 459.212 62.2559 459.54 62.2559C459.868 62.2559 460.141 62.3438 460.357 62.5195C460.58 62.6953 460.691 62.9531 460.691 63.293ZM458.635 65.9297H460.393V75H458.635V65.9297ZM464.532 66.9229C465.042 66.5303 465.613 66.2432 466.246 66.0615C466.885 65.8799 467.441 65.7891 467.916 65.7891C468.391 65.7891 468.757 65.8008 469.015 65.8242V61.9219H470.764V75H469.19L469.12 73.9541C468.763 74.4287 468.221 74.7803 467.494 75.0088C467.213 75.0967 466.926 75.1406 466.633 75.1406C466.346 75.1406 466.062 75.1113 465.78 75.0527C465.499 74.9941 465.218 74.8975 464.937 74.7627C464.661 74.6221 464.397 74.4404 464.146 74.2178C463.894 73.9893 463.668 73.7109 463.469 73.3828C463.047 72.6621 462.836 71.8096 462.836 70.8252C462.836 69.8408 462.991 69.0439 463.302 68.4346C463.618 67.8193 464.028 67.3154 464.532 66.9229ZM465.596 67.9688C465.297 68.25 465.065 68.6133 464.901 69.0586C464.743 69.498 464.664 70.0342 464.664 70.667C464.664 71.2939 464.74 71.8125 464.893 72.2227C465.045 72.627 465.235 72.9434 465.464 73.1719C465.868 73.582 466.354 73.7871 466.923 73.7871C467.655 73.7871 468.262 73.5176 468.742 72.9785C468.865 72.8438 468.953 72.7236 469.006 72.6182V67.2129L468.83 67.1953C468.561 67.1602 468.238 67.1426 467.863 67.1426C467.494 67.1426 467.099 67.21 466.677 67.3447C466.255 67.4736 465.895 67.6816 465.596 67.9688ZM477.892 75.1406C474.575 75.1406 472.917 73.5205 472.917 70.2803C472.917 68.8857 473.377 67.7695 474.297 66.9316C475.123 66.1699 476.066 65.7891 477.127 65.7891C478.281 65.7891 479.184 66.1758 479.834 66.9492C480.438 67.6699 480.739 68.6338 480.739 69.8408V70.5264H474.745C474.745 72.1846 475.422 73.1982 476.775 73.5674C477.098 73.6553 477.593 73.6992 478.261 73.6992C478.935 73.6992 479.594 73.6084 480.238 73.4268V74.9121C479.594 75.0645 478.812 75.1406 477.892 75.1406ZM478.981 69.2344C478.981 68.6719 478.826 68.1973 478.516 67.8105C478.152 67.3652 477.651 67.1426 477.013 67.1426C476.339 67.1426 475.791 67.3564 475.369 67.7842C474.982 68.1826 474.789 68.666 474.789 69.2344H478.981ZM41.1279 91.5381C40.8057 91.4443 40.4189 91.3975 39.9678 91.3975C39.5225 91.3975 39.1562 91.4443 38.8691 91.5381C38.582 91.626 38.3301 91.7344 38.1133 91.8633C37.7148 92.0977 37.4248 92.3613 37.2432 92.6543V99H35.4854V89.9297H37.1729L37.2432 91.1865C37.6826 90.6357 38.3242 90.2227 39.168 89.9473C39.4727 89.8418 39.8213 89.7891 40.2139 89.7891C40.6064 89.7891 40.9111 89.8184 41.1279 89.877V91.5381ZM47.1045 99.1406C43.7881 99.1406 42.1299 97.5205 42.1299 94.2803C42.1299 92.8857 42.5898 91.7695 43.5098 90.9316C44.3359 90.1699 45.2793 89.7891 46.3398 89.7891C47.4941 89.7891 48.3965 90.1758 49.0469 90.9492C49.6504 91.6699 49.9521 92.6338 49.9521 93.8408V94.5264H43.958C43.958 96.1846 44.6348 97.1982 45.9883 97.5674C46.3105 97.6553 46.8057 97.6992 47.4736 97.6992C48.1475 97.6992 48.8066 97.6084 49.4512 97.4268V98.9121C48.8066 99.0645 48.0244 99.1406 47.1045 99.1406ZM48.1943 93.2344C48.1943 92.6719 48.0391 92.1973 47.7285 91.8105C47.3652 91.3652 46.8643 91.1426 46.2256 91.1426C45.5518 91.1426 45.0039 91.3564 44.582 91.7842C44.1953 92.1826 44.002 92.666 44.002 93.2344H48.1943ZM58.3984 98.9736C58.0469 99.085 57.4375 99.1406 56.5703 99.1406C55.7031 99.1406 54.9648 99.0352 54.3555 98.8242C53.752 98.6133 53.2363 98.3027 52.8086 97.8926C51.9238 97.043 51.4814 95.8652 51.4814 94.3594C51.4814 92.9004 52.0117 91.752 53.0723 90.9141C54.0215 90.1641 55.1875 89.7891 56.5703 89.7891C57.4258 89.7891 58.0117 89.8184 58.3281 89.877V91.4414C57.8359 91.2832 57.2734 91.2041 56.6406 91.2041C56.0137 91.2041 55.4922 91.292 55.0762 91.4678C54.6602 91.6377 54.3203 91.8691 54.0566 92.1621C53.5586 92.7188 53.3096 93.4512 53.3096 94.3594C53.3096 95.8945 53.8633 96.917 54.9707 97.4268C55.3633 97.6084 55.7471 97.6992 56.1221 97.6992C56.4971 97.6992 56.7842 97.6904 56.9834 97.6729C57.1885 97.6553 57.3818 97.6318 57.5635 97.6025C57.9502 97.5381 58.2285 97.4707 58.3984 97.4004V98.9736ZM62.916 87.293C62.916 87.627 62.8047 87.8848 62.582 88.0664C62.3652 88.2422 62.0928 88.3301 61.7646 88.3301C61.4365 88.3301 61.1641 88.2422 60.9473 88.0664C60.7363 87.8848 60.6309 87.627 60.6309 87.293C60.6309 86.9531 60.7363 86.6953 60.9473 86.5195C61.1641 86.3438 61.4365 86.2559 61.7646 86.2559C62.0928 86.2559 62.3652 86.3438 62.582 86.5195C62.8047 86.6953 62.916 86.9531 62.916 87.293ZM60.8594 89.9297H62.6172V99H60.8594V89.9297ZM67.2754 102.516H65.5176V89.9297H67.0996L67.1699 90.9668C67.5215 90.498 68.0605 90.1494 68.7871 89.9209C69.0684 89.833 69.3525 89.7891 69.6396 89.7891C69.9326 89.7891 70.2197 89.8213 70.501 89.8857C70.7822 89.9443 71.0605 90.0439 71.3359 90.1846C71.6113 90.3193 71.875 90.501 72.127 90.7295C72.3789 90.9521 72.6016 91.2305 72.7949 91.5645C73.2168 92.2852 73.4277 93.1787 73.4277 94.2451C73.4277 95.874 72.8652 97.1191 71.7402 97.9805C70.7441 98.748 69.5312 99.1318 68.1016 99.1318H67.6621C67.5215 99.1318 67.3926 99.1289 67.2754 99.123V102.516ZM67.2754 97.6992C67.4395 97.7461 67.7617 97.7695 68.2422 97.7695C68.7227 97.7695 69.1738 97.7021 69.5957 97.5674C70.0176 97.4326 70.375 97.2246 70.668 96.9434C71.2891 96.3457 71.5996 95.4463 71.5996 94.2451C71.5996 93.1143 71.3301 92.2793 70.791 91.7402C70.3926 91.3418 69.9062 91.1426 69.332 91.1426C68.6113 91.1426 68.0137 91.4092 67.5391 91.9424C67.416 92.0771 67.3281 92.1973 67.2754 92.3027V97.6992ZM77.9453 87.293C77.9453 87.627 77.834 87.8848 77.6113 88.0664C77.3945 88.2422 77.1221 88.3301 76.7939 88.3301C76.4658 88.3301 76.1934 88.2422 75.9766 88.0664C75.7656 87.8848 75.6602 87.627 75.6602 87.293C75.6602 86.9531 75.7656 86.6953 75.9766 86.5195C76.1934 86.3438 76.4658 86.2559 76.7939 86.2559C77.1221 86.2559 77.3945 86.3438 77.6113 86.5195C77.834 86.6953 77.9453 86.9531 77.9453 87.293ZM75.8887 89.9297H77.6465V99H75.8887V89.9297ZM84.6514 99.1406C81.335 99.1406 79.6768 97.5205 79.6768 94.2803C79.6768 92.8857 80.1367 91.7695 81.0566 90.9316C81.8828 90.1699 82.8262 89.7891 83.8867 89.7891C85.041 89.7891 85.9434 90.1758 86.5938 90.9492C87.1973 91.6699 87.499 92.6338 87.499 93.8408V94.5264H81.5049C81.5049 96.1846 82.1816 97.1982 83.5352 97.5674C83.8574 97.6553 84.3525 97.6992 85.0205 97.6992C85.6943 97.6992 86.3535 97.6084 86.998 97.4268V98.9121C86.3535 99.0645 85.5713 99.1406 84.6514 99.1406ZM85.7412 93.2344C85.7412 92.6719 85.5859 92.1973 85.2754 91.8105C84.9121 91.3652 84.4111 91.1426 83.7725 91.1426C83.0986 91.1426 82.5508 91.3564 82.1289 91.7842C81.7422 92.1826 81.5488 92.666 81.5488 93.2344H85.7412ZM93.5195 91.3008C92.6465 91.3008 91.8701 91.5967 91.1904 92.1885V99H89.4326V89.9297H91.0586L91.1816 90.9141C92.1367 90.1641 93.124 89.7891 94.1436 89.7891C95.2217 89.7891 96.0127 90.1113 96.5166 90.7559C97.0439 91.4355 97.3076 92.5312 97.3076 94.043V99H95.5498V94.043C95.5498 92.5898 95.1572 91.7227 94.3721 91.4414C94.1201 91.3477 93.8359 91.3008 93.5195 91.3008ZM103.205 97.6113C103.398 97.6816 103.691 97.7168 104.084 97.7168C104.477 97.7168 104.805 97.6699 105.068 97.5762V98.9824C104.945 99.0117 104.767 99.0293 104.532 99.0352L103.979 99.0527C103.855 99.0527 103.762 99.0527 103.697 99.0527C102.566 99.0527 101.731 98.6836 101.192 97.9453C100.759 97.3477 100.542 96.5566 100.542 95.5723V91.2744H99.2412V90.4482L100.542 89.9297L100.964 87.6797H102.3V89.9297H105.112V91.2744H102.3V95.5635C102.3 96.7119 102.602 97.3945 103.205 97.6113ZM109.674 99.1406C108.941 99.1406 108.2 99.0879 107.45 98.9824V97.4268C108.212 97.6084 108.985 97.6992 109.771 97.6992C111.341 97.6992 112.126 97.3682 112.126 96.7061C112.126 96.4541 112.064 96.2666 111.941 96.1436C111.76 95.9502 111.473 95.7568 111.08 95.5635L109.797 94.9746C108.965 94.5586 108.426 94.2246 108.18 93.9727C107.717 93.5039 107.485 92.9473 107.485 92.3027C107.485 91.5762 107.822 90.9844 108.496 90.5273C109.223 90.0352 110.242 89.7891 111.555 89.7891C112.217 89.7891 112.885 89.8359 113.559 89.9297V91.4326C112.82 91.2979 112.176 91.2305 111.625 91.2305C111.08 91.2305 110.655 91.2656 110.351 91.3359C110.052 91.4062 109.826 91.4941 109.674 91.5996C109.434 91.7637 109.313 91.9775 109.313 92.2412C109.313 92.499 109.396 92.71 109.56 92.874C109.729 93.0322 109.993 93.2051 110.351 93.3926L111.643 94.0166C112.486 94.4561 113.028 94.793 113.269 95.0273C113.726 95.4727 113.954 96.0322 113.954 96.7061C113.954 97.4268 113.591 98.0068 112.864 98.4463C112.103 98.9092 111.039 99.1406 109.674 99.1406ZM121.223 89.9297H123.095L125.424 97.1367L127.779 89.9297H129.607L131.989 97.1104L134.204 89.9297H135.944L132.895 99H131.084L128.641 92.127L126.329 99H124.519L121.223 89.9297ZM139.504 87.293C139.504 87.627 139.393 87.8848 139.17 88.0664C138.953 88.2422 138.681 88.3301 138.353 88.3301C138.024 88.3301 137.752 88.2422 137.535 88.0664C137.324 87.8848 137.219 87.627 137.219 87.293C137.219 86.9531 137.324 86.6953 137.535 86.5195C137.752 86.3438 138.024 86.2559 138.353 86.2559C138.681 86.2559 138.953 86.3438 139.17 86.5195C139.393 86.6953 139.504 86.9531 139.504 87.293ZM137.447 89.9297H139.205V99H137.447V89.9297ZM145.234 97.6113C145.428 97.6816 145.721 97.7168 146.113 97.7168C146.506 97.7168 146.834 97.6699 147.098 97.5762V98.9824C146.975 99.0117 146.796 99.0293 146.562 99.0352L146.008 99.0527C145.885 99.0527 145.791 99.0527 145.727 99.0527C144.596 99.0527 143.761 98.6836 143.222 97.9453C142.788 97.3477 142.571 96.5566 142.571 95.5723V91.2744H141.271V90.4482L142.571 89.9297L142.993 87.6797H144.329V89.9297H147.142V91.2744H144.329V95.5635C144.329 96.7119 144.631 97.3945 145.234 97.6113ZM153.558 91.3008C152.69 91.3008 151.917 91.5967 151.237 92.1885V99H149.479V85.9219H151.237V90.9053C152.187 90.1611 153.168 89.7891 154.182 89.7891C155.266 89.7891 156.06 90.1113 156.563 90.7559C157.091 91.4355 157.354 92.5312 157.354 94.043V99H155.597V94.043C155.597 92.5898 155.201 91.7227 154.41 91.4414C154.158 91.3477 153.874 91.3008 153.558 91.3008ZM164.729 89.9297H166.618L169.088 97.2861L171.566 89.9297H173.447L169.976 99H168.209L164.729 89.9297ZM179.187 99.1406C175.87 99.1406 174.212 97.5205 174.212 94.2803C174.212 92.8857 174.672 91.7695 175.592 90.9316C176.418 90.1699 177.361 89.7891 178.422 89.7891C179.576 89.7891 180.479 90.1758 181.129 90.9492C181.732 91.6699 182.034 92.6338 182.034 93.8408V94.5264H176.04C176.04 96.1846 176.717 97.1982 178.07 97.5674C178.393 97.6553 178.888 97.6992 179.556 97.6992C180.229 97.6992 180.889 97.6084 181.533 97.4268V98.9121C180.889 99.0645 180.106 99.1406 179.187 99.1406ZM180.276 93.2344C180.276 92.6719 180.121 92.1973 179.811 91.8105C179.447 91.3652 178.946 91.1426 178.308 91.1426C177.634 91.1426 177.086 91.3564 176.664 91.7842C176.277 92.1826 176.084 92.666 176.084 93.2344H180.276ZM189.733 91.5381C189.411 91.4443 189.024 91.3975 188.573 91.3975C188.128 91.3975 187.762 91.4443 187.475 91.5381C187.188 91.626 186.936 91.7344 186.719 91.8633C186.32 92.0977 186.03 92.3613 185.849 92.6543V99H184.091V89.9297H185.778L185.849 91.1865C186.288 90.6357 186.93 90.2227 187.773 89.9473C188.078 89.8418 188.427 89.7891 188.819 89.7891C189.212 89.7891 189.517 89.8184 189.733 89.877V91.5381ZM193.521 87.293C193.521 87.627 193.41 87.8848 193.188 88.0664C192.971 88.2422 192.698 88.3301 192.37 88.3301C192.042 88.3301 191.77 88.2422 191.553 88.0664C191.342 87.8848 191.236 87.627 191.236 87.293C191.236 86.9531 191.342 86.6953 191.553 86.5195C191.77 86.3438 192.042 86.2559 192.37 86.2559C192.698 86.2559 192.971 86.3438 193.188 86.5195C193.41 86.6953 193.521 86.9531 193.521 87.293ZM191.465 89.9297H193.223V99H191.465V89.9297ZM200.597 87.2402C200.386 87.1699 200.093 87.1348 199.718 87.1348C199.343 87.1348 199.044 87.1699 198.821 87.2402C198.604 87.3105 198.432 87.4131 198.303 87.5479C198.08 87.7881 197.969 88.1807 197.969 88.7256V89.9297H200.236V91.2744H197.969V99H196.211V91.2744H195.121V90.4482L196.211 89.9297V88.9629C196.211 88.3477 196.264 87.8848 196.369 87.5742C196.48 87.2637 196.612 87.0059 196.765 86.8008C196.917 86.5957 197.122 86.417 197.38 86.2646C197.925 85.9424 198.689 85.7812 199.674 85.7812C200.084 85.7812 200.392 85.8047 200.597 85.8516V87.2402ZM204.051 87.293C204.051 87.627 203.939 87.8848 203.717 88.0664C203.5 88.2422 203.228 88.3301 202.899 88.3301C202.571 88.3301 202.299 88.2422 202.082 88.0664C201.871 87.8848 201.766 87.627 201.766 87.293C201.766 86.9531 201.871 86.6953 202.082 86.5195C202.299 86.3438 202.571 86.2559 202.899 86.2559C203.228 86.2559 203.5 86.3438 203.717 86.5195C203.939 86.6953 204.051 86.9531 204.051 87.293ZM201.994 89.9297H203.752V99H201.994V89.9297ZM213.033 98.9736C212.682 99.085 212.072 99.1406 211.205 99.1406C210.338 99.1406 209.6 99.0352 208.99 98.8242C208.387 98.6133 207.871 98.3027 207.443 97.8926C206.559 97.043 206.116 95.8652 206.116 94.3594C206.116 92.9004 206.646 91.752 207.707 90.9141C208.656 90.1641 209.822 89.7891 211.205 89.7891C212.061 89.7891 212.646 89.8184 212.963 89.877V91.4414C212.471 91.2832 211.908 91.2041 211.275 91.2041C210.648 91.2041 210.127 91.292 209.711 91.4678C209.295 91.6377 208.955 91.8691 208.691 92.1621C208.193 92.7188 207.944 93.4512 207.944 94.3594C207.944 95.8945 208.498 96.917 209.605 97.4268C209.998 97.6084 210.382 97.6992 210.757 97.6992C211.132 97.6992 211.419 97.6904 211.618 97.6729C211.823 97.6553 212.017 97.6318 212.198 97.6025C212.585 97.5381 212.863 97.4707 213.033 97.4004V98.9736ZM215.907 97.3828C215.714 97.0488 215.559 96.6562 215.441 96.2051C215.33 95.7539 215.274 95.165 215.274 94.4385C215.274 93.7119 215.43 93.0439 215.74 92.4346C216.057 91.8193 216.467 91.3154 216.971 90.9229C217.949 90.167 219.165 89.7891 220.618 89.7891C221.374 89.7891 221.945 89.8066 222.332 89.8418C222.332 89.8418 222.616 89.8711 223.185 89.9297V99H221.603L221.532 97.9541C221.181 98.4229 220.645 98.7715 219.924 99C219.648 99.0879 219.364 99.1318 219.071 99.1318C218.784 99.1318 218.5 99.1025 218.219 99.0439C217.938 98.9854 217.656 98.8887 217.375 98.7539C217.1 98.6191 216.836 98.4404 216.584 98.2178C216.332 97.9893 216.106 97.7109 215.907 97.3828ZM221.427 91.2217C221.052 91.1748 220.677 91.1514 220.302 91.1514C219.933 91.1514 219.537 91.2188 219.115 91.3535C218.693 91.4824 218.333 91.6875 218.034 91.9688C217.413 92.5547 217.103 93.4482 217.103 94.6494C217.103 95.7861 217.369 96.627 217.902 97.1719C218.307 97.5762 218.793 97.7783 219.361 97.7783C220.094 97.7783 220.697 97.5117 221.172 96.9785C221.289 96.8438 221.374 96.7236 221.427 96.6182V91.2217ZM229.258 97.6113C229.451 97.6816 229.744 97.7168 230.137 97.7168C230.529 97.7168 230.857 97.6699 231.121 97.5762V98.9824C230.998 99.0117 230.819 99.0293 230.585 99.0352L230.031 99.0527C229.908 99.0527 229.814 99.0527 229.75 99.0527C228.619 99.0527 227.784 98.6836 227.245 97.9453C226.812 97.3477 226.595 96.5566 226.595 95.5723V91.2744H225.294V90.4482L226.595 89.9297L227.017 87.6797H228.353V89.9297H231.165V91.2744H228.353V95.5635C228.353 96.7119 228.654 97.3945 229.258 97.6113ZM235.551 87.293C235.551 87.627 235.439 87.8848 235.217 88.0664C235 88.2422 234.728 88.3301 234.399 88.3301C234.071 88.3301 233.799 88.2422 233.582 88.0664C233.371 87.8848 233.266 87.627 233.266 87.293C233.266 86.9531 233.371 86.6953 233.582 86.5195C233.799 86.3438 234.071 86.2559 234.399 86.2559C234.728 86.2559 235 86.3438 235.217 86.5195C235.439 86.6953 235.551 86.9531 235.551 87.293ZM233.494 89.9297H235.252V99H233.494V89.9297ZM237.432 94.4473C237.432 93.0234 237.886 91.8691 238.794 90.9844C239.644 90.1582 240.695 89.7451 241.949 89.7451C243.18 89.7451 244.208 90.1582 245.034 90.9844C245.913 91.8633 246.353 93.0176 246.353 94.4473C246.353 95.8711 245.91 97.0195 245.025 97.8926C244.188 98.7246 243.159 99.1406 241.94 99.1406C240.704 99.1406 239.655 98.7246 238.794 97.8926C237.886 97.0195 237.432 95.8711 237.432 94.4473ZM239.26 94.4473C239.26 95.9473 239.74 96.9668 240.701 97.5059C241.041 97.6934 241.448 97.7871 241.923 97.7871C242.397 97.7871 242.799 97.6934 243.127 97.5059C243.455 97.3125 243.725 97.0605 243.936 96.75C244.328 96.1523 244.524 95.3848 244.524 94.4473C244.524 92.959 244.053 91.9395 243.109 91.3887C242.781 91.1953 242.389 91.0986 241.932 91.0986C241.475 91.0986 241.076 91.1953 240.736 91.3887C240.402 91.5762 240.127 91.8252 239.91 92.1357C239.477 92.7451 239.26 93.5156 239.26 94.4473ZM252.602 91.3008C251.729 91.3008 250.952 91.5967 250.272 92.1885V99H248.515V89.9297H250.141L250.264 90.9141C251.219 90.1641 252.206 89.7891 253.226 89.7891C254.304 89.7891 255.095 90.1113 255.599 90.7559C256.126 91.4355 256.39 92.5312 256.39 94.043V99H254.632V94.043C254.632 92.5898 254.239 91.7227 253.454 91.4414C253.202 91.3477 252.918 91.3008 252.602 91.3008ZM264.432 94.4473C264.432 93.0234 264.886 91.8691 265.794 90.9844C266.644 90.1582 267.695 89.7451 268.949 89.7451C270.18 89.7451 271.208 90.1582 272.034 90.9844C272.913 91.8633 273.353 93.0176 273.353 94.4473C273.353 95.8711 272.91 97.0195 272.025 97.8926C271.188 98.7246 270.159 99.1406 268.94 99.1406C267.704 99.1406 266.655 98.7246 265.794 97.8926C264.886 97.0195 264.432 95.8711 264.432 94.4473ZM266.26 94.4473C266.26 95.9473 266.74 96.9668 267.701 97.5059C268.041 97.6934 268.448 97.7871 268.923 97.7871C269.397 97.7871 269.799 97.6934 270.127 97.5059C270.455 97.3125 270.725 97.0605 270.936 96.75C271.328 96.1523 271.524 95.3848 271.524 94.4473C271.524 92.959 271.053 91.9395 270.109 91.3887C269.781 91.1953 269.389 91.0986 268.932 91.0986C268.475 91.0986 268.076 91.1953 267.736 91.3887C267.402 91.5762 267.127 91.8252 266.91 92.1357C266.477 92.7451 266.26 93.5156 266.26 94.4473ZM280.12 87.2402C279.909 87.1699 279.616 87.1348 279.241 87.1348C278.866 87.1348 278.567 87.1699 278.345 87.2402C278.128 87.3105 277.955 87.4131 277.826 87.5479C277.604 87.7881 277.492 88.1807 277.492 88.7256V89.9297H279.76V91.2744H277.492V99H275.734V91.2744H274.645V90.4482L275.734 89.9297V88.9629C275.734 88.3477 275.787 87.8848 275.893 87.5742C276.004 87.2637 276.136 87.0059 276.288 86.8008C276.44 86.5957 276.646 86.417 276.903 86.2646C277.448 85.9424 278.213 85.7812 279.197 85.7812C279.607 85.7812 279.915 85.8047 280.12 85.8516V87.2402ZM290.781 97.6113C290.975 97.6816 291.268 97.7168 291.66 97.7168C292.053 97.7168 292.381 97.6699 292.645 97.5762V98.9824C292.521 99.0117 292.343 99.0293 292.108 99.0352L291.555 99.0527C291.432 99.0527 291.338 99.0527 291.273 99.0527C290.143 99.0527 289.308 98.6836 288.769 97.9453C288.335 97.3477 288.118 96.5566 288.118 95.5723V91.2744H286.817V90.4482L288.118 89.9297L288.54 87.6797H289.876V89.9297H292.688V91.2744H289.876V95.5635C289.876 96.7119 290.178 97.3945 290.781 97.6113ZM299.104 91.3008C298.237 91.3008 297.464 91.5967 296.784 92.1885V99H295.026V85.9219H296.784V90.9053C297.733 90.1611 298.715 89.7891 299.729 89.7891C300.812 89.7891 301.606 90.1113 302.11 90.7559C302.638 91.4355 302.901 92.5312 302.901 94.043V99H301.144V94.043C301.144 92.5898 300.748 91.7227 299.957 91.4414C299.705 91.3477 299.421 91.3008 299.104 91.3008ZM309.757 99.1406C306.44 99.1406 304.782 97.5205 304.782 94.2803C304.782 92.8857 305.242 91.7695 306.162 90.9316C306.988 90.1699 307.932 89.7891 308.992 89.7891C310.146 89.7891 311.049 90.1758 311.699 90.9492C312.303 91.6699 312.604 92.6338 312.604 93.8408V94.5264H306.61C306.61 96.1846 307.287 97.1982 308.641 97.5674C308.963 97.6553 309.458 97.6992 310.126 97.6992C310.8 97.6992 311.459 97.6084 312.104 97.4268V98.9121C311.459 99.0645 310.677 99.1406 309.757 99.1406ZM310.847 93.2344C310.847 92.6719 310.691 92.1973 310.381 91.8105C310.018 91.3652 309.517 91.1426 308.878 91.1426C308.204 91.1426 307.656 91.3564 307.234 91.7842C306.848 92.1826 306.654 92.666 306.654 93.2344H310.847ZM322.756 99.1406C322.023 99.1406 321.282 99.0879 320.532 98.9824V97.4268C321.294 97.6084 322.067 97.6992 322.853 97.6992C324.423 97.6992 325.208 97.3682 325.208 96.7061C325.208 96.4541 325.146 96.2666 325.023 96.1436C324.842 95.9502 324.555 95.7568 324.162 95.5635L322.879 94.9746C322.047 94.5586 321.508 94.2246 321.262 93.9727C320.799 93.5039 320.567 92.9473 320.567 92.3027C320.567 91.5762 320.904 90.9844 321.578 90.5273C322.305 90.0352 323.324 89.7891 324.637 89.7891C325.299 89.7891 325.967 89.8359 326.641 89.9297V91.4326C325.902 91.2979 325.258 91.2305 324.707 91.2305C324.162 91.2305 323.737 91.2656 323.433 91.3359C323.134 91.4062 322.908 91.4941 322.756 91.5996C322.516 91.7637 322.396 91.9775 322.396 92.2412C322.396 92.499 322.478 92.71 322.642 92.874C322.812 93.0322 323.075 93.2051 323.433 93.3926L324.725 94.0166C325.568 94.4561 326.11 94.793 326.351 95.0273C326.808 95.4727 327.036 96.0322 327.036 96.7061C327.036 97.4268 326.673 98.0068 325.946 98.4463C325.185 98.9092 324.121 99.1406 322.756 99.1406ZM333.769 99.1406C330.452 99.1406 328.794 97.5205 328.794 94.2803C328.794 92.8857 329.254 91.7695 330.174 90.9316C331 90.1699 331.943 89.7891 333.004 89.7891C334.158 89.7891 335.061 90.1758 335.711 90.9492C336.314 91.6699 336.616 92.6338 336.616 93.8408V94.5264H330.622C330.622 96.1846 331.299 97.1982 332.652 97.5674C332.975 97.6553 333.47 97.6992 334.138 97.6992C334.812 97.6992 335.471 97.6084 336.115 97.4268V98.9121C335.471 99.0645 334.688 99.1406 333.769 99.1406ZM334.858 93.2344C334.858 92.6719 334.703 92.1973 334.393 91.8105C334.029 91.3652 333.528 91.1426 332.89 91.1426C332.216 91.1426 331.668 91.3564 331.246 91.7842C330.859 92.1826 330.666 92.666 330.666 93.2344H334.858ZM342.637 91.3008C341.764 91.3008 340.987 91.5967 340.308 92.1885V99H338.55V89.9297H340.176L340.299 90.9141C341.254 90.1641 342.241 89.7891 343.261 89.7891C344.339 89.7891 345.13 90.1113 345.634 90.7559C346.161 91.4355 346.425 92.5312 346.425 94.043V99H344.667V94.043C344.667 92.5898 344.274 91.7227 343.489 91.4414C343.237 91.3477 342.953 91.3008 342.637 91.3008ZM350.433 90.9229C350.942 90.5303 351.514 90.2432 352.146 90.0615C352.785 89.8799 353.342 89.7891 353.816 89.7891C354.291 89.7891 354.657 89.8008 354.915 89.8242V85.9219H356.664V99H355.091L355.021 97.9541C354.663 98.4287 354.121 98.7803 353.395 99.0088C353.113 99.0967 352.826 99.1406 352.533 99.1406C352.246 99.1406 351.962 99.1113 351.681 99.0527C351.399 98.9941 351.118 98.8975 350.837 98.7627C350.562 98.6221 350.298 98.4404 350.046 98.2178C349.794 97.9893 349.568 97.7109 349.369 97.3828C348.947 96.6621 348.736 95.8096 348.736 94.8252C348.736 93.8408 348.892 93.0439 349.202 92.4346C349.519 91.8193 349.929 91.3154 350.433 90.9229ZM351.496 91.9688C351.197 92.25 350.966 92.6133 350.802 93.0586C350.644 93.498 350.564 94.0342 350.564 94.667C350.564 95.2939 350.641 95.8125 350.793 96.2227C350.945 96.627 351.136 96.9434 351.364 97.1719C351.769 97.582 352.255 97.7871 352.823 97.7871C353.556 97.7871 354.162 97.5176 354.643 96.9785C354.766 96.8438 354.854 96.7236 354.906 96.6182V91.2129L354.73 91.1953C354.461 91.1602 354.139 91.1426 353.764 91.1426C353.395 91.1426 352.999 91.21 352.577 91.3447C352.155 91.4736 351.795 91.6816 351.496 91.9688ZM363.792 99.1406C360.476 99.1406 358.817 97.5205 358.817 94.2803C358.817 92.8857 359.277 91.7695 360.197 90.9316C361.023 90.1699 361.967 89.7891 363.027 89.7891C364.182 89.7891 365.084 90.1758 365.734 90.9492C366.338 91.6699 366.64 92.6338 366.64 93.8408V94.5264H360.646C360.646 96.1846 361.322 97.1982 362.676 97.5674C362.998 97.6553 363.493 97.6992 364.161 97.6992C364.835 97.6992 365.494 97.6084 366.139 97.4268V98.9121C365.494 99.0645 364.712 99.1406 363.792 99.1406ZM364.882 93.2344C364.882 92.6719 364.727 92.1973 364.416 91.8105C364.053 91.3652 363.552 91.1426 362.913 91.1426C362.239 91.1426 361.691 91.3564 361.27 91.7842C360.883 92.1826 360.689 92.666 360.689 93.2344H364.882ZM374.339 91.5381C374.017 91.4443 373.63 91.3975 373.179 91.3975C372.733 91.3975 372.367 91.4443 372.08 91.5381C371.793 91.626 371.541 91.7344 371.324 91.8633C370.926 92.0977 370.636 92.3613 370.454 92.6543V99H368.696V89.9297H370.384L370.454 91.1865C370.894 90.6357 371.535 90.2227 372.379 89.9473C372.684 89.8418 373.032 89.7891 373.425 89.7891C373.817 89.7891 374.122 89.8184 374.339 89.877V91.5381ZM378.303 99.1406C377.57 99.1406 376.829 99.0879 376.079 98.9824V97.4268C376.841 97.6084 377.614 97.6992 378.399 97.6992C379.97 97.6992 380.755 97.3682 380.755 96.7061C380.755 96.4541 380.693 96.2666 380.57 96.1436C380.389 95.9502 380.102 95.7568 379.709 95.5635L378.426 94.9746C377.594 94.5586 377.055 94.2246 376.809 93.9727C376.346 93.5039 376.114 92.9473 376.114 92.3027C376.114 91.5762 376.451 90.9844 377.125 90.5273C377.852 90.0352 378.871 89.7891 380.184 89.7891C380.846 89.7891 381.514 89.8359 382.188 89.9297V91.4326C381.449 91.2979 380.805 91.2305 380.254 91.2305C379.709 91.2305 379.284 91.2656 378.979 91.3359C378.681 91.4062 378.455 91.4941 378.303 91.5996C378.062 91.7637 377.942 91.9775 377.942 92.2412C377.942 92.499 378.024 92.71 378.188 92.874C378.358 93.0322 378.622 93.2051 378.979 93.3926L380.271 94.0166C381.115 94.4561 381.657 94.793 381.897 95.0273C382.354 95.4727 382.583 96.0322 382.583 96.7061C382.583 97.4268 382.22 98.0068 381.493 98.4463C380.731 98.9092 379.668 99.1406 378.303 99.1406ZM393.121 87.293C393.121 87.627 393.01 87.8848 392.787 88.0664C392.57 88.2422 392.298 88.3301 391.97 88.3301C391.642 88.3301 391.369 88.2422 391.152 88.0664C390.941 87.8848 390.836 87.627 390.836 87.293C390.836 86.9531 390.941 86.6953 391.152 86.5195C391.369 86.3438 391.642 86.2559 391.97 86.2559C392.298 86.2559 392.57 86.3438 392.787 86.5195C393.01 86.6953 393.121 86.9531 393.121 87.293ZM391.064 89.9297H392.822V99H391.064V89.9297ZM396.962 90.9229C397.472 90.5303 398.043 90.2432 398.676 90.0615C399.314 89.8799 399.871 89.7891 400.346 89.7891C400.82 89.7891 401.187 89.8008 401.444 89.8242V85.9219H403.193V99H401.62L401.55 97.9541C401.192 98.4287 400.65 98.7803 399.924 99.0088C399.643 99.0967 399.355 99.1406 399.062 99.1406C398.775 99.1406 398.491 99.1113 398.21 99.0527C397.929 98.9941 397.647 98.8975 397.366 98.7627C397.091 98.6221 396.827 98.4404 396.575 98.2178C396.323 97.9893 396.098 97.7109 395.898 97.3828C395.477 96.6621 395.266 95.8096 395.266 94.8252C395.266 93.8408 395.421 93.0439 395.731 92.4346C396.048 91.8193 396.458 91.3154 396.962 90.9229ZM398.025 91.9688C397.727 92.25 397.495 92.6133 397.331 93.0586C397.173 93.498 397.094 94.0342 397.094 94.667C397.094 95.2939 397.17 95.8125 397.322 96.2227C397.475 96.627 397.665 96.9434 397.894 97.1719C398.298 97.582 398.784 97.7871 399.353 97.7871C400.085 97.7871 400.691 97.5176 401.172 96.9785C401.295 96.8438 401.383 96.7236 401.436 96.6182V91.2129L401.26 91.1953C400.99 91.1602 400.668 91.1426 400.293 91.1426C399.924 91.1426 399.528 91.21 399.106 91.3447C398.685 91.4736 398.324 91.6816 398.025 91.9688ZM410.321 99.1406C407.005 99.1406 405.347 97.5205 405.347 94.2803C405.347 92.8857 405.807 91.7695 406.727 90.9316C407.553 90.1699 408.496 89.7891 409.557 89.7891C410.711 89.7891 411.613 90.1758 412.264 90.9492C412.867 91.6699 413.169 92.6338 413.169 93.8408V94.5264H407.175C407.175 96.1846 407.852 97.1982 409.205 97.5674C409.527 97.6553 410.022 97.6992 410.69 97.6992C411.364 97.6992 412.023 97.6084 412.668 97.4268V98.9121C412.023 99.0645 411.241 99.1406 410.321 99.1406ZM411.411 93.2344C411.411 92.6719 411.256 92.1973 410.945 91.8105C410.582 91.3652 410.081 91.1426 409.442 91.1426C408.769 91.1426 408.221 91.3564 407.799 91.7842C407.412 92.1826 407.219 92.666 407.219 93.2344H411.411ZM419.189 91.3008C418.316 91.3008 417.54 91.5967 416.86 92.1885V99H415.103V89.9297H416.729L416.852 90.9141C417.807 90.1641 418.794 89.7891 419.813 89.7891C420.892 89.7891 421.683 90.1113 422.187 90.7559C422.714 91.4355 422.978 92.5312 422.978 94.043V99H421.22V94.043C421.22 92.5898 420.827 91.7227 420.042 91.4414C419.79 91.3477 419.506 91.3008 419.189 91.3008ZM428.875 97.6113C429.068 97.6816 429.361 97.7168 429.754 97.7168C430.146 97.7168 430.475 97.6699 430.738 97.5762V98.9824C430.615 99.0117 430.437 99.0293 430.202 99.0352L429.648 99.0527C429.525 99.0527 429.432 99.0527 429.367 99.0527C428.236 99.0527 427.401 98.6836 426.862 97.9453C426.429 97.3477 426.212 96.5566 426.212 95.5723V91.2744H424.911V90.4482L426.212 89.9297L426.634 87.6797H427.97V89.9297H430.782V91.2744H427.97V95.5635C427.97 96.7119 428.271 97.3945 428.875 97.6113ZM435.168 87.293C435.168 87.627 435.057 87.8848 434.834 88.0664C434.617 88.2422 434.345 88.3301 434.017 88.3301C433.688 88.3301 433.416 88.2422 433.199 88.0664C432.988 87.8848 432.883 87.627 432.883 87.293C432.883 86.9531 432.988 86.6953 433.199 86.5195C433.416 86.3438 433.688 86.2559 434.017 86.2559C434.345 86.2559 434.617 86.3438 434.834 86.5195C435.057 86.6953 435.168 86.9531 435.168 87.293ZM433.111 89.9297H434.869V99H433.111V89.9297ZM440.898 97.6113C441.092 97.6816 441.385 97.7168 441.777 97.7168C442.17 97.7168 442.498 97.6699 442.762 97.5762V98.9824C442.639 99.0117 442.46 99.0293 442.226 99.0352L441.672 99.0527C441.549 99.0527 441.455 99.0527 441.391 99.0527C440.26 99.0527 439.425 98.6836 438.886 97.9453C438.452 97.3477 438.235 96.5566 438.235 95.5723V91.2744H436.935V90.4482L438.235 89.9297L438.657 87.6797H439.993V89.9297H442.806V91.2744H439.993V95.5635C439.993 96.7119 440.295 97.3945 440.898 97.6113ZM444.766 101.25C444.924 101.297 445.138 101.32 445.407 101.32C445.683 101.32 445.964 101.265 446.251 101.153C446.538 101.048 446.787 100.898 446.998 100.705C447.35 100.389 447.669 99.8906 447.956 99.2109L444.229 89.9297H446.102L448.721 97.1543L451.067 89.9297H452.922L449.195 100.116C448.914 100.878 448.524 101.461 448.026 101.865C447.37 102.393 446.494 102.656 445.398 102.656C445.299 102.656 445.196 102.65 445.091 102.639L444.766 102.604V101.25Z" fill="#090A0E"/>
<defs>
<filter id="filter0_d_4529_34072" x="0" y="0" width="612" height="137" filterUnits="userSpaceOnUse" color-interpolation-filters="sRGB">
<feFlood flood-opacity="0" result="BackgroundImageFix"/>
<feColorMatrix in="SourceAlpha" type="matrix" values="0 0 0 0 0 0 0 0 0 0 0 0 0 0 0 0 0 0 127 0" result="hardAlpha"/>
<feOffset dy="3"/>
<feGaussianBlur stdDeviation="3"/>
<feColorMatrix type="matrix" values="0 0 0 0 0 0 0 0 0 0 0 0 0 0 0 0 0 0 0.15 0"/>
<feBlend mode="normal" in2="BackgroundImageFix" result="effect1_dropShadow_4529_34072"/>
<feBlend mode="normal" in="SourceGraphic" in2="effect1_dropShadow_4529_34072" result="shape"/>
</filter>
</defs>
</svg>
