<svg width="173" height="70" viewBox="0 0 173 70" fill="none" xmlns="http://www.w3.org/2000/svg">
<rect width="165" height="64" rx="32" fill="#090A0E"/>
<rect x="8.5" y="6.5" width="164" height="63" rx="31.5" stroke="#090A0E"/>
<path d="M59.5239 29.043V38.0811H57.6196V29.043H54.2065V27.3511H63.0908V29.043H59.5239ZM67.229 31.9434C66.9019 31.7285 66.543 31.6211 66.1523 31.6211C65.7275 31.6211 65.3491 31.814 65.0171 32.1997C64.6899 32.5854 64.5264 33.0566 64.5264 33.6133V38.0811H62.6953V30.2368H64.5264V30.9546C65.0391 30.3784 65.7202 30.0903 66.5698 30.0903C67.1948 30.0903 67.6733 30.1855 68.0054 30.376L67.229 31.9434ZM72.583 39.3408C72.3877 39.8633 71.9678 40.2954 71.3232 40.6372C70.6836 40.9839 69.9365 41.1572 69.082 41.1572V39.5386C70.4932 39.5386 71.1987 39.1846 71.1987 38.4766C71.1987 38.0078 71.0034 37.29 70.6128 36.3232L68.1592 30.2368H70.0562L72.1948 35.6567L74.1211 30.2368H76.0181L72.583 39.3408ZM88.7988 38.2275L83.5913 31.438V38.0884H81.7603V27.3511H82.6758L87.7441 33.8257V27.3511H89.5752V38.2275H88.7988ZM91.1572 34.1406C91.1572 32.9443 91.5015 31.9702 92.1899 31.2183C92.8833 30.4663 93.7964 30.0903 94.9292 30.0903C96.1206 30.0903 97.0459 30.4517 97.7051 31.1743C98.3643 31.897 98.6938 32.8857 98.6938 34.1406C98.6938 35.3906 98.3569 36.3843 97.6831 37.1216C97.0142 37.8589 96.0962 38.2275 94.9292 38.2275C93.7378 38.2275 92.8101 37.8564 92.146 37.1143C91.4868 36.3672 91.1572 35.376 91.1572 34.1406ZM93.0615 34.1406C93.0615 35.8691 93.6841 36.7334 94.9292 36.7334C95.5005 36.7334 95.9521 36.5088 96.2842 36.0596C96.6211 35.6104 96.7896 34.9707 96.7896 34.1406C96.7896 32.4365 96.1694 31.5845 94.9292 31.5845C94.3579 31.5845 93.9038 31.8091 93.5669 32.2583C93.23 32.7075 93.0615 33.335 93.0615 34.1406ZM107.871 38.2275H107.205L105.051 33.4082L102.905 38.2275H102.231L99.2725 30.2368H101.199L102.773 34.917L104.692 30.2368H105.352L107.336 34.9463L109.036 30.2368H110.837L107.871 38.2275Z" fill="white"/>
</svg>
